<?xml version="1.0" encoding="UTF-8" standalone="no"?>
<!-- Created with Inkscape (http://www.inkscape.org/) -->

<svg
   xmlns:dc="http://purl.org/dc/elements/1.1/"
   xmlns:cc="http://creativecommons.org/ns#"
   xmlns:rdf="http://www.w3.org/1999/02/22-rdf-syntax-ns#"
   xmlns:svg="http://www.w3.org/2000/svg"
   xmlns="http://www.w3.org/2000/svg"
   xmlns:sodipodi="http://sodipodi.sourceforge.net/DTD/sodipodi-0.dtd"
   xmlns:inkscape="http://www.inkscape.org/namespaces/inkscape"
   width="53.542542mm"
   height="50.632393mm"
   viewBox="0 0 53.542542 50.632393"
   version="1.1"
   id="svg8"
   inkscape:version="0.92.3 (2405546, 2018-03-11)"
   sodipodi:docname="abstract_act_cat.svg"
   inkscape:export-filename="/home/sebastian/projects/YinYangFit/docs/img/abstract_act_cat.png"
   inkscape:export-xdpi="299.81393"
   inkscape:export-ydpi="299.81393">
  <defs
     id="defs2">
    <style
       id="style448"
       type="text/css">
   <![CDATA[
    .str0 {stroke:#F1E900;stroke-width:0;stroke-linejoin:bevel}
    .str1 {stroke:#DA251D;stroke-width:111;stroke-linejoin:bevel}
    .fil1 {fill:none}
    .fil0 {fill:#1F1A17}
   ]]>
  </style>
    <filter
       inkscape:collect="always"
       style="color-interpolation-filters:sRGB"
       id="filter6938"
       x="-0.076942138"
       width="1.1538843"
       y="-0.18617356"
       height="1.3723471">
      <feGaussianBlur
         inkscape:collect="always"
         stdDeviation="1.959004"
         id="feGaussianBlur6940" />
    </filter>
    <filter
       inkscape:collect="always"
       style="color-interpolation-filters:sRGB"
       id="filter7210"
       x="-0.023878595"
       width="1.0477571"
       y="-0.057778001"
       height="1.115556">
      <feGaussianBlur
         inkscape:collect="always"
         stdDeviation="0.60796674"
         id="feGaussianBlur7212" />
    </filter>
    <filter
       inkscape:collect="always"
       style="color-interpolation-filters:sRGB"
       id="filter7682"
       x="-0.034172192"
       width="1.0683444"
       y="-0.11607352"
       height="1.232147">
      <feGaussianBlur
         inkscape:collect="always"
         stdDeviation="1.2125627"
         id="feGaussianBlur7684" />
    </filter>
    <filter
       inkscape:collect="always"
       style="color-interpolation-filters:sRGB"
       id="filter7749"
       x="-0.02169938"
       width="1.0433989"
       y="-0.074407287"
       height="1.1488146">
      <feGaussianBlur
         inkscape:collect="always"
         stdDeviation="0.7829478"
         id="feGaussianBlur7751" />
    </filter>
    <filter
       inkscape:collect="always"
       style="color-interpolation-filters:sRGB"
       id="filter7825"
       x="-0.070522986"
       width="1.141046"
       y="-0.24182369"
       height="1.4836473">
      <feGaussianBlur
         inkscape:collect="always"
         stdDeviation="2.5445803"
         id="feGaussianBlur7827" />
    </filter>
  </defs>
  <sodipodi:namedview
     id="base"
     pagecolor="#ffffff"
     bordercolor="#666666"
     borderopacity="1.0"
     inkscape:pageopacity="0.0"
     inkscape:pageshadow="2"
     inkscape:zoom="1.979899"
     inkscape:cx="-40.301971"
     inkscape:cy="61.79057"
     inkscape:document-units="mm"
     inkscape:current-layer="layer1"
     showgrid="false"
     showguides="true"
     inkscape:guide-bbox="true"
     inkscape:window-width="2560"
     inkscape:window-height="1401"
     inkscape:window-x="0"
     inkscape:window-y="19"
     inkscape:window-maximized="1"
     fit-margin-top="0"
     fit-margin-left="0"
     fit-margin-right="0"
     fit-margin-bottom="3" />
  <metadata
     id="metadata5">
    <rdf:RDF>
      <cc:Work
         rdf:about="">
        <dc:format>image/svg+xml</dc:format>
        <dc:type
           rdf:resource="http://purl.org/dc/dcmitype/StillImage" />
        <dc:title></dc:title>
      </cc:Work>
    </rdf:RDF>
  </metadata>
  <g
     inkscape:label="Layer 1"
     inkscape:groupmode="layer"
     id="layer1"
     transform="translate(-19.86468,-54.955538)">
    <flowRoot
       xml:space="preserve"
       id="flowRoot10"
       style="font-style:normal;font-weight:normal;font-size:40px;line-height:1.25;font-family:sans-serif;letter-spacing:0px;word-spacing:0px;fill:#000000;fill-opacity:1;stroke:none"
       transform="matrix(0.26458333,0,0,0.26458333,-3.8085906,-48.108514)"><flowRegion
         id="flowRegion12"><rect
           id="rect14"
           width="557.60419"
           height="167.68532"
           x="95.964493"
           y="531.58044" /></flowRegion><flowPara
         id="flowPara16"
         style="font-style:normal;font-variant:normal;font-weight:normal;font-stretch:normal;font-family:Neuton;-inkscape-font-specification:Neuton;letter-spacing:5.41000271px"><flowSpan
   style="letter-spacing:10.92999744px"
   id="flowSpan18">C</flowSpan><flowSpan
   id="flowSpan268"
   style="letter-spacing:7.99000406px">A</flowSpan>T</flowPara></flowRoot>    <flowRoot
       xml:space="preserve"
       id="flowRoot10-0"
       style="font-style:normal;font-weight:normal;font-size:40px;line-height:1.25;font-family:sans-serif;letter-spacing:0px;word-spacing:0px;fill:#000000;fill-opacity:1;stroke:none"
       transform="matrix(0.26458333,0,0,0.26458333,28.203512,-48.108514)"><flowRegion
         id="flowRegion12-8"><rect
           id="rect14-1"
           width="557.60419"
           height="167.68532"
           x="95.964493"
           y="531.58044" /></flowRegion><flowPara
         id="flowPara16-2"
         style="font-style:normal;font-variant:normal;font-weight:normal;font-stretch:normal;font-family:Neuton;-inkscape-font-specification:Neuton;letter-spacing:0px"><flowSpan
           style="letter-spacing:-1.18000007px"
           id="flowSpan156">C</flowSpan><flowSpan
           id="flowSpan196"
           style="letter-spacing:-5.3900013px">AT</flowSpan></flowPara></flowRoot>    <path
       id="path466"
       d="m 19.92574,78.766989 0.05609,-0.0314 0.05382,-0.0314 0.05606,-0.03365 0.05385,-0.03364 0.05606,-0.04037 0.05382,-0.03813 0.05609,-0.04262 0.05383,-0.0471 0.05383,-0.0471 0.05609,-0.04935 0.05383,-0.05159 0.05609,-0.05832 0.05383,-0.05607 0.05606,-0.0628 0.05385,-0.0628 0.05606,-0.06953 0.05382,-0.07177 0.05609,-0.07402 0.05383,-0.0785 0.05609,-0.08075 0.05383,-0.08523 0.05606,-0.08972 0.05385,-0.0942 0.05606,-0.09645 0.05383,-0.09869 0.05609,-0.105422 0.05382,-0.109904 0.05609,-0.11215 0.05383,-0.118877 0.05382,-0.118879 0.05609,-0.125608 0.05383,-0.127848 0.05606,-0.13458 0.05385,-0.134579 0.05606,-0.141306 0.05383,-0.148038 0.05609,-0.148037 0.05383,-0.152524 0.05609,-0.154766 0.05382,-0.163735 0.05606,-0.161495 0.05385,-0.170467 0.05606,-0.170467 0.05383,-0.170467 0.05609,-0.179439 0.05383,-0.179439 0.05609,-0.183924 0.05383,-0.181682 0.05606,-0.188411 0.05385,-0.18841 0.05382,-0.190654 0.05606,-0.192896 0.05385,-0.195139 0.05606,-0.192897 0.05383,-0.195139 0.05609,-0.197383 0.05383,-0.195139 0.05609,-0.197382 0.05383,-0.192897 0.05606,-0.195139 0.05385,-0.190654 0.05606,-0.190653 0.05383,-0.192897 0.05609,-0.183924 0.05383,-0.186168 0.05609,-0.179439 0.05383,-0.181681 0.05606,-0.172708 0.05385,-0.170467 0.05606,-0.165981 0.05383,-0.159252 0.05385,-0.157009 0.05606,-0.152523 0.05383,-0.143549 0.05609,-0.139066 0.05382,-0.132337 0.05609,-0.125608 0.05383,-0.116633 0.05606,-0.114393 0.05385,-0.100933 0.05606,-0.09645 0.05383,-0.08972 0.05609,-0.07851 0.05383,-0.07177 0.05609,-0.0628 0.05382,-0.05383 0.05609,-0.0471 0.05383,-0.03589 0.05606,-0.02692 0.05383,-0.01794 0.05609,-0.009 h 0.05159 l 0.05382,0.009 0.05609,0.01794 0.05383,0.02692 0.05606,0.03589 0.05385,0.0471 0.05606,0.05383 0.05383,0.0628 0.05609,0.07177 0.05383,0.07851 0.05609,0.08972 0.05382,0.09645 0.05383,0.100933 0.05609,0.114393 0.05382,0.116633 0.05606,0.125608 0.05385,0.132337 0.05606,0.139066 0.05383,0.143549 0.05609,0.152523 0.05383,0.157009 0.05609,0.159252 0.05383,0.165981 0.05609,0.170467 0.05383,0.172708 0.05606,0.181681 0.05382,0.179439 0.05609,0.186168 0.05383,0.183924 0.05609,0.192897 0.05383,0.190653 0.05609,0.190654 0.05382,0.195139 0.05383,0.192897 0.05609,0.197382 0.05382,0.195139 0.05606,0.197383 0.05385,0.195139 0.05606,0.192897 0.05383,0.195139 0.05609,0.192896 0.05383,0.190654 0.05609,0.18841 0.05383,0.188411 0.05606,0.181682 0.05385,0.183924 0.05606,0.179439 0.05382,0.179439 0.05609,0.170467 0.05383,0.170467 0.05609,0.170467 0.05383,0.161495 0.05606,0.163735 0.05385,0.154766 0.05383,0.152524 0.05606,0.148037 0.05385,0.148038 0.05606,0.141306 0.05383,0.134579 0.05609,0.13458 0.05382,0.127848 0.05609,0.125608 0.05383,0.118879 0.05606,0.118877 0.05385,0.11215 0.05606,0.109904 0.05383,0.105422 0.05609,0.09869 0.05383,0.09645 0.05609,0.0942 0.05382,0.08972 0.05606,0.08523 0.05385,0.08075 0.05606,0.0785 0.05383,0.07402 0.05385,0.07177 0.05606,0.06953 0.05383,0.0628 0.05609,0.0628 0.05383,0.05607 0.05609,0.05832 0.05382,0.05159 0.05606,0.04935 0.05385,0.0471 0.05606,0.0471 0.05382,0.04262 0.05609,0.03813 0.05383,0.04037 0.05609,0.03364 0.05383,0.03365 0.05606,0.0314 0.05385,0.0314 0.05606,0.02692 0.05383,0.02692 0.05609,0.02467 0.05383,0.02243 0.05382,0.02243 0.05609,0.01795 0.05383,0.02243 0.05609,0.0157 0.05159,0.01346 0.05606,0.0157 0.05382,0.0157 0.05609,0.01346 0.05383,0.01122 0.05609,0.01346 0.05383,0.009 0.05606,0.01121 0.05385,0.009 0.05383,0.0067 0.05606,0.009 0.05385,0.0067 0.05606,0.0045 0.05383,0.009 0.05609,0.0045 0.05383,0.0067 0.05609,0.0045 0.05383,0.0022 0.05606,0.0045 0.05385,0.0045 0.05606,0.0022 0.05383,0.0045 0.05609,0.0022 0.05382,0.0022 0.05609,0.0045 h 0.05383 l 0.05606,0.0022 0.05385,0.0022 h 0.05606 l 0.05383,0.0022 h 0.05385 l 0.05606,0.0022 h 0.05383 l 0.05609,0.0022 h 0.05383 0.05609 l 0.05383,0.0045 h 0.05606 0.05385 0.05606 0.05383 l 0.05609,0.0022 h 0.05383 0.05609 0.05383 0.05606 0.05385 0.05606 0.05382 0.05609"
       class="fil1 str1"
       inkscape:connector-curvature="0"
       style="fill:none;fill-rule:evenodd;stroke:#000000;stroke-width:0.25;stroke-linejoin:bevel;image-rendering:optimizeQuality;shape-rendering:geometricPrecision;text-rendering:geometricPrecision"
       sodipodi:nodetypes="cccccccccccccccccccccccccccccccccccccccccccccccccccccccccccccccccccccccccccccccccccccccccccccccccccccccccccccccccccccccccccccccccccccccccccccccccccccccccccccccccccccccccccccccccccccccccccccccccccccccccccccccccccccccccccccccccccccccccccccccccc" />
    <path
       id="path466-0"
       d="m 25.164079,79.154615 v 0 h 0.05383 0.05609 0.05383 0.05609 0.05383 0.05606 0.05382 0.05609 l 0.05383,-0.0022 h 0.05382 0.05609 0.05383 0.05609 l 0.05383,-0.0045 h 0.05609 0.05382 l 0.05606,-0.0022 h 0.05385 l 0.05606,-0.0022 h 0.05383 l 0.05609,-0.0022 h 0.05383 l 0.05609,-0.0022 0.05383,-0.0022 h 0.05606 l 0.05385,-0.0045 0.05606,-0.0022 0.05383,-0.0022 0.05609,-0.0045 0.05383,-0.0022 0.05382,-0.0045 0.05609,-0.0045 0.05383,-0.0022 0.05609,-0.0045 0.05383,-0.0067 0.05606,-0.0045 0.05385,-0.009 0.05606,-0.0045 0.05383,-0.0067 0.05609,-0.009 0.05382,-0.0067 0.05609,-0.009 0.05383,-0.01122 0.05606,-0.009 0.05385,-0.01346 0.05606,-0.01122 0.05383,-0.01345 0.05609,-0.0157 0.05383,-0.0157 0.05159,-0.01346 0.05609,-0.0157 0.05383,-0.02243 0.05606,-0.01795 0.05385,-0.02243 0.05606,-0.02243 0.05383,-0.02467 0.05609,-0.02692 0.05383,-0.02692 0.05609,-0.0314 0.05383,-0.0314 0.05606,-0.03365 0.05385,-0.03364 0.05606,-0.04037 0.05383,-0.03813 0.05609,-0.04262 0.05383,-0.0471 0.05383,-0.0471 0.05609,-0.04935 0.05383,-0.05159 0.05609,-0.05832 0.05382,-0.05607 0.05606,-0.0628 0.05385,-0.0628 0.05606,-0.06953 0.05383,-0.07177 0.05609,-0.07402 0.05383,-0.0785 0.05609,-0.08075 0.05383,-0.08523 0.05606,-0.08972 0.05385,-0.0942 0.05606,-0.09645 0.05382,-0.09869 0.05609,-0.105421 0.05383,-0.109905 0.05609,-0.11215 0.05383,-0.118876 0.05383,-0.118879 0.05609,-0.125608 0.05383,-0.127848 0.05606,-0.13458 0.05385,-0.13458 0.05606,-0.141306 0.05383,-0.148037 0.05609,-0.148038 0.05383,-0.152523 0.05609,-0.154766 0.05383,-0.163736 0.05606,-0.161495 0.05385,-0.170467 0.05606,-0.170467 0.05383,-0.170467 0.05609,-0.179438 0.05382,-0.179439 0.05609,-0.183925 0.05383,-0.181681 0.05606,-0.188411 0.05385,-0.188411 0.05383,-0.190653 0.05606,-0.192896 0.05385,-0.19514 0.05606,-0.192896 0.05383,-0.19514 0.05609,-0.197382 0.05383,-0.195139 0.05609,-0.197383 0.05382,-0.192896 0.05606,-0.19514 0.05385,-0.190653 0.05606,-0.190654 0.05383,-0.192896 0.05609,-0.183925 0.05383,-0.186167 0.05609,-0.179439 0.05383,-0.181682 0.05606,-0.172707 0.05385,-0.170467 0.05606,-0.165981 0.05383,-0.159252 0.05385,-0.157009 0.05606,-0.152524 0.05382,-0.143549 0.05609,-0.139065 0.05383,-0.132337 0.05609,-0.125608 0.05383,-0.116633 0.05606,-0.114394 0.05385,-0.100932 0.05606,-0.09645 0.05383,-0.08972 0.05609,-0.07851 0.05383,-0.07177 0.05609,-0.0628 0.05383,-0.05383 0.05609,-0.0471 0.05383,-0.03589 0.05606,-0.02692 0.05383,-0.01794 0.05609,-0.009 h 0.05159 l 0.05383,0.009 0.05609,0.01794 0.05383,0.02692 0.05606,0.03589 0.05385,0.0471 0.05606,0.05383 0.05383,0.0628 0.05609,0.07177 0.05383,0.07851 0.05609,0.08972 0.05383,0.09645 0.05383,0.100932 0.05609,0.114394 0.05383,0.116633 0.05606,0.125608 0.05385,0.132337 0.05606,0.139065 0.05383,0.143549 0.05609,0.152524 0.05383,0.157009 0.05609,0.159252 0.05383,0.165981 0.05609,0.170467 0.05383,0.172707 0.05606,0.181682 0.05383,0.179439 0.05609,0.186167 0.05383,0.183925 0.05609,0.192896 0.05383,0.190654 0.05609,0.190653 0.05383,0.19514 0.05382,0.192896 0.05609,0.197383 0.05383,0.195139 0.05606,0.197382 0.05385,0.19514 0.05606,0.192896 0.05383,0.19514 0.05609,0.192896 0.05383,0.190653 0.05609,0.188411 0.05383,0.188411 0.05606,0.181681 0.05385,0.183925 0.05606,0.179439 0.05383,0.179438 0.05609,0.170467 0.05383,0.170467 0.05609,0.170467 0.05383,0.161495 0.05606,0.163736 0.05385,0.154766 0.05383,0.152523 0.05606,0.148038 0.05385,0.148037 0.05606,0.141306 0.05383,0.13458 0.05609,0.13458 0.05383,0.127848 0.05609,0.125608 0.05383,0.118879 0.05606,0.118876 0.05385,0.11215 0.05606,0.109905 0.05383,0.105421 0.05609,0.09869 0.05383,0.09645 0.05609,0.0942 0.05383,0.08972 0.05606,0.08523 0.05385,0.08075 0.05606,0.0785 0.05383,0.07402 0.05385,0.07177 0.05606,0.06953 0.05383,0.0628 0.05609,0.0628 0.05383,0.05607 0.05609,0.05832 0.05383,0.05159 0.05606,0.04935 0.05385,0.0471 0.05606,0.0471 0.05383,0.04262 0.05609,0.03813 0.05383,0.04037 0.05609,0.03364 0.05382,0.03365 0.05606,0.0314 0.05385,0.0314 0.05606,0.02692 0.05383,0.02692 0.05609,0.02467 0.05383,0.02243 0.05383,0.02243 0.05609,0.01795 0.05383,0.02243 0.05609,0.0157 0.05159,0.01346 0.05606,0.0157 0.05383,0.0157 0.05609,0.01345 0.05383,0.01122 0.05609,0.01346 0.05382,0.009 0.05606,0.01122 0.05385,0.009 0.05383,0.0067 0.05606,0.009 0.05385,0.0067 0.05606,0.0045 0.05383,0.009 0.05609,0.0045 0.05383,0.0067 0.05609,0.0045 0.05383,0.0022 0.05606,0.0045 0.05385,0.0045 0.05606,0.0022 0.05382,0.0045 0.05609,0.0022 0.05383,0.0022 0.05609,0.0045 h 0.05383 l 0.05606,0.0022 0.05385,0.0022 h 0.05606 l 0.05383,0.0022 h 0.05385 l 0.05606,0.0022 h 0.05383 l 0.05609,0.0022 h 0.05383 0.05609 l 0.05383,0.0045 h 0.05606 0.05385 0.05606 0.05383 l 0.05609,0.0022 h 0.05383 0.05609 0.05383 0.05606 0.05385 0.05606 0.05383 0.05609"
       class="fil1 str1"
       inkscape:connector-curvature="0"
       style="fill:none;fill-rule:evenodd;stroke:#000000;stroke-width:0.25;stroke-linejoin:bevel;image-rendering:optimizeQuality;shape-rendering:geometricPrecision;text-rendering:geometricPrecision" />
    <path
       id="path466-0-4"
       d="m 33.716706,79.154574 v 0 h 0.05383 0.05609 0.05383 0.05609 0.05383 0.05606 0.05383 0.05609 l 0.05383,-0.0022 h 0.05383 0.05609 0.05383 0.05609 l 0.05383,-0.0045 h 0.05609 0.05383 l 0.05606,-0.0022 h 0.05385 l 0.05606,-0.0022 h 0.05383 l 0.05609,-0.0022 h 0.05382 l 0.05609,-0.0022 0.05383,-0.0022 h 0.05606 l 0.05385,-0.0045 0.05606,-0.0022 0.05383,-0.0022 0.05609,-0.0045 0.05383,-0.0022 0.05383,-0.0045 0.05609,-0.0045 0.05383,-0.0022 0.05609,-0.0045 0.05383,-0.0067 0.05606,-0.0045 0.05385,-0.009 0.05606,-0.0045 0.05383,-0.0067 0.05609,-0.009 0.05383,-0.0067 0.05609,-0.009 0.05382,-0.01122 0.05606,-0.009 0.05385,-0.01346 0.05606,-0.01122 0.05383,-0.01345 0.05609,-0.0157 0.05383,-0.0157 0.05159,-0.01346 0.05609,-0.0157 0.05383,-0.02243 0.05606,-0.01795 0.05385,-0.02243 0.05606,-0.02243 0.05383,-0.02467 0.05609,-0.02692 0.05383,-0.02692 0.05609,-0.0314 0.05383,-0.0314 0.05606,-0.03365 0.05385,-0.03364 0.05606,-0.04037 0.05383,-0.03813 0.05609,-0.04262 0.05383,-0.04711 0.05383,-0.0471 0.05609,-0.04935 0.05383,-0.05159 0.05609,-0.05832 0.05383,-0.05607 0.05606,-0.0628 0.05385,-0.0628 0.05606,-0.06953 0.05382,-0.07178 0.05609,-0.07402 0.05383,-0.0785 0.05609,-0.08075 0.05383,-0.08523 0.05606,-0.08972 0.05385,-0.0942 0.05606,-0.09645 0.05383,-0.09869 0.05609,-0.105422 0.05383,-0.109904 0.05609,-0.11215 0.05383,-0.118877 0.05382,-0.118879 0.05609,-0.125608 0.05383,-0.127848 0.05606,-0.13458 0.05385,-0.134579 0.05606,-0.141306 0.05383,-0.148038 0.05609,-0.148037 0.05383,-0.152524 0.05609,-0.154766 0.05383,-0.163735 0.05606,-0.161495 0.05385,-0.170467 0.05606,-0.170467 0.05383,-0.170467 0.05609,-0.179439 0.05383,-0.179439 0.05609,-0.183924 0.05383,-0.181682 0.05606,-0.188413 0.05385,-0.188408 0.05382,-0.190656 0.05606,-0.192894 0.05385,-0.195139 0.05606,-0.192897 0.05383,-0.195139 0.05609,-0.197383 0.05383,-0.195139 0.05609,-0.197382 0.05383,-0.192897 0.05606,-0.195139 0.05385,-0.190654 0.05606,-0.190653 0.05383,-0.192897 0.05609,-0.183924 0.05383,-0.186168 0.05609,-0.179439 0.05383,-0.181681 0.05606,-0.172708 0.05385,-0.170467 0.05606,-0.165981 0.05383,-0.159252 0.05385,-0.157009 0.05606,-0.152523 0.05383,-0.143549 0.05609,-0.139066 0.05383,-0.132337 0.05609,-0.125608 0.05383,-0.116633 0.05606,-0.114393 0.05385,-0.100933 0.05606,-0.09645 0.05383,-0.08972 0.05609,-0.07851 0.05383,-0.07177 0.05609,-0.0628 0.05382,-0.05383 0.05609,-0.0471 0.05383,-0.03589 0.05606,-0.02692 0.05383,-0.01794 0.05609,-0.009 h 0.05159 l 0.05383,0.009 0.05609,0.01794 0.05383,0.02692 0.05606,0.03589 0.05385,0.0471 0.05606,0.05383 0.05383,0.0628 0.05609,0.07177 0.05383,0.07851 0.05609,0.08972 0.05382,0.09645 0.05383,0.100933 0.05609,0.114393 0.05383,0.116633 0.05606,0.125608 0.05385,0.132337 0.05606,0.139066 0.05383,0.143549 0.05609,0.152523 0.05383,0.157009 0.05609,0.159252 0.05383,0.165981 0.05609,0.170467 0.05382,0.172708 0.05606,0.181681 0.05382,0.179439 0.05609,0.186168 0.05383,0.183924 0.05609,0.192897 0.05383,0.190653 0.05609,0.190654 0.05383,0.195139 0.05383,0.192897 0.05609,0.197382 0.05383,0.195139 0.05606,0.197383 0.05385,0.195139 0.05606,0.192897 0.05383,0.195139 0.05609,0.192894 0.05383,0.190656 0.05609,0.188408 0.05383,0.188413 0.05606,0.181682 0.05385,0.183924 0.05606,0.179439 0.05383,0.179439 0.05609,0.170467 0.05383,0.170467 0.05609,0.170467 0.05383,0.161495 0.05606,0.163735 0.05385,0.154766 0.05383,0.152524 0.05606,0.148037 0.05385,0.148038 0.05606,0.141306 0.05383,0.134579 0.05609,0.13458 0.05383,0.127848 0.05609,0.125608 0.05383,0.118879 0.05606,0.118877 0.05385,0.11215 0.05606,0.109904 0.05383,0.105422 0.05609,0.09869 0.05383,0.09645 0.05609,0.0942 0.05382,0.08972 0.05606,0.08523 0.05385,0.08075 0.05606,0.0785 0.05383,0.07402 0.05385,0.07178 0.05606,0.06953 0.05383,0.0628 0.05609,0.0628 0.05383,0.05607 0.05609,0.05832 0.05383,0.05159 0.05606,0.04935 0.05385,0.0471 0.05606,0.04711 0.05382,0.04262 0.05609,0.03813 0.05383,0.04037 0.05609,0.03364 0.05383,0.03365 0.05606,0.0314 0.05385,0.0314 0.05606,0.02692 0.05383,0.02692 0.05609,0.02467 0.05383,0.02243 0.05383,0.02243 0.05609,0.01795 0.05383,0.02243 0.05609,0.0157 0.05159,0.01346 0.05606,0.0157 0.05382,0.0157 0.05609,0.01345 0.05383,0.01122 0.05609,0.01346 0.05383,0.009 0.05606,0.01122 0.05385,0.009 0.05383,0.0067 0.05606,0.009 0.05385,0.0067 0.05606,0.0045"
       class="fil1 str1"
       inkscape:connector-curvature="0"
       style="fill:none;fill-rule:evenodd;stroke:#000000;stroke-width:0.25;stroke-linejoin:bevel;image-rendering:optimizeQuality;shape-rendering:geometricPrecision;text-rendering:geometricPrecision"
       sodipodi:nodetypes="cccccccccccccccccccccccccccccccccccccccccccccccccccccccccccccccccccccccccccccccccccccccccccccccccccccccccccccccccccccccccccccccccccccccccccccccccccccccccccccccccccccccccccccccccccccccccccccccccccccccccccccccccccccccccccccccccccccccccccccccccccccccccccccccccccccccc" />
    <path
       id="path466-2"
       d="m 50.537247,79.117448 0.05383,-0.0035 0.05609,-0.0035 0.05383,-0.0018 0.05609,-0.0035 0.05383,-0.0052 0.05606,-0.0035 0.05385,-0.0069 0.05606,-0.0035 0.05383,-0.0052 0.05609,-0.0069 0.05383,-0.0052 0.05609,-0.0069 0.05383,-0.0087 0.05606,-0.0069 0.05385,-0.01036 0.05606,-0.0087 0.05383,-0.01036 0.05609,-0.01215 0.05383,-0.01215 0.05159,-0.01036 0.05609,-0.01215 0.05383,-0.01731 0.05606,-0.01385 0.05385,-0.0173 0.05606,-0.0173 0.05383,-0.01904 0.05609,-0.02077 0.05383,-0.02077 0.05609,-0.02423 0.05383,-0.02423 0.05606,-0.02596 0.05385,-0.02596 0.05606,-0.03117 0.05383,-0.02941 0.05609,-0.03289 0.05383,-0.03634 0.05383,-0.03635 0.05609,-0.03808 0.05383,-0.03981 0.05609,-0.045 0.05383,-0.04327 0.05606,-0.04846 0.05385,-0.04847 0.05606,-0.05366 0.05383,-0.05539 0.05609,-0.05712 0.05383,-0.06058 0.05609,-0.06231 0.05383,-0.06577 0.05606,-0.06924 0.05385,-0.07269 0.05606,-0.07443 0.05383,-0.07615 0.05609,-0.08135 0.05383,-0.08481 0.05609,-0.08654 0.05383,-0.09173 0.05383,-0.09173 0.05609,-0.09692 0.05383,-0.09865 0.05606,-0.103854 0.05385,-0.103854 0.05606,-0.109033 0.05383,-0.114238 0.05609,-0.114226 0.05383,-0.117691 0.05609,-0.11943 0.05383,-0.126348 0.05606,-0.124623 0.05385,-0.131538 0.05606,-0.131542 0.05383,-0.131538 0.05609,-0.138468 0.05382,-0.138461 0.05609,-0.14193 0.05383,-0.140192 0.05606,-0.14539 0.05385,-0.145387 0.05383,-0.147121 0.05606,-0.148845 0.05385,-0.150586 0.05606,-0.148845 0.05383,-0.150582 0.05609,-0.152309 0.05383,-0.15058 0.05609,-0.152312 0.05382,-0.148846 0.05606,-0.150584 0.05385,-0.147115 0.05606,-0.147118 0.05383,-0.148853 0.05609,-0.141924 0.05383,-0.143658 0.05609,-0.138464 0.05383,-0.140193 0.05606,-0.133272 0.05385,-0.131542 0.05606,-0.128079 0.05383,-0.122883 0.05385,-0.121157 0.05606,-0.117691 0.05383,-0.110772 0.05609,-0.107307 0.05383,-0.102115 0.05609,-0.09692 0.05383,-0.08999 0.05606,-0.08828 0.05385,-0.07788 0.05606,-0.07443 0.05383,-0.06924 0.05609,-0.06058 0.05382,-0.05539 0.05609,-0.04845 0.05383,-0.04155 0.05609,-0.03634 0.05383,-0.02769 0.05606,-0.02077 0.05383,-0.01385 0.05609,-0.0069 h 0.05159 l 0.05383,0.0069 0.05609,0.01385 0.05383,0.02077 0.05606,0.02769 0.05385,0.03634 0.05606,0.04155 0.05383,0.04845 0.05609,0.05539 0.05383,0.06058 0.05609,0.06924 0.05383,0.07443 0.05383,0.07788 0.05609,0.08828 0.05383,0.08999 0.05606,0.09692 0.05385,0.102115 0.05606,0.107307 0.05383,0.110772 0.05609,0.117691 0.05383,0.121157 0.05609,0.122883 0.05383,0.128079 0.05609,0.131542 0.05383,0.133272 0.05606,0.140193 0.05383,0.138464 0.05609,0.143658 0.05383,0.141924 0.05609,0.148853 0.05383,0.147118 0.05609,0.147115 0.05383,0.150584 0.05383,0.148846 0.05609,0.152312 0.05383,0.15058 0.05606,0.152309 0.05385,0.150582 0.05606,0.148845 0.05383,0.150586 0.05609,0.148845 0.05383,0.147121 0.05609,0.145387 0.05382,0.14539 0.05606,0.140192 0.05385,0.14193 0.05606,0.138461 0.05383,0.138468 0.05609,0.131538 0.05383,0.131542 0.05609,0.131538 0.05383,0.124623 0.05606,0.126348 0.05385,0.11943 0.05383,0.117691 0.05606,0.114226 0.05385,0.114238 0.05606,0.109033 0.05382,0.103854 0.05609,0.103854 0.05383,0.09865 0.05609,0.09692 0.05383,0.09173 0.05606,0.09173 0.05385,0.08654 0.05606,0.08481 0.05383,0.08135 0.05609,0.07615 0.05383,0.07443 0.05609,0.07269 0.05383,0.06924 0.05606,0.06577 0.05385,0.06231 0.05606,0.06058 0.05383,0.05712 0.05385,0.05539 0.05606,0.05366 0.05383,0.04847 0.05609,0.04846 0.05383,0.04327 0.05609,0.045 0.05383,0.03981 0.05606,0.03808 0.05385,0.03635 0.05606,0.03634 0.05383,0.03289 0.05609,0.02941 0.05383,0.03117 0.05609,0.02596 0.05383,0.02596 0.05606,0.02423 0.05385,0.02423 0.05606,0.02077 0.05383,0.02077 0.05609,0.01904 0.05383,0.0173 0.05383,0.0173 0.05609,0.01385 0.05383,0.01731 0.05609,0.01215 0.05159,0.01036 0.05606,0.01215 0.05383,0.01215 0.05609,0.01036 0.05383,0.0087 0.05609,0.01036 0.05383,0.0069 0.05606,0.0087 0.05385,0.0069 0.05382,0.0052 0.05606,0.0069 0.05385,0.0052 0.05606,0.0035 0.05383,0.0069 0.05609,0.0035 0.05383,0.0052 0.05609,0.0035 0.05383,0.0018 0.05606,0.0035 0.05385,0.0035 0.05606,0.0017 0.05383,0.0035 0.05609,0.0018 0.05383,0.0017 0.05609,0.0035 h 0.05383 l 0.05606,0.0017 0.05385,0.0018 h 0.05606 l 0.05383,0.0017 h 0.05385 l 0.05606,0.0018 h 0.05383 l 0.05609,0.0018 h 0.05383 0.05609 l 0.05383,0.0035 h 0.05606 0.05385 0.05606 0.05383 l 0.05609,0.0017 h 0.05383 0.05609 0.05383 0.05606 0.05385 0.05606 0.05383 0.05609"
       class="fil1 str1"
       inkscape:connector-curvature="0"
       style="fill:none;fill-rule:evenodd;stroke:#000000;stroke-width:0.25;stroke-linejoin:bevel;image-rendering:optimizeQuality;shape-rendering:geometricPrecision;text-rendering:geometricPrecision"
       sodipodi:nodetypes="cccccccccccccccccccccccccccccccccccccccccccccccccccccccccccccccccccccccccccccccccccccccccccccccccccccccccccccccccccccccccccccccccccccccccccccccccccccccccccccccccccccccccccccccccccccccccccccccccccccccccccccccccccccccccccccccccccccccccccccccccccccccccccccccccccccccccccccc" />
    <path
       id="path466-0-7"
       d="m 54.035764,79.154559 v 0 h 0.05383 0.05609 0.05383 0.05609 0.05383 0.05606 0.05383 0.05609 l 0.05383,-0.0015 h 0.05383 0.05609 0.05383 0.05609 l 0.05383,-0.0032 h 0.05609 0.05383 l 0.05606,-0.0015 h 0.05385 l 0.05606,-0.0015 h 0.05383 l 0.05609,-0.0015 h 0.05383 l 0.05609,-0.0015 0.05383,-0.0015 h 0.05606 l 0.05385,-0.0032 0.05606,-0.0015 0.05383,-0.0015 0.05609,-0.0032 0.05383,-0.0015 0.05383,-0.0032 0.05609,-0.0032 0.05383,-0.0015 0.05609,-0.0032 0.05383,-0.0047 0.05606,-0.0032 0.05385,-0.0064 0.05606,-0.0032 0.05383,-0.0047 0.05609,-0.0064 0.05383,-0.0047 0.05609,-0.0063 0.05383,-0.0079 0.05606,-0.0064 0.05385,-0.0095 0.05606,-0.0079 0.05383,-0.0095 0.05609,-0.01113 0.05383,-0.01112 0.05159,-0.0095 0.05609,-0.01113 0.05383,-0.01583 0.05606,-0.01266 0.05385,-0.01583 0.05606,-0.01583 0.05383,-0.01742 0.05609,-0.019 0.05383,-0.019 0.05609,-0.02218 0.05383,-0.02216 0.05606,-0.02376 0.05385,-0.02375 0.05606,-0.0285 0.05383,-0.02692 0.05609,-0.03009 0.05383,-0.03325 0.05383,-0.03325 0.05609,-0.03484 0.05383,-0.03642 0.05609,-0.04118 0.05383,-0.03959 0.05606,-0.04434 0.05385,-0.04434 0.05606,-0.04909 0.05383,-0.05067 0.05609,-0.05225 0.05383,-0.05542 0.05609,-0.05701 0.05383,-0.06017 0.05606,-0.06334 0.05385,-0.06651 0.05606,-0.06808 0.05383,-0.06967 0.05609,-0.07443 0.05382,-0.07759 0.05609,-0.07917 0.05383,-0.08393 0.05383,-0.08392 0.05609,-0.08867 0.05383,-0.09026 0.05606,-0.09502 0.05385,-0.09501 0.05606,-0.09976 0.05383,-0.104507 0.05609,-0.104506 0.05383,-0.107677 0.05609,-0.109264 0.05382,-0.115594 0.05606,-0.114008 0.05385,-0.12035 0.05606,-0.120339 0.05383,-0.120338 0.05609,-0.126681 0.05383,-0.126681 0.05609,-0.129846 0.05383,-0.128263 0.05606,-0.133014 0.05385,-0.133014 0.05383,-0.134595 0.05606,-0.13618 0.05385,-0.137763 0.05606,-0.136181 0.05383,-0.137765 0.05609,-0.139345 0.05383,-0.137765 0.05609,-0.139346 0.05383,-0.13618 0.05606,-0.137766 0.05385,-0.134595 0.05606,-0.134596 0.05383,-0.13618 0.05609,-0.129846 0.05383,-0.131431 0.05609,-0.126681 0.05383,-0.128261 0.05606,-0.121923 0.05385,-0.120339 0.05606,-0.117179 0.05383,-0.112422 0.05385,-0.110849 0.05606,-0.107678 0.05383,-0.101348 0.05609,-0.09818 0.05383,-0.09342 0.05609,-0.08868 0.05383,-0.08234 0.05606,-0.08076 0.05385,-0.07126 0.05606,-0.0681 0.05383,-0.06334 0.05609,-0.05542 0.05383,-0.05067 0.05609,-0.04434 0.05383,-0.03801 0.05609,-0.03325 0.05383,-0.02533 0.05606,-0.019 0.05383,-0.01266 0.05609,-0.0064 h 0.05159 l 0.05382,0.0064 0.05609,0.01266 0.05383,0.019 0.05606,0.02533 0.05385,0.03325 0.05606,0.03801 0.05383,0.04434 0.05609,0.05067 0.05383,0.05542 0.05609,0.06334 0.05383,0.0681 0.05383,0.07126 0.05609,0.08076 0.05383,0.08234 0.05606,0.08868 0.05385,0.09342 0.05606,0.09818 0.05383,0.101348 0.05609,0.107678 0.05383,0.110849 0.05609,0.112422 0.05383,0.117179 0.05609,0.120339 0.05383,0.121923 0.05606,0.128261 0.05382,0.126681 0.05609,0.131431 0.05383,0.129846 0.05609,0.13618 0.05383,0.134596 0.05609,0.134595 0.05383,0.137766 0.05383,0.13618 0.05609,0.139346 0.05383,0.137765 0.05606,0.139345 0.05385,0.137765 0.05606,0.136181 0.05383,0.137763 0.05609,0.13618 0.05383,0.134595 0.05609,0.133014 0.05383,0.133014 0.05606,0.128263 0.05385,0.129846 0.05606,0.126681 0.05383,0.126681 0.05609,0.120338 0.05383,0.120339 0.05609,0.12035 0.05383,0.114008 0.05606,0.115594 0.05385,0.109264 0.05383,0.107677 0.05606,0.104506 0.05385,0.104507 0.05606,0.09976 0.05383,0.09501 0.05609,0.09502 0.05383,0.09026 0.05609,0.08867 0.05383,0.08392 0.05606,0.08393 0.05385,0.07917 0.05606,0.07759 0.05383,0.07443 0.05609,0.06967 0.05383,0.06808 0.05609,0.06651 0.05383,0.06334 0.05606,0.06017 0.05385,0.05701 0.05606,0.05542 0.05383,0.05225 0.05385,0.05067 0.05606,0.04909 0.05383,0.04434 0.05609,0.04434 0.05383,0.03959 0.05609,0.04118 0.05383,0.03642 0.05606,0.03484 0.05385,0.03325 0.05606,0.03325 0.05383,0.03009 0.05609,0.02692 0.05383,0.0285 0.05609,0.02375 0.05383,0.02376 0.05606,0.02216 0.05385,0.02218 0.05606,0.019 0.05383,0.019 0.05609,0.01742 0.05383,0.01583 0.05382,0.01583 0.05609,0.01266 0.05383,0.01583 0.05609,0.01113 0.05159,0.0095 0.05606,0.01112 0.05383,0.01113 0.05609,0.0095 0.05383,0.0079 0.05609,0.0095 0.05383,0.0064 0.05606,0.0079 0.05385,0.0063 0.05383,0.0047 0.05606,0.0064 0.05385,0.0047 0.05606,0.0032 0.05383,0.0064 0.05609,0.0032 0.05383,0.0047 0.05609,0.0032 0.05383,0.0015 0.05606,0.0032 0.05385,0.0032 0.05606,0.0015 0.05383,0.0032 0.05609,0.0015 0.05383,0.0015 0.05609,0.0032 h 0.05383 l 0.05606,0.0015 0.05385,0.0015 h 0.05606 l 0.05383,0.0015 h 0.05385 l 0.05606,0.0015 h 0.05383 l 0.05609,0.0015 h 0.05383 0.05609 l 0.05383,0.0032 h 0.05606 0.05385 0.05606 0.05383 l 0.05609,0.0015 h 0.05383 0.05609 0.05383 0.05606 0.05385 0.05606 0.05382 0.05609"
       class="fil1 str1"
       inkscape:connector-curvature="0"
       style="fill:none;fill-rule:evenodd;stroke:#000000;stroke-width:0.25;stroke-linejoin:bevel;image-rendering:optimizeQuality;shape-rendering:geometricPrecision;text-rendering:geometricPrecision" />
    <path
       id="path466-0-4-4"
       d="m 58.913433,79.134967 v 0 h 0.05383 0.05609 0.05383 0.05609 0.05383 0.05606 0.05383 0.05609 l 0.05383,-0.0018 h 0.05383 0.05609 0.05383 0.05609 l 0.05383,-0.0037 h 0.05609 0.05383 l 0.05606,-0.0018 h 0.05385 l 0.05606,-0.0018 h 0.05383 l 0.05609,-0.0018 h 0.05383 l 0.05609,-0.0018 0.05382,-0.0018 h 0.05606 l 0.05385,-0.0037 0.05606,-0.0018 0.05383,-0.0018 0.05609,-0.0037 0.05383,-0.0018 0.05383,-0.0037 0.05609,-0.0037 0.05383,-0.0018 0.05609,-0.0037 0.05383,-0.0055 0.05606,-0.0037 0.05385,-0.0074 0.05606,-0.0037 0.05383,-0.0055 0.05609,-0.0074 0.05383,-0.0055 0.05609,-0.0074 0.05383,-0.0092 0.05606,-0.0074 0.05385,-0.01113 0.05606,-0.0092 0.05383,-0.01113 0.05609,-0.01292 0.05382,-0.01292 0.05159,-0.01113 0.05609,-0.01292 0.05383,-0.01845 0.05606,-0.01477 0.05385,-0.01845 0.05606,-0.01845 0.05383,-0.0203 0.05609,-0.02214 0.05383,-0.02215 0.05609,-0.02583 0.05383,-0.02585 0.05606,-0.02767 0.05385,-0.02769 0.05606,-0.03321 0.05383,-0.03137 0.05609,-0.03507 0.05383,-0.03875 0.05383,-0.03875 0.05609,-0.0406 0.05383,-0.04244 0.05609,-0.04798 0.05383,-0.04613 0.05606,-0.05168 0.05385,-0.05166 0.05606,-0.0572 0.05383,-0.05906 0.05609,-0.0609 0.05382,-0.06458 0.05609,-0.06643 0.05383,-0.07013 0.05606,-0.07381 0.05385,-0.07751 0.05606,-0.07935 0.05383,-0.08119 0.05609,-0.08673 0.05383,-0.09043 0.05609,-0.09227 0.05383,-0.09781 0.05383,-0.0978 0.05609,-0.103342 0.05382,-0.105184 0.05606,-0.110722 0.05385,-0.110721 0.05606,-0.116259 0.05383,-0.121796 0.05609,-0.121796 0.05383,-0.125492 0.05609,-0.127333 0.05383,-0.134708 0.05606,-0.132871 0.05385,-0.140247 0.05606,-0.140249 0.05383,-0.140253 0.05609,-0.147628 0.05383,-0.147631 0.05609,-0.151322 0.05383,-0.149473 0.05606,-0.155018 0.05385,-0.155009 0.05383,-0.15686 0.05606,-0.158702 0.05385,-0.16055 0.05606,-0.158702 0.05383,-0.160547 0.05609,-0.162395 0.05382,-0.160547 0.05609,-0.162396 0.05383,-0.158701 0.05606,-0.160548 0.05385,-0.156856 0.05606,-0.15686 0.05383,-0.158702 0.05609,-0.151322 0.05383,-0.153166 0.05609,-0.147632 0.05383,-0.149476 0.05606,-0.142093 0.05385,-0.140247 0.05606,-0.136561 0.05383,-0.131026 0.05385,-0.129173 0.05606,-0.125492 0.05383,-0.1181 0.05609,-0.114417 0.05383,-0.10888 0.05609,-0.103343 0.05383,-0.09595 0.05606,-0.09412 0.05385,-0.08305 0.05606,-0.07935 0.05383,-0.07381 0.05609,-0.06459 0.05383,-0.05906 0.05609,-0.05166 0.05383,-0.0443 0.05609,-0.03875 0.05383,-0.02953 0.05606,-0.02214 0.05383,-0.01476 0.05609,-0.0074 h 0.05159 l 0.05383,0.0074 0.05609,0.01476 0.05383,0.02214 0.05606,0.02953 0.05385,0.03875 0.05606,0.0443 0.05383,0.05166 0.05609,0.05906 0.05383,0.06459 0.05609,0.07381 0.05383,0.07935 0.05383,0.08305 0.05609,0.09412 0.05383,0.09595 0.05606,0.103343 0.05385,0.10888 0.05606,0.114417 0.05382,0.1181 0.05609,0.125492 0.05383,0.129173 0.05609,0.131026 0.05383,0.136561 0.05609,0.140247 0.05382,0.142093 0.05606,0.149476 0.05382,0.147632 0.05609,0.153166 0.05383,0.151322 0.05609,0.158702 0.05383,0.15686 0.05609,0.156856 0.05382,0.160548 0.05383,0.158701 0.05609,0.162396 0.05382,0.160547 0.05606,0.162395 0.05385,0.160547 0.05606,0.158702 0.05382,0.16055 0.05609,0.158702 0.05383,0.15686 0.05609,0.155009 0.05382,0.155018 0.05606,0.149473 0.05385,0.151322 0.05606,0.147631 0.05382,0.147628 0.05609,0.140253 0.05383,0.140249 0.05608,0.140247 0.05383,0.132871 0.05606,0.134708 0.05385,0.127333 0.05383,0.125492 0.05606,0.121796 0.05385,0.121796 0.05606,0.116259 0.05382,0.110721 0.05609,0.110722 0.05383,0.105184 0.05609,0.103342 0.05383,0.0978 0.05606,0.09781 0.05385,0.09227 0.05606,0.09043 0.05382,0.08673 0.05609,0.08119 0.05383,0.07935 0.05609,0.07751 0.05383,0.07381 0.05606,0.07013 0.05385,0.06643 0.05606,0.06458 0.05382,0.0609 0.05385,0.05906 0.05606,0.0572 0.05383,0.05166 0.05609,0.05168 0.05382,0.04613 0.05609,0.04798 0.05383,0.04244 0.05606,0.0406 0.05385,0.03875 0.05606,0.03875 0.05383,0.03507 0.05609,0.03137 0.05382,0.03321 0.05609,0.02769 0.05383,0.02767 0.05606,0.02585 0.05385,0.02583 0.05606,0.02215 0.05383,0.02214 0.05609,0.0203 0.05382,0.01845 0.05383,0.01845 0.05609,0.01477 0.05383,0.01845 0.05609,0.01292 0.05159,0.01113 0.05606,0.01292 0.05383,0.01292 0.05609,0.01113 0.05382,0.0092 0.05609,0.01113 0.05383,0.0074 0.05606,0.0092 0.05385,0.0074 0.05383,0.0055 0.05606,0.0074 0.05385,0.0055 0.05606,0.0037 0.05383,0.0074 0.05609,0.0037"
       class="fil1 str1"
       inkscape:connector-curvature="0"
       style="fill:none;fill-rule:evenodd;stroke:#000000;stroke-width:0.25;stroke-linejoin:bevel;image-rendering:optimizeQuality;shape-rendering:geometricPrecision;text-rendering:geometricPrecision"
       sodipodi:nodetypes="cccccccccccccccccccccccccccccccccccccccccccccccccccccccccccccccccccccccccccccccccccccccccccccccccccccccccccccccccccccccccccccccccccccccccccccccccccccccccccccccccccccccccccccccccccccccccccccccccccccccccccccccccccccccccccccccccccccccccccccccccccccccccccccccccccccccccc" />
    <flowRoot
       xml:space="preserve"
       id="flowRoot10-0-0"
       style="font-style:normal;font-weight:normal;font-size:40px;line-height:1.25;font-family:sans-serif;letter-spacing:0px;word-spacing:0px;fill:#e1544d;fill-opacity:0.93333333;stroke:none;filter:url(#filter6938)"
       transform="matrix(0.26458333,0,0,0.26458333,28.20351,-59.333834)"><flowRegion
         id="flowRegion12-8-0"
         style="fill:#e1544d;fill-opacity:0.93333333"><rect
           id="rect14-1-3"
           width="557.60419"
           height="167.68532"
           x="95.964493"
           y="531.58044"
           style="fill:#e1544d;fill-opacity:0.93333333" /></flowRegion><flowPara
         id="flowPara16-2-4"
         style="font-style:normal;font-variant:normal;font-weight:normal;font-stretch:normal;font-family:Neuton;-inkscape-font-specification:Neuton;letter-spacing:0px;fill:#e1544d;fill-opacity:0.93333333"><flowSpan
           style="letter-spacing:-1.18000007px;fill:#e1544d;fill-opacity:0.93333333"
           id="flowSpan156-9">C</flowSpan><flowSpan
           id="flowSpan196-2"
           style="letter-spacing:-5.3900013px;fill:#e1544d;fill-opacity:0.93333333">AT</flowSpan></flowPara></flowRoot>    <path
       sodipodi:nodetypes="scccsccsccsccccccsccsccs"
       inkscape:connector-curvature="0"
       id="path7686"
       style="font-style:normal;font-weight:normal;font-size:medium;line-height:1.25;font-family:sans-serif;letter-spacing:-1.18000007px;word-spacing:0px;fill:#e1544d;fill-opacity:0.93333333;stroke:none;filter:url(#filter7210)"
       d="m 108.67969,569.56137 c 1.27604,0 2.5,-0.20182 3.67187,-0.60547 0.94815,-0.52992 0.97039,-0.81678 1.80292,-1.4603 2.13304,-0.88059 2.15092,-2.14491 -0.0698,-0.74414 -1.19792,0.54687 -2.67718,0.17319 -3.90114,0.17319 -1.58854,0 -3.05338,-0.41016 -4.39453,-1.23047 -1.34115,-0.83333 -2.42187,-2.05078 -3.24218,-3.65234 -0.80729,-1.61458 -1.21094,-3.54817 -1.21094,-5.80078 0,-2.04427 0.31901,-3.82813 0.95703,-5.35156 0.63802,-1.52344 1.50391,-2.68881 2.59766,-3.4961 1.10677,-0.82031 2.34374,-1.23047 3.71093,-1.23047 1.19792,0 2.21355,0.18229 3.04688,0.54688 0.84635,0.36458 1.51042,0.85937 1.99219,1.48437 l 0.82031,4.29688 1.71875,0.25391 0.60547,-6.48438 c -0.88542,-0.67708 -1.94011,-1.17187 -3.16407,-1.48437 -1.22395,-0.3125 -2.52604,-0.46875 -3.90625,-0.46875 -2.79947,0 -5.14322,0.67708 -7.03125,2.03125 -1.88802,1.34114 -3.281247,3.03385 -4.179684,5.07812 -0.898437,2.03125 -1.347656,4.08855 -1.347656,6.17188 0,2.5 0.527344,4.65495 1.582031,6.46484 1.067706,1.80989 2.480469,3.18359 4.238279,4.12109 1.75781,0.92448 3.65886,1.38672 5.70313,1.38672 z"
       transform="matrix(0.26458333,0,0,0.26458333,28.203508,-59.333835)" />
    <path
       sodipodi:nodetypes="ccccccccccccccccccccccccc"
       inkscape:connector-curvature="0"
       id="path7688"
       style="font-style:normal;font-weight:normal;font-size:medium;line-height:1.25;font-family:sans-serif;letter-spacing:-5.3900013px;word-spacing:0px;fill:#e1544d;fill-opacity:0.93333333;stroke:none;filter:url(#filter7210)"
       d="m 125.13641,569.09262 0.21484,-1.5625 -3.63281,-0.85937 1.97265,-6.01563 h 8.1836 l 2.1289,5.91797 -3.33984,1.07422 -0.23438,1.44531 8.71699,0.0158 0.0495,-1.16791 -1.53936,-1.58541 -4.08558,-12.2483 -2.65198,-4.30473 -0.80953,-3.79339 -1.14489,-0.61023 -1.54297,-0.46596 -6.06558,15.98773 -0.8853,4.26393 -1.93157,2.84199 c -0.37073,1.54333 4.92394,1.12637 6.5973,1.0665 z m 2.92968,-20.19531 3.24219,9.76562 h -6.875 z"
       transform="matrix(0.26458333,0,0,0.26458333,28.203508,-59.333835)" />
    <path
       sodipodi:nodetypes="ccccccccccccccccc"
       inkscape:connector-curvature="0"
       id="path7690"
       style="font-style:normal;font-weight:normal;font-size:medium;line-height:1.25;font-family:sans-serif;letter-spacing:-5.3900013px;word-spacing:0px;fill:#e1544d;fill-opacity:0.93333333;stroke:none;filter:url(#filter7210)"
       d="m 137.76078,547.2336 1.06709,0.5538 0.94044,-1.179 5.52497,-0.0158 0.29989,19.30019 -2.81149,1.89655 1.23646,1.22434 8.36499,0.0789 0.27343,-1.5625 -3.61328,-0.66406 v -20.27344 h 5.95703 l 0.74219,4.51172 1.85547,0.29297 0.66406,-6.60156 h -19.93145 z"
       transform="matrix(0.26458333,0,0,0.26458333,28.203508,-59.333835)" />
    <flowRoot
       xml:space="preserve"
       id="flowRoot10-5"
       style="font-style:normal;font-weight:normal;font-size:40px;line-height:1.25;font-family:sans-serif;letter-spacing:0px;word-spacing:0px;fill:#e1544d;fill-opacity:0.93333333;stroke:none;filter:url(#filter7749)"
       transform="matrix(0.26458333,0,0,0.26458333,-3.8085905,-59.353306)"><flowRegion
         id="flowRegion12-5"
         style="fill:#e1544d;fill-opacity:0.93333333"><rect
           id="rect14-6"
           width="557.60419"
           height="167.68532"
           x="95.964493"
           y="531.58044"
           style="fill:#e1544d;fill-opacity:0.93333333" /></flowRegion><flowPara
         id="flowPara16-0"
         style="font-style:normal;font-variant:normal;font-weight:normal;font-stretch:normal;font-family:Neuton;-inkscape-font-specification:Neuton;letter-spacing:5.41000271px;fill:#e1544d;fill-opacity:0.93333333"><flowSpan
   style="letter-spacing:10.92999744px;fill:#e1544d;fill-opacity:0.93333333"
   id="flowSpan18-6">C</flowSpan><flowSpan
   id="flowSpan268-2"
   style="letter-spacing:7.99000406px;fill:#e1544d;fill-opacity:0.93333333">A</flowSpan>T</flowPara></flowRoot>    <flowRoot
       xml:space="preserve"
       id="flowRoot10-5-9"
       style="font-style:normal;font-weight:normal;font-size:40px;line-height:1.25;font-family:sans-serif;letter-spacing:0px;word-spacing:0px;fill:#e1544d;fill-opacity:0.93333333;stroke:none;filter:url(#filter7825)"
       transform="matrix(0.26458333,0,0,0.26458333,-3.8085906,-59.353307)"><flowRegion
         id="flowRegion12-5-2"
         style="fill:#e1544d;fill-opacity:0.93333333"><rect
           id="rect14-6-9"
           width="557.60419"
           height="167.68532"
           x="95.964493"
           y="531.58044"
           style="fill:#e1544d;fill-opacity:0.93333333" /></flowRegion><flowPara
         id="flowPara16-0-6"
         style="font-style:normal;font-variant:normal;font-weight:normal;font-stretch:normal;font-family:Neuton;-inkscape-font-specification:Neuton;letter-spacing:5.41000271px;fill:#e1544d;fill-opacity:0.93333333"><flowSpan
   style="letter-spacing:10.92999744px;fill:#e1544d;fill-opacity:0.93333333"
   id="flowSpan18-6-5">C</flowSpan><flowSpan
   id="flowSpan268-2-5"
   style="letter-spacing:7.99000406px;fill:#e1544d;fill-opacity:0.93333333">A</flowSpan>T</flowPara></flowRoot>    <flowRoot
       xml:space="preserve"
       id="flowRoot7866"
       style="font-style:normal;font-weight:normal;font-size:40px;line-height:1.25;font-family:sans-serif;letter-spacing:0px;word-spacing:0px;fill:#000000;fill-opacity:1;stroke:none"
       transform="matrix(0.26458333,0,0,0.26458333,-13.764381,0.1670435)"><flowRegion
         id="flowRegion7868"><rect
           id="rect7870"
           width="239.91122"
           height="50.255089"
           x="138.64343"
           y="206.56386" /></flowRegion><flowPara
         id="flowPara7872"
         style="font-style:normal;font-variant:normal;font-weight:normal;font-stretch:normal;font-size:12px;font-family:'Space Grotesk';-inkscape-font-specification:'Space Grotesk'">ACT  CAT  GAT</flowPara></flowRoot>    <rect
       y="59.856102"
       x="23.527418"
       height="0.60266292"
       width="4.2609148"
       id="rect959"
       style="opacity:0.931;fill:#75afd1;fill-opacity:1;stroke:none;stroke-width:0.17284495;stroke-linecap:round;stroke-linejoin:round;stroke-miterlimit:4;stroke-dasharray:none;stroke-dashoffset:0;stroke-opacity:1" />
    <rect
       y="58.718731"
       x="31.111191"
       height="1.7400337"
       width="4.2609148"
       id="rect959-1"
       style="opacity:0.931;fill:#75afd1;fill-opacity:1;stroke:none;stroke-width:0.29369617;stroke-linecap:round;stroke-linejoin:round;stroke-miterlimit:4;stroke-dasharray:none;stroke-dashoffset:0;stroke-opacity:1" />
    <rect
       y="59.856102"
       x="38.76178"
       height="0.60266298"
       width="4.2609148"
       id="rect959-5"
       style="opacity:0.931;fill:#75afd1;fill-opacity:1;stroke:none;stroke-width:0.17284496;stroke-linecap:round;stroke-linejoin:round;stroke-miterlimit:4;stroke-dasharray:none;stroke-dashoffset:0;stroke-opacity:1" />
    <path
       style="fill:none;stroke:#000000;stroke-width:0.26118031px;stroke-linecap:butt;stroke-linejoin:miter;stroke-opacity:1"
       d="M 22.517457,60.566693 H 44.133863"
       id="path7876"
       inkscape:connector-curvature="0" />
    <path
       style="fill:none;stroke:#000000;stroke-width:0.26100001;stroke-linecap:butt;stroke-linejoin:miter;stroke-miterlimit:4;stroke-dasharray:0.522, 0.261;stroke-dashoffset:0;stroke-opacity:1"
       d="M 22.517457,55.086038 H 44.133863"
       id="path7876-8"
       inkscape:connector-curvature="0" />
    <flowRoot
       xml:space="preserve"
       id="flowRoot7866-1"
       style="font-style:normal;font-weight:normal;font-size:40px;line-height:1.25;font-family:sans-serif;letter-spacing:0px;word-spacing:0px;fill:#000000;fill-opacity:1;stroke:none"
       transform="matrix(0.26458333,0,0,0.26458333,15.117388,0.16704322)"><flowRegion
         id="flowRegion7868-3"><rect
           id="rect7870-3"
           width="239.91122"
           height="50.255089"
           x="138.64343"
           y="206.56386" /></flowRegion><flowPara
         id="flowPara7872-9"
         style="font-style:normal;font-variant:normal;font-weight:normal;font-stretch:normal;font-size:12px;font-family:'Space Grotesk';-inkscape-font-specification:'Space Grotesk'">ACT  CAT  GAT</flowPara></flowRoot>    <rect
       y="58.920658"
       x="52.409187"
       height="1.5381063"
       width="4.2609148"
       id="rect959-7"
       style="opacity:0.931;fill:#75afd1;fill-opacity:1;stroke:none;stroke-width:0.27612939;stroke-linecap:round;stroke-linejoin:round;stroke-miterlimit:4;stroke-dasharray:none;stroke-dashoffset:0;stroke-opacity:1" />
    <rect
       y="58.317825"
       x="59.992962"
       height="2.1409378"
       width="4.2609148"
       id="rect959-1-5"
       style="opacity:0.931;fill:#75afd1;fill-opacity:1;stroke:none;stroke-width:0.3257778;stroke-linecap:round;stroke-linejoin:round;stroke-miterlimit:4;stroke-dasharray:none;stroke-dashoffset:0;stroke-opacity:1" />
    <rect
       y="58.987476"
       x="67.643547"
       height="1.471289"
       width="4.2609148"
       id="rect959-5-4"
       style="opacity:0.931;fill:#75afd1;fill-opacity:1;stroke:none;stroke-width:0.2700651;stroke-linecap:round;stroke-linejoin:round;stroke-miterlimit:4;stroke-dasharray:none;stroke-dashoffset:0;stroke-opacity:1" />
    <path
       style="fill:none;stroke:#000000;stroke-width:0.26118031px;stroke-linecap:butt;stroke-linejoin:miter;stroke-opacity:1"
       d="M 51.399227,60.566694 H 73.015633"
       id="path7876-4"
       inkscape:connector-curvature="0" />
    <path
       style="fill:none;stroke:#000000;stroke-width:0.26100001;stroke-linecap:butt;stroke-linejoin:miter;stroke-miterlimit:4;stroke-dasharray:0.52200001, 0.261;stroke-dashoffset:0;stroke-opacity:1"
       d="M 51.399227,55.086039 H 73.015633"
       id="path7876-8-9"
       inkscape:connector-curvature="0" />
  </g>
</svg>
