<?xml version="1.0" encoding="UTF-8" standalone="no"?>
<!-- Created with Inkscape (http://www.inkscape.org/) -->

<svg
   xmlns:dc="http://purl.org/dc/elements/1.1/"
   xmlns:cc="http://creativecommons.org/ns#"
   xmlns:rdf="http://www.w3.org/1999/02/22-rdf-syntax-ns#"
   xmlns:svg="http://www.w3.org/2000/svg"
   xmlns="http://www.w3.org/2000/svg"
   xmlns:sodipodi="http://sodipodi.sourceforge.net/DTD/sodipodi-0.dtd"
   xmlns:inkscape="http://www.inkscape.org/namespaces/inkscape"
   width="840"
   height="210"
   viewBox="0 0 222.24999 55.562501"
   version="1.1"
   id="svg5210"
   sodipodi:docname="b_cell_1.svg"
   inkscape:export-filename="/home/sebastian/projects/YinYangFit/docs/img/b_cell_1.png"
   inkscape:export-xdpi="199.95"
   inkscape:export-ydpi="199.95"
   inkscape:version="0.92.3 (2405546, 2018-03-11)">
  <defs
     id="defs5204" />
  <sodipodi:namedview
     id="base"
     pagecolor="#ffffff"
     bordercolor="#666666"
     borderopacity="1.0"
     inkscape:pageopacity="0.0"
     inkscape:pageshadow="2"
     inkscape:zoom="0.98994949"
     inkscape:cx="152.91462"
     inkscape:cy="166.63058"
     inkscape:document-units="mm"
     inkscape:current-layer="layer1"
     showgrid="false"
     units="px"
     inkscape:window-width="2560"
     inkscape:window-height="1401"
     inkscape:window-x="0"
     inkscape:window-y="19"
     inkscape:window-maximized="1"
     showguides="true"
     inkscape:guide-bbox="true" />
  <metadata
     id="metadata5207">
    <rdf:RDF>
      <cc:Work
         rdf:about="">
        <dc:format>image/svg+xml</dc:format>
        <dc:type
           rdf:resource="http://purl.org/dc/dcmitype/StillImage" />
        <dc:title></dc:title>
      </cc:Work>
    </rdf:RDF>
  </metadata>
  <g
     inkscape:label="Layer 1"
     inkscape:groupmode="layer"
     id="layer1"
     transform="translate(0,-241.43749)">
    <rect
       style="opacity:0.86199999;fill:#2e2e2e;fill-opacity:1;stroke:none;stroke-width:0.52916664;stroke-linecap:round;stroke-linejoin:round;stroke-miterlimit:4;stroke-dasharray:none;stroke-dashoffset:0;stroke-opacity:1;paint-order:normal"
       id="rect5767"
       width="44.11002"
       height="27.261492"
       x="8.8663559"
       y="246.91316"
       ry="0.5"
       rx="0.5" />
    <rect
       style="opacity:0.86199999;fill:#d2d2d2;fill-opacity:0.98039216;stroke:none;stroke-width:0.52916664;stroke-linecap:round;stroke-linejoin:round;stroke-miterlimit:4;stroke-dasharray:none;stroke-dashoffset:0;stroke-opacity:1;paint-order:normal"
       id="rect5767-1"
       width="44.11002"
       height="27.261492"
       x="63.384609"
       y="246.91316"
       ry="0.5"
       rx="0.5" />
    <rect
       style="opacity:0.86199999;fill:#2e2e2e;fill-opacity:1;stroke:none;stroke-width:0.52916664;stroke-linecap:round;stroke-linejoin:round;stroke-miterlimit:4;stroke-dasharray:none;stroke-dashoffset:0;stroke-opacity:1;paint-order:normal"
       id="rect5767-1-6"
       width="44.11002"
       height="27.261492"
       x="117.91132"
       y="246.91316"
       ry="0.5"
       rx="0.5" />
    <rect
       style="opacity:0.86199999;fill:#d2d2d2;fill-opacity:0.98039216;stroke:none;stroke-width:0.52916664;stroke-linecap:round;stroke-linejoin:round;stroke-miterlimit:4;stroke-dasharray:none;stroke-dashoffset:0;stroke-opacity:1;paint-order:normal"
       id="rect5767-1-6-4"
       width="44.11002"
       height="27.261492"
       x="172.73862"
       y="246.77953"
       ry="0.5"
       rx="0.5" />
    <flowRoot
       xml:space="preserve"
       id="flowRoot5814"
       style="font-style:normal;font-weight:normal;font-size:40px;line-height:1.25;font-family:sans-serif;letter-spacing:0px;word-spacing:0px;fill:#000000;fill-opacity:1;stroke:none"
       transform="matrix(0.26458333,0,0,0.26458333,-6.3266901,283.53175)"><flowRegion
         id="flowRegion5816"><rect
           id="rect5818"
           width="242.43661"
           height="158.59395"
           x="41.416256"
           y="-161.63461" /></flowRegion><flowPara
         id="flowPara5820"
         style="font-style:normal;font-variant:normal;font-weight:normal;font-stretch:normal;font-size:16px;font-family:'Space Grotesk';-inkscape-font-specification:'Space Grotesk'">1</flowPara></flowRoot>    <flowRoot
       xml:space="preserve"
       id="flowRoot5814-0"
       style="font-style:normal;font-weight:normal;font-size:40px;line-height:1.25;font-family:sans-serif;letter-spacing:0px;word-spacing:0px;fill:#000000;fill-opacity:1;stroke:none"
       transform="matrix(0.26458333,0,0,0.26458333,47.592107,283.53175)"><flowRegion
         id="flowRegion5816-6"><rect
           id="rect5818-3"
           width="242.43661"
           height="158.59395"
           x="41.416256"
           y="-161.63461" /></flowRegion><flowPara
         id="flowPara5820-6"
         style="font-style:normal;font-variant:normal;font-weight:normal;font-stretch:normal;font-size:16px;font-family:'Space Grotesk';-inkscape-font-specification:'Space Grotesk'">2</flowPara></flowRoot>    <flowRoot
       xml:space="preserve"
       id="flowRoot5814-0-9"
       style="font-style:normal;font-weight:normal;font-size:40px;line-height:1.25;font-family:sans-serif;letter-spacing:0px;word-spacing:0px;fill:#000000;fill-opacity:1;stroke:none"
       transform="matrix(0.26458333,0,0,0.26458333,102.13576,283.53175)"><flowRegion
         id="flowRegion5816-6-4"><rect
           id="rect5818-3-8"
           width="242.43661"
           height="158.59395"
           x="41.416256"
           y="-161.63461" /></flowRegion><flowPara
         id="flowPara5820-6-4"
         style="font-style:normal;font-variant:normal;font-weight:normal;font-stretch:normal;font-size:16px;font-family:'Space Grotesk';-inkscape-font-specification:'Space Grotesk'">3</flowPara></flowRoot>    <flowRoot
       xml:space="preserve"
       id="flowRoot5814-0-9-0"
       style="font-style:normal;font-weight:normal;font-size:40px;line-height:1.25;font-family:sans-serif;letter-spacing:0px;word-spacing:0px;fill:#000000;fill-opacity:1;stroke:none"
       transform="matrix(0.26458333,0,0,0.26458333,156.75139,283.53175)"><flowRegion
         id="flowRegion5816-6-4-8"><rect
           id="rect5818-3-8-4"
           width="242.43661"
           height="158.59395"
           x="41.416256"
           y="-161.63461" /></flowRegion><flowPara
         id="flowPara5820-6-4-4"
         style="font-style:normal;font-variant:normal;font-weight:normal;font-stretch:normal;font-size:16px;font-family:'Space Grotesk';-inkscape-font-specification:'Space Grotesk'">4</flowPara></flowRoot>    <rect
       style="opacity:0.86199999;fill:#e9e9e9;fill-opacity:1;stroke:none;stroke-width:0.52916664;stroke-linecap:round;stroke-linejoin:round;stroke-miterlimit:4;stroke-dasharray:none;stroke-dashoffset:0;stroke-opacity:1;paint-order:normal"
       id="rect5894"
       width="14.699824"
       height="14.699824"
       x="11.829272"
       y="254.82011"
       ry="0.5"
       rx="0.5"
       transform="rotate(-4.184916)" />
    <path
       style="color:#000000;font-style:normal;font-variant:normal;font-weight:normal;font-stretch:normal;font-size:medium;line-height:normal;font-family:sans-serif;font-variant-ligatures:normal;font-variant-position:normal;font-variant-caps:normal;font-variant-numeric:normal;font-variant-alternates:normal;font-feature-settings:normal;text-indent:0;text-align:start;text-decoration:none;text-decoration-line:none;text-decoration-style:solid;text-decoration-color:#000000;letter-spacing:normal;word-spacing:normal;text-transform:none;writing-mode:lr-tb;direction:ltr;text-orientation:mixed;dominant-baseline:auto;baseline-shift:baseline;text-anchor:start;white-space:normal;shape-padding:0;clip-rule:nonzero;display:inline;overflow:visible;visibility:visible;opacity:0.86199999;isolation:auto;mix-blend-mode:normal;color-interpolation:sRGB;color-interpolation-filters:linearRGB;solid-color:#000000;solid-opacity:1;vector-effect:none;fill:#e35959;fill-opacity:1;fill-rule:nonzero;stroke:none;stroke-width:0.5291667;stroke-linecap:round;stroke-linejoin:round;stroke-miterlimit:4;stroke-dasharray:none;stroke-dashoffset:0;stroke-opacity:1;paint-order:normal;color-rendering:auto;image-rendering:auto;shape-rendering:auto;text-rendering:auto;enable-background:accumulate"
       d="m 30.921875,256.00391 c -0.852438,0 -1.599514,0.54984 -2.115234,1.375 -0.51572,0.82515 -0.822266,1.9385 -0.822266,3.16406 0,1.22555 0.306546,2.33891 0.822266,3.16406 0.51572,0.82515 1.262796,1.37695 2.115234,1.37695 0.852438,0 1.597561,-0.5518 2.113281,-1.37695 0.248654,-0.39785 0.516176,-1.16896 0.951476,-1.80437 0.467532,-0.68247 1.312416,-1.22123 1.312416,-1.35969 0,-0.14005 -0.846174,-0.6805 -1.31462,-1.36386 -0.434731,-0.63418 -0.701037,-1.40303 -0.949272,-1.8002 -0.51572,-0.82516 -1.260843,-1.375 -2.113281,-1.375 z m 0,0.52734 c 0.623651,0 1.212457,0.40634 1.664063,1.12891 0.451605,0.72256 0.74414,1.74662 0.74414,2.88281 0,1.13618 -0.292535,2.1622 -0.74414,2.88476 -0.451606,0.72257 -1.040412,1.12696 -1.664063,1.12696 -0.623651,0 -1.21441,-0.40439 -1.666016,-1.12696 -0.451605,-0.72256 -0.742187,-1.74858 -0.742187,-2.88476 0,-1.13619 0.290582,-2.16025 0.742187,-2.88281 0.451606,-0.72257 1.042365,-1.12891 1.666016,-1.12891 z"
       id="path5896"
       inkscape:connector-curvature="0"
       sodipodi:nodetypes="scssssssscsscscscscs" />
    <rect
       style="opacity:0.86199999;fill:#2e2e2e;fill-opacity:0.8627451;stroke:none;stroke-width:0.52916664;stroke-linecap:round;stroke-linejoin:round;stroke-miterlimit:4;stroke-dasharray:none;stroke-dashoffset:0;stroke-opacity:1;paint-order:normal"
       id="rect5894-2"
       width="14.699824"
       height="14.699824"
       x="66.112709"
       y="258.79205"
       ry="0.5"
       rx="0.5"
       transform="rotate(-4.184916)" />
    <rect
       style="opacity:0.86199999;fill:#e9e9e9;fill-opacity:1;stroke:none;stroke-width:0.52916664;stroke-linecap:round;stroke-linejoin:round;stroke-miterlimit:4;stroke-dasharray:none;stroke-dashoffset:0;stroke-opacity:1;paint-order:normal"
       id="rect5894-2-7"
       width="14.699824"
       height="14.699824"
       x="106.02729"
       y="262.66013"
       ry="0.5"
       rx="0.5"
       transform="rotate(-4.184916)" />
    <rect
       style="opacity:0.86199999;fill:#2e2e2e;fill-opacity:0.8627451;stroke:none;stroke-width:0.52916664;stroke-linecap:round;stroke-linejoin:round;stroke-miterlimit:4;stroke-dasharray:none;stroke-dashoffset:0;stroke-opacity:1;paint-order:normal"
       id="rect5894-2-7-7"
       width="14.699824"
       height="14.699824"
       x="160.80475"
       y="266.66824"
       ry="0.5"
       rx="0.5"
       transform="rotate(-4.184916)" />
    <g
       id="g6753"
       transform="translate(-0.94494048)">
      <path
         sodipodi:nodetypes="csssssssssc"
         inkscape:connector-curvature="0"
         id="path6563"
         d="m 13.690863,290.58513 c 1.564353,-0.12928 2.946445,-1.60513 3.311051,-3.58814 0.217301,-1.18186 0.231068,-2.52019 1.033596,-3.44342 0.922534,-1.06127 1.336374,2.60536 2.879873,0.83517 0.628329,-0.72062 1.566034,2.35558 2.416222,0.53319 0.525063,-1.12548 2.073631,-2.18481 2.696978,-0.5743 0.618918,1.59906 1.991278,1.10144 3.125923,1.24183 1.168691,0.1446 2.148775,-1.60476 3.278039,-0.25538 0.847856,1.01312 2.476084,-0.0366 3.348122,0.93368 0.740577,0.82406 2.842372,-0.17982 4.02174,-0.96866 1.334361,-0.89252 2.754231,-0.6344 4.097542,-1.13407"
         style="fill:none;stroke:#e35959;stroke-width:0.5291667;stroke-linecap:butt;stroke-linejoin:miter;stroke-miterlimit:4;stroke-dasharray:none;stroke-opacity:1" />
      <path
         sodipodi:nodetypes="cccccccccccccccc"
         inkscape:connector-curvature="0"
         id="path1921-0"
         style="font-style:normal;font-variant:normal;font-weight:normal;font-stretch:normal;font-size:16px;line-height:1.25;font-family:'Space Grotesk';-inkscape-font-specification:'Space Grotesk';letter-spacing:0px;word-spacing:0px;fill:#2e2e2e;fill-opacity:1;stroke:none;stroke-width:0.26458332"
         d="m 43.45894,289.50166 -0.37279,0.37279 1.062087,1.06209 0.211022,0.14771 -0.02109,0.0633 -33.16006,-0.0211 v 0.52753 h 32.8998 l 0.260238,-0.0211 0.02109,0.0633 -0.211011,0.14771 -1.062088,1.06209 0.37279,0.3728 1.666989,-1.67404 v -0.42905 z" />
      <path
         sodipodi:nodetypes="ccccccccccccccccc"
         inkscape:connector-curvature="0"
         id="path1921-0-3"
         style="font-style:normal;font-variant:normal;font-weight:normal;font-stretch:normal;font-size:16px;line-height:1.25;font-family:'Space Grotesk';-inkscape-font-specification:'Space Grotesk';letter-spacing:0px;word-spacing:0px;fill:#2e2e2e;fill-opacity:1;stroke:none;stroke-width:0.26458332"
         d="m 11.648141,279.08002 0.37279,0.37279 1.06209,-1.06208 0.14771,-0.21102 0.0633,0.0211 -0.0211,0.26024 v 15.4644 h 0.52753 v -15.46439 l -0.0211,-0.26024 0.0633,-0.0211 0.14771,0.21101 1.06209,1.06209 0.37279,-0.37279 -1.67403,-1.66699 h -0.429049 z" />
      <flowRoot
         transform="matrix(0.10491792,0,0,0.10584213,41.130407,284.60323)"
         style="font-style:normal;font-weight:normal;font-size:40px;line-height:1.25;font-family:sans-serif;letter-spacing:0px;word-spacing:0px;fill:#2e2e2e;fill-opacity:1;stroke:none;stroke-width:7.09330177"
         id="flowRoot22223"
         xml:space="preserve"><flowRegion
           style="fill:#2e2e2e;fill-opacity:1;stroke-width:7.09330177"
           id="flowRegion22225"><rect
             style="fill:#2e2e2e;fill-opacity:1;stroke-width:7.09330177"
             y="38.17144"
             x="53.033009"
             height="131.52187"
             width="170.05917"
             id="rect22227" /></flowRegion><flowPara
           style="font-style:normal;font-variant:normal;font-weight:normal;font-stretch:normal;font-size:40.17245102px;font-family:'Space Grotesk';-inkscape-font-specification:'Space Grotesk';fill:#2e2e2e;fill-opacity:1;stroke-width:7.09330177"
           id="flowPara22229">ms</flowPara></flowRoot>      <flowRoot
         transform="matrix(0.10491792,0,0,0.10584213,11.393629,272.96214)"
         style="font-style:normal;font-weight:normal;font-size:40px;line-height:1.25;font-family:sans-serif;letter-spacing:0px;word-spacing:0px;fill:#2e2e2e;fill-opacity:1;stroke:none;stroke-width:7.09330177"
         id="flowRoot22223-3"
         xml:space="preserve"><flowRegion
           style="fill:#2e2e2e;fill-opacity:1;stroke-width:7.09330177"
           id="flowRegion22225-9"><rect
             style="fill:#2e2e2e;fill-opacity:1;stroke-width:7.09330177"
             y="38.17144"
             x="53.033009"
             height="131.52187"
             width="170.05917"
             id="rect22227-8" /></flowRegion><flowPara
           style="font-style:normal;font-variant:normal;font-weight:normal;font-stretch:normal;font-size:40.17245102px;font-family:'Space Grotesk';-inkscape-font-specification:'Space Grotesk';fill:#2e2e2e;fill-opacity:1;stroke-width:7.09330177"
           id="flowPara22229-4">Hz</flowPara></flowRoot>    </g>
    <g
       id="g6740"
       transform="translate(-1.0394311)">
      <path
         sodipodi:nodetypes="cssssssssssc"
         inkscape:connector-curvature="0"
         id="path6563-0"
         d="m 68.875387,290.58513 c 1.564353,-0.12928 2.946445,-1.60513 3.311051,-3.58814 0.217301,-1.18186 0.420056,-1.15003 1.222584,-2.07326 0.922534,-1.06127 0.863904,-2.16659 2.360156,-2.37762 0.94671,-0.13353 1.755022,3.39501 2.60521,1.57262 0.525063,-1.12548 1.553914,-0.15319 2.177261,1.45732 0.618918,1.59906 2.368736,-1.8277 3.078676,-0.93153 1.49942,1.89274 1.959787,-2.17172 3.089051,-0.82234 0.847856,1.01312 2.806813,-1.35952 3.678851,-0.38924 0.740577,0.82406 2.180917,2.08804 3.36028,1.2992 0.596382,-0.39891 1.644218,-1.58864 2.531717,-1.57296 1.098218,0.0194 2.193061,1.89641 2.935991,1.62006"
         style="fill:none;stroke:#e35959;stroke-width:0.52916676;stroke-linecap:butt;stroke-linejoin:miter;stroke-miterlimit:4;stroke-dasharray:none;stroke-opacity:1" />
      <path
         sodipodi:nodetypes="cccccccccccccccc"
         inkscape:connector-curvature="0"
         id="path1921-0-8"
         style="font-style:normal;font-variant:normal;font-weight:normal;font-stretch:normal;font-size:16px;line-height:1.25;font-family:'Space Grotesk';-inkscape-font-specification:'Space Grotesk';letter-spacing:0px;word-spacing:0px;fill:#2e2e2e;fill-opacity:1;stroke:none;stroke-width:0.26458332"
         d="m 98.643464,289.50166 -0.37279,0.37279 1.062088,1.06209 0.211021,0.14771 -0.02109,0.0633 -33.16006,-0.0211 v 0.52753 h 32.8998 l 0.260239,-0.0211 0.02109,0.0633 -0.211011,0.14771 -1.062087,1.06209 0.37279,0.3728 1.666986,-1.67404 v -0.42905 z" />
      <path
         sodipodi:nodetypes="ccccccccccccccccc"
         inkscape:connector-curvature="0"
         id="path1921-0-3-0"
         style="font-style:normal;font-variant:normal;font-weight:normal;font-stretch:normal;font-size:16px;line-height:1.25;font-family:'Space Grotesk';-inkscape-font-specification:'Space Grotesk';letter-spacing:0px;word-spacing:0px;fill:#2e2e2e;fill-opacity:1;stroke:none;stroke-width:0.26458332"
         d="m 66.832665,279.08002 0.37279,0.37279 1.06209,-1.06208 0.14771,-0.21102 0.0633,0.0211 -0.0211,0.26024 v 15.4644 h 0.52753 v -15.46439 l -0.0211,-0.26024 0.0633,-0.0211 0.14771,0.21101 1.06209,1.06209 0.37279,-0.37279 -1.67403,-1.66699 h -0.429049 z" />
      <flowRoot
         transform="matrix(0.10491792,0,0,0.10584213,96.314932,284.60323)"
         style="font-style:normal;font-weight:normal;font-size:40px;line-height:1.25;font-family:sans-serif;letter-spacing:0px;word-spacing:0px;fill:#2e2e2e;fill-opacity:1;stroke:none;stroke-width:7.09330177"
         id="flowRoot22223-5"
         xml:space="preserve"><flowRegion
           style="fill:#2e2e2e;fill-opacity:1;stroke-width:7.09330177"
           id="flowRegion22225-90"><rect
             style="fill:#2e2e2e;fill-opacity:1;stroke-width:7.09330177"
             y="38.17144"
             x="53.033009"
             height="131.52187"
             width="170.05917"
             id="rect22227-9" /></flowRegion><flowPara
           style="font-style:normal;font-variant:normal;font-weight:normal;font-stretch:normal;font-size:40.17245102px;font-family:'Space Grotesk';-inkscape-font-specification:'Space Grotesk';fill:#2e2e2e;fill-opacity:1;stroke-width:7.09330177"
           id="flowPara22229-1">ms</flowPara></flowRoot>      <flowRoot
         transform="matrix(0.10491792,0,0,0.10584213,66.578153,272.96214)"
         style="font-style:normal;font-weight:normal;font-size:40px;line-height:1.25;font-family:sans-serif;letter-spacing:0px;word-spacing:0px;fill:#2e2e2e;fill-opacity:1;stroke:none;stroke-width:7.09330177"
         id="flowRoot22223-3-8"
         xml:space="preserve"><flowRegion
           style="fill:#2e2e2e;fill-opacity:1;stroke-width:7.09330177"
           id="flowRegion22225-9-2"><rect
             style="fill:#2e2e2e;fill-opacity:1;stroke-width:7.09330177"
             y="38.17144"
             x="53.033009"
             height="131.52187"
             width="170.05917"
             id="rect22227-8-8" /></flowRegion><flowPara
           style="font-style:normal;font-variant:normal;font-weight:normal;font-stretch:normal;font-size:40.17245102px;font-family:'Space Grotesk';-inkscape-font-specification:'Space Grotesk';fill:#2e2e2e;fill-opacity:1;stroke-width:7.09330177"
           id="flowPara22229-4-7">Hz</flowPara></flowRoot>    </g>
    <g
       id="g6727">
      <path
         sodipodi:nodetypes="csssssssssc"
         inkscape:connector-curvature="0"
         id="path6563-0-6"
         d="m 122.92598,290.55066 c 1.56436,-0.0811 2.70969,0.0545 2.70969,0.0545 0.9686,-0.44613 1.5006,-0.36538 2.30313,-0.94451 0.92253,-0.66571 1.0691,1.21517 2.6126,0.10476 0.62833,-0.45203 2.10058,0.97465 2.95076,-0.1685 0.52507,-0.706 2.00683,-1.24476 2.63017,-0.23451 0.61892,1.00306 1.12265,-0.0635 2.2573,0.0245 1.16869,0.0907 2.14877,-0.62941 3.27803,0.21703 0.84786,0.63551 2.47609,-0.40018 3.34813,0.20846 0.74057,0.51692 2.84237,0.0968 4.02174,-0.39806 1.33436,-0.55986 2.6206,0.23076 3.96391,-0.0827"
         style="fill:none;stroke:#e35959;stroke-width:0.52916682;stroke-linecap:butt;stroke-linejoin:miter;stroke-miterlimit:4;stroke-dasharray:none;stroke-opacity:1" />
      <path
         sodipodi:nodetypes="cccccccccccccccc"
         inkscape:connector-curvature="0"
         id="path1921-0-8-8"
         style="font-style:normal;font-variant:normal;font-weight:normal;font-stretch:normal;font-size:16px;line-height:1.25;font-family:'Space Grotesk';-inkscape-font-specification:'Space Grotesk';letter-spacing:0px;word-spacing:0px;fill:#2e2e2e;fill-opacity:1;stroke:none;stroke-width:0.26458332"
         d="m 152.69406,289.50166 -0.37279,0.37279 1.06209,1.06209 0.21102,0.14771 -0.0211,0.0633 -33.16006,-0.0211 v 0.52753 h 32.8998 l 0.26024,-0.0211 0.0211,0.0633 -0.21101,0.14771 -1.06209,1.06209 0.37279,0.3728 1.66699,-1.67404 v -0.42905 z" />
      <path
         sodipodi:nodetypes="ccccccccccccccccc"
         inkscape:connector-curvature="0"
         id="path1921-0-3-0-4"
         style="font-style:normal;font-variant:normal;font-weight:normal;font-stretch:normal;font-size:16px;line-height:1.25;font-family:'Space Grotesk';-inkscape-font-specification:'Space Grotesk';letter-spacing:0px;word-spacing:0px;fill:#2e2e2e;fill-opacity:1;stroke:none;stroke-width:0.26458332"
         d="m 120.88326,279.08002 0.37279,0.37279 1.06209,-1.06208 0.14771,-0.21102 0.0633,0.0211 -0.0211,0.26024 v 15.4644 h 0.52753 v -15.46439 l -0.0211,-0.26024 0.0633,-0.0211 0.14771,0.21101 1.06209,1.06209 0.37279,-0.37279 -1.67403,-1.66699 h -0.42905 z" />
      <flowRoot
         transform="matrix(0.10491792,0,0,0.10584213,150.36553,284.60323)"
         style="font-style:normal;font-weight:normal;font-size:40px;line-height:1.25;font-family:sans-serif;letter-spacing:0px;word-spacing:0px;fill:#2e2e2e;fill-opacity:1;stroke:none;stroke-width:7.09330177"
         id="flowRoot22223-5-8"
         xml:space="preserve"><flowRegion
           style="fill:#2e2e2e;fill-opacity:1;stroke-width:7.09330177"
           id="flowRegion22225-90-9"><rect
             style="fill:#2e2e2e;fill-opacity:1;stroke-width:7.09330177"
             y="38.17144"
             x="53.033009"
             height="131.52187"
             width="170.05917"
             id="rect22227-9-8" /></flowRegion><flowPara
           style="font-style:normal;font-variant:normal;font-weight:normal;font-stretch:normal;font-size:40.17245102px;font-family:'Space Grotesk';-inkscape-font-specification:'Space Grotesk';fill:#2e2e2e;fill-opacity:1;stroke-width:7.09330177"
           id="flowPara22229-1-3">ms</flowPara></flowRoot>      <flowRoot
         transform="matrix(0.10491792,0,0,0.10584213,120.62875,272.96214)"
         style="font-style:normal;font-weight:normal;font-size:40px;line-height:1.25;font-family:sans-serif;letter-spacing:0px;word-spacing:0px;fill:#2e2e2e;fill-opacity:1;stroke:none;stroke-width:7.09330177"
         id="flowRoot22223-3-8-7"
         xml:space="preserve"><flowRegion
           style="fill:#2e2e2e;fill-opacity:1;stroke-width:7.09330177"
           id="flowRegion22225-9-2-0"><rect
             style="fill:#2e2e2e;fill-opacity:1;stroke-width:7.09330177"
             y="38.17144"
             x="53.033009"
             height="131.52187"
             width="170.05917"
             id="rect22227-8-8-7" /></flowRegion><flowPara
           style="font-style:normal;font-variant:normal;font-weight:normal;font-stretch:normal;font-size:40.17245102px;font-family:'Space Grotesk';-inkscape-font-specification:'Space Grotesk';fill:#2e2e2e;fill-opacity:1;stroke-width:7.09330177"
           id="flowPara22229-4-7-1">Hz</flowPara></flowRoot>    </g>
    <g
       id="g6714"
       transform="translate(-0.94494048)">
      <path
         sodipodi:nodetypes="csssssssssc"
         inkscape:connector-curvature="0"
         id="path6563-0-6-9"
         d="m 177.97687,289.65657 c 1.56436,-0.1151 1.40965,0.20686 2.47583,0.19626 1.20159,-0.0119 1.19992,0.31424 2.00245,-0.50771 0.92253,-0.94484 1.33637,2.31955 2.87987,0.74355 0.62833,-0.64156 0.72496,0.84839 2.41622,-0.12017 1.12643,-0.64509 1.47228,0.5236 2.69698,0.0836 1.59006,-0.57129 2.32537,-0.74452 3.46002,-0.61953 1.16869,0.12874 1.60176,0.59976 3.34484,0.81366 1.04832,0.12864 1.84947,0.19054 3.04746,-0.26926 1.57578,-0.60481 2.60851,0.43478 3.78788,-0.26753 1.33436,-0.79461 2.88786,0.62495 4.23117,0.18009"
         style="fill:none;stroke:#e35959;stroke-width:0.52916682;stroke-linecap:butt;stroke-linejoin:miter;stroke-miterlimit:4;stroke-dasharray:none;stroke-opacity:1" />
      <path
         sodipodi:nodetypes="cccccccccccccccc"
         inkscape:connector-curvature="0"
         id="path1921-0-8-8-6"
         style="font-style:normal;font-variant:normal;font-weight:normal;font-stretch:normal;font-size:16px;line-height:1.25;font-family:'Space Grotesk';-inkscape-font-specification:'Space Grotesk';letter-spacing:0px;word-spacing:0px;fill:#2e2e2e;fill-opacity:1;stroke:none;stroke-width:0.26458332"
         d="m 207.87858,289.50166 -0.37279,0.37279 1.06209,1.06209 0.21102,0.14771 -0.0211,0.0633 -33.16005,-0.0211 v 0.52753 h 32.8998 l 0.26024,-0.0211 0.0211,0.0633 -0.21101,0.14771 -1.06209,1.06209 0.37279,0.3728 1.66699,-1.67404 v -0.42905 z" />
      <path
         sodipodi:nodetypes="ccccccccccccccccc"
         inkscape:connector-curvature="0"
         id="path1921-0-3-0-4-3"
         style="font-style:normal;font-variant:normal;font-weight:normal;font-stretch:normal;font-size:16px;line-height:1.25;font-family:'Space Grotesk';-inkscape-font-specification:'Space Grotesk';letter-spacing:0px;word-spacing:0px;fill:#2e2e2e;fill-opacity:1;stroke:none;stroke-width:0.26458332"
         d="m 176.06778,279.08002 0.37279,0.37279 1.06209,-1.06208 0.14771,-0.21102 0.0633,0.0211 -0.0211,0.26024 v 15.4644 h 0.52753 v -15.46439 l -0.0211,-0.26024 0.0633,-0.0211 0.14771,0.21101 1.06209,1.06209 0.37279,-0.37279 -1.67403,-1.66699 h -0.42905 z" />
      <flowRoot
         transform="matrix(0.10491792,0,0,0.10584213,205.55005,284.60323)"
         style="font-style:normal;font-weight:normal;font-size:40px;line-height:1.25;font-family:sans-serif;letter-spacing:0px;word-spacing:0px;fill:#2e2e2e;fill-opacity:1;stroke:none;stroke-width:7.09330177"
         id="flowRoot22223-5-8-0"
         xml:space="preserve"><flowRegion
           style="fill:#2e2e2e;fill-opacity:1;stroke-width:7.09330177"
           id="flowRegion22225-90-9-1"><rect
             style="fill:#2e2e2e;fill-opacity:1;stroke-width:7.09330177"
             y="38.17144"
             x="53.033009"
             height="131.52187"
             width="170.05917"
             id="rect22227-9-8-4" /></flowRegion><flowPara
           style="font-style:normal;font-variant:normal;font-weight:normal;font-stretch:normal;font-size:40.17245102px;font-family:'Space Grotesk';-inkscape-font-specification:'Space Grotesk';fill:#2e2e2e;fill-opacity:1;stroke-width:7.09330177"
           id="flowPara22229-1-3-8">ms</flowPara></flowRoot>      <flowRoot
         transform="matrix(0.10491792,0,0,0.10584213,175.81327,272.96214)"
         style="font-style:normal;font-weight:normal;font-size:40px;line-height:1.25;font-family:sans-serif;letter-spacing:0px;word-spacing:0px;fill:#2e2e2e;fill-opacity:1;stroke:none;stroke-width:7.09330177"
         id="flowRoot22223-3-8-7-6"
         xml:space="preserve"><flowRegion
           style="fill:#2e2e2e;fill-opacity:1;stroke-width:7.09330177"
           id="flowRegion22225-9-2-0-6"><rect
             style="fill:#2e2e2e;fill-opacity:1;stroke-width:7.09330177"
             y="38.17144"
             x="53.033009"
             height="131.52187"
             width="170.05917"
             id="rect22227-8-8-7-6" /></flowRegion><flowPara
           style="font-style:normal;font-variant:normal;font-weight:normal;font-stretch:normal;font-size:40.17245102px;font-family:'Space Grotesk';-inkscape-font-specification:'Space Grotesk';fill:#2e2e2e;fill-opacity:1;stroke-width:7.09330177"
           id="flowPara22229-4-7-1-6">Hz</flowPara></flowRoot>    </g>
    <path
       style="color:#000000;font-style:normal;font-variant:normal;font-weight:normal;font-stretch:normal;font-size:medium;line-height:normal;font-family:sans-serif;font-variant-ligatures:normal;font-variant-position:normal;font-variant-caps:normal;font-variant-numeric:normal;font-variant-alternates:normal;font-feature-settings:normal;text-indent:0;text-align:start;text-decoration:none;text-decoration-line:none;text-decoration-style:solid;text-decoration-color:#000000;letter-spacing:normal;word-spacing:normal;text-transform:none;writing-mode:lr-tb;direction:ltr;text-orientation:mixed;dominant-baseline:auto;baseline-shift:baseline;text-anchor:start;white-space:normal;shape-padding:0;clip-rule:nonzero;display:inline;overflow:visible;visibility:visible;opacity:0.86199999;isolation:auto;mix-blend-mode:normal;color-interpolation:sRGB;color-interpolation-filters:linearRGB;solid-color:#000000;solid-opacity:1;vector-effect:none;fill:#e35959;fill-opacity:1;fill-rule:nonzero;stroke:none;stroke-width:0.52916676;stroke-linecap:round;stroke-linejoin:round;stroke-miterlimit:4;stroke-dasharray:none;stroke-dashoffset:0;stroke-opacity:1;paint-order:normal;color-rendering:auto;image-rendering:auto;shape-rendering:auto;text-rendering:auto;enable-background:accumulate"
       d="m 85.44486,256.00391 c -0.852438,0 -1.599514,0.54984 -2.115234,1.375 -0.51572,0.82515 -0.822266,1.9385 -0.822266,3.16406 0,1.22555 0.306546,2.33891 0.822266,3.16406 0.51572,0.82515 1.262796,1.37695 2.115234,1.37695 0.852438,0 1.597561,-0.5518 2.113281,-1.37695 0.248654,-0.39785 0.516176,-1.16896 0.951476,-1.80437 0.467532,-0.68247 1.312416,-1.22123 1.312416,-1.35969 0,-0.14005 -0.846174,-0.6805 -1.31462,-1.36386 -0.434731,-0.63418 -0.701037,-1.40303 -0.949272,-1.8002 -0.51572,-0.82516 -1.260843,-1.375 -2.113281,-1.375 z m 0,0.52734 c 0.623651,0 1.212457,0.40634 1.664063,1.12891 0.451605,0.72256 0.74414,1.74662 0.74414,2.88281 0,1.13618 -0.292535,2.1622 -0.74414,2.88476 -0.451606,0.72257 -1.040412,1.12696 -1.664063,1.12696 -0.623651,0 -1.21441,-0.40439 -1.666016,-1.12696 -0.451605,-0.72256 -0.742187,-1.74858 -0.742187,-2.88476 0,-1.13619 0.290582,-2.16025 0.742187,-2.88281 0.451606,-0.72257 1.042365,-1.12891 1.666016,-1.12891 z"
       id="path5896-7"
       inkscape:connector-curvature="0"
       sodipodi:nodetypes="scssssssscsscscscscs" />
    <path
       style="color:#000000;font-style:normal;font-variant:normal;font-weight:normal;font-stretch:normal;font-size:medium;line-height:normal;font-family:sans-serif;font-variant-ligatures:normal;font-variant-position:normal;font-variant-caps:normal;font-variant-numeric:normal;font-variant-alternates:normal;font-feature-settings:normal;text-indent:0;text-align:start;text-decoration:none;text-decoration-line:none;text-decoration-style:solid;text-decoration-color:#000000;letter-spacing:normal;word-spacing:normal;text-transform:none;writing-mode:lr-tb;direction:ltr;text-orientation:mixed;dominant-baseline:auto;baseline-shift:baseline;text-anchor:start;white-space:normal;shape-padding:0;clip-rule:nonzero;display:inline;overflow:visible;visibility:visible;opacity:0.86199999;isolation:auto;mix-blend-mode:normal;color-interpolation:sRGB;color-interpolation-filters:linearRGB;solid-color:#000000;solid-opacity:1;vector-effect:none;fill:#e35959;fill-opacity:1;fill-rule:nonzero;stroke:none;stroke-width:0.52916682;stroke-linecap:round;stroke-linejoin:round;stroke-miterlimit:4;stroke-dasharray:none;stroke-dashoffset:0;stroke-opacity:1;paint-order:normal;color-rendering:auto;image-rendering:auto;shape-rendering:auto;text-rendering:auto;enable-background:accumulate"
       d="m 140.23511,256.00391 c -0.85243,0 -1.59951,0.54984 -2.11523,1.375 -0.51572,0.82515 -0.82227,1.9385 -0.82227,3.16406 0,1.22555 0.30655,2.33891 0.82227,3.16406 0.51572,0.82515 1.2628,1.37695 2.11523,1.37695 0.85244,0 1.59756,-0.5518 2.11328,-1.37695 0.24866,-0.39785 0.51618,-1.16896 0.95148,-1.80437 0.46753,-0.68247 1.31242,-1.22123 1.31242,-1.35969 0,-0.14005 -0.84618,-0.6805 -1.31462,-1.36386 -0.43473,-0.63418 -0.70104,-1.40303 -0.94928,-1.8002 -0.51572,-0.82516 -1.26084,-1.375 -2.11328,-1.375 z m 0,0.52734 c 0.62365,0 1.21246,0.40634 1.66407,1.12891 0.4516,0.72256 0.74414,1.74662 0.74414,2.88281 0,1.13618 -0.29254,2.1622 -0.74414,2.88476 -0.45161,0.72257 -1.04042,1.12696 -1.66407,1.12696 -0.62365,0 -1.21441,-0.40439 -1.66601,-1.12696 -0.45161,-0.72256 -0.74219,-1.74858 -0.74219,-2.88476 0,-1.13619 0.29058,-2.16025 0.74219,-2.88281 0.4516,-0.72257 1.04236,-1.12891 1.66601,-1.12891 z"
       id="path5896-7-7"
       inkscape:connector-curvature="0"
       sodipodi:nodetypes="scssssssscsscscscscs" />
    <path
       style="color:#000000;font-style:normal;font-variant:normal;font-weight:normal;font-stretch:normal;font-size:medium;line-height:normal;font-family:sans-serif;font-variant-ligatures:normal;font-variant-position:normal;font-variant-caps:normal;font-variant-numeric:normal;font-variant-alternates:normal;font-feature-settings:normal;text-indent:0;text-align:start;text-decoration:none;text-decoration-line:none;text-decoration-style:solid;text-decoration-color:#000000;letter-spacing:normal;word-spacing:normal;text-transform:none;writing-mode:lr-tb;direction:ltr;text-orientation:mixed;dominant-baseline:auto;baseline-shift:baseline;text-anchor:start;white-space:normal;shape-padding:0;clip-rule:nonzero;display:inline;overflow:visible;visibility:visible;opacity:0.86199999;isolation:auto;mix-blend-mode:normal;color-interpolation:sRGB;color-interpolation-filters:linearRGB;solid-color:#000000;solid-opacity:1;vector-effect:none;fill:#e35959;fill-opacity:1;fill-rule:nonzero;stroke:none;stroke-width:0.52916682;stroke-linecap:round;stroke-linejoin:round;stroke-miterlimit:4;stroke-dasharray:none;stroke-dashoffset:0;stroke-opacity:1;paint-order:normal;color-rendering:auto;image-rendering:auto;shape-rendering:auto;text-rendering:auto;enable-background:accumulate"
       d="m 194.89173,256.00391 c -0.85243,0 -1.59951,0.54984 -2.11523,1.375 -0.51572,0.82515 -0.82227,1.9385 -0.82227,3.16406 0,1.22555 0.30655,2.33891 0.82227,3.16406 0.51572,0.82515 1.2628,1.37695 2.11523,1.37695 0.85244,0 1.59756,-0.5518 2.11328,-1.37695 0.24866,-0.39785 0.51618,-1.16896 0.95148,-1.80437 0.46753,-0.68247 1.31242,-1.22123 1.31242,-1.35969 0,-0.14005 -0.84618,-0.6805 -1.31462,-1.36386 -0.43473,-0.63418 -0.70104,-1.40303 -0.94928,-1.8002 -0.51572,-0.82516 -1.26084,-1.375 -2.11328,-1.375 z m 0,0.52734 c 0.62365,0 1.21246,0.40634 1.66407,1.12891 0.4516,0.72256 0.74414,1.74662 0.74414,2.88281 0,1.13618 -0.29254,2.1622 -0.74414,2.88476 -0.45161,0.72257 -1.04042,1.12696 -1.66407,1.12696 -0.62365,0 -1.21441,-0.40439 -1.66601,-1.12696 -0.45161,-0.72256 -0.74219,-1.74858 -0.74219,-2.88476 0,-1.13619 0.29058,-2.16025 0.74219,-2.88281 0.4516,-0.72257 1.04236,-1.12891 1.66601,-1.12891 z"
       id="path5896-7-7-8"
       inkscape:connector-curvature="0"
       sodipodi:nodetypes="scssssssscsscscscscs" />
  </g>
</svg>
