<?xml version="1.0" encoding="UTF-8" standalone="no"?>
<!-- Created with Inkscape (http://www.inkscape.org/) -->

<svg
   xmlns:dc="http://purl.org/dc/elements/1.1/"
   xmlns:cc="http://creativecommons.org/ns#"
   xmlns:rdf="http://www.w3.org/1999/02/22-rdf-syntax-ns#"
   xmlns:svg="http://www.w3.org/2000/svg"
   xmlns="http://www.w3.org/2000/svg"
   xmlns:sodipodi="http://sodipodi.sourceforge.net/DTD/sodipodi-0.dtd"
   xmlns:inkscape="http://www.inkscape.org/namespaces/inkscape"
   width="840"
   height="400"
   viewBox="0 0 222.24999 105.83333"
   version="1.1"
   id="svg8"
   inkscape:version="0.92.3 (2405546, 2018-03-11)"
   sodipodi:docname="benchmark_gaps.svg">
  <defs
     id="defs2" />
  <sodipodi:namedview
     id="base"
     pagecolor="#ffffff"
     bordercolor="#666666"
     borderopacity="1.0"
     inkscape:pageopacity="0.0"
     inkscape:pageshadow="2"
     inkscape:zoom="1.4"
     inkscape:cx="237.85592"
     inkscape:cy="249.01704"
     inkscape:document-units="mm"
     inkscape:current-layer="layer1"
     showgrid="false"
     units="px"
     showguides="true"
     inkscape:guide-bbox="true"
     inkscape:window-width="2560"
     inkscape:window-height="1401"
     inkscape:window-x="0"
     inkscape:window-y="19"
     inkscape:window-maximized="1" />
  <metadata
     id="metadata5">
    <rdf:RDF>
      <cc:Work
         rdf:about="">
        <dc:format>image/svg+xml</dc:format>
        <dc:type
           rdf:resource="http://purl.org/dc/dcmitype/StillImage" />
        <dc:title></dc:title>
      </cc:Work>
    </rdf:RDF>
  </metadata>
  <g
     inkscape:label="Layer 1"
     inkscape:groupmode="layer"
     id="layer1"
     transform="translate(0,-191.16664)">
    <rect
       style="opacity:0.98000004;fill:#e35959;fill-opacity:0.49803922;stroke:none;stroke-width:0.52916664;stroke-linecap:round;stroke-linejoin:round;stroke-miterlimit:4;stroke-dasharray:none;stroke-dashoffset:0;stroke-opacity:1;paint-order:normal"
       id="rect1744-5-2-4-0-3-4"
       width="5.7684608"
       height="14.722912"
       x="168.82153"
       y="240.59677" />
    <path
       style="opacity:0.98000004;fill:none;stroke:#e35959;stroke-width:0.52916682;stroke-linecap:butt;stroke-linejoin:miter;stroke-miterlimit:4;stroke-dasharray:none;stroke-opacity:1"
       d="m 168.81395,240.59678 h 5.78692"
       id="path884-6-8-2-0-3-3"
       inkscape:connector-curvature="0" />
    <rect
       style="opacity:0.98000004;fill:#e35959;fill-opacity:0.49803922;stroke:none;stroke-width:0.52916664;stroke-linecap:round;stroke-linejoin:round;stroke-miterlimit:4;stroke-dasharray:none;stroke-dashoffset:0;stroke-opacity:1;paint-order:normal"
       id="rect1744-5-2-4-0-34"
       width="6.1662407"
       height="14.722912"
       x="147.26146"
       y="240.59679" />
    <rect
       style="opacity:0.98000004;fill:#e35959;fill-opacity:0.49803922;stroke:none;stroke-width:0.52916664;stroke-linecap:round;stroke-linejoin:round;stroke-miterlimit:4;stroke-dasharray:none;stroke-dashoffset:0;stroke-opacity:1;paint-order:normal"
       id="rect1744-5-2-4-0-3"
       width="6.4326577"
       height="14.722912"
       x="167.43068"
       y="207.18225" />
    <path
       style="opacity:0.98000004;fill:none;stroke:#e35959;stroke-width:0.52916682;stroke-linecap:butt;stroke-linejoin:miter;stroke-miterlimit:4;stroke-dasharray:none;stroke-opacity:1"
       d="m 167.42222,207.18225 h 6.45324"
       id="path884-6-8-2-0-3"
       inkscape:connector-curvature="0" />
    <rect
       style="opacity:0.98000004;fill:#e35959;fill-opacity:0.49803922;stroke:none;stroke-width:0.52916664;stroke-linecap:round;stroke-linejoin:round;stroke-miterlimit:4;stroke-dasharray:none;stroke-dashoffset:0;stroke-opacity:1;paint-order:normal"
       id="rect1744-5-2-4-0"
       width="6.4326577"
       height="14.722912"
       x="146.58365"
       y="207.18225" />
    <path
       style="opacity:0.98000004;fill:none;stroke:#e35959;stroke-width:0.52916682;stroke-linecap:butt;stroke-linejoin:miter;stroke-miterlimit:4;stroke-dasharray:none;stroke-opacity:1"
       d="m 146.5752,207.18225 h 6.45324"
       id="path884-6-8-2-0"
       inkscape:connector-curvature="0" />
    <rect
       style="opacity:0.98000004;fill:#e35959;fill-opacity:0.49803922;stroke:none;stroke-width:0.52916664;stroke-linecap:round;stroke-linejoin:round;stroke-miterlimit:4;stroke-dasharray:none;stroke-dashoffset:0;stroke-opacity:1;paint-order:normal"
       id="rect1744-5-1"
       width="4.4504447"
       height="9.5729847"
       x="66.706886"
       y="245.82521" />
    <rect
       style="opacity:0.98000004;fill:#e35959;fill-opacity:0.49803922;stroke:none;stroke-width:0.52916664;stroke-linecap:round;stroke-linejoin:round;stroke-miterlimit:4;stroke-dasharray:none;stroke-dashoffset:0;stroke-opacity:1;paint-order:normal"
       id="rect1744-5-2-9"
       width="4.7546372"
       height="9.5729847"
       x="88.751884"
       y="245.82521" />
    <rect
       style="opacity:0.98000004;fill:#e35959;fill-opacity:0.49803922;stroke:none;stroke-width:0.52916658;stroke-linecap:round;stroke-linejoin:round;stroke-miterlimit:4;stroke-dasharray:none;stroke-dashoffset:0;stroke-opacity:1;paint-order:normal"
       id="rect1744-9"
       width="4.5222206"
       height="9.5729847"
       x="29.182392"
       y="245.82521" />
    <path
       style="opacity:0.98000004;fill:none;stroke:#e35959;stroke-width:0.5291667;stroke-linecap:butt;stroke-linejoin:miter;stroke-miterlimit:4;stroke-dasharray:none;stroke-opacity:1"
       d="m 29.182391,245.82522 h 4.536694"
       id="path884-60"
       inkscape:connector-curvature="0" />
    <path
       style="opacity:0.98000004;fill:none;stroke:#e35959;stroke-width:0.52916682;stroke-linecap:butt;stroke-linejoin:miter;stroke-miterlimit:4;stroke-dasharray:none;stroke-opacity:1"
       d="m 66.708645,245.82521 h 4.464692"
       id="path884-6-6"
       inkscape:connector-curvature="0" />
    <path
       style="opacity:0.98000004;fill:none;stroke:#e35959;stroke-width:0.52916682;stroke-linecap:butt;stroke-linejoin:miter;stroke-miterlimit:4;stroke-dasharray:none;stroke-opacity:1"
       d="m 88.745584,245.82521 h 4.769853"
       id="path884-6-8-4"
       inkscape:connector-curvature="0" />
    <rect
       style="opacity:0.98000004;fill:#e35959;fill-opacity:0.49803922;stroke:none;stroke-width:0.52916664;stroke-linecap:round;stroke-linejoin:round;stroke-miterlimit:4;stroke-dasharray:none;stroke-dashoffset:0;stroke-opacity:1;paint-order:normal"
       id="rect1744-5"
       width="5.0192895"
       height="9.5729847"
       x="65.869553"
       y="212.3322" />
    <rect
       style="opacity:0.98000004;fill:#e35959;fill-opacity:0.49803922;stroke:none;stroke-width:0.52916652;stroke-linecap:round;stroke-linejoin:round;stroke-miterlimit:4;stroke-dasharray:none;stroke-dashoffset:0;stroke-opacity:1;paint-order:normal"
       id="rect1744-5-2"
       width="5.1498685"
       height="9.5729847"
       x="88.182434"
       y="212.3322" />
    <rect
       style="opacity:0.98000004;fill:#e35959;fill-opacity:0.49803922;stroke:none;stroke-width:0.52916664;stroke-linecap:round;stroke-linejoin:round;stroke-miterlimit:4;stroke-dasharray:none;stroke-dashoffset:0;stroke-opacity:1;paint-order:normal"
       id="rect1744"
       width="4.8273706"
       height="9.5729847"
       x="28.514503"
       y="212.3322" />
    <path
       inkscape:connector-curvature="0"
       id="path865"
       style="font-style:normal;font-variant:normal;font-weight:normal;font-stretch:normal;font-size:medium;line-height:1.25;font-family:GaramondNo8;-inkscape-font-specification:GaramondNo8;letter-spacing:0px;word-spacing:0px;fill:#000000;fill-opacity:1;stroke:none;stroke-width:0.10872227"
       d="m 21.136284,209.70673 v 4.96746 q 0,1.81092 0.05031,2.11274 0.100607,0.60364 1.345614,0.74197 0.402426,0.0252 0.415002,0.23894 v 0.17606 q 0,0.3144 -0.314396,0.3144 -0.176062,0 -1.056369,-0.088 -0.905459,-0.088 -1.421068,-0.088 -0.477882,0 -2.150466,0.1509 -0.226366,0.0252 -0.364699,0.0252 -0.289244,0 -0.289244,-0.31439 v -0.17606 q 0,-0.21379 0.402426,-0.23894 1.081521,-0.088 1.270158,-0.50304 0.100607,-0.17606 0.125759,-0.59106 0.01257,-0.15091 0.02515,-1.76061 v -3.53381 q -0.01258,-1.23244 -0.08803,-1.47137 -0.113182,-0.45273 -1.270158,-1.0438 l -0.02515,-0.35212 1.697736,-0.80485 q 0.84258,-0.40243 1.521675,-0.75455 l 0.125758,0.0629 v 2.10016 q 0.99349,-0.76712 1.59713,-1.15697 1.408492,-0.90546 2.678651,-0.90546 1.471371,0 2.326527,0.94319 0.45273,0.50303 0.60364,1.21985 0.138334,0.59106 0.138334,1.83607 v 3.86078 q 0,1.68516 0.01258,1.88638 0.05031,0.5659 0.490457,0.75454 0.352124,0.16349 0.90546,0.21379 0.402426,0.0377 0.402426,0.23895 v 0.17605 q 0,0.3144 -0.314395,0.3144 -0.163486,0 -1.043794,-0.088 -0.905459,-0.088 -1.433644,-0.088 -0.477881,0 -2.150466,0.1509 -0.213789,0.0252 -0.352123,0.0252 -0.289244,0 -0.289244,-0.31439 v -0.17606 q 0,-0.21379 0.402426,-0.23894 1.068945,-0.088 1.257583,-0.50303 0.100606,-0.17607 0.125758,-0.59107 0.01258,-0.0252 0.02515,-1.76061 v -3.48351 q 0,-1.1947 -0.100606,-1.5594 -0.15091,-0.51561 -0.490458,-0.83001 -0.591063,-0.5156 -1.521674,-0.5156 -1.232431,0 -2.43971,0.7294 -0.389851,0.23894 -0.830005,0.69166 z" />
    <path
       inkscape:connector-curvature="0"
       id="path867"
       style="font-style:normal;font-variant:normal;font-weight:normal;font-stretch:normal;font-size:medium;line-height:1.25;font-family:GaramondNo8;-inkscape-font-specification:GaramondNo8;letter-spacing:0px;word-spacing:0px;fill:#000000;fill-opacity:1;stroke:none;stroke-width:0.10872227"
       d="m 35.372118,209.70673 v 4.96746 q 0,1.81092 0.05031,2.11274 0.100606,0.60364 1.345613,0.74197 0.402427,0.0252 0.415002,0.23894 v 0.17606 q 0,0.3144 -0.314395,0.3144 -0.176062,0 -1.056369,-0.088 -0.90546,-0.088 -1.421069,-0.088 -0.477881,0 -2.150466,0.1509 -0.226365,0.0252 -0.364699,0.0252 -0.289244,0 -0.289244,-0.31439 v -0.17606 q 0,-0.21379 0.402427,-0.23894 1.08152,-0.088 1.270158,-0.50304 0.100606,-0.17606 0.125758,-0.59106 0.01257,-0.15091 0.02515,-1.76061 v -3.53381 q -0.01258,-1.23244 -0.08803,-1.47137 -0.113183,-0.45273 -1.270159,-1.0438 l -0.02515,-0.35212 1.697736,-0.80485 q 0.842581,-0.40243 1.521676,-0.75455 l 0.125758,0.0629 v 2.10016 q 0.99349,-0.76712 1.59713,-1.15697 1.408492,-0.90546 2.67865,-0.90546 1.471372,0 2.326528,0.94319 0.45273,0.50303 0.603639,1.21985 0.138335,0.59106 0.138335,1.83607 v 3.86078 q 0,1.68516 0.01257,1.88638 0.05031,0.5659 0.490457,0.75454 0.352123,0.16349 0.905459,0.21379 0.402427,0.0377 0.402427,0.23895 v 0.17605 q 0,0.3144 -0.314396,0.3144 -0.163485,0 -1.043793,-0.088 -0.90546,-0.088 -1.433644,-0.088 -0.477882,0 -2.150466,0.1509 -0.213789,0.0252 -0.352124,0.0252 -0.289244,0 -0.289244,-0.31439 v -0.17606 q 0,-0.21379 0.402427,-0.23894 1.068945,-0.088 1.257582,-0.50303 0.100607,-0.17607 0.125759,-0.59107 0.01257,-0.0252 0.02515,-1.76061 v -3.48351 q 0,-1.1947 -0.100607,-1.5594 -0.15091,-0.51561 -0.490457,-0.83001 -0.591063,-0.5156 -1.521675,-0.5156 -1.23243,0 -2.43971,0.7294 -0.38985,0.23894 -0.830004,0.69166 z" />
    <path
       inkscape:connector-curvature="0"
       id="path869"
       style="font-style:normal;font-variant:normal;font-weight:normal;font-stretch:normal;font-size:medium;line-height:1.25;font-family:GaramondNo8;-inkscape-font-specification:GaramondNo8;letter-spacing:0px;word-spacing:0px;fill:#000000;fill-opacity:1;stroke:none;stroke-width:0.10872227"
       d="m 58.515848,209.70673 v 4.96746 q 0,1.81092 0.05029,2.11274 0.100607,0.60364 1.345618,0.74197 0.402426,0.0252 0.415001,0.23894 v 0.17606 q 0,0.3144 -0.314395,0.3144 -0.176063,0 -1.056372,-0.088 -0.90546,-0.088 -1.421068,-0.088 -0.477883,0 -2.150466,0.1509 -0.226365,0.0252 -0.364698,0.0252 -0.289244,0 -0.289244,-0.31439 v -0.17606 q 0,-0.21379 0.402426,-0.23894 1.081521,-0.088 1.270159,-0.50304 0.100607,-0.17606 0.125757,-0.59106 0.01256,-0.15091 0.02518,-1.76061 v -3.53381 q -0.01256,-1.23244 -0.08803,-1.47137 -0.113181,-0.45273 -1.270155,-1.0438 l -0.02515,-0.35212 1.697732,-0.80485 q 0.842584,-0.40243 1.52168,-0.75455 l 0.125757,0.0629 v 2.10016 q 0.993491,-0.76712 1.597131,-1.15697 1.408492,-0.90546 2.678646,-0.90546 1.471374,0 2.326527,0.94319 0.452733,0.50303 0.60364,1.21985 0.138338,0.59106 0.138338,1.83607 v 3.86078 q 0,1.68516 0.01256,1.88638 0.05029,0.5659 0.490458,0.75454 0.35212,0.16349 0.905459,0.21379 0.402427,0.0377 0.402427,0.23895 v 0.17605 q 0,0.3144 -0.314395,0.3144 -0.163488,0 -1.043798,-0.088 -0.905459,-0.088 -1.433642,-0.088 -0.477883,0 -2.150464,0.1509 -0.213788,0.0252 -0.352126,0.0252 -0.289245,0 -0.289245,-0.31439 v -0.17606 q 0,-0.21379 0.402426,-0.23894 1.068948,-0.088 1.257586,-0.50303 0.100607,-0.17607 0.125757,-0.59107 0.01255,-0.0252 0.02518,-1.76061 v -3.48351 q 0,-1.1947 -0.100607,-1.5594 -0.150907,-0.51561 -0.490458,-0.83001 -0.591058,-0.5156 -1.521674,-0.5156 -1.232429,0 -2.439709,0.7294 -0.389851,0.23894 -0.830003,0.69166 z" />
    <path
       inkscape:connector-curvature="0"
       id="path871"
       style="font-style:normal;font-variant:normal;font-weight:normal;font-stretch:normal;font-size:medium;line-height:1.25;font-family:GaramondNo8;-inkscape-font-specification:GaramondNo8;letter-spacing:0px;word-spacing:0px;fill:#000000;fill-opacity:1;stroke:none;stroke-width:0.10872227"
       d="m 72.739104,198.27531 0.163489,0.0755 q -0.01256,0.67909 -0.02518,2.20077 l -0.01256,1.73546 v 12.38719 q 0.01256,1.81092 0.05029,2.11274 0.100607,0.61621 1.358186,0.74197 0.415008,0.0252 0.415008,0.23894 v 0.17606 q 0,0.3144 -0.314401,0.3144 -0.176057,0 -1.056366,-0.088 -0.90546,-0.088 -1.433643,-0.088 -0.553339,0 -1.433649,0.088 -0.867728,0.088 -1.182123,0.088 -0.339551,0 -0.339551,-0.3144 v -0.17606 q 0,-0.1006 0.05029,-0.15091 0.07546,-0.0755 0.503033,-0.088 0.704247,-0.0252 1.119248,-0.32697 0.188638,-0.13833 0.238938,-0.415 0.05029,-0.30182 0.06291,-2.11274 v -11.95961 q -0.01256,-1.23243 -0.08803,-1.47137 -0.08803,-0.44016 -1.270161,-1.0438 l -0.02518,-0.35212 1.697738,-0.80485 q 0.943184,-0.45273 1.521674,-0.76713 z" />
    <path
       inkscape:connector-curvature="0"
       id="path873"
       style="font-style:normal;font-variant:normal;font-weight:normal;font-stretch:normal;font-size:medium;line-height:1.25;font-family:GaramondNo8;-inkscape-font-specification:GaramondNo8;letter-spacing:0px;word-spacing:0px;fill:#000000;fill-opacity:1;stroke:none;stroke-width:0.10872227"
       d="m 88.034114,198.27531 0.163488,0.0755 q -0.01255,0.67909 -0.02518,2.20077 l -0.01256,1.73546 v 12.38719 q 0.01256,1.81092 0.05029,2.11274 0.100607,0.61621 1.358186,0.74197 0.415008,0.0252 0.415008,0.23894 v 0.17606 q 0,0.3144 -0.314401,0.3144 -0.176057,0 -1.056367,-0.088 -0.905459,-0.088 -1.433642,-0.088 -0.55334,0 -1.433649,0.088 -0.867728,0.088 -1.182123,0.088 -0.339551,0 -0.339551,-0.3144 v -0.17606 q 0,-0.1006 0.05029,-0.15091 0.07546,-0.0755 0.503033,-0.088 0.704246,-0.0252 1.119248,-0.32697 0.188638,-0.13833 0.238938,-0.415 0.05029,-0.30182 0.06291,-2.11274 v -11.95961 q -0.01256,-1.23243 -0.08803,-1.47137 -0.08803,-0.44016 -1.270161,-1.0438 l -0.02518,-0.35212 1.697738,-0.80485 q 0.943184,-0.45273 1.521674,-0.76713 z" />
    <path
       inkscape:connector-curvature="0"
       id="path875"
       style="font-style:normal;font-variant:normal;font-weight:normal;font-stretch:normal;font-size:medium;line-height:1.25;font-family:GaramondNo8;-inkscape-font-specification:GaramondNo8;letter-spacing:0px;word-spacing:0px;fill:#000000;fill-opacity:1;stroke:none;stroke-width:0.10872227"
       d="m 95.177183,198.27531 0.163488,0.0755 q -0.01255,0.67909 -0.02517,2.20077 l -0.01256,1.73546 v 12.38719 q 0.01256,1.81092 0.05029,2.11274 0.100607,0.61621 1.358186,0.74197 0.415008,0.0252 0.415008,0.23894 v 0.17606 q 0,0.3144 -0.314401,0.3144 -0.176057,0 -1.056367,-0.088 -0.905459,-0.088 -1.433642,-0.088 -0.55334,0 -1.433649,0.088 -0.867728,0.088 -1.182123,0.088 -0.339551,0 -0.339551,-0.3144 v -0.17606 q 0,-0.1006 0.05029,-0.15091 0.07546,-0.0755 0.503033,-0.088 0.704246,-0.0252 1.119248,-0.32697 0.188638,-0.13833 0.238938,-0.415 0.05029,-0.30182 0.06291,-2.11274 v -11.95961 q -0.01256,-1.23243 -0.08803,-1.47137 -0.08803,-0.44016 -1.270161,-1.0438 l -0.02518,-0.35212 1.697737,-0.80485 q 0.943185,-0.45273 1.521675,-0.76713 z" />
    <flowRoot
       xml:space="preserve"
       id="flowRoot833-1"
       style="font-style:normal;font-weight:normal;font-size:40px;line-height:1.25;font-family:sans-serif;letter-spacing:0px;word-spacing:0px;fill:#000000;fill-opacity:1;stroke:none;stroke-width:0.4109188"
       transform="matrix(0.64388227,0,0,0.64388227,-11.492455,175.55391)"><flowRegion
         id="flowRegion835-3"
         style="stroke-width:0.4109188"><rect
           id="rect837-3"
           width="782.85712"
           height="420"
           x="42.857143"
           y="82.519684"
           style="stroke-width:0.4109188" /></flowRegion><flowPara
         id="flowPara839-3"
         style="font-style:normal;font-variant:normal;font-weight:bold;font-stretch:normal;font-family:GaramondNo8;-inkscape-font-specification:'GaramondNo8 Bold';stroke-width:0.16885427">nn nl ll oo IUL</flowPara></flowRoot>    <path
       style="opacity:0.98000004;fill:none;stroke:#e35959;stroke-width:0.5291667;stroke-linecap:butt;stroke-linejoin:miter;stroke-miterlimit:4;stroke-dasharray:none;stroke-opacity:1"
       d="m 28.514502,212.3322 h 4.84282"
       id="path884"
       inkscape:connector-curvature="0" />
    <path
       style="opacity:0.98000004;fill:none;stroke:#e35959;stroke-width:0.52916676;stroke-linecap:butt;stroke-linejoin:miter;stroke-miterlimit:4;stroke-dasharray:none;stroke-opacity:1"
       d="m 65.871539,212.33219 h 5.035354"
       id="path884-6"
       inkscape:connector-curvature="0" />
    <path
       style="opacity:0.98000004;fill:none;stroke:#e35959;stroke-width:0.52916682;stroke-linecap:butt;stroke-linejoin:miter;stroke-miterlimit:4;stroke-dasharray:none;stroke-opacity:1"
       d="M 88.175609,212.33219 H 93.34196"
       id="path884-6-8"
       inkscape:connector-curvature="0" />
    <path
       inkscape:connector-curvature="0"
       id="path1866"
       style="font-style:normal;font-variant:normal;font-weight:normal;font-stretch:normal;font-size:medium;line-height:1.25;font-family:GaramondNo8;-inkscape-font-specification:GaramondNo8;letter-spacing:0px;word-spacing:0px;fill:#000000;fill-opacity:1;stroke:none;stroke-width:0.10872227"
       d="m 112.74944,206.54231 q 2.37684,0 4.1123,1.74804 1.64743,1.67258 1.64743,4.03683 0,2.6032 -1.94925,4.36382 -1.81092,1.63486 -4.28836,1.63486 -2.3894,0 -3.97395,-1.60971 -1.68516,-1.69774 -1.68516,-4.18775 0,-1.77319 1.04379,-3.30745 0.90545,-1.34561 2.47744,-2.075 1.27015,-0.60364 2.61576,-0.60364 z m -0.45273,0.84258 q -1.78576,0 -2.57804,1.30788 -0.84258,1.38334 -0.84258,3.37033 0,2.40197 1.24501,4.07456 0.99349,1.34561 2.66607,1.34561 1.49652,0 2.38941,-1.08151 1.06894,-1.27017 1.06894,-3.50866 0,-2.61577 -1.23243,-4.2129 -1.00607,-1.29531 -2.71638,-1.29531 z" />
    <path
       inkscape:connector-curvature="0"
       id="path1868"
       style="font-style:normal;font-variant:normal;font-weight:normal;font-stretch:normal;font-size:medium;line-height:1.25;font-family:GaramondNo8;-inkscape-font-specification:GaramondNo8;letter-spacing:0px;word-spacing:0px;fill:#000000;fill-opacity:1;stroke:none;stroke-width:0.10872227"
       d="m 126.53256,206.54231 q 2.37683,0 4.11229,1.74804 1.64743,1.67258 1.64743,4.03683 0,2.6032 -1.94925,4.36382 -1.81092,1.63486 -4.28836,1.63486 -2.3894,0 -3.97395,-1.60971 -1.68517,-1.69774 -1.68517,-4.18775 0,-1.77319 1.0438,-3.30745 0.90546,-1.34561 2.47744,-2.075 1.27016,-0.60364 2.61577,-0.60364 z m -0.45274,0.84258 q -1.78576,0 -2.57804,1.30788 -0.84258,1.38334 -0.84258,3.37033 0,2.40197 1.24501,4.07456 0.99349,1.34561 2.66607,1.34561 1.49653,0 2.38941,-1.08151 1.06895,-1.27017 1.06895,-3.50866 0,-2.61577 -1.23244,-4.2129 -1.00606,-1.29531 -2.71638,-1.29531 z" />
    <path
       inkscape:connector-curvature="0"
       id="path1870"
       style="font-style:normal;font-variant:normal;font-weight:normal;font-stretch:normal;font-size:medium;line-height:1.25;font-family:GaramondNo8;-inkscape-font-specification:GaramondNo8;letter-spacing:0px;word-spacing:0px;fill:#000000;fill-opacity:1;stroke:none;stroke-width:0.10872227"
       d="m 144.27304,214.4022 v -10.9284 q -0.0126,-1.59713 -0.13834,-1.9241 -0.20121,-0.54076 -0.89288,-0.71682 -0.35213,-0.0629 -1.25759,-0.0755 -0.36469,0 -0.37727,-0.35213 v -0.16348 q 0,-0.32698 0.3647,-0.32698 0.30182,0 0.79228,0.0377 1.6097,0.10061 2.59062,0.10061 1.38334,0 2.79183,-0.10061 0.44015,-0.0377 0.70425,-0.0377 0.33954,0 0.33954,0.32698 v 0.16348 q 0,0.23894 -0.11318,0.30182 -0.088,0.0503 -0.50303,0.0629 -0.93061,0.0251 -1.23243,0.16349 -0.49046,0.21379 -0.64137,0.69167 -0.10061,0.3647 -0.11318,1.84865 v 10.92839 q 0.0126,1.77319 0.23894,2.11274 0.18863,0.31439 0.65394,0.47788 0.27667,0.10061 1.0941,0.10061 0.50303,0 0.59106,0.0629 0.10061,0.0755 0.10061,0.30182 v 0.16349 q 0,0.32697 -0.35213,0.32697 -0.27667,0 -0.76712,-0.0377 -1.49652,-0.10061 -2.76668,-0.10061 -0.99349,0 -2.57805,0.10061 -0.51561,0.0377 -0.79227,0.0377 -0.38985,0 -0.38985,-0.32697 v -0.16349 q 0.0125,-0.23893 0.11318,-0.30182 0.11318,-0.0503 0.71682,-0.0629 1.21986,0 1.58456,-0.57849 0.22636,-0.32697 0.23894,-2.11274 z" />
    <path
       inkscape:connector-curvature="0"
       id="path1872"
       style="font-style:normal;font-variant:normal;font-weight:normal;font-stretch:normal;font-size:medium;line-height:1.25;font-family:GaramondNo8;-inkscape-font-specification:GaramondNo8;letter-spacing:0px;word-spacing:0px;fill:#000000;fill-opacity:1;stroke:none;stroke-width:0.10872227"
       d="m 155.36491,203.4738 v 6.72807 q 0,1.72289 0.0252,2.25107 0.0377,0.52819 0.18863,1.11926 0.3647,1.55939 1.48395,2.35167 1.30788,0.93061 3.44577,0.93061 2.03729,0 3.47093,-0.91803 1.48395,-0.94319 1.93668,-2.86729 0.27667,-1.1444 0.27667,-3.0685 v -6.41367 q 0,-1.7732 -0.13833,-2.1882 -0.18864,-0.40242 -0.74198,-0.54076 -0.38985,-0.088 -1.11925,-0.1006 -0.32697,-0.0126 -0.33954,-0.3144 v -0.21379 q 0,-0.3144 0.26409,-0.3144 0.15091,0 0.5156,0.0503 1.0941,0.0377 2.1882,0.088 2.35168,-0.1006 2.67865,-0.11318 0.22637,-0.0251 0.3647,-0.0251 0.28924,0 0.28924,0.26409 v 0.3144 q 0,0.16348 -0.088,0.21379 -0.0755,0.0503 -0.42758,0.0503 -0.93061,0.0126 -1.33303,0.10061 -0.69167,0.16349 -0.80485,0.84258 -0.0377,0.32697 -0.0377,1.47137 v 7.98565 q 0,3.26971 -1.59713,5.05548 -1.88637,2.11274 -5.65912,2.11274 -3.82305,0 -5.722,-1.86122 -1.00606,-0.99349 -1.27016,-2.41456 -0.16349,-0.8803 -0.16349,-1.93668 v -8.6396 q -0.0252,-1.63485 -0.13833,-1.91152 -0.20121,-0.54076 -0.89288,-0.71682 -0.40243,-0.0755 -1.34561,-0.088 -0.35213,0 -0.36471,-0.35213 v -0.16348 q 0,-0.32698 0.33955,-0.32698 0.23894,0 0.74198,0.0377 1.27015,0.11318 2.86728,0.11318 1.37077,0 2.76669,-0.11318 0.54076,-0.0377 0.84258,-0.0377 0.33955,0 0.33955,0.32698 v 0.16348 q 0,0.22637 -0.11319,0.30182 -0.10061,0.0503 -0.90546,0.0629 -1.20728,0 -1.58455,0.57849 -0.16349,0.25152 -0.20121,0.7797 -0.0377,0.3647 -0.0377,1.34562 z" />
    <path
       inkscape:connector-curvature="0"
       id="path1874"
       style="font-style:normal;font-variant:normal;font-weight:normal;font-stretch:normal;font-size:medium;line-height:1.25;font-family:GaramondNo8;-inkscape-font-specification:GaramondNo8;letter-spacing:0px;word-spacing:0px;fill:#000000;fill-opacity:1;stroke:none;stroke-width:0.10872227"
       d="m 173.77592,214.4022 v -10.9284 q -0.0126,-1.59713 -0.13833,-1.9241 -0.21379,-0.54076 -0.89289,-0.71682 -0.33954,-0.0629 -1.18212,-0.0755 -0.3647,0 -0.37727,-0.35213 v -0.16348 q 0,-0.32698 0.33954,-0.32698 0.27667,0 0.69167,0.0377 1.29531,0.10061 2.67865,0.10061 1.0941,0 2.74153,-0.10061 0.54076,-0.0377 0.86773,-0.0377 0.3647,0 0.3647,0.32698 v 0.16348 q -0.0126,0.23894 -0.11318,0.30182 -0.11318,0.0503 -0.84258,0.0629 -1.20728,0 -1.58455,0.57849 -0.16349,0.26409 -0.20122,0.76713 -0.0377,0.25151 -0.0377,1.35819 v 9.83429 q 0,1.8738 0.32698,2.54032 0.35212,0.69167 1.245,0.91803 0.84258,0.22637 2.62835,0.22637 2.12531,0 2.90502,-0.37728 0.3647,-0.16348 0.75454,-0.86773 0.0503,-0.0755 0.55334,-1.00607 0.33955,-0.62879 0.40243,-0.69167 0.10061,-0.088 0.23894,-0.088 0.46531,0 0.46531,0.21379 0,0.0252 -0.0377,0.23894 l -0.60364,2.43971 q -0.20121,0.76713 -0.3647,0.94319 -0.0754,0.10061 -0.21379,0.11318 -0.12575,0.0252 -1.10667,0.0377 l -2.07501,-0.0503 -2.94274,-0.0377 -2.31396,-0.0503 q -2.86729,0.0755 -3.57153,0.10061 -0.51561,0.0377 -0.81743,0.0377 -0.3647,0 -0.3647,-0.32697 v -0.16349 q 0.0126,-0.23894 0.11319,-0.30182 0.11318,-0.0503 0.64136,-0.0629 1.20728,0 1.58456,-0.57849 0.22636,-0.33955 0.23893,-2.11274 z" />
    <rect
       style="opacity:0.98000004;fill:#e35959;fill-opacity:0.49803922;stroke:none;stroke-width:0.52916664;stroke-linecap:round;stroke-linejoin:round;stroke-miterlimit:4;stroke-dasharray:none;stroke-dashoffset:0;stroke-opacity:1;paint-order:normal"
       id="rect1744-5-2-4"
       width="1.8664385"
       height="9.5729847"
       x="118.51436"
       y="212.33218" />
    <path
       style="opacity:0.98000004;fill:none;stroke:#e35959;stroke-width:0.52916682;stroke-linecap:butt;stroke-linejoin:miter;stroke-miterlimit:4;stroke-dasharray:none;stroke-opacity:1"
       d="m 118.5119,212.33218 h 1.87241"
       id="path884-6-8-2"
       inkscape:connector-curvature="0" />
    <rect
       style="opacity:0.98000004;fill:#e35959;fill-opacity:0.49803922;stroke:none;stroke-width:0.52916664;stroke-linecap:round;stroke-linejoin:round;stroke-miterlimit:4;stroke-dasharray:none;stroke-dashoffset:0;stroke-opacity:1;paint-order:normal"
       id="rect1744-5-2-9-9"
       width="1.8181044"
       height="9.5729847"
       x="118.81583"
       y="245.82521" />
    <path
       style="opacity:0.98000004;fill:none;stroke:#e35959;stroke-width:0.52916682;stroke-linecap:butt;stroke-linejoin:miter;stroke-miterlimit:4;stroke-dasharray:none;stroke-opacity:1"
       d="m 118.81341,245.82521 h 1.82392"
       id="path884-6-8-4-0"
       inkscape:connector-curvature="0" />
    <path
       style="opacity:0.98000004;fill:none;stroke:#e35959;stroke-width:0.52916682;stroke-linecap:butt;stroke-linejoin:miter;stroke-miterlimit:4;stroke-dasharray:none;stroke-opacity:1"
       d="m 147.25336,240.59678 h 6.18597"
       id="path884-6-8-2-0-2"
       inkscape:connector-curvature="0" />
    <rect
       style="opacity:0.98000004;fill:#e35959;fill-opacity:0.49803922;stroke:none;stroke-width:0.52916664;stroke-linecap:round;stroke-linejoin:round;stroke-miterlimit:4;stroke-dasharray:none;stroke-dashoffset:0;stroke-opacity:1;paint-order:normal"
       id="rect1744-5-2-4-0-3-4-3"
       width="4.9402347"
       height="14.722912"
       x="166.43851"
       y="275.29971" />
    <path
       style="opacity:0.98000004;fill:none;stroke:#e35959;stroke-width:0.52916682;stroke-linecap:butt;stroke-linejoin:miter;stroke-miterlimit:4;stroke-dasharray:none;stroke-opacity:1"
       d="m 166.43203,275.29972 h 4.95604"
       id="path884-6-8-2-0-3-3-1"
       inkscape:connector-curvature="0" />
    <rect
       style="opacity:0.98000004;fill:#e35959;fill-opacity:0.49803922;stroke:none;stroke-width:0.52916664;stroke-linecap:round;stroke-linejoin:round;stroke-miterlimit:4;stroke-dasharray:none;stroke-dashoffset:0;stroke-opacity:1;paint-order:normal"
       id="rect1744-5-2-4-0-34-5"
       width="5.2511673"
       height="14.722912"
       x="147.18607"
       y="275.29974" />
    <rect
       style="opacity:0.98000004;fill:#e35959;fill-opacity:0.49803922;stroke:none;stroke-width:0.52916664;stroke-linecap:round;stroke-linejoin:round;stroke-miterlimit:4;stroke-dasharray:none;stroke-dashoffset:0;stroke-opacity:1;paint-order:normal"
       id="rect1744-5-1-8"
       width="4.4081125"
       height="9.5729847"
       x="66.631256"
       y="280.52817" />
    <rect
       style="opacity:0.98000004;fill:#e35959;fill-opacity:0.49803922;stroke:none;stroke-width:0.52916664;stroke-linecap:round;stroke-linejoin:round;stroke-miterlimit:4;stroke-dasharray:none;stroke-dashoffset:0;stroke-opacity:1;paint-order:normal"
       id="rect1744-5-2-9-1"
       width="4.4234943"
       height="9.5729847"
       x="88.776543"
       y="280.52817" />
    <rect
       style="opacity:0.98000004;fill:#e35959;fill-opacity:0.49803922;stroke:none;stroke-width:0.52916658;stroke-linecap:round;stroke-linejoin:round;stroke-miterlimit:4;stroke-dasharray:none;stroke-dashoffset:0;stroke-opacity:1;paint-order:normal"
       id="rect1744-9-3"
       width="4.2814102"
       height="9.5729847"
       x="29.307043"
       y="280.52817" />
    <path
       style="opacity:0.98000004;fill:none;stroke:#e35959;stroke-width:0.52916676;stroke-linecap:butt;stroke-linejoin:miter;stroke-miterlimit:4;stroke-dasharray:none;stroke-opacity:1"
       d="m 29.307041,280.52816 h 4.295114"
       id="path884-60-3"
       inkscape:connector-curvature="0" />
    <path
       style="opacity:0.98000004;fill:none;stroke:#e35959;stroke-width:0.52916682;stroke-linecap:butt;stroke-linejoin:miter;stroke-miterlimit:4;stroke-dasharray:none;stroke-opacity:1"
       d="m 66.632996,280.52815 h 4.422225"
       id="path884-6-6-9"
       inkscape:connector-curvature="0" />
    <path
       style="opacity:0.98000004;fill:none;stroke:#e35959;stroke-width:0.52916682;stroke-linecap:butt;stroke-linejoin:miter;stroke-miterlimit:4;stroke-dasharray:none;stroke-opacity:1"
       d="m 88.770681,280.52815 h 4.43765"
       id="path884-6-8-4-7"
       inkscape:connector-curvature="0" />
    <rect
       style="opacity:0.98000004;fill:#e35959;fill-opacity:0.49803922;stroke:none;stroke-width:0.52916664;stroke-linecap:round;stroke-linejoin:round;stroke-miterlimit:4;stroke-dasharray:none;stroke-dashoffset:0;stroke-opacity:1;paint-order:normal"
       id="rect1744-5-2-9-9-5"
       width="2.2843347"
       height="9.5729847"
       x="118.81644"
       y="280.52817" />
    <path
       style="opacity:0.98000004;fill:none;stroke:#e35959;stroke-width:0.52916682;stroke-linecap:butt;stroke-linejoin:miter;stroke-miterlimit:4;stroke-dasharray:none;stroke-opacity:1"
       d="m 118.81341,280.52815 h 2.29164"
       id="path884-6-8-4-0-4"
       inkscape:connector-curvature="0" />
    <path
       style="opacity:0.98000004;fill:none;stroke:#e35959;stroke-width:0.52916682;stroke-linecap:butt;stroke-linejoin:miter;stroke-miterlimit:4;stroke-dasharray:none;stroke-opacity:1"
       d="m 147.17917,275.29973 h 5.26797"
       id="path884-6-8-2-0-2-4"
       inkscape:connector-curvature="0" />
    <flowRoot
       xml:space="preserve"
       id="flowRoot833-1-9"
       style="font-style:normal;font-weight:normal;font-size:40px;line-height:1.25;font-family:sans-serif;letter-spacing:0px;word-spacing:0px;fill:#000000;fill-opacity:1;stroke:none;stroke-width:0.4109188"
       transform="matrix(0.64388227,0,0,0.64388227,-11.492455,209.21088)"><flowRegion
         id="flowRegion835-3-9"
         style="stroke-width:0.4109188"><rect
           id="rect837-3-0"
           width="782.85712"
           height="420"
           x="42.857143"
           y="82.519684"
           style="stroke-width:0.4109188" /></flowRegion><flowPara
         id="flowPara839-3-8"
         style="font-style:normal;font-variant:normal;font-weight:bold;font-stretch:normal;font-family:'Linux Biolinum O';-inkscape-font-specification:'Linux Biolinum O Bold';stroke-width:0.16885427">nn nl ll oo IUL</flowPara></flowRoot>  </g>
</svg>
