<?xml version="1.0" encoding="UTF-8" standalone="no"?>
<svg
   xmlns:dc="http://purl.org/dc/elements/1.1/"
   xmlns:cc="http://creativecommons.org/ns#"
   xmlns:rdf="http://www.w3.org/1999/02/22-rdf-syntax-ns#"
   xmlns:svg="http://www.w3.org/2000/svg"
   xmlns="http://www.w3.org/2000/svg"
   xmlns:sodipodi="http://sodipodi.sourceforge.net/DTD/sodipodi-0.dtd"
   xmlns:inkscape="http://www.inkscape.org/namespaces/inkscape"
   inkscape:export-ydpi="200"
   inkscape:export-xdpi="200"
   inkscape:export-filename="/home/sebastian/projects/YinYangFit/docs/img/kanisza.png"
   sodipodi:docname="kanisza.svg"
   inkscape:version="1.0rc1 (09960d6, 2020-04-09)"
   id="svg2143"
   version="1.1"
   viewBox="0 0 111.125 58.208335"
   height="220"
   width="420">
  <defs
     id="defs2137" />
  <sodipodi:namedview
     inkscape:document-rotation="0"
     inkscape:snap-global="false"
     inkscape:window-maximized="1"
     inkscape:window-y="19"
     inkscape:window-x="0"
     inkscape:window-height="1401"
     inkscape:window-width="2560"
     units="px"
     showgrid="false"
     inkscape:current-layer="layer1"
     inkscape:document-units="mm"
     inkscape:cy="242.01955"
     inkscape:cx="443.75171"
     inkscape:zoom="1.4"
     inkscape:pageshadow="2"
     inkscape:pageopacity="0.0"
     borderopacity="1.0"
     bordercolor="#666666"
     pagecolor="#ffffff"
     id="base" />
  <metadata
     id="metadata2140">
    <rdf:RDF>
      <cc:Work
         rdf:about="">
        <dc:format>image/svg+xml</dc:format>
        <dc:type
           rdf:resource="http://purl.org/dc/dcmitype/StillImage" />
        <dc:title></dc:title>
      </cc:Work>
    </rdf:RDF>
  </metadata>
  <g
     transform="translate(0,-238.79165)"
     id="layer1"
     inkscape:groupmode="layer"
     inkscape:label="Layer 1">
    <path
       inkscape:connector-curvature="0"
       id="path2700"
       d="m 41.804487,245.05124 a 8.9649685,8.9649685 0 0 0 -8.964827,8.96534 8.9649685,8.9649685 0 0 0 10e-4,0.0238 h 9.028906 v 8.93796 a 8.9649685,8.9649685 0 0 0 8.899712,-8.96173 8.9649685,8.9649685 0 0 0 -8.964826,-8.96534 z m -28.270625,0.0186 a 8.9649685,8.9649685 0 0 0 -8.9653443,8.96535 8.9649685,8.9649685 0 0 0 8.9653443,8.96482 8.9649685,8.9649685 0 0 0 0.0052,-5.1e-4 v -8.95915 h 8.959661 a 8.9649685,8.9649685 0 0 0 0,-0.005 8.9649685,8.9649685 0 0 0 -8.964829,-8.96535 z m -0.04547,28.31249 a 8.9649685,8.9649685 0 0 0 -8.9653453,8.96482 8.9649685,8.9649685 0 0 0 8.9653453,8.96483 8.9649685,8.9649685 0 0 0 8.963792,-8.94106 h -8.913149 v -8.98704 a 8.9649685,8.9649685 0 0 0 -0.05064,-0.002 z m 28.381214,0.0568 v 8.93175 h -8.983948 a 8.9649685,8.9649685 0 0 0 -10e-4,0.0326 8.9649685,8.9649685 0 0 0 8.964827,8.96483 8.9649685,8.9649685 0 0 0 8.965345,-8.96483 8.9649685,8.9649685 0 0 0 -8.945189,-8.96431 z"
       style="opacity:0.98;fill:#2e2e2e;fill-opacity:1;stroke:none;stroke-width:0.529167;stroke-linecap:round;stroke-linejoin:round;stroke-miterlimit:4;stroke-dasharray:none;stroke-dashoffset:0;stroke-opacity:1;paint-order:normal" />
  </g>
</svg>
