<?xml version="1.0" encoding="UTF-8" standalone="no"?>
<!-- Created with Inkscape (http://www.inkscape.org/) -->

<svg
   xmlns:dc="http://purl.org/dc/elements/1.1/"
   xmlns:cc="http://creativecommons.org/ns#"
   xmlns:rdf="http://www.w3.org/1999/02/22-rdf-syntax-ns#"
   xmlns:svg="http://www.w3.org/2000/svg"
   xmlns="http://www.w3.org/2000/svg"
   xmlns:sodipodi="http://sodipodi.sourceforge.net/DTD/sodipodi-0.dtd"
   xmlns:inkscape="http://www.inkscape.org/namespaces/inkscape"
   width="840"
   height="545"
   viewBox="0 0 222.24999 144.19791"
   version="1.1"
   id="svg3325"
   inkscape:version="0.92.3 (2405546, 2018-03-11)"
   sodipodi:docname="legibility_issues.svg"
   inkscape:export-filename="/home/sebastian/projects/YinYangFit/docs/img/legibility_issues.png"
   inkscape:export-xdpi="200"
   inkscape:export-ydpi="200">
  <defs
     id="defs3319" />
  <sodipodi:namedview
     id="base"
     pagecolor="#ffffff"
     bordercolor="#666666"
     borderopacity="1.0"
     inkscape:pageopacity="0.0"
     inkscape:pageshadow="2"
     inkscape:zoom="1.4"
     inkscape:cx="379.36849"
     inkscape:cy="412.23163"
     inkscape:document-units="px"
     inkscape:current-layer="layer1"
     showgrid="false"
     units="px"
     inkscape:snap-global="false"
     inkscape:window-width="2560"
     inkscape:window-height="1401"
     inkscape:window-x="0"
     inkscape:window-y="19"
     inkscape:window-maximized="1" />
  <metadata
     id="metadata3322">
    <rdf:RDF>
      <cc:Work
         rdf:about="">
        <dc:format>image/svg+xml</dc:format>
        <dc:type
           rdf:resource="http://purl.org/dc/dcmitype/StillImage" />
        <dc:title></dc:title>
      </cc:Work>
    </rdf:RDF>
  </metadata>
  <g
     inkscape:label="Layer 1"
     inkscape:groupmode="layer"
     id="layer1"
     transform="translate(0,-152.80207)">
    <flowRoot
       xml:space="preserve"
       id="flowRoot3882"
       style="font-style:normal;font-weight:normal;font-size:40px;line-height:1.25;font-family:sans-serif;letter-spacing:0px;word-spacing:0px;fill:#000000;fill-opacity:1;stroke:none"
       transform="matrix(0.26458333,0,0,0.26458333,2.9095063,150.21588)"><flowRegion
         id="flowRegion3884"><rect
           id="rect3886"
           width="479.28571"
           height="95"
           x="20"
           y="14.999999" /></flowRegion><flowPara
         id="flowPara3888"
         style="font-style:normal;font-variant:normal;font-weight:normal;font-stretch:normal;font-size:16px;font-family:'Space Grotesk';-inkscape-font-specification:'Space Grotesk'">1</flowPara></flowRoot>    <path
       inkscape:connector-curvature="0"
       id="path4699"
       style="font-style:normal;font-variant:normal;font-weight:normal;font-stretch:normal;font-size:medium;line-height:1.25;font-family:FreeSans;-inkscape-font-specification:FreeSans;letter-spacing:-5.04999876px;word-spacing:0px;fill:#000000;fill-opacity:1;stroke:none;stroke-width:0.26458332"
       d="m 18.997529,168.85986 v 9.98705 h -1.287768 v -9.98705 z" />
    <path
       inkscape:connector-curvature="0"
       id="path4701"
       style="font-style:normal;font-variant:normal;font-weight:normal;font-stretch:normal;font-size:medium;line-height:1.25;font-family:FreeSans;-inkscape-font-specification:FreeSans;letter-spacing:-5.04999876px;word-spacing:0px;fill:#000000;fill-opacity:1;stroke:none;stroke-width:0.26458332"
       d="m 25.603303,179.16201 q -1.260368,0 -2.109748,-1.02748 -0.849378,-1.04118 -0.849378,-2.75363 0,-1.75356 0.835679,-2.83583 0.849378,-1.08228 2.219345,-1.08228 1.342566,0 2.191946,1.24668 l -0.136996,-1.04119 h 1.19187 v 6.00045 q 0,1.02748 -0.123297,1.71247 -0.123297,0.69868 -0.452088,1.28776 -0.328792,0.58909 -0.986376,0.87679 -0.643885,0.28769 -1.64396,0.28769 -1.260369,0 -2.01385,-0.57539 -0.753481,-0.57538 -0.84938,-1.58916 h 1.164473 q 0.191794,1.20557 1.739856,1.20557 1.150772,0 1.575461,-0.65759 0.424689,-0.64387 0.424689,-1.97275 v -0.36989 q -0.479487,0.68499 -1.000075,0.98638 -0.506887,0.3014 -1.178171,0.3014 z m 0.219195,-6.64434 q -0.917878,0 -1.452165,0.75347 -0.534285,0.75349 -0.534285,2.04126 0,1.30147 0.534285,2.05495 0.534287,0.73978 1.465865,0.73978 0.904177,0 1.424765,-0.72609 0.520586,-0.73978 0.520586,-2.02754 0,-1.34258 -0.520586,-2.08236 -0.506888,-0.75347 -1.438465,-0.75347 z" />
    <path
       inkscape:connector-curvature="0"
       id="path4703"
       style="font-style:normal;font-variant:normal;font-weight:normal;font-stretch:normal;font-size:medium;line-height:1.25;font-family:FreeSans;-inkscape-font-specification:FreeSans;letter-spacing:-5.04999876px;word-spacing:0px;fill:#000000;fill-opacity:1;stroke:none;stroke-width:0.26458332"
       d="m 32.212184,171.46279 q 1.548063,0 2.397442,1.02747 0.863079,1.01378 0.863079,2.87693 0,1.76726 -0.876779,2.78104 -0.863079,1.01378 -2.370041,1.01378 -1.534363,0 -2.397442,-1.01378 -0.849378,-1.02748 -0.849378,-2.83583 0,-1.80836 0.863079,-2.82214 0.863078,-1.02747 2.37004,-1.02747 z m 0.0137,1.05488 q -0.958976,0 -1.506962,0.75347 -0.547988,0.73978 -0.547988,2.04126 0,1.30147 0.547988,2.05495 0.547986,0.73978 1.506962,0.73978 0.945277,0 1.493264,-0.73978 0.561685,-0.75348 0.561685,-2.01385 0,-1.32887 -0.547986,-2.08236 -0.534287,-0.75347 -1.506963,-0.75347 z" />
    <path
       inkscape:connector-curvature="0"
       id="path4705"
       style="font-style:normal;font-variant:normal;font-weight:normal;font-stretch:normal;font-size:medium;line-height:1.25;font-family:FreeSans;-inkscape-font-specification:FreeSans;letter-spacing:-5.04999876px;word-spacing:0px;fill:#000000;fill-opacity:1;stroke:none;stroke-width:0.26458332"
       d="m 39.163878,173.79173 q 0.0822,-2.32894 2.876929,-2.32894 1.328867,0 2.013851,0.50689 0.684982,0.49319 0.684982,1.45216 v 4.2195 q 0,0.56168 0.616485,0.56168 0.123297,0 0.246594,-0.0274 v 0.86308 q -0.479488,0.12323 -0.780881,0.12323 -0.547986,0 -0.835679,-0.26029 -0.273992,-0.24659 -0.342491,-0.79458 -1.150772,1.05487 -2.43854,1.05487 -1.082274,0 -1.726157,-0.57539 -0.630185,-0.57538 -0.630185,-1.54805 0,-0.3151 0.05479,-0.57539 0.0685,-0.2603 0.136997,-0.45208 0.0822,-0.2055 0.273993,-0.36989 0.191795,-0.17811 0.315092,-0.2877 0.136997,-0.10964 0.43839,-0.20549 0.315091,-0.10964 0.479487,-0.1507 0.164396,-0.0548 0.575386,-0.12324 0.41099,-0.0685 0.602786,-0.0959 0.191796,-0.0274 0.684983,-0.0959 0.671283,-0.0822 0.931577,-0.26029 0.260294,-0.17811 0.260294,-0.53429 v -0.3014 q 0,-0.52058 -0.42469,-0.79458 -0.41099,-0.274 -1.178171,-0.274 -0.794581,0 -1.205571,0.3151 -0.41099,0.30139 -0.479487,0.95897 z m 2.287844,4.37019 q 0.945277,0 1.548061,-0.49319 0.602786,-0.50688 0.602786,-1.08226 v -1.28777 q -0.342491,0.1644 -1.041174,0.27399 -0.684984,0.10964 -1.191871,0.1918 -0.506888,0.0822 -0.917878,0.39729 -0.41099,0.30139 -0.41099,0.84937 0,0.548 0.369891,0.84938 0.369891,0.30139 1.041175,0.30139 z" />
    <path
       inkscape:connector-curvature="0"
       id="path4707"
       style="font-style:normal;font-variant:normal;font-weight:normal;font-stretch:normal;font-size:medium;line-height:1.25;font-family:FreeSans;-inkscape-font-specification:FreeSans;letter-spacing:-5.04999876px;word-spacing:0px;fill:#000000;fill-opacity:1;stroke:none;stroke-width:0.26458332"
       d="m 44.968681,171.66828 h 1.054873 v 1.20558 q 0.479489,-0.75349 1.027475,-1.08228 0.561687,-0.32879 1.356267,-0.32879 1.041175,0 1.657661,0.53428 0.616485,0.53429 0.616485,1.42477 v 5.42507 h -1.137073 v -4.97298 q 0,-0.64389 -0.397292,-1.02747 -0.397289,-0.38359 -1.082273,-0.38359 -0.876778,0 -1.411064,0.67128 -0.534287,0.65758 -0.534287,1.75356 v 3.9592 h -1.150772 z" />
    <path
       inkscape:connector-curvature="0"
       id="path4709"
       style="font-style:normal;font-variant:normal;font-weight:normal;font-stretch:normal;font-size:medium;line-height:1.25;font-family:FreeSans;-inkscape-font-specification:FreeSans;letter-spacing:-5.04999876px;word-spacing:0px;fill:#000000;fill-opacity:1;stroke:none;stroke-width:0.26458332"
       d="m 57.130423,168.85986 v 9.98705 h -1.013776 v -0.94528 q -0.465788,0.67128 -1.013775,0.95898 -0.534287,0.3014 -1.274069,0.3014 -1.452163,0 -2.287842,-1.04119 -0.835681,-1.05486 -0.835681,-2.87693 0,-1.71245 0.835681,-2.73992 0.849378,-1.04118 2.246743,-1.04118 1.479564,0 2.205647,1.10967 v -3.7126 z m -3.150923,3.6715 q -0.931577,0 -1.506963,0.76719 -0.575386,0.76718 -0.575386,2.01385 0,1.26037 0.575386,2.02754 0.575386,0.75349 1.520662,0.75349 0.904178,0 1.452165,-0.75349 0.547987,-0.75347 0.547987,-2.00014 0,-1.28778 -0.547987,-2.04125 -0.547987,-0.76719 -1.465864,-0.76719 z" />
    <path
       inkscape:connector-curvature="0"
       id="path4711"
       style="font-style:normal;font-variant:normal;font-weight:normal;font-stretch:normal;font-size:medium;line-height:1.25;font-family:FreeSans;-inkscape-font-specification:FreeSans;letter-spacing:-5.04999876px;word-spacing:0px;fill:#000000;fill-opacity:1;stroke:none;stroke-width:0.26458332"
       d="m 66.816456,174.07943 h -1.150771 q -0.109602,-0.75348 -0.547986,-1.15077 -0.43839,-0.41099 -1.150772,-0.41099 -0.931578,0 -1.465864,0.76718 -0.520588,0.75348 -0.520588,2.09605 0,1.27407 0.534287,2.00014 0.534287,0.72609 1.479563,0.72609 1.465865,0 1.753558,-1.72616 h 1.150771 q -0.109601,1.31517 -0.876778,2.05495 -0.767181,0.72609 -2.054949,0.72609 -1.465864,0 -2.328943,-1.01378 -0.84938,-1.02748 -0.84938,-2.76733 0,-1.78097 0.863079,-2.84954 0.876779,-1.06857 2.328943,-1.06857 1.246669,0 1.986451,0.67129 0.753482,0.67128 0.849379,1.94535 z" />
    <path
       inkscape:connector-curvature="0"
       id="path4713"
       style="font-style:normal;font-variant:normal;font-weight:normal;font-stretch:normal;font-size:medium;line-height:1.25;font-family:FreeSans;-inkscape-font-specification:FreeSans;letter-spacing:-5.04999876px;word-spacing:0px;fill:#000000;fill-opacity:1;stroke:none;stroke-width:0.26458332"
       d="m 70.043923,171.46279 q 1.548062,0 2.397442,1.02747 0.863078,1.01378 0.863078,2.87693 0,1.76726 -0.876778,2.78104 -0.863078,1.01378 -2.370043,1.01378 -1.534362,0 -2.39744,-1.01378 -0.84938,-1.02748 -0.84938,-2.83583 0,-1.80836 0.863079,-2.82214 0.863079,-1.02747 2.370042,-1.02747 z m 0.01369,1.05488 q -0.958976,0 -1.506963,0.75347 -0.547986,0.73978 -0.547986,2.04126 0,1.30147 0.547986,2.05495 0.547987,0.73978 1.506963,0.73978 0.945278,0 1.493264,-0.73978 0.561687,-0.75348 0.561687,-2.01385 0,-1.32887 -0.547986,-2.08236 -0.534287,-0.75347 -1.506965,-0.75347 z" />
    <path
       inkscape:connector-curvature="0"
       id="path4715"
       style="font-style:normal;font-variant:normal;font-weight:normal;font-stretch:normal;font-size:medium;line-height:1.25;font-family:FreeSans;-inkscape-font-specification:FreeSans;letter-spacing:-5.04999876px;word-spacing:0px;fill:#000000;fill-opacity:1;stroke:none;stroke-width:0.26458332"
       d="m 73.402357,171.66828 h 1.054875 v 1.01378 q 0.465788,-0.64389 0.972675,-0.93158 0.520588,-0.28769 1.23297,-0.28769 1.328868,0 1.931652,1.09597 0.506888,-0.60278 1.000076,-0.84938 0.493188,-0.24659 1.20557,-0.24659 1.000075,0 1.534362,0.52059 0.547987,0.50688 0.547987,1.47956 v 5.38397 h -1.150771 v -4.94557 q 0,-0.68499 -0.356192,-1.05488 -0.342491,-0.38359 -0.972677,-0.38359 -0.698682,0 -1.19187,0.54798 -0.493188,0.54799 -0.493188,1.32887 v 4.50719 h -1.150772 v -4.94557 q 0,-0.68499 -0.35619,-1.05488 -0.342492,-0.38359 -0.972676,-0.38359 -0.698683,0 -1.191871,0.54798 -0.493188,0.54799 -0.493188,1.32887 v 4.50719 h -1.150772 z" />
    <path
       inkscape:connector-curvature="0"
       id="path4717"
       style="font-style:normal;font-variant:normal;font-weight:normal;font-stretch:normal;font-size:medium;line-height:1.25;font-family:FreeSans;-inkscape-font-specification:FreeSans;letter-spacing:-5.04999876px;word-spacing:0px;fill:#000000;fill-opacity:1;stroke:none;stroke-width:0.26458332"
       d="m 89.391654,175.64119 h -5.288069 q 0.0274,1.12337 0.575386,1.79466 0.561685,0.67128 1.534361,0.67128 1.397366,0 1.876855,-1.43847 h 1.150771 q -0.219195,1.17818 -1.027474,1.83576 -0.808281,0.65759 -2.04125,0.65759 -1.506964,0 -2.383742,-1.01378 -0.876778,-1.02748 -0.876778,-2.79473 0,-1.76726 0.890477,-2.82214 0.904178,-1.06857 2.397442,-1.06857 3.192021,0 3.192021,4.1784 z m -5.260671,-0.93158 h 4.041402 q 0,-0.93157 -0.561687,-1.56176 -0.561687,-0.63018 -1.424765,-0.63018 -0.863079,0 -1.424764,0.60279 -0.561687,0.58908 -0.630186,1.58915 z" />
    <path
       inkscape:connector-curvature="0"
       id="path4719"
       style="font-style:normal;font-variant:normal;font-weight:normal;font-stretch:normal;font-size:medium;line-height:1.25;font-family:FreeSans;-inkscape-font-specification:FreeSans;letter-spacing:-5.04999876px;word-spacing:0px;fill:#000000;fill-opacity:1;stroke:none;stroke-width:0.26458332"
       d="m 100.56619,178.84691 h -1.30146 l -1.45217,-5.63056 -1.38366,5.63056 h -1.287776 l -2.082349,-7.17863 h 1.260369 l 1.465864,5.58946 1.369972,-5.58946 h 1.39736 l 1.411074,5.58946 1.424756,-5.58946 h 1.28777 z" />
    <path
       inkscape:connector-curvature="0"
       id="path4721"
       style="font-style:normal;font-variant:normal;font-weight:normal;font-stretch:normal;font-size:medium;line-height:1.25;font-family:FreeSans;-inkscape-font-specification:FreeSans;letter-spacing:-5.04999876px;word-spacing:0px;fill:#000000;fill-opacity:1;stroke:none;stroke-width:0.26458332"
       d="m 103.66625,171.66828 v 7.17863 h -1.13708 v -7.17863 z m 0,-2.80842 v 1.43846 h -1.15078 v -1.43846 z" />
    <path
       inkscape:connector-curvature="0"
       id="path4723"
       style="font-style:normal;font-variant:normal;font-weight:normal;font-stretch:normal;font-size:medium;line-height:1.25;font-family:FreeSans;-inkscape-font-specification:FreeSans;letter-spacing:-5.04999876px;word-spacing:0px;fill:#000000;fill-opacity:1;stroke:none;stroke-width:0.26458332"
       d="m 106.49394,171.66828 v 0.93158 h -1.17817 v 4.91819 q 0,0.38358 0.12329,0.52058 0.137,0.12336 0.50689,0.12336 0.34249,0 0.54799,-0.0548 v 0.95899 q -0.53429,0.0959 -0.93158,0.0959 -0.67128,0 -1.02747,-0.30141 -0.35619,-0.28769 -0.35619,-0.83567 v -5.42507 h -0.97268 v -0.93158 h 0.97268 v -1.97275 h 1.13707 v 1.97275 z" />
    <path
       inkscape:connector-curvature="0"
       id="path4725"
       style="font-style:normal;font-variant:normal;font-weight:normal;font-stretch:normal;font-size:medium;line-height:1.25;font-family:FreeSans;-inkscape-font-specification:FreeSans;letter-spacing:-5.04999876px;word-spacing:0px;fill:#000000;fill-opacity:1;stroke:none;stroke-width:0.26458332"
       d="m 111.01813,173.87393 q 0,-0.75347 -0.46578,-1.08227 -0.45209,-0.32879 -1.01378,-0.32879 -0.87678,0 -1.41106,0.67128 -0.53429,0.65758 -0.53429,1.75356 v 3.9592 h -1.13707 v -9.98705 h 1.13707 v 3.7948 q 0.50689,-0.65759 1.01377,-0.91788 0.52059,-0.27399 1.28777,-0.27399 1.04118,0 1.64396,0.53428 0.61649,0.5206 0.61649,1.42477 v 5.42507 h -1.13708 z" />
    <path
       inkscape:connector-curvature="0"
       id="path4727"
       style="font-style:normal;font-variant:normal;font-weight:normal;font-stretch:normal;font-size:medium;line-height:1.25;font-family:FreeSans;-inkscape-font-specification:FreeSans;letter-spacing:-5.04999876px;word-spacing:0px;fill:#000000;fill-opacity:1;stroke:none;stroke-width:0.26458332"
       d="m 116.47693,173.79173 q 0.0822,-2.32894 2.87693,-2.32894 1.32886,0 2.01385,0.50689 0.68498,0.49319 0.68498,1.45216 v 4.2195 q 0,0.56168 0.61648,0.56168 0.1233,0 0.2466,-0.0274 v 0.86308 q -0.47949,0.12323 -0.78088,0.12323 -0.54799,0 -0.83568,-0.26029 -0.27399,-0.24659 -0.34249,-0.79458 -1.15078,1.05487 -2.43854,1.05487 -1.08228,0 -1.72616,-0.57539 -0.63018,-0.57538 -0.63018,-1.54805 0,-0.3151 0.0548,-0.57539 0.0685,-0.2603 0.137,-0.45208 0.0822,-0.2055 0.27399,-0.36989 0.1918,-0.17811 0.31509,-0.2877 0.137,-0.10964 0.43839,-0.20549 0.31509,-0.10964 0.47949,-0.1507 0.1644,-0.0548 0.57539,-0.12324 0.41099,-0.0685 0.60278,-0.0959 0.1918,-0.0274 0.68498,-0.0959 0.67129,-0.0822 0.93158,-0.26029 0.26029,-0.17811 0.26029,-0.53429 v -0.3014 q 0,-0.52058 -0.42469,-0.79458 -0.41099,-0.274 -1.17817,-0.274 -0.79458,0 -1.20557,0.3151 -0.41099,0.30139 -0.47949,0.95897 z m 2.28784,4.37019 q 0.94528,0 1.54806,-0.49319 0.60279,-0.50688 0.60279,-1.08226 v -1.28777 q -0.34249,0.1644 -1.04118,0.27399 -0.68498,0.10964 -1.19187,0.1918 -0.50688,0.0822 -0.91787,0.39729 -0.41099,0.30139 -0.41099,0.84937 0,0.548 0.36989,0.84938 0.36989,0.30139 1.04117,0.30139 z" />
    <path
       inkscape:connector-curvature="0"
       id="path4729"
       style="font-style:normal;font-variant:normal;font-weight:normal;font-stretch:normal;font-size:medium;line-height:1.25;font-family:FreeSans;-inkscape-font-specification:FreeSans;letter-spacing:-5.04999876px;word-spacing:0px;fill:#000000;fill-opacity:1;stroke:none;stroke-width:0.26458332"
       d="m 127.8844,176.70976 q 0.0822,0.64389 0.4384,1.02748 0.36989,0.36989 1.31516,0.36989 0.75348,0 1.20557,-0.30139 0.46578,-0.3151 0.46578,-0.82198 0,-0.39729 -0.26028,-0.63019 -0.26029,-0.23289 -0.84939,-0.36989 l -1.06857,-0.26029 q -1.27407,-0.30139 -1.78095,-0.75348 -0.49319,-0.4658 -0.49319,-1.31517 0,-1.00008 0.75348,-1.58916 0.75349,-0.60279 2.00015,-0.60279 1.24667,0 1.91796,0.57538 0.67128,0.57539 0.68497,1.63027 h -1.20556 q -0.0412,-1.15077 -1.43847,-1.15077 -0.69868,0 -1.10967,0.30138 -0.41099,0.2877 -0.41099,0.78088 0,0.3836 0.3151,0.6302 0.31508,0.23288 1.01376,0.39728 l 1.09598,0.2603 q 1.06857,0.26029 1.54807,0.73978 0.47948,0.46579 0.47948,1.26036 0,1.04119 -0.80828,1.65767 -0.79459,0.61649 -2.15085,0.61649 -2.78102,0 -2.86322,-2.45225 z" />
    <path
       inkscape:connector-curvature="0"
       id="path4731"
       style="font-style:normal;font-variant:normal;font-weight:normal;font-stretch:normal;font-size:medium;line-height:1.25;font-family:FreeSans;-inkscape-font-specification:FreeSans;letter-spacing:-5.04999876px;word-spacing:0px;fill:#000000;fill-opacity:1;stroke:none;stroke-width:0.26458332"
       d="m 134.78818,171.66828 v 0.93158 H 133.61 v 4.91819 q 0,0.38358 0.12337,0.52058 0.137,0.12336 0.50689,0.12336 0.34249,0 0.54798,-0.0548 v 0.95899 q -0.53428,0.0959 -0.93158,0.0959 -0.67128,0 -1.02747,-0.30141 -0.35618,-0.28769 -0.35618,-0.83567 v -5.42507 h -0.97269 v -0.93158 h 0.97269 v -1.97275 h 1.13706 v 1.97275 z" />
    <path
       inkscape:connector-curvature="0"
       id="path4733"
       style="font-style:normal;font-variant:normal;font-weight:normal;font-stretch:normal;font-size:medium;line-height:1.25;font-family:FreeSans;-inkscape-font-specification:FreeSans;letter-spacing:-5.04999876px;word-spacing:0px;fill:#000000;fill-opacity:1;stroke:none;stroke-width:0.26458332"
       d="m 138.27001,172.66837 q -1.15077,0.0274 -1.72616,0.53428 -0.57539,0.50689 -0.57539,1.91795 v 3.72631 h -1.15077 v -7.17863 h 1.05488 v 1.30147 q 0.49319,-0.80828 0.94528,-1.15077 0.46578,-0.35619 1.01376,-0.35619 0.1507,0 0.4384,0.041 z" />
    <path
       inkscape:connector-curvature="0"
       id="path4735"
       style="font-style:normal;font-variant:normal;font-weight:normal;font-stretch:normal;font-size:medium;line-height:1.25;font-family:FreeSans;-inkscape-font-specification:FreeSans;letter-spacing:-5.04999876px;word-spacing:0px;fill:#000000;fill-opacity:1;stroke:none;stroke-width:0.26458332"
       d="m 137.54092,173.79173 q 0.0822,-2.32894 2.87693,-2.32894 1.32887,0 2.01385,0.50689 0.68498,0.49319 0.68498,1.45216 v 4.2195 q 0,0.56168 0.61649,0.56168 0.12336,0 0.24659,-0.0274 v 0.86308 q -0.47949,0.12323 -0.78088,0.12323 -0.54798,0 -0.83567,-0.26029 -0.274,-0.24659 -0.3425,-0.79458 -1.15077,1.05487 -2.43854,1.05487 -1.08227,0 -1.72616,-0.57539 -0.63018,-0.57538 -0.63018,-1.54805 0,-0.3151 0.0548,-0.57539 0.0685,-0.2603 0.13699,-0.45208 0.0822,-0.2055 0.274,-0.36989 0.19179,-0.17811 0.31508,-0.2877 0.13701,-0.10964 0.4384,-0.20549 0.31509,-0.10964 0.47949,-0.1507 0.1644,-0.0548 0.57539,-0.12324 0.41099,-0.0685 0.60277,-0.0959 0.1918,-0.0274 0.68499,-0.0959 0.67128,-0.0822 0.93158,-0.26029 0.26029,-0.17811 0.26029,-0.53429 v -0.3014 q 0,-0.52058 -0.42469,-0.79458 -0.41099,-0.274 -1.17817,-0.274 -0.79458,0 -1.20557,0.3151 -0.41099,0.30139 -0.47949,0.95897 z m 2.28785,4.37019 q 0.94527,0 1.54806,-0.49319 0.60278,-0.50688 0.60278,-1.08226 v -1.28777 q -0.34249,0.1644 -1.04117,0.27399 -0.68499,0.10964 -1.19187,0.1918 -0.50689,0.0822 -0.91788,0.39729 -0.41099,0.30139 -0.41099,0.84937 0,0.548 0.3699,0.84938 0.36989,0.30139 1.04117,0.30139 z" />
    <path
       inkscape:connector-curvature="0"
       id="path4737"
       style="font-style:normal;font-variant:normal;font-weight:normal;font-stretch:normal;font-size:medium;line-height:1.25;font-family:FreeSans;-inkscape-font-specification:FreeSans;letter-spacing:-5.04999876px;word-spacing:0px;fill:#000000;fill-opacity:1;stroke:none;stroke-width:0.26458332"
       d="m 143.34573,171.66828 h 1.05487 v 1.20558 q 0.4795,-0.75349 1.02748,-1.08228 0.56169,-0.32879 1.35627,-0.32879 1.04117,0 1.65765,0.53428 0.61649,0.53429 0.61649,1.42477 v 5.42507 h -1.13707 v -4.97298 q 0,-0.64389 -0.39729,-1.02747 -0.3973,-0.38359 -1.08227,-0.38359 -0.87679,0 -1.41108,0.67128 -0.53428,0.65758 -0.53428,1.75356 v 3.9592 h -1.15077 z" />
    <path
       inkscape:connector-curvature="0"
       id="path4739"
       style="font-style:normal;font-variant:normal;font-weight:normal;font-stretch:normal;font-size:medium;line-height:1.25;font-family:FreeSans;-inkscape-font-specification:FreeSans;letter-spacing:-5.04999876px;word-spacing:0px;fill:#000000;fill-opacity:1;stroke:none;stroke-width:0.26458332"
       d="m 152.01179,179.16201 q -1.26038,0 -2.10976,-1.02748 -0.84937,-1.04118 -0.84937,-2.75363 0,-1.75356 0.83568,-2.83583 0.84938,-1.08228 2.21934,-1.08228 1.34257,0 2.19194,1.24668 l -0.13699,-1.04119 h 1.19187 v 6.00045 q 0,1.02748 -0.12336,1.71247 -0.12323,0.69868 -0.45209,1.28776 -0.32879,0.58909 -0.98638,0.87679 -0.64388,0.28769 -1.64396,0.28769 -1.26037,0 -2.01385,-0.57539 -0.75347,-0.57538 -0.84938,-1.58916 h 1.16448 q 0.19179,1.20557 1.73985,1.20557 1.15078,0 1.57546,-0.65759 0.4247,-0.64387 0.4247,-1.97275 v -0.36989 q -0.47949,0.68499 -1.00009,0.98638 -0.50688,0.3014 -1.17816,0.3014 z m 0.21919,-6.64434 q -0.91788,0 -1.45216,0.75347 -0.53429,0.75349 -0.53429,2.04126 0,1.30147 0.53429,2.05495 0.53428,0.73978 1.46585,0.73978 0.90418,0 1.42477,-0.72609 0.52059,-0.73978 0.52059,-2.02754 0,-1.34258 -0.52059,-2.08236 -0.50688,-0.75347 -1.43846,-0.75347 z" />
    <path
       inkscape:connector-curvature="0"
       id="path4741"
       style="font-style:normal;font-variant:normal;font-weight:normal;font-stretch:normal;font-size:medium;line-height:1.25;font-family:FreeSans;-inkscape-font-specification:FreeSans;letter-spacing:-5.04999876px;word-spacing:0px;fill:#000000;fill-opacity:1;stroke:none;stroke-width:0.26458332"
       d="m 161.77663,175.64119 h -5.28807 q 0.0274,1.12337 0.57539,1.79466 0.56169,0.67128 1.53437,0.67128 1.39736,0 1.87684,-1.43847 h 1.15077 q -0.21919,1.17818 -1.02747,1.83576 -0.80827,0.65759 -2.04124,0.65759 -1.50697,0 -2.38374,-1.01378 -0.87679,-1.02748 -0.87679,-2.79473 0,-1.76726 0.89048,-2.82214 0.90418,-1.06857 2.39744,-1.06857 3.19202,0 3.19202,4.1784 z m -5.26067,-0.93158 h 4.0414 q 0,-0.93157 -0.56168,-1.56176 -0.56169,-0.63018 -1.42477,-0.63018 -0.86307,0 -1.42477,0.60279 -0.56167,0.58908 -0.63018,1.58915 z" />
    <path
       inkscape:connector-curvature="0"
       id="path4743"
       style="font-style:normal;font-variant:normal;font-weight:normal;font-stretch:normal;font-size:medium;line-height:1.25;font-family:FreeSans;-inkscape-font-specification:FreeSans;letter-spacing:-5.04999876px;word-spacing:0px;fill:#000000;fill-opacity:1;stroke:none;stroke-width:0.26458332"
       d="m 166.81993,168.85986 v 9.98705 h -1.15077 v -9.98705 z" />
    <path
       inkscape:connector-curvature="0"
       id="path4745"
       style="font-style:normal;font-variant:normal;font-weight:normal;font-stretch:normal;font-size:medium;line-height:1.25;font-family:FreeSans;-inkscape-font-specification:FreeSans;letter-spacing:-5.04999876px;word-spacing:0px;fill:#000000;fill-opacity:1;stroke:none;stroke-width:0.26458332"
       d="m 168.08241,171.66828 v 7.17863 h -1.13706 v -7.17863 z m 0,-2.80842 v 1.43846 h -1.15077 v -1.43846 z" />
    <path
       inkscape:connector-curvature="0"
       id="path4747"
       style="font-style:normal;font-variant:normal;font-weight:normal;font-stretch:normal;font-size:medium;line-height:1.25;font-family:FreeSans;-inkscape-font-specification:FreeSans;letter-spacing:-5.04999876px;word-spacing:0px;fill:#000000;fill-opacity:1;stroke:none;stroke-width:0.26458332"
       d="m 168.2036,168.85986 h 1.13706 v 3.7811 q 0.78088,-1.17817 2.21935,-1.17817 1.42475,0 2.24673,1.01378 0.82198,1.01378 0.82198,2.75363 0,1.78095 -0.84937,2.86323 -0.84938,1.06858 -2.27415,1.06858 -1.46586,0 -2.27413,-1.23297 v 0.91787 h -1.02747 z m 3.1372,3.6715 q -0.90416,0 -1.45214,0.76719 -0.548,0.75347 -0.548,2.01385 0,1.26037 0.548,2.02754 0.54798,0.75349 1.45214,0.75349 0.93158,0 1.50697,-0.75349 0.58908,-0.76717 0.58908,-1.98644 0,-1.28777 -0.57538,-2.05495 -0.56168,-0.76719 -1.52067,-0.76719 z" />
    <path
       inkscape:connector-curvature="0"
       id="path4749"
       style="font-style:normal;font-variant:normal;font-weight:normal;font-stretch:normal;font-size:medium;line-height:1.25;font-family:FreeSans;-inkscape-font-specification:FreeSans;letter-spacing:-5.04999876px;word-spacing:0px;fill:#000000;fill-opacity:1;stroke:none;stroke-width:0.26458332"
       d="m 181.01717,175.64119 h -5.28807 q 0.0274,1.12337 0.57539,1.79466 0.56169,0.67128 1.53435,0.67128 1.39737,0 1.87686,-1.43847 h 1.15077 q -0.21919,1.17818 -1.02747,1.83576 -0.80829,0.65759 -2.04125,0.65759 -1.50696,0 -2.38375,-1.01378 -0.87677,-1.02748 -0.87677,-2.79473 0,-1.76726 0.89048,-2.82214 0.90418,-1.06857 2.39744,-1.06857 3.19202,0 3.19202,4.1784 z m -5.26067,-0.93158 h 4.0414 q 0,-0.93157 -0.56169,-1.56176 -0.56168,-0.63018 -1.42476,-0.63018 -0.86308,0 -1.42477,0.60279 -0.56169,0.58908 -0.63018,1.58915 z" />
    <path
       inkscape:connector-curvature="0"
       id="path4751"
       style="font-style:normal;font-variant:normal;font-weight:normal;font-stretch:normal;font-size:medium;line-height:1.25;font-family:FreeSans;-inkscape-font-specification:FreeSans;letter-spacing:-5.04999876px;word-spacing:0px;fill:#000000;fill-opacity:1;stroke:none;stroke-width:0.26458332"
       d="m 184.4946,172.66837 q -1.15077,0.0274 -1.72616,0.53428 -0.57537,0.50689 -0.57537,1.91795 v 3.72631 h -1.15078 v -7.17863 h 1.05489 v 1.30147 q 0.49317,-0.80828 0.94526,-1.15077 0.46579,-0.35619 1.01378,-0.35619 0.15069,0 0.43838,0.041 z" />
    <path
       inkscape:connector-curvature="0"
       id="path4753"
       style="font-style:normal;font-variant:normal;font-weight:normal;font-stretch:normal;font-size:medium;line-height:1.25;font-family:FreeSans;-inkscape-font-specification:FreeSans;letter-spacing:-5.04999876px;word-spacing:0px;fill:#000000;fill-opacity:1;stroke:none;stroke-width:0.26458332"
       d="m 186.60137,171.66828 v 0.93158 h -1.17818 v 4.91819 q 0,0.38358 0.12324,0.52058 0.13699,0.12336 0.50688,0.12336 0.3425,0 0.54799,-0.0548 v 0.95899 q -0.53428,0.0959 -0.93158,0.0959 -0.67128,0 -1.02747,-0.30141 -0.35619,-0.28769 -0.35619,-0.83567 v -5.42507 h -0.97268 v -0.93158 h 0.97268 v -1.97275 h 1.13707 v 1.97275 z" />
    <path
       inkscape:connector-curvature="0"
       id="path4755"
       style="font-style:normal;font-variant:normal;font-weight:normal;font-stretch:normal;font-size:medium;line-height:1.25;font-family:FreeSans;-inkscape-font-specification:FreeSans;letter-spacing:-5.04999876px;word-spacing:0px;fill:#000000;fill-opacity:1;stroke:none;stroke-width:0.26458332"
       d="m 190.83355,171.66828 h 1.23297 l -3.19202,8.6856 q -0.56168,1.47956 -1.84946,1.47956 -0.42468,0 -0.76717,-0.1781 v -1.02748 q 0.36989,0.0822 0.60278,0.0822 0.35619,0 0.56169,-0.1644 0.20549,-0.15068 0.35619,-0.53428 l 0.43838,-1.13707 -2.42484,-7.20603 h 1.21928 l 1.83576,5.58946 z" />
    <flowRoot
       xml:space="preserve"
       id="flowRoot3882-4"
       style="font-style:normal;font-weight:normal;font-size:40px;line-height:1.25;font-family:sans-serif;letter-spacing:0px;word-spacing:0px;fill:#000000;fill-opacity:1;stroke:none"
       transform="matrix(0.26458333,0,0,0.26458333,1.8572273,191.31215)"><flowRegion
         id="flowRegion3884-2"><rect
           id="rect3886-2"
           width="479.28571"
           height="95"
           x="20"
           y="14.999999" /></flowRegion><flowPara
         id="flowPara3888-1"
         style="font-style:normal;font-variant:normal;font-weight:normal;font-stretch:normal;font-size:16px;font-family:'Space Grotesk';-inkscape-font-specification:'Space Grotesk'">2</flowPara></flowRoot>    <path
       inkscape:connector-curvature="0"
       id="path4699-2"
       style="font-style:normal;font-variant:normal;font-weight:normal;font-stretch:normal;font-size:medium;line-height:1.25;font-family:FreeSans;-inkscape-font-specification:FreeSans;letter-spacing:-5.04999876px;word-spacing:0px;fill:#000000;fill-opacity:1;stroke:none;stroke-width:0.26458332"
       d="m 19.108235,210.10635 v 9.98705 h -1.287768 v -9.98705 z" />
    <path
       inkscape:connector-curvature="0"
       id="path4701-1"
       style="font-style:normal;font-variant:normal;font-weight:normal;font-stretch:normal;font-size:medium;line-height:1.25;font-family:FreeSans;-inkscape-font-specification:FreeSans;letter-spacing:-5.04999876px;word-spacing:0px;fill:#000000;fill-opacity:1;stroke:none;stroke-width:0.26458332"
       d="m 25.714009,220.4085 q -1.260368,0 -2.109748,-1.02748 -0.849378,-1.04118 -0.849378,-2.75363 0,-1.75356 0.835679,-2.83583 0.849378,-1.08228 2.219345,-1.08228 1.342566,0 2.191946,1.24668 l -0.136996,-1.04119 h 1.19187 v 6.00046 q 0,1.02747 -0.123297,1.71246 -0.123297,0.69868 -0.452088,1.28776 -0.328792,0.5891 -0.986376,0.87679 -0.643885,0.28769 -1.64396,0.28769 -1.260369,0 -2.01385,-0.57538 -0.753481,-0.57539 -0.84938,-1.58917 h 1.164473 q 0.191794,1.20557 1.739856,1.20557 1.150772,0 1.575461,-0.65759 0.424689,-0.64387 0.424689,-1.97275 v -0.36989 q -0.479487,0.68499 -1.000075,0.98638 -0.506887,0.3014 -1.178171,0.3014 z m 0.219195,-6.64434 q -0.917878,0 -1.452165,0.75347 -0.534285,0.75349 -0.534285,2.04126 0,1.30147 0.534285,2.05495 0.534287,0.73978 1.465865,0.73978 0.904177,0 1.424765,-0.72609 0.520586,-0.73978 0.520586,-2.02754 0,-1.34257 -0.520586,-2.08236 -0.506888,-0.75347 -1.438465,-0.75347 z" />
    <path
       inkscape:connector-curvature="0"
       id="path4703-7"
       style="font-style:normal;font-variant:normal;font-weight:normal;font-stretch:normal;font-size:medium;line-height:1.25;font-family:FreeSans;-inkscape-font-specification:FreeSans;letter-spacing:-5.04999876px;word-spacing:0px;fill:#000000;fill-opacity:1;stroke:none;stroke-width:0.26458332"
       d="m 34.503636,212.70928 q 1.548063,0 2.397442,1.02747 0.863079,1.01378 0.863079,2.87693 0,1.76726 -0.876779,2.78104 -0.863079,1.01378 -2.370041,1.01378 -1.534363,0 -2.397442,-1.01378 -0.849378,-1.02748 -0.849378,-2.83583 0,-1.80836 0.863079,-2.82214 0.863078,-1.02747 2.37004,-1.02747 z m 0.0137,1.05488 q -0.958976,0 -1.506962,0.75347 -0.547988,0.73979 -0.547988,2.04126 0,1.30147 0.547988,2.05495 0.547986,0.73978 1.506962,0.73978 0.945276,0 1.493264,-0.73978 0.561685,-0.75348 0.561685,-2.01385 0,-1.32887 -0.547986,-2.08236 -0.534287,-0.75347 -1.506963,-0.75347 z" />
    <path
       inkscape:connector-curvature="0"
       id="path4705-2"
       style="font-style:normal;font-variant:normal;font-weight:normal;font-stretch:normal;font-size:medium;line-height:1.25;font-family:FreeSans;-inkscape-font-specification:FreeSans;letter-spacing:-5.04999876px;word-spacing:0px;fill:#000000;fill-opacity:1;stroke:none;stroke-width:0.26458332"
       d="m 41.109361,215.03822 q 0.0822,-2.32894 2.876929,-2.32894 1.328867,0 2.01385,0.50689 0.684983,0.49319 0.684983,1.45216 v 4.2195 q 0,0.56168 0.616484,0.56168 0.123297,0 0.246594,-0.0274 v 0.86308 q -0.479487,0.12323 -0.78088,0.12323 -0.547986,0 -0.835679,-0.26029 -0.273993,-0.24659 -0.342492,-0.79457 -1.150771,1.05486 -2.438539,1.05486 -1.082274,0 -1.726158,-0.57539 -0.630185,-0.57538 -0.630185,-1.54805 0,-0.3151 0.05479,-0.57538 0.0685,-0.26031 0.136998,-0.45209 0.0822,-0.2055 0.273992,-0.36989 0.191796,-0.17811 0.315093,-0.2877 0.136996,-0.10964 0.43839,-0.20549 0.315091,-0.10964 0.479487,-0.1507 0.164396,-0.0548 0.575386,-0.12323 0.41099,-0.0685 0.602785,-0.0959 0.191796,-0.0275 0.684984,-0.0959 0.671283,-0.0822 0.931576,-0.26029 0.260295,-0.17811 0.260295,-0.53429 v -0.3014 q 0,-0.52058 -0.424691,-0.79458 -0.41099,-0.27399 -1.17817,-0.27399 -0.794581,0 -1.205571,0.31509 -0.41099,0.30139 -0.479487,0.95897 z m 2.287844,4.37019 q 0.945277,0 1.548061,-0.49318 0.602785,-0.50689 0.602785,-1.08227 v -1.28777 q -0.342491,0.1644 -1.041173,0.27399 -0.684984,0.10964 -1.191871,0.1918 -0.506888,0.0822 -0.917878,0.39729 -0.41099,0.30139 -0.41099,0.84937 0,0.548 0.369891,0.84938 0.369891,0.30139 1.041175,0.30139 z" />
    <path
       inkscape:connector-curvature="0"
       id="path4707-6"
       style="font-style:normal;font-variant:normal;font-weight:normal;font-stretch:normal;font-size:medium;line-height:1.25;font-family:FreeSans;-inkscape-font-specification:FreeSans;letter-spacing:-5.04999876px;word-spacing:0px;fill:#000000;fill-opacity:1;stroke:none;stroke-width:0.26458332"
       d="m 48.137347,212.91477 h 1.054873 v 1.20558 q 0.479489,-0.75349 1.027475,-1.08228 0.561687,-0.32879 1.356267,-0.32879 1.041175,0 1.657661,0.53428 0.616485,0.53429 0.616485,1.42477 v 5.42507 h -1.137073 v -4.97298 q 0,-0.64389 -0.397292,-1.02747 -0.397289,-0.38359 -1.082272,-0.38359 -0.876778,0 -1.411065,0.67128 -0.534287,0.65758 -0.534287,1.75356 v 3.9592 h -1.150772 z" />
    <path
       inkscape:connector-curvature="0"
       id="path4709-3"
       style="font-style:normal;font-variant:normal;font-weight:normal;font-stretch:normal;font-size:medium;line-height:1.25;font-family:FreeSans;-inkscape-font-specification:FreeSans;letter-spacing:-5.04999876px;word-spacing:0px;fill:#000000;fill-opacity:1;stroke:none;stroke-width:0.26458332"
       d="m 60.421407,210.10635 v 9.98705 h -1.013775 v -0.94528 q -0.465788,0.67128 -1.013774,0.95898 -0.534287,0.3014 -1.274069,0.3014 -1.452165,0 -2.287844,-1.04119 -0.83568,-1.05486 -0.83568,-2.87693 0,-1.71244 0.83568,-2.73992 0.84938,-1.04118 2.246745,-1.04118 1.479564,0 2.205645,1.10967 v -3.7126 z m -3.150922,3.6715 q -0.931577,0 -1.506962,0.76719 -0.575388,0.76718 -0.575388,2.01385 0,1.26037 0.575388,2.02754 0.575385,0.75349 1.520662,0.75349 0.904178,0 1.452164,-0.75349 0.547986,-0.75347 0.547986,-2.00014 0,-1.28778 -0.547986,-2.04125 -0.547986,-0.76719 -1.465864,-0.76719 z" />
    <path
       inkscape:connector-curvature="0"
       id="path4711-6"
       style="font-style:normal;font-variant:normal;font-weight:normal;font-stretch:normal;font-size:medium;line-height:1.25;font-family:FreeSans;-inkscape-font-specification:FreeSans;letter-spacing:-5.04999876px;word-spacing:0px;fill:#000000;fill-opacity:1;stroke:none;stroke-width:0.26458332"
       d="m 70.318796,215.32592 h -1.150772 q -0.109602,-0.75348 -0.547982,-1.15077 -0.438394,-0.41099 -1.150772,-0.41099 -0.931581,0 -1.465868,0.76718 -0.520586,0.75348 -0.520586,2.09605 0,1.27407 0.534287,2.00014 0.534286,0.72609 1.479563,0.72609 1.465863,0 1.753556,-1.72616 h 1.150772 q -0.109602,1.31517 -0.876774,2.05495 -0.767186,0.72609 -2.05495,0.72609 -1.465868,0 -2.328947,-1.01378 -0.849378,-1.02748 -0.849378,-2.76733 0,-1.78096 0.863079,-2.84954 0.876782,-1.06857 2.328942,-1.06857 1.24667,0 1.986451,0.67129 0.753485,0.67128 0.849379,1.94535 z" />
    <path
       inkscape:connector-curvature="0"
       id="path4713-0"
       style="font-style:normal;font-variant:normal;font-weight:normal;font-stretch:normal;font-size:medium;line-height:1.25;font-family:FreeSans;-inkscape-font-specification:FreeSans;letter-spacing:-5.04999876px;word-spacing:0px;fill:#000000;fill-opacity:1;stroke:none;stroke-width:0.26458332"
       d="m 74.025045,212.70928 q 1.548063,0 2.397442,1.02747 0.863079,1.01378 0.863079,2.87693 0,1.76726 -0.876779,2.78104 -0.863079,1.01378 -2.370041,1.01378 -1.534363,0 -2.397442,-1.01378 -0.849378,-1.02748 -0.849378,-2.83583 0,-1.80836 0.863079,-2.82214 0.863078,-1.02747 2.37004,-1.02747 z m 0.0137,1.05488 q -0.958974,0 -1.506964,0.75347 -0.547986,0.73979 -0.547986,2.04126 0,1.30147 0.547986,2.05495 0.54799,0.73978 1.506964,0.73978 0.945279,0 1.493266,-0.73978 0.561686,-0.75348 0.561686,-2.01385 0,-1.32887 -0.547986,-2.08236 -0.534294,-0.75347 -1.506974,-0.75347 z" />
    <path
       inkscape:connector-curvature="0"
       id="path4715-8"
       style="font-style:normal;font-variant:normal;font-weight:normal;font-stretch:normal;font-size:medium;line-height:1.25;font-family:FreeSans;-inkscape-font-specification:FreeSans;letter-spacing:-5.04999876px;word-spacing:0px;fill:#000000;fill-opacity:1;stroke:none;stroke-width:0.26458332"
       d="m 78.115589,212.91477 h 1.054875 v 1.01378 q 0.465788,-0.64389 0.972676,-0.93158 0.520587,-0.28769 1.23297,-0.28769 1.328867,0 1.931652,1.09598 0.506888,-0.60279 1.000075,-0.84939 0.493188,-0.24659 1.20557,-0.24659 1.000075,0 1.534362,0.52059 0.547987,0.50688 0.547987,1.47956 v 5.38397 h -1.150771 v -4.94557 q 0,-0.68499 -0.356192,-1.05488 -0.342491,-0.38359 -0.972676,-0.38359 -0.698683,0 -1.191871,0.54798 -0.493187,0.54799 -0.493187,1.32887 v 4.50719 h -1.150771 v -4.94557 q 0,-0.68499 -0.356192,-1.05488 -0.342491,-0.38359 -0.972676,-0.38359 -0.698683,0 -1.191871,0.54798 -0.493188,0.54799 -0.493188,1.32887 v 4.50719 h -1.150772 z" />
    <path
       inkscape:connector-curvature="0"
       id="path4717-8"
       style="font-style:normal;font-variant:normal;font-weight:normal;font-stretch:normal;font-size:medium;line-height:1.25;font-family:FreeSans;-inkscape-font-specification:FreeSans;letter-spacing:-5.04999876px;word-spacing:0px;fill:#000000;fill-opacity:1;stroke:none;stroke-width:0.26458332"
       d="m 96.794092,216.88768 h -5.288069 q 0.0274,1.12337 0.575386,1.79466 0.561682,0.67128 1.534361,0.67128 1.397366,0 1.876855,-1.43847 h 1.150767 q -0.21919,1.17818 -1.02747,1.83576 -0.808281,0.65759 -2.041251,0.65759 -1.506966,0 -2.38374,-1.01378 -0.876779,-1.02748 -0.876779,-2.79473 0,-1.76726 0.890475,-2.82214 0.904177,-1.06857 2.397444,-1.06857 3.192021,0 3.192021,4.1784 z m -5.260673,-0.93158 h 4.041404 q 0,-0.93157 -0.561687,-1.56176 -0.561689,-0.63018 -1.424768,-0.63018 -0.863079,0 -1.424761,0.60279 -0.561686,0.58908 -0.630188,1.58915 z" />
    <path
       inkscape:connector-curvature="0"
       id="path4719-7"
       style="font-style:normal;font-variant:normal;font-weight:normal;font-stretch:normal;font-size:medium;line-height:1.25;font-family:FreeSans;-inkscape-font-specification:FreeSans;letter-spacing:-5.04999876px;word-spacing:0px;fill:#000000;fill-opacity:1;stroke:none;stroke-width:0.26458332"
       d="m 107.90746,220.0934 h -1.30147 l -1.45216,-5.63056 -1.38367,5.63056 h -1.28776 l -2.08235,-7.17863 h 1.26037 l 1.46586,5.58947 1.36997,-5.58947 h 1.39736 l 1.41107,5.58947 1.42476,-5.58947 h 1.28777 z" />
    <path
       inkscape:connector-curvature="0"
       id="path4721-0"
       style="font-style:normal;font-variant:normal;font-weight:normal;font-stretch:normal;font-size:medium;line-height:1.25;font-family:FreeSans;-inkscape-font-specification:FreeSans;letter-spacing:-5.04999876px;word-spacing:0px;fill:#000000;fill-opacity:1;stroke:none;stroke-width:0.26458332"
       d="m 112.33203,212.91477 v 7.17863 h -1.13707 v -7.17863 z m 0,-2.80842 v 1.43846 h -1.15077 v -1.43846 z" />
    <path
       inkscape:connector-curvature="0"
       id="path4723-8"
       style="font-style:normal;font-variant:normal;font-weight:normal;font-stretch:normal;font-size:medium;line-height:1.25;font-family:FreeSans;-inkscape-font-specification:FreeSans;letter-spacing:-5.04999876px;word-spacing:0px;fill:#000000;fill-opacity:1;stroke:none;stroke-width:0.26458332"
       d="m 115.15973,212.91477 v 0.93158 h -1.17817 v 4.91819 q 0,0.38358 0.12329,0.52058 0.137,0.12336 0.50689,0.12336 0.34249,0 0.54799,-0.0548 v 0.95899 q -0.53429,0.0959 -0.93158,0.0959 -0.67128,0 -1.02748,-0.3014 -0.35619,-0.2877 -0.35619,-0.83568 v -5.42507 h -0.97267 v -0.93158 h 0.97267 v -1.97275 h 1.13708 v 1.97275 z" />
    <path
       inkscape:connector-curvature="0"
       id="path4725-9"
       style="font-style:normal;font-variant:normal;font-weight:normal;font-stretch:normal;font-size:medium;line-height:1.25;font-family:FreeSans;-inkscape-font-specification:FreeSans;letter-spacing:-5.04999876px;word-spacing:0px;fill:#000000;fill-opacity:1;stroke:none;stroke-width:0.26458332"
       d="m 120.1732,215.12042 q 0,-0.75347 -0.46579,-1.08227 -0.45209,-0.32879 -1.01378,-0.32879 -0.87678,0 -1.41106,0.67128 -0.53429,0.65758 -0.53429,1.75356 v 3.9592 h -1.13707 v -9.98705 h 1.13707 v 3.7948 q 0.50689,-0.65759 1.01378,-0.91787 0.52058,-0.274 1.28776,-0.274 1.04118,0 1.64396,0.53428 0.61649,0.5206 0.61649,1.42477 v 5.42507 h -1.13707 z" />
    <path
       inkscape:connector-curvature="0"
       id="path4727-9"
       style="font-style:normal;font-variant:normal;font-weight:normal;font-stretch:normal;font-size:medium;line-height:1.25;font-family:FreeSans;-inkscape-font-specification:FreeSans;letter-spacing:-5.04999876px;word-spacing:0px;fill:#000000;fill-opacity:1;stroke:none;stroke-width:0.26458332"
       d="m 125.66244,215.03822 q 0.0822,-2.32894 2.87691,-2.32894 1.32887,0 2.01385,0.50689 0.68499,0.49319 0.68499,1.45216 v 4.2195 q 0,0.56168 0.61647,0.56168 0.12324,0 0.2466,-0.0274 v 0.86308 q -0.47948,0.12323 -0.78088,0.12323 -0.54799,0 -0.83568,-0.26029 -0.27398,-0.24659 -0.34249,-0.79457 -1.15077,1.05486 -2.43853,1.05486 -1.08227,0 -1.72615,-0.57539 -0.63019,-0.57538 -0.63019,-1.54805 0,-0.3151 0.0548,-0.57538 0.0685,-0.26031 0.13699,-0.45209 0.0822,-0.2055 0.274,-0.36989 0.1918,-0.17811 0.31509,-0.2877 0.13699,-0.10964 0.4384,-0.20549 0.31508,-0.10964 0.47948,-0.1507 0.16439,-0.0548 0.57538,-0.12323 0.41099,-0.0685 0.60279,-0.0959 0.19179,-0.0275 0.68498,-0.0959 0.67127,-0.0822 0.93156,-0.26029 0.26031,-0.17811 0.26031,-0.53429 v -0.3014 q 0,-0.52058 -0.42469,-0.79458 -0.41099,-0.27399 -1.17817,-0.27399 -0.79458,0 -1.20557,0.31509 -0.41099,0.30139 -0.47948,0.95897 z m 2.28783,4.37019 q 0.94528,0 1.54807,-0.49318 0.60277,-0.50689 0.60277,-1.08227 v -1.28777 q -0.34248,0.1644 -1.04117,0.27399 -0.68497,0.10964 -1.19187,0.1918 -0.50688,0.0822 -0.91787,0.39729 -0.41099,0.30139 -0.41099,0.84937 0,0.548 0.36989,0.84938 0.36989,0.30139 1.04117,0.30139 z" />
    <path
       inkscape:connector-curvature="0"
       id="path4729-8"
       style="font-style:normal;font-variant:normal;font-weight:normal;font-stretch:normal;font-size:medium;line-height:1.25;font-family:FreeSans;-inkscape-font-specification:FreeSans;letter-spacing:-5.04999876px;word-spacing:0px;fill:#000000;fill-opacity:1;stroke:none;stroke-width:0.26458332"
       d="m 136.55018,217.95625 q 0.0822,0.64389 0.43839,1.02748 0.36989,0.36989 1.31517,0.36989 0.75348,0 1.20557,-0.30139 0.46578,-0.3151 0.46578,-0.82198 0,-0.39729 -0.26029,-0.63019 -0.26029,-0.23289 -0.84938,-0.36989 l -1.06858,-0.26029 q -1.27407,-0.30139 -1.78095,-0.75348 -0.49319,-0.4658 -0.49319,-1.31517 0,-1.00008 0.75348,-1.58916 0.75349,-0.60279 2.00016,-0.60279 1.24666,0 1.91795,0.57538 0.67128,0.57539 0.68498,1.63027 h -1.20557 q -0.0412,-1.15077 -1.43846,-1.15077 -0.69869,0 -1.10968,0.30138 -0.41099,0.2877 -0.41099,0.78089 0,0.38359 0.3151,0.63019 0.31508,0.23288 1.01377,0.39728 l 1.09597,0.2603 q 1.06858,0.26029 1.54807,0.73978 0.47948,0.46579 0.47948,1.26036 0,1.04119 -0.80827,1.65767 -0.79459,0.61649 -2.15086,0.61649 -2.78102,0 -2.86322,-2.45225 z" />
    <path
       inkscape:connector-curvature="0"
       id="path4731-4"
       style="font-style:normal;font-variant:normal;font-weight:normal;font-stretch:normal;font-size:medium;line-height:1.25;font-family:FreeSans;-inkscape-font-specification:FreeSans;letter-spacing:-5.04999876px;word-spacing:0px;fill:#000000;fill-opacity:1;stroke:none;stroke-width:0.26458332"
       d="m 145.03386,212.91477 v 0.93158 h -1.17818 v 4.91819 q 0,0.38358 0.12336,0.52058 0.13701,0.12336 0.5069,0.12336 0.34249,0 0.54798,-0.0548 v 0.95899 q -0.53428,0.0959 -0.93158,0.0959 -0.67128,0 -1.02747,-0.3014 -0.35619,-0.2877 -0.35619,-0.83568 v -5.42507 H 141.746 v -0.93158 h 0.97268 v -1.97275 h 1.13707 v 1.97275 z" />
    <path
       inkscape:connector-curvature="0"
       id="path4733-2"
       style="font-style:normal;font-variant:normal;font-weight:normal;font-stretch:normal;font-size:medium;line-height:1.25;font-family:FreeSans;-inkscape-font-specification:FreeSans;letter-spacing:-5.04999876px;word-spacing:0px;fill:#000000;fill-opacity:1;stroke:none;stroke-width:0.26458332"
       d="m 149.8849,213.91486 q -1.15077,0.0274 -1.72616,0.53428 -0.57538,0.50689 -0.57538,1.91795 v 3.72631 h -1.15078 v -7.17863 h 1.05488 v 1.30148 q 0.49319,-0.80829 0.94528,-1.15078 0.46578,-0.35619 1.01377,-0.35619 0.1507,0 0.43839,0.041 z" />
    <path
       inkscape:connector-curvature="0"
       id="path4735-6"
       style="font-style:normal;font-variant:normal;font-weight:normal;font-stretch:normal;font-size:medium;line-height:1.25;font-family:FreeSans;-inkscape-font-specification:FreeSans;letter-spacing:-5.04999876px;word-spacing:0px;fill:#000000;fill-opacity:1;stroke:none;stroke-width:0.26458332"
       d="m 150.5531,215.03822 q 0.0822,-2.32894 2.87693,-2.32894 1.32887,0 2.01385,0.50689 0.68499,0.49319 0.68499,1.45216 v 4.2195 q 0,0.56168 0.61648,0.56168 0.12336,0 0.24659,-0.0274 v 0.86308 q -0.47949,0.12323 -0.78088,0.12323 -0.54798,0 -0.83567,-0.26029 -0.274,-0.24659 -0.3425,-0.79457 -1.15077,1.05486 -2.43854,1.05486 -1.08227,0 -1.72615,-0.57539 -0.63018,-0.57538 -0.63018,-1.54805 0,-0.3151 0.0548,-0.57538 0.0685,-0.26031 0.13699,-0.45209 0.0822,-0.2055 0.274,-0.36989 0.19179,-0.17811 0.31508,-0.2877 0.13701,-0.10964 0.4384,-0.20549 0.31509,-0.10964 0.47949,-0.1507 0.1644,-0.0548 0.57539,-0.12323 0.41099,-0.0685 0.60277,-0.0959 0.1918,-0.0275 0.68499,-0.0959 0.67128,-0.0822 0.93158,-0.26029 0.26029,-0.17811 0.26029,-0.53429 v -0.3014 q 0,-0.52058 -0.42468,-0.79458 -0.41099,-0.27399 -1.17818,-0.27399 -0.79458,0 -1.20557,0.31509 -0.41099,0.30139 -0.47949,0.95897 z m 2.28785,4.37019 q 0.94527,0 1.54806,-0.49318 0.60278,-0.50689 0.60278,-1.08227 v -1.28777 q -0.34249,0.1644 -1.04117,0.27399 -0.68499,0.10964 -1.19187,0.1918 -0.50688,0.0822 -0.91787,0.39729 -0.41099,0.30139 -0.41099,0.84937 0,0.548 0.36989,0.84938 0.36989,0.30139 1.04117,0.30139 z" />
    <path
       inkscape:connector-curvature="0"
       id="path4737-8"
       style="font-style:normal;font-variant:normal;font-weight:normal;font-stretch:normal;font-size:medium;line-height:1.25;font-family:FreeSans;-inkscape-font-specification:FreeSans;letter-spacing:-5.04999876px;word-spacing:0px;fill:#000000;fill-opacity:1;stroke:none;stroke-width:0.26458332"
       d="m 157.70449,212.91477 h 1.05488 v 1.20558 q 0.47949,-0.75349 1.02747,-1.08228 0.56169,-0.32879 1.35627,-0.32879 1.04117,0 1.65765,0.53428 0.61649,0.53429 0.61649,1.42477 v 5.42507 h -1.13707 v -4.97298 q 0,-0.64389 -0.3973,-1.02747 -0.39728,-0.38359 -1.08226,-0.38359 -0.87679,0 -1.41107,0.67128 -0.53429,0.65758 -0.53429,1.75356 v 3.9592 h -1.15077 z" />
    <path
       inkscape:connector-curvature="0"
       id="path4739-7"
       style="font-style:normal;font-variant:normal;font-weight:normal;font-stretch:normal;font-size:medium;line-height:1.25;font-family:FreeSans;-inkscape-font-specification:FreeSans;letter-spacing:-5.04999876px;word-spacing:0px;fill:#000000;fill-opacity:1;stroke:none;stroke-width:0.26458332"
       d="m 167.59635,220.4085 q -1.26036,0 -2.10974,-1.02748 -0.84939,-1.04118 -0.84939,-2.75363 0,-1.75356 0.83569,-2.83583 0.84937,-1.08228 2.21935,-1.08228 1.34255,0 2.19194,1.24668 l -0.137,-1.04119 h 1.19188 v 6.00046 q 0,1.02747 -0.12337,1.71246 -0.12323,0.69868 -0.45209,1.28776 -0.32879,0.5891 -0.98637,0.87679 -0.64388,0.28769 -1.64396,0.28769 -1.26036,0 -2.01384,-0.57538 -0.75348,-0.57539 -0.84938,-1.58917 h 1.16448 q 0.19179,1.20557 1.73984,1.20557 1.15077,0 1.57547,-0.65759 0.4247,-0.64387 0.4247,-1.97275 v -0.36989 q -0.47951,0.68499 -1.00009,0.98638 -0.50689,0.3014 -1.17816,0.3014 z m 0.2192,-6.64434 q -0.91788,0 -1.45217,0.75347 -0.53429,0.75349 -0.53429,2.04126 0,1.30147 0.53429,2.05495 0.53429,0.73978 1.46587,0.73978 0.90418,0 1.42477,-0.72609 0.52058,-0.73978 0.52058,-2.02754 0,-1.34257 -0.52058,-2.08236 -0.5069,-0.75347 -1.43847,-0.75347 z" />
    <path
       inkscape:connector-curvature="0"
       id="path4741-8"
       style="font-style:normal;font-variant:normal;font-weight:normal;font-stretch:normal;font-size:medium;line-height:1.25;font-family:FreeSans;-inkscape-font-specification:FreeSans;letter-spacing:-5.04999876px;word-spacing:0px;fill:#000000;fill-opacity:1;stroke:none;stroke-width:0.26458332"
       d="m 178.60816,216.88768 h -5.28807 q 0.0274,1.12337 0.57538,1.79466 0.5617,0.67128 1.53436,0.67128 1.39737,0 1.87686,-1.43847 h 1.15077 q -0.21919,1.17818 -1.02747,1.83576 -0.80829,0.65759 -2.04126,0.65759 -1.50695,0 -2.38374,-1.01378 -0.87677,-1.02748 -0.87677,-2.79473 0,-1.76726 0.89048,-2.82214 0.90418,-1.06857 2.39744,-1.06857 3.19202,0 3.19202,4.1784 z m -5.26067,-0.93158 h 4.0414 q 0,-0.93157 -0.56169,-1.56176 -0.56168,-0.63018 -1.42476,-0.63018 -0.86308,0 -1.42477,0.60279 -0.56169,0.58908 -0.63018,1.58915 z" />
    <circle
       style="opacity:1;fill:none;fill-opacity:1;stroke:#e35959;stroke-width:0.52916664;stroke-linecap:round;stroke-linejoin:round;stroke-miterlimit:4;stroke-dasharray:none;stroke-dashoffset:0;stroke-opacity:1;paint-order:normal"
       id="path4910"
       cx="167.52448"
       cy="175.88113"
       r="2.0168548" />
    <path
       style="fill:none;stroke:#e35959;stroke-width:0.52916664;stroke-linecap:butt;stroke-linejoin:miter;stroke-miterlimit:4;stroke-dasharray:none;stroke-opacity:1"
       d="m 167.36412,177.89476 30.45679,13.53569"
       id="path4927"
       inkscape:connector-curvature="0"
       sodipodi:nodetypes="cc" />
    <g
       id="g4995"
       transform="translate(-0.53048594,21.578646)">
      <path
         id="rect4929"
         transform="matrix(0.26458333,0,0,0.26458333,0,138.24998)"
         d="m 760,58.806641 a 31.194187,31.194187 0 0 0 -9.34766,1.470703 v 59.476566 a 31.194187,31.194187 0 0 0 9.34766,1.43945 31.194187,31.194187 0 0 0 9.49023,-1.51758 V 60.298828 A 31.194187,31.194187 0 0 0 760,58.806641 Z m -11.45508,2.1875 a 31.194187,31.194187 0 0 0 -18.83594,21.707031 v 14.599609 a 31.194187,31.194187 0 0 0 18.83594,21.683599 z m 23.31641,0.167968 V 118.82422 A 31.194187,31.194187 0 0 0 790.69727,95.371094 V 84.505859 a 31.194187,31.194187 0 0 0 -18.83594,-23.34375 z"
         style="opacity:1;fill:#000000;fill-opacity:1;stroke:none;stroke-width:1.99999988;stroke-linecap:round;stroke-linejoin:round;stroke-miterlimit:4;stroke-dasharray:none;stroke-dashoffset:0;stroke-opacity:1;paint-order:normal"
         inkscape:connector-curvature="0" />
      <circle
         r="8.2534618"
         cy="162.0625"
         cx="201.08334"
         id="path4910-9"
         style="opacity:1;fill:none;fill-opacity:1;stroke:#e35959;stroke-width:0.52916664;stroke-linecap:round;stroke-linejoin:round;stroke-miterlimit:4;stroke-dasharray:none;stroke-dashoffset:0;stroke-opacity:1;paint-order:normal" />
    </g>
    <path
       style="fill:none;stroke:#e35959;stroke-width:0.52916664;stroke-linecap:butt;stroke-linejoin:miter;stroke-miterlimit:4;stroke-dasharray:none;stroke-opacity:1"
       d="M 168.02558,173.92601 200.65,175.3847"
       id="path4927-0"
       inkscape:connector-curvature="0"
       sodipodi:nodetypes="cc" />
    <path
       style="opacity:0.31100003;fill:none;stroke:#e35959;stroke-width:0.52916664;stroke-linecap:butt;stroke-linejoin:miter;stroke-miterlimit:4;stroke-dasharray:none;stroke-opacity:1"
       d="m 22.872307,225.678 v 3.2128 h 15.213541 v -3.2128"
       id="path5016"
       inkscape:connector-curvature="0" />
    <path
       style="fill:none;stroke:#e35959;stroke-width:0.52916664;stroke-linecap:butt;stroke-linejoin:miter;stroke-miterlimit:4;stroke-dasharray:none;stroke-opacity:1"
       d="m 17.11566,225.70312 v 3.2128 h 2.518239 v -3.2128"
       id="path5016-0"
       inkscape:connector-curvature="0"
       sodipodi:nodetypes="cccc" />
    <path
       style="opacity:1;fill:none;stroke:#7eb4d4;stroke-width:0.52916664;stroke-linecap:butt;stroke-linejoin:miter;stroke-miterlimit:4;stroke-dasharray:none;stroke-opacity:1"
       d="m 22.861954,234.05529 v 3.2128 h 6.660917 v -3.2128"
       id="path5016-0-0"
       inkscape:connector-curvature="0"
       sodipodi:nodetypes="cccc" />
    <path
       style="opacity:1;fill:none;stroke:#7eb4d4;stroke-width:0.52916664;stroke-linecap:butt;stroke-linejoin:miter;stroke-miterlimit:4;stroke-dasharray:none;stroke-opacity:1"
       d="m 31.147309,234.05529 v 3.2128 h 6.660917 v -3.2128"
       id="path5016-0-0-0"
       inkscape:connector-curvature="0"
       sodipodi:nodetypes="cccc" />
    <path
       style="opacity:0.40100002;fill:none;stroke:#7eb4d4;stroke-width:0.52916664;stroke-linecap:butt;stroke-linejoin:miter;stroke-miterlimit:4;stroke-dasharray:none;stroke-opacity:1"
       d="m 48.123486,234.05529 v 3.2128 h 13.066253 v -3.2128"
       id="path5016-0-0-0-8"
       inkscape:connector-curvature="0"
       sodipodi:nodetypes="cccc" />
    <path
       style="opacity:0.40100002;fill:none;stroke:#7eb4d4;stroke-width:0.52916664;stroke-linecap:butt;stroke-linejoin:miter;stroke-miterlimit:4;stroke-dasharray:none;stroke-opacity:1"
       d="m 41.065045,234.05529 v 3.2128 h 6.068846 v -3.2128"
       id="path5016-0-0-0-8-1"
       inkscape:connector-curvature="0"
       sodipodi:nodetypes="cccc" />
    <path
       style="opacity:0.86600001;fill:none;stroke:#e35959;stroke-width:0.52916664;stroke-linecap:butt;stroke-linejoin:miter;stroke-miterlimit:4;stroke-dasharray:none;stroke-opacity:1"
       d="m 41.005088,225.678 v 3.2128 h 20.174307 v -3.2128"
       id="path5016-7"
       inkscape:connector-curvature="0" />
    <path
       style="opacity:1;fill:none;stroke:#7eb4d4;stroke-width:0.52916664;stroke-linecap:butt;stroke-linejoin:miter;stroke-miterlimit:4;stroke-dasharray:none;stroke-opacity:1"
       d="m 64.420026,234.05529 v 3.2128 h 23.169469 v -3.2128"
       id="path5016-0-0-0-8-9"
       inkscape:connector-curvature="0"
       sodipodi:nodetypes="cccc" />
    <path
       style="opacity:1;fill:none;stroke:#7eb4d4;stroke-width:0.52916664;stroke-linecap:butt;stroke-linejoin:miter;stroke-miterlimit:4;stroke-dasharray:none;stroke-opacity:1"
       d="m 90.509907,234.05529 v 3.2128 h 6.068845 v -3.2128"
       id="path5016-0-0-0-8-1-0"
       inkscape:connector-curvature="0"
       sodipodi:nodetypes="cccc" />
    <path
       style="opacity:0.31100003;fill:none;stroke:#e35959;stroke-width:0.52916664;stroke-linecap:butt;stroke-linejoin:miter;stroke-miterlimit:4;stroke-dasharray:none;stroke-opacity:1"
       d="m 64.503584,225.678 v 3.2128 h 32.043438 v -3.2128"
       id="path5016-7-9"
       inkscape:connector-curvature="0" />
    <path
       style="opacity:0.35;fill:none;stroke:#7eb4d4;stroke-width:0.52916664;stroke-linecap:butt;stroke-linejoin:miter;stroke-miterlimit:4;stroke-dasharray:none;stroke-opacity:1"
       d="m 101.02935,234.05529 v 3.2128 h 8.34922 v -3.2128"
       id="path5016-0-0-0-8-1-0-3"
       inkscape:connector-curvature="0"
       sodipodi:nodetypes="cccc" />
    <path
       style="opacity:0.35;fill:none;stroke:#7eb4d4;stroke-width:0.52916664;stroke-linecap:butt;stroke-linejoin:miter;stroke-miterlimit:4;stroke-dasharray:none;stroke-opacity:1"
       d="m 111.14297,234.05529 v 3.2128 h 10.90671 v -3.2128"
       id="path5016-0-0-0-8-1-0-3-7"
       inkscape:connector-curvature="0"
       sodipodi:nodetypes="cccc" />
    <path
       style="opacity:0.91799999;fill:none;stroke:#e35959;stroke-width:0.52916664;stroke-linecap:butt;stroke-linejoin:miter;stroke-miterlimit:4;stroke-dasharray:none;stroke-opacity:1"
       d="m 100.9595,225.678 v 3.2128 h 21.13812 v -3.2128"
       id="path5016-7-9-3"
       inkscape:connector-curvature="0" />
    <path
       style="fill:none;stroke:#e35959;stroke-width:0.52916664;stroke-linecap:butt;stroke-linejoin:miter;stroke-miterlimit:4;stroke-dasharray:none;stroke-opacity:1"
       d="m 125.98513,225.70312 v 3.2128 h 5.98984 v -3.2128"
       id="path5016-0-1"
       inkscape:connector-curvature="0"
       sodipodi:nodetypes="cccc" />
    <path
       style="fill:none;stroke:#e35959;stroke-width:0.52916664;stroke-linecap:butt;stroke-linejoin:miter;stroke-miterlimit:4;stroke-dasharray:none;stroke-opacity:1"
       d="m 135.76847,225.70312 v 3.2128 h 42.81616 v -3.2128"
       id="path5016-0-1-7"
       inkscape:connector-curvature="0"
       sodipodi:nodetypes="cccc" />
    <flowRoot
       xml:space="preserve"
       id="flowRoot3882-4-8"
       style="font-style:normal;font-weight:normal;font-size:40px;line-height:1.25;font-family:sans-serif;letter-spacing:0px;word-spacing:0px;fill:#000000;fill-opacity:1;stroke:none"
       transform="matrix(0.26458333,0,0,0.26458333,180.33421,215.70051)"><flowRegion
         id="flowRegion3884-2-2"><rect
           id="rect3886-2-5"
           width="479.28571"
           height="95"
           x="20"
           y="14.999999" /></flowRegion><flowPara
         id="flowPara3888-1-3"
         style="font-style:normal;font-variant:normal;font-weight:normal;font-stretch:normal;font-size:16px;font-family:'Space Grotesk';-inkscape-font-specification:'Space Grotesk'">Words</flowPara></flowRoot>    <flowRoot
       xml:space="preserve"
       id="flowRoot3882-4-8-2"
       style="font-style:normal;font-weight:normal;font-size:40px;line-height:1.25;font-family:sans-serif;letter-spacing:0px;word-spacing:0px;fill:#000000;fill-opacity:1;stroke:none"
       transform="matrix(0.26458333,0,0,0.26458333,180.20057,223.71859)"><flowRegion
         id="flowRegion3884-2-2-9"><rect
           id="rect3886-2-5-2"
           width="479.28571"
           height="95"
           x="20"
           y="14.999999" /></flowRegion><flowPara
         id="flowPara3888-1-3-6"
         style="font-style:normal;font-variant:normal;font-weight:normal;font-stretch:normal;font-size:16px;font-family:'Space Grotesk';-inkscape-font-specification:'Space Grotesk'">Fragments</flowPara></flowRoot>    <path
       style="opacity:0.10499998;fill:none;stroke:#7eb4d4;stroke-width:0.52916664;stroke-linecap:butt;stroke-linejoin:miter;stroke-miterlimit:4;stroke-dasharray:none;stroke-opacity:1"
       d="m 125.85226,234.05529 v 3.2128 h 6.43455 v -3.2128"
       id="path5016-0-0-0-8-1-0-3-7-4"
       inkscape:connector-curvature="0"
       sodipodi:nodetypes="cccc" />
    <path
       style="opacity:0.10499998;fill:none;stroke:#7eb4d4;stroke-width:0.52916664;stroke-linecap:butt;stroke-linejoin:miter;stroke-miterlimit:4;stroke-dasharray:none;stroke-opacity:1"
       d="m 136.03977,234.16118 v 3.01714 h 42.37797 v -3.01714"
       id="path5016-0-0-0-8-1-0-3-7-4-6"
       inkscape:connector-curvature="0"
       sodipodi:nodetypes="cccc" />
    <path
       style="opacity:0.10499998;fill:none;stroke:#7eb4d4;stroke-width:0.52916664;stroke-linecap:butt;stroke-linejoin:miter;stroke-miterlimit:4;stroke-dasharray:none;stroke-opacity:1"
       d="m 17.096442,234.05529 v 3.2128 h 2.563503 v -3.2128"
       id="path5016-0-0-0-8-1-0-3-7-4-9"
       inkscape:connector-curvature="0"
       sodipodi:nodetypes="cccc" />
    <circle
       style="opacity:1;fill:none;fill-opacity:1;stroke:#000101;stroke-width:0.37041667;stroke-linecap:round;stroke-linejoin:round;stroke-miterlimit:4;stroke-dasharray:none;stroke-dashoffset:0;stroke-opacity:1;paint-order:normal"
       id="path5351"
       cx="9.2542067"
       cy="162.05542"
       r="2.8731475" />
    <circle
       style="opacity:1;fill:none;fill-opacity:1;stroke:#000101;stroke-width:0.37041664;stroke-linecap:round;stroke-linejoin:round;stroke-miterlimit:4;stroke-dasharray:none;stroke-dashoffset:0;stroke-opacity:1;paint-order:normal"
       id="path5351-6"
       cx="8.385581"
       cy="203.22049"
       r="2.8731475" />
    <flowRoot
       xml:space="preserve"
       id="flowRoot3882-9"
       style="font-style:normal;font-weight:normal;font-size:40px;line-height:1.25;font-family:sans-serif;letter-spacing:0px;word-spacing:0px;fill:#000000;fill-opacity:1;stroke:none"
       transform="matrix(0.26458333,0,0,0.26458333,12.062813,150.21588)"><flowRegion
         id="flowRegion3884-9"><rect
           id="rect3886-4"
           width="479.28571"
           height="95"
           x="20"
           y="14.999999" /></flowRegion><flowPara
         id="flowPara3888-0"
         style="font-style:normal;font-variant:normal;font-weight:normal;font-stretch:normal;font-size:16px;font-family:'Space Grotesk';-inkscape-font-specification:'Space Grotesk'">Fourier-domain interference (too tight  visual)</flowPara></flowRoot>    <flowRoot
       xml:space="preserve"
       id="flowRoot3882-9-9"
       style="font-style:normal;font-weight:normal;font-size:40px;line-height:1.25;font-family:sans-serif;letter-spacing:0px;word-spacing:0px;fill:#000000;fill-opacity:1;stroke:none"
       transform="matrix(0.26458333,0,0,0.26458333,12.062813,190.99348)"><flowRegion
         id="flowRegion3884-9-5"><rect
           id="rect3886-4-1"
           width="479.28571"
           height="95"
           x="20"
           y="14.999999" /></flowRegion><flowPara
         id="flowPara3888-0-0"
         style="font-style:normal;font-variant:normal;font-weight:normal;font-stretch:normal;font-size:16px;font-family:'Space Grotesk';-inkscape-font-specification:'Space Grotesk'">Disrupted word grouping (irregular  visual)</flowPara></flowRoot>    <flowRoot
       xml:space="preserve"
       id="flowRoot3882-4-7"
       style="font-style:normal;font-weight:normal;font-size:40px;line-height:1.25;font-family:sans-serif;letter-spacing:0px;word-spacing:0px;fill:#000000;fill-opacity:1;stroke:none"
       transform="matrix(0.26458333,0,0,0.26458333,1.8572273,250.27643)"><flowRegion
         id="flowRegion3884-2-23"><rect
           id="rect3886-2-3"
           width="479.28571"
           height="95"
           x="20"
           y="14.999999" /></flowRegion><flowPara
         id="flowPara3888-1-2"
         style="font-style:normal;font-variant:normal;font-weight:normal;font-stretch:normal;font-size:16px;font-family:'Space Grotesk';-inkscape-font-specification:'Space Grotesk'">3</flowPara></flowRoot>    <path
       inkscape:connector-curvature="0"
       id="path4699-2-8"
       style="font-style:normal;font-variant:normal;font-weight:normal;font-stretch:normal;font-size:medium;line-height:1.25;font-family:FreeSans;-inkscape-font-specification:FreeSans;letter-spacing:-5.04999876px;word-spacing:0px;fill:#000000;fill-opacity:1;stroke:none;stroke-width:0.26458332"
       d="m 19.108235,269.07063 v 9.98705 h -1.287768 v -9.98705 z" />
    <path
       inkscape:connector-curvature="0"
       id="path4701-1-7"
       style="font-style:normal;font-variant:normal;font-weight:normal;font-stretch:normal;font-size:medium;line-height:1.25;font-family:FreeSans;-inkscape-font-specification:FreeSans;letter-spacing:-5.04999876px;word-spacing:0px;fill:#000000;fill-opacity:1;stroke:none;stroke-width:0.26458332"
       d="m 58.85543,279.37278 q -1.260369,0 -2.109748,-1.02748 -0.849378,-1.04118 -0.849378,-2.75363 0,-1.75356 0.835678,-2.83583 0.849379,-1.08228 2.219346,-1.08228 1.342565,0 2.191946,1.24668 l -0.136997,-1.04119 h 1.191871 v 6.00046 q 0,1.02747 -0.123297,1.71246 -0.123298,0.69868 -0.452089,1.28776 -0.328791,0.5891 -0.986376,0.87679 -0.643884,0.28769 -1.643959,0.28769 -1.260369,0 -2.013851,-0.57538 -0.75348,-0.57539 -0.849379,-1.58917 h 1.164473 q 0.191794,1.20557 1.739856,1.20557 1.150771,0 1.575461,-0.65759 0.424689,-0.64387 0.424689,-1.97275 V 278.085 q -0.479487,0.68499 -1.000075,0.98638 -0.506888,0.3014 -1.178171,0.3014 z m 0.219195,-6.64434 q -0.917879,0 -1.452165,0.75347 -0.534285,0.75349 -0.534285,2.04126 0,1.30147 0.534285,2.05495 0.534286,0.73978 1.465865,0.73978 0.904177,0 1.424765,-0.72609 0.520586,-0.73978 0.520586,-2.02754 0,-1.34257 -0.520586,-2.08236 -0.506888,-0.75347 -1.438465,-0.75347 z" />
    <path
       inkscape:connector-curvature="0"
       id="path4703-7-1"
       style="font-style:normal;font-variant:normal;font-weight:normal;font-stretch:normal;font-size:medium;line-height:1.25;font-family:FreeSans;-inkscape-font-specification:FreeSans;letter-spacing:-5.04999876px;word-spacing:0px;fill:#000000;fill-opacity:1;stroke:none;stroke-width:0.26458332"
       d="m 85.953018,271.67356 q 1.548064,0 2.397443,1.02747 0.863079,1.01378 0.863079,2.87693 0,1.76726 -0.876779,2.78104 -0.863079,1.01378 -2.370042,1.01378 -1.534361,0 -2.397443,-1.01378 -0.849377,-1.02748 -0.849377,-2.83583 0,-1.80836 0.86308,-2.82214 0.863079,-1.02747 2.370039,-1.02747 z m 0.01371,1.05488 q -0.958977,0 -1.506964,0.75347 -0.547986,0.73979 -0.547986,2.04126 0,1.30147 0.547986,2.05495 0.547987,0.73978 1.506964,0.73978 0.945277,0 1.493263,-0.73978 0.561687,-0.75348 0.561687,-2.01385 0,-1.32887 -0.547987,-2.08236 -0.534286,-0.75347 -1.506963,-0.75347 z" />
    <path
       inkscape:connector-curvature="0"
       id="path4705-2-6"
       style="font-style:normal;font-variant:normal;font-weight:normal;font-stretch:normal;font-size:medium;line-height:1.25;font-family:FreeSans;-inkscape-font-specification:FreeSans;letter-spacing:-5.04999876px;word-spacing:0px;fill:#000000;fill-opacity:1;stroke:none;stroke-width:0.26458332"
       d="m 136.79185,274.0025 q 0.0822,-2.32894 2.87693,-2.32894 1.32887,0 2.01385,0.50689 0.68499,0.49319 0.68499,1.45216 v 4.2195 q 0,0.56168 0.61648,0.56168 0.1233,0 0.24659,-0.0274 v 0.86308 q -0.47948,0.12323 -0.78088,0.12323 -0.54798,0 -0.83568,-0.26029 -0.27399,-0.24659 -0.34249,-0.79457 -1.15077,1.05486 -2.43854,1.05486 -1.08227,0 -1.72615,-0.57539 -0.63019,-0.57538 -0.63019,-1.54805 0,-0.3151 0.0548,-0.57538 0.0685,-0.26031 0.137,-0.45209 0.0822,-0.2055 0.27399,-0.36989 0.1918,-0.17811 0.31509,-0.2877 0.137,-0.10964 0.4384,-0.20549 0.31508,-0.10964 0.47948,-0.1507 0.1644,-0.0548 0.57539,-0.12323 0.41099,-0.0685 0.60278,-0.0959 0.1918,-0.0275 0.68499,-0.0959 0.67128,-0.0822 0.93157,-0.26029 0.2603,-0.17811 0.2603,-0.53429 v -0.3014 q 0,-0.52058 -0.4247,-0.79458 -0.41098,-0.27399 -1.17816,-0.27399 -0.79458,0 -1.20557,0.31509 -0.411,0.30139 -0.47949,0.95897 z m 2.28785,4.37019 q 0.94527,0 1.54806,-0.49318 0.60278,-0.50689 0.60278,-1.08227 v -1.28777 q -0.34249,0.1644 -1.04117,0.27399 -0.68498,0.10964 -1.19187,0.1918 -0.50689,0.0822 -0.91788,0.39729 -0.41099,0.30139 -0.41099,0.84937 0,0.548 0.36989,0.84938 0.36989,0.30139 1.04118,0.30139 z" />
    <path
       inkscape:connector-curvature="0"
       id="path4707-6-1"
       style="font-style:normal;font-variant:normal;font-weight:normal;font-stretch:normal;font-size:medium;line-height:1.25;font-family:FreeSans;-inkscape-font-specification:FreeSans;letter-spacing:-5.04999876px;word-spacing:0px;fill:#000000;fill-opacity:1;stroke:none;stroke-width:0.26458332"
       d="m 167.60682,271.87905 h 1.05488 v 1.20558 q 0.47948,-0.75349 1.02747,-1.08228 0.56169,-0.32879 1.35627,-0.32879 1.04117,0 1.65766,0.53428 0.61648,0.53429 0.61648,1.42477 v 5.42507 h -1.13707 v -4.97298 q 0,-0.64389 -0.39729,-1.02747 -0.39729,-0.38359 -1.08227,-0.38359 -0.87678,0 -1.41107,0.67128 -0.53429,0.65758 -0.53429,1.75356 v 3.9592 h -1.15077 z" />
    <path
       inkscape:connector-curvature="0"
       id="path4709-3-9"
       style="font-style:normal;font-variant:normal;font-weight:normal;font-stretch:normal;font-size:medium;line-height:1.25;font-family:FreeSans;-inkscape-font-specification:FreeSans;letter-spacing:-5.04999876px;word-spacing:0px;fill:#000000;fill-opacity:1;stroke:none;stroke-width:0.26458332"
       d="m 203.0097,269.07063 v 9.98705 h -1.01377 v -0.94528 q -0.46579,0.67128 -1.01378,0.95898 -0.53429,0.3014 -1.27407,0.3014 -1.45216,0 -2.28784,-1.04119 -0.83568,-1.05486 -0.83568,-2.87693 0,-1.71244 0.83568,-2.73992 0.84938,-1.04118 2.24674,-1.04118 1.47957,0 2.20565,1.10967 v -3.7126 z m -3.15092,3.6715 q -0.93158,0 -1.50696,0.76719 -0.57539,0.76718 -0.57539,2.01385 0,1.26037 0.57539,2.02754 0.57538,0.75349 1.52066,0.75349 0.90418,0 1.45216,-0.75349 0.54799,-0.75347 0.54799,-2.00014 0,-1.28778 -0.54799,-2.04125 -0.54798,-0.76719 -1.46586,-0.76719 z" />
    <circle
       style="opacity:1;fill:none;fill-opacity:1;stroke:#000101;stroke-width:0.37041664;stroke-linecap:round;stroke-linejoin:round;stroke-miterlimit:4;stroke-dasharray:none;stroke-dashoffset:0;stroke-opacity:1;paint-order:normal"
       id="path5351-6-7"
       cx="8.385581"
       cy="262.18478"
       r="2.8731475" />
    <flowRoot
       xml:space="preserve"
       id="flowRoot3882-9-9-0"
       style="font-style:normal;font-weight:normal;font-size:40px;line-height:1.25;font-family:sans-serif;letter-spacing:0px;word-spacing:0px;fill:#000000;fill-opacity:1;stroke:none"
       transform="matrix(0.26458333,0,0,0.26458333,12.062813,249.95777)"><flowRegion
         id="flowRegion3884-9-5-4"><rect
           id="rect3886-4-1-6"
           width="479.28571"
           height="95"
           x="20"
           y="14.999999" /></flowRegion><flowPara
         id="flowPara3888-0-0-6"
         style="font-style:normal;font-variant:normal;font-weight:normal;font-stretch:normal;font-size:16px;font-family:'Space Grotesk';-inkscape-font-specification:'Space Grotesk'">Disrupted parallel reading (too far  visual)</flowPara></flowRoot>    <circle
       style="opacity:1;fill:none;fill-opacity:1;stroke:#e35959;stroke-width:0.52916664;stroke-linecap:round;stroke-linejoin:round;stroke-miterlimit:4;stroke-dasharray:none;stroke-dashoffset:0;stroke-opacity:1;paint-order:normal"
       id="path4910-9-4"
       cx="139.78197"
       cy="275.61121"
       r="17.808348" />
    <circle
       style="opacity:1;fill:none;fill-opacity:1;stroke:#e35959;stroke-width:0.52916664;stroke-linecap:round;stroke-linejoin:round;stroke-miterlimit:4;stroke-dasharray:none;stroke-dashoffset:0;stroke-opacity:1;paint-order:normal"
       id="path4910-9-4-6"
       cx="170.25069"
       cy="275.61121"
       r="17.808348" />
    <circle
       style="opacity:1;fill:none;fill-opacity:1;stroke:#e35959;stroke-width:0.52916664;stroke-linecap:round;stroke-linejoin:round;stroke-miterlimit:4;stroke-dasharray:none;stroke-dashoffset:0;stroke-opacity:1;paint-order:normal"
       id="path4910-9-4-6-2"
       cx="200.58578"
       cy="275.61121"
       r="17.808348" />
  </g>
</svg>
