<?xml version="1.0" encoding="UTF-8" standalone="no"?>
<!-- Created with Inkscape (http://www.inkscape.org/) -->

<svg
   xmlns:osb="http://www.openswatchbook.org/uri/2009/osb"
   xmlns:dc="http://purl.org/dc/elements/1.1/"
   xmlns:cc="http://creativecommons.org/ns#"
   xmlns:rdf="http://www.w3.org/1999/02/22-rdf-syntax-ns#"
   xmlns:svg="http://www.w3.org/2000/svg"
   xmlns="http://www.w3.org/2000/svg"
   xmlns:xlink="http://www.w3.org/1999/xlink"
   xmlns:sodipodi="http://sodipodi.sourceforge.net/DTD/sodipodi-0.dtd"
   xmlns:inkscape="http://www.inkscape.org/namespaces/inkscape"
   width="840"
   height="200"
   viewBox="0 0 222.24999 52.916668"
   version="1.1"
   id="svg8"
   inkscape:version="0.92.3 (2405546, 2018-03-11)"
   sodipodi:docname="surround_suppression.svg"
   inkscape:export-filename="/home/sebastian/projects/YinYangFit/docs/img/surround_suppression.png"
   inkscape:export-xdpi="199.95"
   inkscape:export-ydpi="199.95">
  <defs
     id="defs2">
    <pattern
       inkscape:collect="always"
       xlink:href="#Strips1_1"
       id="pattern2331"
       patternTransform="matrix(0.74034429,0.74034429,-0.74034429,0.74034429,21.166667,268.2686)" />
    <pattern
       inkscape:isstock="true"
       inkscape:stockid="Stripes 1:1"
       id="Strips1_1"
       patternTransform="translate(0,0) scale(10,10)"
       height="1"
       width="2"
       patternUnits="userSpaceOnUse"
       inkscape:collect="always">
      <rect
         id="rect1551"
         height="2"
         width="1"
         y="-0.5"
         x="0"
         style="fill:black;stroke:none" />
    </pattern>
    <linearGradient
       id="linearGradient2319"
       osb:paint="solid">
      <stop
         style="stop-color:#000000;stop-opacity:1;"
         offset="0"
         id="stop2317" />
    </linearGradient>
    <pattern
       inkscape:collect="always"
       xlink:href="#Strips1_1-5"
       id="pattern2331-3"
       patternTransform="matrix(0.74034427,-0.74034427,-0.74034427,-0.74034427,27.957987,272.9489)" />
    <pattern
       inkscape:isstock="true"
       inkscape:stockid="Stripes 1:1"
       id="Strips1_1-5"
       patternTransform="translate(0,0) scale(10,10)"
       height="1"
       width="2"
       patternUnits="userSpaceOnUse"
       inkscape:collect="always">
      <rect
         id="rect1551-6"
         height="2"
         width="1"
         y="-0.5"
         x="0"
         style="fill:black;stroke:none" />
    </pattern>
    <pattern
       inkscape:collect="always"
       xlink:href="#Strips1_1-5-1"
       id="pattern2331-3-9"
       patternTransform="matrix(0.74034427,0.74034427,-0.74034427,0.74034427,27.222996,268.40225)" />
    <pattern
       inkscape:isstock="true"
       inkscape:stockid="Stripes 1:1"
       id="Strips1_1-5-1"
       patternTransform="translate(0,0) scale(10,10)"
       height="1"
       width="2"
       patternUnits="userSpaceOnUse"
       inkscape:collect="always">
      <rect
         id="rect1551-6-2"
         height="2"
         width="1"
         y="-0.5"
         x="0"
         style="fill:black;stroke:none" />
    </pattern>
  </defs>
  <sodipodi:namedview
     id="base"
     pagecolor="#ffffff"
     bordercolor="#666666"
     borderopacity="1.0"
     inkscape:pageopacity="0.0"
     inkscape:pageshadow="2"
     inkscape:zoom="1.979899"
     inkscape:cx="191.06535"
     inkscape:cy="123.02387"
     inkscape:document-units="mm"
     inkscape:current-layer="layer1"
     showgrid="false"
     units="px"
     inkscape:window-width="2560"
     inkscape:window-height="1401"
     inkscape:window-x="0"
     inkscape:window-y="19"
     inkscape:window-maximized="1" />
  <metadata
     id="metadata5">
    <rdf:RDF>
      <cc:Work
         rdf:about="">
        <dc:format>image/svg+xml</dc:format>
        <dc:type
           rdf:resource="http://purl.org/dc/dcmitype/StillImage" />
        <dc:title></dc:title>
      </cc:Work>
    </rdf:RDF>
  </metadata>
  <g
     inkscape:label="Layer 1"
     inkscape:groupmode="layer"
     id="layer1"
     transform="translate(0,-244.08332)">
    <path
       style="opacity:0.71499999;fill:url(#pattern2331-3);fill-opacity:1;stroke:none;stroke-width:0.52899998;stroke-linecap:round;stroke-linejoin:round;stroke-miterlimit:4;stroke-dasharray:0.52899997, 3.1739998;stroke-dashoffset:0;stroke-opacity:1;paint-order:normal"
       d="m 25.921336,279.6582 c -0.277,0 -0.50022,-0.22272 -0.50022,-0.49971 v -16.76487 c -10e-6,-0.277 0.22322,-0.50023 0.50022,-0.50023 h 16.76487 c 0.277,0 0.50023,0.22323 0.50023,0.50023 v 16.76487 c 0,0.27699 -0.22323,0.49971 -0.50023,0.49971 z"
       id="rect833-2"
       inkscape:connector-curvature="0" />
    <path
       style="opacity:0.71499999;fill:url(#pattern2331-3-9);fill-opacity:1;stroke:none;stroke-width:0.52899998;stroke-linecap:round;stroke-linejoin:round;stroke-miterlimit:4;stroke-dasharray:0.52899997, 3.17399983;stroke-dashoffset:0;stroke-opacity:1;paint-order:normal"
       d="m 16.400986,253.22364 c -0.277,0 -0.49971,0.22271 -0.49971,0.49971 v 34.10489 c 0,0.277 0.22271,0.49971 0.49971,0.49971 h 35.80557 c 0.277,0 0.49971,-0.22271 0.49971,-0.49971 v -34.10489 c 0,-0.277 -0.22271,-0.49971 -0.49971,-0.49971 z m 9.52035,8.66975 h 16.76487 c 0.277,0 0.50023,0.22271 0.50023,0.49971 v 16.76487 c 0,0.277 -0.22323,0.50023 -0.50023,0.50023 h -16.76487 c -0.277,0 -0.50023,-0.22323 -0.50023,-0.50023 V 262.3931 c 0,-0.277 0.22323,-0.49971 0.50023,-0.49971 z"
       id="rect833-2-7"
       inkscape:connector-curvature="0" />
    <path
       sodipodi:nodetypes="cccccccccccccccc"
       inkscape:connector-curvature="0"
       id="path1921-0-7"
       style="font-style:normal;font-variant:normal;font-weight:normal;font-stretch:normal;font-size:16px;line-height:1.25;font-family:'Space Grotesk';-inkscape-font-specification:'Space Grotesk';letter-spacing:0px;word-spacing:0px;fill:#2e2e2e;fill-opacity:1;stroke:none;stroke-width:0.26458332"
       d="m 68.714156,272.96341 -0.37279,-0.3728 1.06209,-1.06209 0.21102,-0.14771 -0.0211,-0.0633 -6.33976,0.0211 v -0.52752 l 6.0795,-10e-6 0.26024,0.0211 0.0211,-0.0633 -0.21101,-0.14771 -1.06209,-1.06209 0.37279,-0.3728 1.66699,1.67404 v 0.42905 z" />
    <path
       style="opacity:1;fill:none;fill-opacity:1;stroke:#2e2e2e;stroke-width:0.5291667;stroke-linecap:round;stroke-linejoin:round;stroke-miterlimit:4;stroke-dasharray:none;stroke-dashoffset:0;stroke-opacity:1;paint-order:normal"
       d="m 91.402368,279.6582 c -0.277,0 -0.50022,-0.22272 -0.50022,-0.49971 v -16.76487 c -1e-5,-0.277 0.22322,-0.50023 0.50022,-0.50023 h 16.764862 c 0.277,0 0.50023,0.22323 0.50023,0.50023 v 16.76487 c 0,0.27699 -0.22323,0.49971 -0.50023,0.49971 z"
       id="rect833-2-1"
       inkscape:connector-curvature="0" />
    <path
       style="opacity:1;fill:none;fill-opacity:1;stroke:#2e2e2e;stroke-width:0.5291667;stroke-linecap:round;stroke-linejoin:round;stroke-miterlimit:4;stroke-dasharray:none;stroke-dashoffset:0;stroke-opacity:1;paint-order:normal"
       d="m 81.88202,253.22364 c -0.277,0 -0.49971,0.22271 -0.49971,0.49971 v 34.10489 c 0,0.277 0.22271,0.49971 0.49971,0.49971 h 35.80557 c 0.277,0 0.49971,-0.22271 0.49971,-0.49971 v -34.10489 c 0,-0.277 -0.22271,-0.49971 -0.49971,-0.49971 z m 9.52035,8.66975 h 16.76487 c 0.277,0 0.50023,0.22271 0.50023,0.49971 v 16.76487 c 0,0.277 -0.22323,0.50023 -0.50023,0.50023 H 91.40237 c -0.277,0 -0.50023,-0.22323 -0.50023,-0.50023 V 262.3931 c 0,-0.277 0.22323,-0.49971 0.50023,-0.49971 z"
       id="rect833-2-7-2"
       inkscape:connector-curvature="0" />
  </g>
</svg>
