<?xml version="1.0" encoding="UTF-8" standalone="no"?>
<!-- Created with Inkscape (http://www.inkscape.org/) -->

<svg
   xmlns:dc="http://purl.org/dc/elements/1.1/"
   xmlns:cc="http://creativecommons.org/ns#"
   xmlns:rdf="http://www.w3.org/1999/02/22-rdf-syntax-ns#"
   xmlns:svg="http://www.w3.org/2000/svg"
   xmlns="http://www.w3.org/2000/svg"
   xmlns:sodipodi="http://sodipodi.sourceforge.net/DTD/sodipodi-0.dtd"
   xmlns:inkscape="http://www.inkscape.org/namespaces/inkscape"
   width="420"
   height="100"
   viewBox="0 0 111.125 26.458334"
   version="1.1"
   id="svg9145"
   inkscape:version="0.92.3 (2405546, 2018-03-11)"
   sodipodi:docname="too_far_too_close.svg"
   inkscape:export-filename="/home/sebastian/projects/YinYangFit/docs/img/too_far_too_close.png"
   inkscape:export-xdpi="199.95"
   inkscape:export-ydpi="199.95">
  <defs
     id="defs9139" />
  <sodipodi:namedview
     id="base"
     pagecolor="#ffffff"
     bordercolor="#666666"
     borderopacity="1.0"
     inkscape:pageopacity="0.0"
     inkscape:pageshadow="2"
     inkscape:zoom="1.4142136"
     inkscape:cx="200.98257"
     inkscape:cy="288.18945"
     inkscape:document-units="px"
     inkscape:current-layer="layer1"
     showgrid="false"
     units="px"
     inkscape:window-width="2560"
     inkscape:window-height="1401"
     inkscape:window-x="0"
     inkscape:window-y="19"
     inkscape:window-maximized="1" />
  <metadata
     id="metadata9142">
    <rdf:RDF>
      <cc:Work
         rdf:about="">
        <dc:format>image/svg+xml</dc:format>
        <dc:type
           rdf:resource="http://purl.org/dc/dcmitype/StillImage" />
        <dc:title></dc:title>
      </cc:Work>
    </rdf:RDF>
  </metadata>
  <g
     inkscape:label="Layer 1"
     inkscape:groupmode="layer"
     id="layer1"
     transform="translate(0,-270.54163)">
    <path
       inkscape:connector-curvature="0"
       id="path10877"
       style="font-style:normal;font-variant:normal;font-weight:normal;font-stretch:normal;font-size:8px;line-height:1.25;font-family:GaramondNo8;-inkscape-font-specification:GaramondNo8;letter-spacing:0px;word-spacing:0px;fill:#7eb4d4;fill-opacity:1;stroke:none;stroke-width:0.26458335"
       d="M 5.7043084,278.78833 H 3.855627 l -0.2888673,0.90763 q -0.1540505,0.48644 -0.1540505,0.69931 0,0.32399 0.6162044,0.34366 0.050444,0.004 0.050444,0.077 v 0.077 q 0,0.0889 -0.084641,0.0855 l -0.2850209,-0.01 q -0.6624535,-0.0341 -0.7317851,-0.0341 -0.150204,0 -0.31195,0.0171 -0.2195344,0.0172 -0.346657,0.0257 l -0.084641,0.004 q -0.073525,0 -0.073525,-0.0966 v -0.0855 q 0,-0.0426 0.015383,-0.0514 0.02735,-0.0172 0.1617446,-0.0257 0.3081022,-0.0257 0.423683,-0.12389 0.088573,-0.077 0.1463575,-0.22399 0.050443,-0.12389 0.1694389,-0.46763 l 1.4519793,-4.23692 q 0.2310762,-0.2821 0.5160959,-0.42487 l 1.8756362,4.72745 q 0.1887602,0.47104 0.2734802,0.55653 0.1926067,0.19663 0.5584986,0.19321 0.058128,0.008 0.058128,0.077 v 0.0966 q 0,0.0855 -0.069244,0.0855 -0.050444,0 -0.1154968,-0.004 -0.6046625,-0.0428 -0.9050794,-0.0428 -0.4390714,0 -0.8434344,0.0428 -0.065826,0.004 -0.096258,0.004 -0.073525,0 -0.073525,-0.0966 v -0.077 q 0,-0.0514 0.015383,-0.0683 0.019664,-0.0171 0.1926065,-0.0257 0.4313784,-0.0172 0.4313784,-0.21287 0,-0.0683 -0.046163,-0.1855 l -0.1001138,-0.25134 z m -0.1232729,-0.30862 -0.8742692,-2.25169 -0.7548676,2.25169 z" />
    <path
       inkscape:connector-curvature="0"
       id="path10879"
       style="font-style:normal;font-variant:normal;font-weight:normal;font-stretch:normal;font-size:8px;line-height:1.25;font-family:GaramondNo8;-inkscape-font-specification:GaramondNo8;letter-spacing:0px;word-spacing:0px;fill:#7eb4d4;fill-opacity:1;stroke:none;stroke-width:0.26458335"
       d="m 10.798553,277.73391 -0.04275,0.72238 H 10.55935 q -0.09242,-0.32827 -0.211842,-0.47874 -0.192606,-0.23937 -0.5084026,-0.23937 -0.2272299,0 -0.404363,0.11966 -0.2156878,0.15047 -0.2156878,0.38983 0,0.22056 0.2310763,0.4018 0.096258,0.077 0.4930146,0.2975 0.5007085,0.27441 0.6893825,0.47874 0.234924,0.25133 0.234924,0.59073 0,0.47874 -0.412057,0.80702 -0.350505,0.27784 -0.8665673,0.27784 -0.5045552,0 -0.9744033,-0.28553 l -0.046163,-0.77624 0.2195357,-0.0172 q 0.088573,0.30947 0.234924,0.49412 0.2696324,0.33256 0.6315929,0.33256 0.2888672,0 0.466001,-0.18893 0.165591,-0.17354 0.165591,-0.41718 0,-0.24366 -0.246465,-0.46763 -0.1232719,-0.112 -0.4890821,-0.30861 -0.4506119,-0.23938 -0.6238985,-0.42831 -0.2310763,-0.25133 -0.2310763,-0.59074 0,-0.43257 0.3428106,-0.69929 0.3428105,-0.26673 0.8434342,-0.26673 0.4313771,0 0.9166381,0.25135 z" />
    <path
       inkscape:connector-curvature="0"
       id="path10881"
       style="font-style:normal;font-variant:normal;font-weight:normal;font-stretch:normal;font-size:8px;line-height:1.25;font-family:GaramondNo8;-inkscape-font-specification:GaramondNo8;letter-spacing:0px;word-spacing:0px;fill:#7eb4d4;fill-opacity:1;stroke:none;stroke-width:0.26458335"
       d="m 14.110771,279.89679 v -3.3563 q -0.0038,-0.49071 -0.04274,-0.59073 -0.06155,-0.16585 -0.273479,-0.21971 -0.107799,-0.0172 -0.385128,-0.0257 -0.111637,0 -0.115503,-0.10859 v -0.0514 q 0,-0.10012 0.111637,-0.10012 0.09242,0 0.242619,0.01 0.493015,0.0342 0.793422,0.0342 0.423684,0 0.855018,-0.0342 0.134817,-0.01 0.215689,-0.01 0.10396,0 0.10396,0.10012 v 0.0514 q 0,0.077 -0.03505,0.0933 -0.02736,0.0172 -0.154051,0.0172 -0.28502,0.008 -0.377434,0.0514 -0.150203,0.0683 -0.196453,0.21287 -0.03077,0.11186 -0.03505,0.56763 v 3.3563 q 0.0038,0.54456 0.07353,0.64885 0.05813,0.0966 0.200301,0.14706 0.08465,0.0342 0.335118,0.0342 0.154051,0 0.18098,0.0172 0.03077,0.0257 0.03077,0.0933 v 0.0514 q 0,0.1008 -0.107798,0.1008 -0.08465,0 -0.234923,-0.01 -0.458306,-0.0341 -0.847282,-0.0341 -0.304255,0 -0.789575,0.0341 -0.157899,0.01 -0.242618,0.01 -0.119423,0 -0.119423,-0.1008 v -0.0514 q 0.0038,-0.077 0.03505,-0.0933 0.03505,-0.0172 0.219536,-0.0172 0.373586,0 0.485235,-0.17782 0.06924,-0.10012 0.07353,-0.64887 z" />
    <path
       inkscape:connector-curvature="0"
       id="path10883"
       style="font-style:normal;font-variant:normal;font-weight:normal;font-stretch:normal;font-size:8px;line-height:1.25;font-family:GaramondNo8;-inkscape-font-specification:GaramondNo8;letter-spacing:0px;word-spacing:0px;fill:#7eb4d4;fill-opacity:1;stroke:none;stroke-width:0.26458335"
       d="m 21.863663,280.12853 0.681687,-1.5912 q 0.177134,-0.4129 0.177134,-0.5249 0,-0.12744 -0.150205,-0.17012 -0.08855,-0.0257 -0.308101,-0.0426 -0.04617,-0.004 -0.04617,-0.0683 v -0.0889 q 0,-0.077 0.11165,-0.077 0.10396,0 0.338963,0.0172 0.238771,0.0257 0.346658,0.0257 0.09242,0 0.500708,-0.0426 0.05044,-0.004 0.08858,-0.004 0.06582,0 0.06582,0.077 v 0.0888 q 0,0.0514 -0.01538,0.0683 -0.02308,0.01 -0.196452,0.0257 -0.08858,0.004 -0.215689,0.10436 -0.100109,0.077 -0.223383,0.32827 -0.01538,0.0342 -0.281173,0.59842 l -0.955152,2.20536 q -0.01967,0.0172 -0.04274,0.0172 -0.06156,0 -0.100108,-0.077 -0.03505,-0.0598 -0.09242,-0.26244 -0.01967,-0.0598 -0.115502,-0.28981 l -0.647065,-1.49854 -0.901233,2.10876 q -0.01538,0.0172 -0.04275,0.0172 -0.06582,0 -0.107799,-0.077 -0.02735,-0.0514 -0.08465,-0.23937 -0.04274,-0.13167 -0.127126,-0.31288 l -0.71255,-1.64917 q -0.358198,-0.8113 -0.473693,-0.91926 -0.06924,-0.077 -0.369741,-0.0923 -0.07694,0 -0.0812,-0.0683 v -0.077 q 0,-0.077 0.08465,-0.077 0.07353,0 0.246464,0.01 0.0812,0.004 0.342811,0.008 0.09242,0 0.593123,0.01 0.404363,0.01 0.739479,0.01 0.804965,0 1.471239,-0.0428 0.09626,-0.004 0.142512,-0.004 0.08465,0 0.08465,0.0855 v 0.077 q 0,0.0428 -0.01967,0.0598 -0.01538,0.008 -0.161744,0.01 -0.281173,0.008 -0.338964,0.0428 -0.05044,0.0341 -0.05044,0.0933 0,0.077 0.119422,0.36332 z m -1.209345,-1.44834 -0.227231,-0.49071 q -0.127112,-0.27015 -0.192605,-0.31289 -0.09242,-0.0598 -0.581582,-0.0598 -0.327337,0 -0.431377,0.0426 -0.0812,0.0341 -0.0812,0.10859 0,0.0683 0.138663,0.40949 l 0.712552,1.78056 z" />
    <path
       inkscape:connector-curvature="0"
       id="path10885"
       style="font-style:normal;font-variant:normal;font-weight:normal;font-stretch:normal;font-size:8px;line-height:1.25;font-family:GaramondNo8;-inkscape-font-specification:GaramondNo8;letter-spacing:0px;word-spacing:0px;fill:#7eb4d4;fill-opacity:1;stroke:none;stroke-width:0.26458335"
       d="m 27.442543,280.36415 0.146357,0.0598 q -0.177133,0.67964 -0.650913,0.67964 -0.242618,0 -0.396669,-0.18124 -0.150205,-0.17782 -0.150205,-0.5061 -0.265785,0.24708 -0.388974,0.34795 -0.400515,0.34024 -0.762561,0.34024 -0.269632,0 -0.458306,-0.25904 -0.223384,-0.30861 -0.223384,-0.62918 0,-0.27015 0.281174,-0.44028 0.21569,-0.13167 0.724092,-0.33254 l 0.808811,-0.3206 v -0.40949 q 0,-0.39752 -0.123275,-0.54456 -0.150206,-0.18123 -0.508404,-0.18123 -0.231076,0 -0.42753,0.0855 -0.161744,0.0683 -0.161744,0.22056 0,0.0598 0.03846,0.16242 l -0.489168,0.27784 q -0.05044,-0.13167 -0.05044,-0.21202 0,-0.23936 0.273479,-0.45565 0.09242,-0.077 0.319645,-0.20517 l 0.658607,-0.37443 q 0.71255,0.004 0.916638,0.44369 0.100108,0.25902 0.09626,0.93858 v 1.15093 l -0.0038,0.15474 q 0,0.42486 0.246466,0.42486 0.150203,0 0.285019,-0.23166 z m -1.070691,-1.01578 -0.596968,0.26673 q -0.36974,0.16583 -0.473694,0.27015 -0.103961,0.10859 -0.103961,0.24705 0,0.21287 0.111651,0.40949 0.100108,0.16585 0.250311,0.16585 0.246464,0 0.523791,-0.25903 0.05044,-0.0514 0.223383,-0.21628 0.02308,-0.0257 0.06582,-0.0683 z" />
    <path
       inkscape:connector-curvature="0"
       id="path10887"
       style="font-style:normal;font-variant:normal;font-weight:normal;font-stretch:normal;font-size:8px;line-height:1.25;font-family:GaramondNo8;-inkscape-font-specification:GaramondNo8;letter-spacing:0px;word-spacing:0px;fill:#7eb4d4;fill-opacity:1;stroke:none;stroke-width:0.26458335"
       d="m 28.963853,274.86037 0.05044,0.0257 q -0.0038,0.20859 -0.0078,0.67621 l -0.0038,0.5326 v 3.80435 q 0.0038,0.55653 0.01538,0.64885 0.03077,0.18893 0.415905,0.22826 0.127113,0.008 0.127113,0.077 v 0.0514 q 0,0.0966 -0.09626,0.0966 -0.05386,0 -0.323489,-0.0257 -0.277327,-0.0257 -0.439071,-0.0257 -0.16944,0 -0.439071,0.0257 -0.265786,0.0257 -0.362047,0.0257 -0.10396,0 -0.10396,-0.0966 v -0.0514 q 0,-0.0342 0.01538,-0.0426 0.02308,-0.0257 0.154051,-0.0257 0.215689,-0.008 0.342811,-0.1008 0.05813,-0.0429 0.07353,-0.12744 0.01538,-0.0933 0.01967,-0.64887 v -3.67303 q -0.0038,-0.37871 -0.02736,-0.45224 -0.02736,-0.13509 -0.388974,-0.32058 l -0.0078,-0.10859 0.519944,-0.24706 q 0.288868,-0.13935 0.466001,-0.23595 z" />
    <path
       inkscape:connector-curvature="0"
       id="path10889"
       style="font-style:normal;font-variant:normal;font-weight:normal;font-stretch:normal;font-size:8px;line-height:1.25;font-family:GaramondNo8;-inkscape-font-specification:GaramondNo8;letter-spacing:0px;word-spacing:0px;fill:#7eb4d4;fill-opacity:1;stroke:none;stroke-width:0.26458335"
       d="m 31.602068,279.08189 -0.431378,0.30862 v 0.5061 q 0,0.55653 0.01538,0.64887 0.03077,0.1855 0.415988,0.22826 0.123275,0.008 0.123275,0.0769 v 0.0514 q 0,0.0966 -0.09626,0.0966 -0.05386,0 -0.323489,-0.0257 -0.273479,-0.0257 -0.435225,-0.0257 -0.146356,0 -0.658607,0.0427 -0.06924,0.008 -0.111637,0.008 -0.08857,0 -0.08857,-0.0966 v -0.0514 q 0,-0.0683 0.123274,-0.077 0.331184,-0.0257 0.388975,-0.15473 0.03077,-0.0514 0.03846,-0.18124 0.0038,-0.0428 0.0078,-0.54114 v -3.67303 q -0.0038,-0.37871 -0.02735,-0.45224 -0.03505,-0.13935 -0.388976,-0.32058 l -0.0078,-0.10859 0.519944,-0.24706 q 0.258006,-0.12389 0.466,-0.23169 l 0.05044,0.0172 q -0.0038,0.18123 -0.0078,0.58304 l -0.0038,0.4753 v 3.17481 q 0.450612,-0.32828 0.889675,-0.7258 0.234923,-0.21286 0.292714,-0.28981 0.06582,-0.077 0.06582,-0.15473 0,-0.077 -0.100108,-0.10435 -0.107798,-0.0257 -0.335032,-0.0342 -0.06156,-0.004 -0.06582,-0.0683 v -0.0855 q 0,-0.077 0.0812,-0.077 0.01967,0 0.06924,0.004 0.419836,0.0428 0.685535,0.0428 0.281173,0 0.731785,-0.0428 0.06582,-0.004 0.107798,-0.004 0.0812,0 0.0812,0.077 v 0.0923 q 0,0.0427 -0.01967,0.0514 -0.01967,0.0172 -0.161744,0.0172 -0.350505,0 -0.516098,0.13509 -0.130964,0.1008 -0.34281,0.30093 -0.28502,0.24363 -0.558501,0.47532 l 1.209345,1.54881 q 0.258005,0.32827 0.346659,0.38983 0.123274,0.0966 0.273479,0.10012 0.100108,0.004 0.119422,0.0172 0.01967,0.0172 0.01967,0.0598 v 0.0683 q 0,0.0889 -0.10396,0.0889 -0.03846,0 -0.392821,-0.0428 -0.21184,-0.0257 -0.29656,-0.0172 l -0.593122,0.0429 -0.188761,0.008 q -0.123274,0.004 -0.165592,0.008 -0.05386,0.004 -0.05813,0.004 -0.07694,0 -0.07694,-0.0888 v -0.0683 q 0,-0.0514 0.02308,-0.0683 0.02308,-0.01 0.119436,-0.01 0.154052,0.004 0.273479,-0.0514 0.103961,-0.0427 0.103961,-0.14278 0,-0.0855 -0.06924,-0.19319 -0.03505,-0.0514 -0.234924,-0.3052 z" />
    <path
       inkscape:connector-curvature="0"
       id="path10891"
       style="font-style:normal;font-variant:normal;font-weight:normal;font-stretch:normal;font-size:8px;line-height:1.25;font-family:GaramondNo8;-inkscape-font-specification:GaramondNo8;letter-spacing:0px;word-spacing:0px;fill:#7eb4d4;fill-opacity:1;stroke:none;stroke-width:0.26458335"
       d="m 39.366516,280.36415 0.146357,0.0598 q -0.177132,0.67964 -0.650911,0.67964 -0.242619,0 -0.396671,-0.18124 -0.150204,-0.17782 -0.150204,-0.5061 -0.265785,0.24708 -0.388975,0.34795 -0.400515,0.34024 -0.76256,0.34024 -0.269633,0 -0.458306,-0.25904 -0.223384,-0.30861 -0.223384,-0.62918 0,-0.27015 0.281173,-0.44028 0.21569,-0.13167 0.724092,-0.33254 l 0.808812,-0.3206 v -0.40949 q 0,-0.39752 -0.123274,-0.54456 -0.150203,-0.18123 -0.508402,-0.18123 -0.231077,0 -0.427531,0.0855 -0.161744,0.0683 -0.161744,0.22056 0,0.0598 0.03846,0.16242 l -0.489168,0.27784 q -0.05044,-0.13167 -0.05044,-0.21202 0,-0.23936 0.273479,-0.45565 0.09242,-0.077 0.319645,-0.20517 l 0.658606,-0.37443 q 0.712551,0.004 0.916639,0.44369 0.100108,0.25902 0.09626,0.93858 v 1.15093 l -0.0038,0.15474 q 0,0.42486 0.246466,0.42486 0.150203,0 0.285019,-0.23166 z m -1.07069,-1.01578 -0.596967,0.26673 q -0.369741,0.16583 -0.473696,0.27015 -0.10396,0.10859 -0.10396,0.24705 0,0.21287 0.11165,0.40949 0.100108,0.16585 0.250312,0.16585 0.246464,0 0.523791,-0.25903 0.05044,-0.0514 0.223382,-0.21628 0.02308,-0.0257 0.06582,-0.0683 z" />
    <path
       inkscape:connector-curvature="0"
       id="path10893"
       style="font-style:normal;font-variant:normal;font-weight:normal;font-stretch:normal;font-size:8px;line-height:1.25;font-family:GaramondNo8;-inkscape-font-specification:GaramondNo8;letter-spacing:0px;word-spacing:0px;fill:#7eb4d4;fill-opacity:1;stroke:none;stroke-width:0.26458335"
       d="m 41.339576,274.86037 0.05044,0.0257 q -0.0038,0.20859 -0.0078,0.67621 l -0.0038,0.5326 v 3.80435 q 0.0038,0.55653 0.01538,0.64885 0.03077,0.18893 0.415904,0.22826 0.127126,0.008 0.127126,0.077 v 0.0514 q 0,0.0966 -0.09626,0.0966 -0.05386,0 -0.323491,-0.0257 -0.277326,-0.0257 -0.43907,-0.0257 -0.169441,0 -0.439072,0.0257 -0.265785,0.0257 -0.362047,0.0257 -0.10396,0 -0.10396,-0.0966 v -0.0514 q 0,-0.0342 0.01538,-0.0426 0.02308,-0.0257 0.154051,-0.0257 0.215689,-0.008 0.342811,-0.1008 0.05813,-0.0429 0.07353,-0.12744 0.01538,-0.0933 0.01967,-0.64887 v -3.67303 q -0.0038,-0.37871 -0.02734,-0.45224 -0.02736,-0.13509 -0.388976,-0.32058 l -0.0078,-0.10859 0.519943,-0.24706 q 0.288868,-0.13935 0.466,-0.23595 z" />
    <path
       inkscape:connector-curvature="0"
       id="path10895"
       style="font-style:normal;font-variant:normal;font-weight:normal;font-stretch:normal;font-size:8px;line-height:1.25;font-family:GaramondNo8;-inkscape-font-specification:GaramondNo8;letter-spacing:0px;word-spacing:0px;fill:#7eb4d4;fill-opacity:1;stroke:none;stroke-width:0.26458335"
       d="m 44.937056,277.48292 q 0.727939,0 1.259415,0.53686 0.504556,0.51379 0.504556,1.23977 0,0.79932 -0.59697,1.34021 -0.554566,0.50181 -1.313324,0.50181 -0.731785,0 -1.217046,-0.49412 -0.516096,-0.52148 -0.516096,-1.28608 0,-0.54458 0.319643,-1.0158 0.277327,-0.4129 0.758715,-0.63688 0.388975,-0.18552 0.801117,-0.18552 z m -0.138663,0.25902 q -0.546872,0 -0.789575,0.40181 -0.258006,0.42487 -0.258006,1.0351 0,0.73776 0.38128,1.25139 0.304256,0.4129 0.816505,0.4129 0.458307,0 0.731786,-0.33255 0.327337,-0.38983 0.327337,-1.07759 0,-0.80359 -0.377433,-1.29386 -0.308103,-0.39753 -0.831894,-0.39753 z" />
    <path
       inkscape:connector-curvature="0"
       id="path10897"
       style="font-style:normal;font-variant:normal;font-weight:normal;font-stretch:normal;font-size:8px;line-height:1.25;font-family:GaramondNo8;-inkscape-font-specification:GaramondNo8;letter-spacing:0px;word-spacing:0px;fill:#7eb4d4;fill-opacity:1;stroke:none;stroke-width:0.26458335"
       d="m 48.368669,278.37123 v 1.52556 q 0,0.55653 0.01538,0.64885 0.03077,0.18551 0.412142,0.22826 0.123274,0.008 0.127112,0.077 v 0.0514 q 0,0.0966 -0.09626,0.0966 -0.05386,0 -0.323491,-0.0257 -0.277327,-0.0257 -0.435225,-0.0257 -0.146357,0 -0.658607,0.0429 -0.06924,0.008 -0.111636,0.008 -0.08857,0 -0.08857,-0.0966 v -0.0513 q 0,-0.0683 0.123275,-0.077 0.331183,-0.0257 0.388974,-0.15473 0.03077,-0.0514 0.03846,-0.18125 0.0038,-0.0426 0.0078,-0.54113 v -1.0853 q -0.0038,-0.37871 -0.02736,-0.45223 -0.03505,-0.13935 -0.388975,-0.32059 l -0.0078,-0.10859 0.519944,-0.24707 q 0.258005,-0.12389 0.466,-0.23167 l 0.03846,0.0172 v 0.64459 q 0.304256,-0.23595 0.489169,-0.35563 0.431377,-0.27784 0.820351,-0.27784 0.450613,0 0.712551,0.2898 0.138663,0.15474 0.184913,0.37446 0.04274,0.18123 0.04274,0.56422 v 1.18574 q 0,0.51719 0.0038,0.57961 0.01538,0.17353 0.150204,0.23168 0.107894,0.0514 0.277326,0.0683 0.123274,0.01 0.123274,0.077 v 0.0514 q 0,0.0966 -0.09626,0.0966 -0.05044,0 -0.319645,-0.0257 -0.277325,-0.0257 -0.439071,-0.0257 -0.146357,0 -0.658607,0.0428 -0.06582,0.008 -0.107798,0.008 -0.08857,0 -0.08857,-0.0966 v -0.0514 q 0,-0.0683 0.123275,-0.077 0.327338,-0.0257 0.385128,-0.15473 0.03077,-0.0514 0.03846,-0.18123 0.0038,-0.008 0.0078,-0.54115 v -1.06981 q 0,-0.36675 -0.03077,-0.47873 -0.04617,-0.15816 -0.150204,-0.25475 -0.180981,-0.15817 -0.466001,-0.15817 -0.377434,0 -0.747174,0.224 -0.119422,0.077 -0.254158,0.21286 z" />
    <path
       inkscape:connector-curvature="0"
       id="path10899"
       style="font-style:normal;font-variant:normal;font-weight:normal;font-stretch:normal;font-size:8px;line-height:1.25;font-family:GaramondNo8;-inkscape-font-specification:GaramondNo8;letter-spacing:0px;word-spacing:0px;fill:#7eb4d4;fill-opacity:1;stroke:none;stroke-width:0.26458335"
       d="m 51.784868,280.31012 0.743326,-0.55995 q -0.288868,-0.0966 -0.462154,-0.25134 -0.388975,-0.33255 -0.388975,-0.81899 0,-0.4907 0.431379,-0.85317 0.408209,-0.34367 0.89352,-0.34367 0.180981,0 0.431379,0.0683 0.231075,0.0598 0.39282,0.14704 0.196454,0.10012 0.277327,0.10012 l 0.188674,-0.004 h 0.431378 q 0.150204,0 0.173286,0.01 0.03077,0.0172 0.03505,0.0889 v 0.12389 q 0,0.077 -0.03077,0.10859 -0.02736,0.0257 -0.177132,0.0257 h -0.508404 q 0.07353,0.20091 0.07353,0.37872 0,0.48302 -0.323491,0.82241 -0.431376,0.45566 -1.18238,0.45223 -0.469848,0.21971 -0.469848,0.5326 0,0.15047 0.161746,0.24364 0.173285,0.0966 0.462152,0.0966 0.07353,0 0.177134,-0.008 0.531485,-0.0341 0.604663,-0.0341 0.485235,0 0.835741,0.29748 0.300407,0.25476 0.300407,0.71042 0,0.63347 -0.535332,1.03896 -0.504556,0.38213 -1.190082,0.38213 -0.635439,0 -1.082248,-0.28981 -0.269632,-0.17354 -0.342812,-0.46762 -0.03846,-0.16244 -0.04274,-0.4984 l 0.793423,-0.56765 q -0.69323,-0.14277 -0.69323,-0.76854 0,-0.0683 0.02308,-0.16243 z m 1.15928,-2.62254 q -0.188758,0 -0.373586,0.11624 -0.311949,0.19663 -0.311949,0.7147 0,0.49069 0.23877,0.79162 0.107798,0.13167 0.265701,0.20859 0.138661,0.0683 0.258091,0.0683 0.265783,0 0.466,-0.224 0.219535,-0.24706 0.219535,-0.67194 0,-0.39752 -0.2003,-0.68733 -0.219536,-0.31715 -0.562347,-0.31715 z m -0.188758,3.56874 q -0.134816,0.1008 -0.207996,0.15045 -0.204147,0.14277 -0.277327,0.24707 -0.06924,0.0966 -0.06924,0.27014 0,0.34794 0.265785,0.6027 0.292714,0.27784 0.762562,0.27784 0.408294,0 0.72409,-0.2009 0.377434,-0.23936 0.377434,-0.707 0,-0.2975 -0.157897,-0.46762 -0.196454,-0.20859 -0.573888,-0.20859 -0.130964,0 -0.381281,0.0171 -0.250311,0.0172 -0.462153,0.0172 z" />
    <path
       inkscape:connector-curvature="0"
       id="path10901"
       style="font-style:normal;font-variant:normal;font-weight:normal;font-stretch:normal;font-size:8px;line-height:1.25;font-family:GaramondNo8;-inkscape-font-specification:GaramondNo8;letter-spacing:0px;word-spacing:0px;fill:#7eb4d4;fill-opacity:1;stroke:none;stroke-width:0.26458335"
       d="m 57.111377,277.9502 v -0.16243 q 0.100094,-0.077 0.570039,-0.44796 0.06155,-0.0426 0.489169,-0.45565 0.100108,0.0257 0.100108,0.0683 0,0.0257 -0.0078,0.077 -0.0078,0.0598 -0.03078,0.36333 l -0.01538,0.2009 h 0.951294 q 0.100108,0 0.123274,0.0172 0.01967,0.0172 0.01967,0.1086 v 0.10859 q 0,0.077 -0.01538,0.0966 -0.02735,0.0257 -0.127112,0.0257 h -0.951296 v 1.83459 q 0,0.45992 0.05813,0.61039 0.05044,0.12389 0.180982,0.2009 0.107798,0.0598 0.238769,0.0598 0.161746,0 0.308103,-0.0888 0.134816,-0.077 0.204148,-0.2009 0.05386,-0.0966 0.06582,-0.0966 0.01202,0 0.03077,0.0172 l 0.08857,0.077 q -0.127113,0.31289 -0.273479,0.46335 -0.269632,0.27015 -0.677841,0.27015 -0.400517,0 -0.635526,-0.24364 -0.14251,-0.14705 -0.165592,-0.33256 -0.01967,-0.12744 -0.01967,-0.39752 v -1.71097 q 0,-0.28555 -0.01538,-0.34025 -0.02308,-0.077 -0.08857,-0.10012 -0.05813,-0.0257 -0.258005,-0.0257 z" />
    <path
       inkscape:connector-curvature="0"
       id="path10903"
       style="font-style:normal;font-variant:normal;font-weight:normal;font-stretch:normal;font-size:8px;line-height:1.25;font-family:GaramondNo8;-inkscape-font-specification:GaramondNo8;letter-spacing:0px;word-spacing:0px;fill:#7eb4d4;fill-opacity:1;stroke:none;stroke-width:0.26458335"
       d="m 60.736886,278.35961 v 1.53718 q 0,0.55653 0.01538,0.64885 0.03077,0.18894 0.415903,0.22826 0.123275,0.008 0.123275,0.077 v 0.0514 q 0,0.0966 -0.09626,0.0966 -0.05386,0 -0.319643,-0.0257 -0.277325,-0.0257 -0.439071,-0.0257 -0.169438,0 -0.439071,0.0257 -0.265785,0.0257 -0.362045,0.0257 -0.10396,0 -0.10396,-0.0966 v -0.0514 q 0,-0.0342 0.01538,-0.0426 0.02308,-0.0257 0.15405,-0.0257 0.21569,-0.008 0.342812,-0.1008 0.05813,-0.0428 0.07353,-0.12744 0.01538,-0.0933 0.01967,-0.64886 v -3.67304 q -0.0038,-0.37871 -0.02736,-0.45223 -0.02735,-0.13509 -0.388974,-0.32058 l -0.0078,-0.10859 0.519943,-0.24705 q 0.288867,-0.13509 0.466,-0.23168 l 0.05044,0.0172 q -0.0038,0.21202 -0.0078,0.67623 l -0.0038,0.53686 v 2.01994 q 0.335032,-0.26245 0.493017,-0.36675 0.408209,-0.26672 0.828045,-0.26672 0.477541,0 0.720245,0.29749 0.211841,0.26245 0.211841,0.85318 v 1.26292 q 0,0.59075 0.02308,0.67966 0.03077,0.14704 0.412058,0.20857 0.04274,0.0172 0.04274,0.0598 v 0.0514 q 0,0.0966 -0.07353,0.0966 -0.01538,0 -0.05044,-0.004 -0.05044,-0.01 -0.323491,-0.0341 -0.273479,-0.0172 -0.346656,-0.0172 -0.127127,0 -0.639373,0.0427 -0.06924,0.008 -0.11165,0.008 -0.08855,0 -0.08855,-0.0966 v -0.0514 q 0.0038,-0.0598 0.123275,-0.077 0.335117,-0.0426 0.396668,-0.17355 0.02736,-0.0514 0.03505,-0.19661 l 0.0038,-0.5061 v -1.07759 q 0,-0.44028 -0.09242,-0.60611 -0.150204,-0.27442 -0.566194,-0.27442 -0.504555,0 -0.997519,0.42061 z" />
    <path
       inkscape:connector-curvature="0"
       id="path10905"
       style="font-style:normal;font-variant:normal;font-weight:normal;font-stretch:normal;font-size:8px;line-height:1.25;font-family:GaramondNo8;-inkscape-font-specification:GaramondNo8;letter-spacing:0px;word-spacing:0px;fill:#7eb4d4;fill-opacity:1;stroke:none;stroke-width:0.26458335"
       d="m 67.507474,278.89263 h -2.22997 q -0.02736,0.1932 -0.02736,0.30519 0,0.4984 0.304255,0.89995 0.165593,0.21628 0.400515,0.35136 0.258092,0.14276 0.523792,0.14276 0.40821,0 0.901233,-0.45992 l 0.138663,0.10436 q -0.58158,0.86515 -1.382664,0.86515 -0.600816,0 -1.024474,-0.45994 -0.442917,-0.48643 -0.442917,-1.20505 0,-0.71811 0.43907,-1.3132 0.477541,-0.64116 1.190085,-0.64116 0.462152,0 0.801116,0.2821 0.408294,0.3317 0.408294,1.00801 z m -2.191458,-0.17781 1.02833,-0.0257 q 0.281172,-0.004 0.338964,-0.0257 0.180979,-0.0683 0.180979,-0.27783 0,-0.27443 -0.196453,-0.46336 -0.184827,-0.18123 -0.462154,-0.18123 -0.439071,0 -0.708703,0.48302 -0.115503,0.2009 -0.180979,0.49412 z" />
    <path
       inkscape:connector-curvature="0"
       id="path10907"
       style="font-style:normal;font-variant:normal;font-weight:normal;font-stretch:normal;font-size:8px;line-height:1.25;font-family:GaramondNo8;-inkscape-font-specification:GaramondNo8;letter-spacing:0px;word-spacing:0px;fill:#7eb4d4;fill-opacity:1;stroke:none;stroke-width:0.26458335"
       d="m 72.260121,277.73391 -0.04275,0.72238 h -0.196452 q -0.09242,-0.32827 -0.211842,-0.47874 -0.192607,-0.23937 -0.508403,-0.23937 -0.22723,0 -0.404363,0.11966 -0.215689,0.15047 -0.215689,0.38983 0,0.22056 0.231078,0.4018 0.09635,0.077 0.493014,0.2975 0.500709,0.27441 0.689383,0.47874 0.234924,0.25133 0.234924,0.59073 0,0.47874 -0.412143,0.80702 -0.350505,0.27784 -0.866575,0.27784 -0.504556,0 -0.974404,-0.28553 l -0.04617,-0.77624 0.219536,-0.0172 q 0.08857,0.30947 0.234923,0.49412 0.269633,0.33256 0.631678,0.33256 0.288868,0 0.466,-0.18893 0.165592,-0.17354 0.165592,-0.41718 0,-0.24366 -0.246465,-0.46763 -0.123274,-0.112 -0.489082,-0.30861 -0.450611,-0.23938 -0.623899,-0.42831 -0.231075,-0.25133 -0.231075,-0.59074 0,-0.43257 0.34281,-0.69929 0.342811,-0.26673 0.843434,-0.26673 0.431377,0 0.91663,0.25135 z" />
    <path
       inkscape:connector-curvature="0"
       id="path10909"
       style="font-style:normal;font-variant:normal;font-weight:normal;font-stretch:normal;font-size:8px;line-height:1.25;font-family:GaramondNo8;-inkscape-font-specification:GaramondNo8;letter-spacing:0px;word-spacing:0px;fill:#7eb4d4;fill-opacity:1;stroke:none;stroke-width:0.26458335"
       d="m 72.753102,277.9502 v -0.16243 q 0.100109,-0.077 0.57004,-0.44796 0.06155,-0.0426 0.489083,-0.45565 0.100108,0.0257 0.100108,0.0683 0,0.0257 -0.0079,0.077 -0.0079,0.0598 -0.03077,0.36333 l -0.01538,0.2009 h 0.951297 q 0.100108,0 0.123274,0.0172 0.01879,0.0172 0.01879,0.1086 v 0.10859 q 0,0.077 -0.01538,0.0966 -0.0265,0.0257 -0.127126,0.0257 H 73.85782 v 1.83459 q 0,0.45992 0.05813,0.61039 0.05044,0.12389 0.181064,0.2009 0.107798,0.0598 0.238771,0.0598 0.161745,0 0.308102,-0.0888 0.134816,-0.077 0.204148,-0.2009 0.05386,-0.0966 0.06582,-0.0966 0.01106,0 0.03077,0.0172 l 0.08857,0.077 q -0.127126,0.31289 -0.273479,0.46335 -0.269631,0.27015 -0.677842,0.27015 -0.400515,0 -0.63544,-0.24364 -0.142509,-0.14705 -0.16559,-0.33256 -0.01881,-0.12744 -0.01881,-0.39752 v -1.71097 q 0,-0.28555 -0.01538,-0.34025 -0.02308,-0.077 -0.08857,-0.10012 -0.05813,-0.0257 -0.25809,-0.0257 z" />
    <path
       inkscape:connector-curvature="0"
       id="path10911"
       style="font-style:normal;font-variant:normal;font-weight:normal;font-stretch:normal;font-size:8px;line-height:1.25;font-family:GaramondNo8;-inkscape-font-specification:GaramondNo8;letter-spacing:0px;word-spacing:0px;fill:#7eb4d4;fill-opacity:1;stroke:none;stroke-width:0.26458335"
       d="m 77.324717,277.48292 q 0.727939,0 1.259424,0.53686 0.504556,0.51379 0.504556,1.23977 0,0.79932 -0.59697,1.34021 -0.554567,0.50181 -1.313332,0.50181 -0.731785,0 -1.217046,-0.49412 -0.516098,-0.52148 -0.516098,-1.28608 0,-0.54458 0.319644,-1.0158 0.277326,-0.4129 0.758714,-0.63688 0.388975,-0.18552 0.801118,-0.18552 z m -0.138662,0.25902 q -0.546874,0 -0.78949,0.40181 -0.258092,0.42487 -0.258092,1.0351 0,0.73776 0.381282,1.25139 0.304254,0.4129 0.816504,0.4129 0.458306,0 0.731785,-0.33255 0.327338,-0.38983 0.327338,-1.07759 0,-0.80359 -0.377434,-1.29386 -0.308103,-0.39753 -0.831893,-0.39753 z" />
    <path
       inkscape:connector-curvature="0"
       id="path10913"
       style="font-style:normal;font-variant:normal;font-weight:normal;font-stretch:normal;font-size:8px;line-height:1.25;font-family:GaramondNo8;-inkscape-font-specification:GaramondNo8;letter-spacing:0px;word-spacing:0px;fill:#7eb4d4;fill-opacity:1;stroke:none;stroke-width:0.26458335"
       d="m 81.73422,278.37123 v 1.52556 q 0,0.55653 0.01538,0.64885 0.03077,0.18551 0.412142,0.22826 0.123274,0.008 0.127112,0.077 v 0.0514 q 0,0.0966 -0.09626,0.0966 -0.05386,0 -0.323488,-0.0257 -0.277327,-0.0257 -0.435226,-0.0257 -0.146357,0 -0.658607,0.0429 -0.06924,0.008 -0.111637,0.008 -0.08857,0 -0.08857,-0.0966 v -0.0513 q 0,-0.0683 0.123274,-0.077 0.331268,-0.0257 0.388974,-0.15473 0.03078,-0.0514 0.03847,-0.18125 0.004,-0.0426 0.0079,-0.54113 v -1.0853 q -0.004,-0.37871 -0.0265,-0.45223 -0.03505,-0.13935 -0.388974,-0.32059 l -0.0079,-0.10859 0.519945,-0.24707 q 0.25809,-0.12389 0.466,-0.23167 l 0.03846,0.0172 v 0.64459 q 0.304256,-0.23595 0.489169,-0.35563 0.431377,-0.27784 0.820351,-0.27784 0.450612,0 0.712466,0.2898 0.138662,0.15474 0.184911,0.37446 0.04275,0.18123 0.04275,0.56422 v 1.18574 q 0,0.51719 0.004,0.57961 0.01538,0.17353 0.150204,0.23168 0.107799,0.0514 0.277325,0.0683 0.123274,0.01 0.123274,0.077 v 0.0514 q 0,0.0966 -0.09626,0.0966 -0.05044,0 -0.319644,-0.0257 -0.277326,-0.0257 -0.439071,-0.0257 -0.146357,0 -0.658607,0.0428 -0.06582,0.008 -0.107894,0.008 -0.08855,0 -0.08855,-0.0966 v -0.0514 q 0,-0.0683 0.123274,-0.077 0.327336,-0.0257 0.385129,-0.15473 0.03077,-0.0514 0.03846,-0.18123 0.004,-0.008 0.0079,-0.54115 v -1.06981 q 0,-0.36675 -0.03077,-0.47873 -0.04617,-0.15816 -0.150203,-0.25475 -0.181665,-0.15817 -0.466685,-0.15817 -0.377434,0 -0.747173,0.224 -0.119423,0.077 -0.254158,0.21286 z" />
    <path
       inkscape:connector-curvature="0"
       id="path10915"
       style="font-style:normal;font-variant:normal;font-weight:normal;font-stretch:normal;font-size:8px;line-height:1.25;font-family:GaramondNo8;-inkscape-font-specification:GaramondNo8;letter-spacing:0px;word-spacing:0px;fill:#7eb4d4;fill-opacity:1;stroke:none;stroke-width:0.26458335"
       d="m 86.748763,280.24446 0.700923,-1.60676 q 0.215689,-0.4907 0.215689,-0.59501 0,-0.23168 -0.373586,-0.22397 -0.123275,0 -0.14251,-0.0257 -0.01106,-0.01 -0.01106,-0.0514 v -0.0683 q 0,-0.0514 0.01106,-0.077 0.01538,-0.0257 0.09635,-0.0257 0.115503,0 0.323491,0.0171 0.211841,0.0257 0.315796,0.0257 0.0265,0 0.620051,-0.0426 0.07353,-0.004 0.08858,-0.004 0.08463,0 0.08463,0.1008 v 0.0683 q -0.004,0.0427 -0.01881,0.0598 -0.02308,0.0172 -0.173285,0.0257 -0.2657,0.01 -0.419838,0.2163 -0.119422,0.15045 -0.365893,0.68391 l -1.193929,2.6264 q -0.423684,0.92695 -0.716398,1.37107 -0.223382,0.34025 -0.543025,0.34025 -0.157898,0 -0.250312,-0.10081 -0.09242,-0.10436 -0.09242,-0.25133 0,-0.12744 0.07694,-0.24365 0.07353,-0.11201 0.188759,-0.11201 0.04274,0 0.127126,0.0428 0.07353,0.0341 0.111733,0.0341 0.157897,0 0.308101,-0.16242 0.242617,-0.26672 0.539179,-0.97338 l 0.146357,-0.35135 -1.055284,-2.62248 q -0.123274,-0.30518 -0.173288,-0.36332 -0.130964,-0.15045 -0.377433,-0.13935 l -0.07694,0.004 q -0.08865,0.004 -0.11557,-0.0172 -0.01881,-0.0172 -0.01881,-0.0683 v -0.077 q 0,-0.0888 0.08857,-0.0888 0.08857,0 0.400517,0.0172 0.315795,0.0257 0.450613,0.0257 0.150203,0 0.466,-0.0257 0.308102,-0.0172 0.377434,-0.0172 0.09635,0 0.09635,0.0888 v 0.077 q 0,0.0426 -0.01881,0.0598 -0.02308,0.0257 -0.177132,0.0257 -0.365894,-0.008 -0.365894,0.15046 0,0.0426 0.07694,0.24365 l 0.05386,0.14276 z" />
    <path
       inkscape:connector-curvature="0"
       id="path10917"
       style="font-style:normal;font-variant:normal;font-weight:normal;font-stretch:normal;font-size:8px;line-height:1.25;font-family:GaramondNo8;-inkscape-font-specification:GaramondNo8;letter-spacing:0px;word-spacing:0px;fill:#7eb4d4;fill-opacity:1;stroke:none;stroke-width:0.26458335"
       d="m 93.249949,277.73391 -0.04274,0.72238 h -0.196455 q -0.09242,-0.32827 -0.211841,-0.47874 -0.192607,-0.23937 -0.508403,-0.23937 -0.22723,0 -0.404362,0.11966 -0.21569,0.15047 -0.21569,0.38983 0,0.22056 0.231077,0.4018 0.09635,0.077 0.493015,0.2975 0.500708,0.27441 0.689383,0.47874 0.234923,0.25133 0.234923,0.59073 0,0.47874 -0.412142,0.80702 -0.350504,0.27784 -0.866567,0.27784 -0.504556,0 -0.974402,-0.28553 l -0.04617,-0.77624 0.219536,-0.0172 q 0.08857,0.30947 0.234923,0.49412 0.269633,0.33256 0.631593,0.33256 0.288868,0 0.466001,-0.18893 0.16559,-0.17354 0.16559,-0.41718 0,-0.24366 -0.246462,-0.46763 -0.123275,-0.112 -0.489083,-0.30861 -0.450613,-0.23938 -0.623899,-0.42831 -0.231077,-0.25133 -0.231077,-0.59074 0,-0.43257 0.342812,-0.69929 0.34281,-0.26673 0.843434,-0.26673 0.431376,0 0.916637,0.25135 z" />
    <path
       inkscape:connector-curvature="0"
       id="path10919"
       style="font-style:normal;font-variant:normal;font-weight:normal;font-stretch:normal;font-size:8px;line-height:1.25;font-family:GaramondNo8;-inkscape-font-specification:GaramondNo8;letter-spacing:0px;word-spacing:0px;fill:#7eb4d4;fill-opacity:1;stroke:none;stroke-width:0.26458335"
       d="m 94.990787,278.35961 v 1.53718 q 0,0.55653 0.01538,0.64885 0.03077,0.18894 0.415989,0.22826 0.123275,0.008 0.123275,0.077 v 0.0514 q 0,0.0966 -0.09635,0.0966 -0.05386,0 -0.319642,-0.0257 -0.277327,-0.0257 -0.439072,-0.0257 -0.16944,0 -0.439071,0.0257 -0.265787,0.0257 -0.362047,0.0257 -0.10396,0 -0.10396,-0.0966 v -0.0514 q 0,-0.0342 0.01538,-0.0426 0.02308,-0.0257 0.154053,-0.0257 0.215687,-0.008 0.34281,-0.1008 0.05813,-0.0428 0.07353,-0.12744 0.01538,-0.0933 0.01881,-0.64886 v -3.67304 q -0.004,-0.37871 -0.0265,-0.45223 -0.02736,-0.13509 -0.388974,-0.32058 l -0.0079,-0.10859 0.519943,-0.24705 q 0.288867,-0.13509 0.466001,-0.23168 l 0.05044,0.0172 q -0.004,0.21202 -0.0079,0.67623 l -0.004,0.53686 v 2.01994 q 0.33503,-0.26245 0.493014,-0.36675 0.408209,-0.26672 0.828045,-0.26672 0.477542,0 0.720246,0.29749 0.211841,0.26245 0.211841,0.85318 v 1.26292 q 0,0.59075 0.02308,0.67966 0.03077,0.14704 0.412057,0.20857 0.04275,0.0172 0.04275,0.0598 v 0.0514 q 0,0.0966 -0.07353,0.0966 -0.01538,0 -0.05044,-0.004 -0.05044,-0.01 -0.323491,-0.0341 -0.273477,-0.0172 -0.346657,-0.0172 -0.127126,0 -0.639372,0.0427 -0.06924,0.008 -0.11165,0.008 -0.08857,0 -0.08857,-0.0966 v -0.0514 q 0.004,-0.0598 0.123274,-0.077 0.33503,-0.0426 0.396669,-0.17355 0.0265,-0.0514 0.03505,-0.19661 l 0.004,-0.5061 v -1.07759 q 0,-0.44028 -0.09242,-0.60611 -0.150205,-0.27442 -0.566193,-0.27442 -0.504557,0 -0.997513,0.42061 z" />
    <path
       inkscape:connector-curvature="0"
       id="path10921"
       style="font-style:normal;font-variant:normal;font-weight:normal;font-stretch:normal;font-size:8px;line-height:1.25;font-family:GaramondNo8;-inkscape-font-specification:GaramondNo8;letter-spacing:0px;word-spacing:0px;fill:#7eb4d4;fill-opacity:1;stroke:none;stroke-width:0.26458335"
       d="m 100.93123,277.48292 q 0.72794,0 1.25942,0.53686 0.50455,0.51379 0.50455,1.23977 0,0.79932 -0.59697,1.34021 -0.55456,0.50181 -1.31333,0.50181 -0.73179,0 -1.217054,-0.49412 -0.516097,-0.52148 -0.516097,-1.28608 0,-0.54458 0.319642,-1.0158 0.277327,-0.4129 0.758719,-0.63688 0.38897,-0.18552 0.80111,-0.18552 z m -0.13866,0.25902 q -0.54687,0 -0.78958,0.40181 -0.258088,0.42487 -0.258088,1.0351 0,0.73776 0.381278,1.25139 0.30426,0.4129 0.81651,0.4129 0.4583,0 0.73178,-0.33255 0.32734,-0.38983 0.32734,-1.07759 0,-0.80359 -0.37743,-1.29386 -0.30811,-0.39753 -0.8319,-0.39753 z" />
    <path
       inkscape:connector-curvature="0"
       id="path10923"
       style="font-style:normal;font-variant:normal;font-weight:normal;font-stretch:normal;font-size:8px;line-height:1.25;font-family:GaramondNo8;-inkscape-font-specification:GaramondNo8;letter-spacing:0px;word-spacing:0px;fill:#7eb4d4;fill-opacity:1;stroke:none;stroke-width:0.26458335"
       d="m 104.45913,278.67634 v 1.22045 q 0.004,0.51719 0.008,0.5796 0.0111,0.17013 0.14636,0.23595 0.0846,0.0427 0.36974,0.0598 0.12712,0.008 0.12327,0.077 v 0.0514 q 0,0.0683 -0.0265,0.077 -0.0231,0.0172 -0.12327,0.0172 -0.1155,0 -0.3582,-0.0257 -0.30041,-0.0342 -0.43907,-0.0342 -0.13096,0 -0.43907,0.0342 -0.23493,0.0257 -0.33503,0.0257 -0.10011,0 -0.10011,-0.0966 v -0.0514 q -0.004,-0.0683 0.12327,-0.077 0.35051,-0.0341 0.41215,-0.17354 0.0308,-0.0514 0.035,-0.19321 l 0.004,-0.5095 v -1.06211 q 0,-0.37871 -0.0265,-0.45224 -0.0231,-0.14277 -0.38513,-0.32058 l -0.0111,-0.10859 0.51994,-0.24706 q 0.28887,-0.13935 0.466,-0.23595 l 0.0539,0.0172 q -0.008,0.18894 -0.008,0.46763 l -0.008,0.35135 v 0.0923 l 0.12713,-0.17013 q 0.29271,-0.39751 0.49301,-0.54884 0.25801,-0.20088 0.5161,-0.20088 0.18098,0 0.29271,0.10859 0.11934,0.112 0.11934,0.28553 0,0.13935 -0.0812,0.23167 -0.0924,0.10436 -0.24646,0.10436 -0.0924,0 -0.25801,-0.077 -0.14251,-0.0683 -0.23108,-0.0683 -0.17713,0 -0.38512,0.2009 -0.0581,0.0598 -0.27348,0.32059 z" />
    <path
       inkscape:connector-curvature="0"
       id="path10925"
       style="font-style:normal;font-variant:normal;font-weight:normal;font-stretch:normal;font-size:8px;line-height:1.25;font-family:GaramondNo8;-inkscape-font-specification:GaramondNo8;letter-spacing:0px;word-spacing:0px;fill:#7eb4d4;fill-opacity:1;stroke:none;stroke-width:0.26458335"
       d="m 108.99994,278.89263 h -2.22997 q -0.0265,0.1932 -0.0265,0.30519 0,0.4984 0.30426,0.89995 0.16559,0.21628 0.40052,0.35136 0.258,0.14276 0.52379,0.14276 0.40821,0 0.90122,-0.45992 l 0.13866,0.10436 q -0.58158,0.86515 -1.38266,0.86515 -0.60082,0 -1.02447,-0.45994 -0.44292,-0.48643 -0.44292,-1.20505 0,-0.71811 0.43907,-1.3132 0.47754,-0.64116 1.19009,-0.64116 0.46215,0 0.80112,0.2821 0.40821,0.3317 0.40821,1.00801 z m -2.19145,-0.17781 1.02833,-0.0257 q 0.28117,-0.004 0.33896,-0.0257 0.18098,-0.0683 0.18098,-0.27783 0,-0.27443 -0.19645,-0.46336 -0.18492,-0.18123 -0.46216,-0.18123 -0.43907,0 -0.7087,0.48302 -0.11557,0.2009 -0.18098,0.49412 z" />
    <path
       inkscape:connector-curvature="0"
       id="path10945"
       style="font-style:normal;font-variant:normal;font-weight:normal;font-stretch:normal;font-size:8px;line-height:1.25;font-family:GaramondNo8;-inkscape-font-specification:GaramondNo8;letter-spacing:0px;word-spacing:0px;fill:#e35959;fill-opacity:1;stroke:none;stroke-width:0.26458335"
       d="m 2.9852134,289.9619 v -3.35628 q -0.00387,-0.49071 -0.042745,-0.59074 -0.061559,-0.16585 -0.2734802,-0.22057 -0.1077984,-0.0172 -0.3851267,-0.0257 -0.1117323,0 -0.1155869,-0.10859 v -0.0513 q 0,-0.10081 0.1117309,-0.10081 0.092415,0 0.2426183,0.01 0.4930146,0.0341 0.7934225,0.0341 0.423683,0 0.8550099,-0.0341 0.1348149,-0.01 0.2156878,-0.01 0.1039561,0 0.1039561,0.10081 v 0.0513 q 0,0.077 -0.035048,0.0933 -0.027362,0.0172 -0.1540518,0.0172 -0.2850196,0.008 -0.3774338,0.0514 -0.150204,0.0683 -0.1964531,0.21201 -0.03078,0.11187 -0.035048,0.56765 v 3.35629 q 0.00387,0.54456 0.073525,0.64886 0.05813,0.0966 0.2003009,0.14703 0.084641,0.0341 0.3351164,0.0341 0.1540517,0 0.1809807,0.0172 0.03078,0.0257 0.03078,0.0933 v 0.0514 q 0,0.10012 -0.1077985,0.10012 -0.084641,0 -0.2349241,-0.01 -0.4583062,-0.0342 -0.8472807,-0.0342 -0.3042558,0 -0.7895761,0.0342 -0.1578982,0.01 -0.242617,0.01 -0.1194292,0 -0.1194292,-0.10012 v -0.0514 q 0.00387,-0.077 0.035048,-0.0933 0.035048,-0.0172 0.2195358,-0.0172 0.3735874,0 0.4852353,-0.17782 0.069244,-0.1008 0.073525,-0.64885 z" />
    <path
       inkscape:connector-curvature="0"
       id="path10947"
       style="font-style:normal;font-variant:normal;font-weight:normal;font-stretch:normal;font-size:8px;line-height:1.25;font-family:GaramondNo8;-inkscape-font-specification:GaramondNo8;letter-spacing:0px;word-spacing:0px;fill:#e35959;fill-opacity:1;stroke:none;stroke-width:0.26458335"
       d="m 7.102369,290.37516 0.7433271,-0.55996 q -0.2888674,-0.0966 -0.4621527,-0.25133 -0.3889758,-0.33255 -0.3889758,-0.81898 0,-0.4907 0.4313771,-0.85404 0.4082108,-0.34366 0.8935311,-0.34366 0.1809808,0 0.4313771,0.0683 0.2310762,0.0598 0.3928222,0.14704 0.1964531,0.10081 0.2773254,0.10081 l 0.1887601,-0.004 h 0.4313774 q 0.150204,0 0.173286,0.01 0.03078,0.0171 0.03505,0.0888 v 0.1232 q 0,0.077 -0.03078,0.10859 -0.02736,0.0257 -0.177133,0.0257 H 9.5331564 q 0.073525,0.2009 0.073525,0.37872 0,0.48301 -0.3234892,0.8224 -0.4313784,0.45566 -1.1823894,0.45223 -0.4698482,0.22057 -0.4698482,0.53346 0,0.15045 0.161746,0.24364 0.1732853,0.0966 0.4621526,0.0966 0.073525,0 0.1771331,-0.008 0.5314856,-0.0342 0.6046637,-0.0342 0.4852352,0 0.8357401,0.2975 0.3004079,0.25475 0.3004079,0.71041 0,0.63348 -0.535332,1.03895 -0.5045552,0.38213 -1.1900822,0.38213 -0.6355257,0 -1.0822487,-0.28981 -0.2696312,-0.17354 -0.3428105,-0.46762 -0.038464,-0.16244 -0.042745,-0.4984 l 0.7934239,-0.56765 q -0.6932303,-0.14276 -0.6932303,-0.76855 0,-0.0683 0.023081,-0.16243 z m 1.1592732,-2.62246 q -0.1887588,0 -0.3735862,0.11624 -0.3119498,0.19661 -0.3119498,0.71468 0,0.49071 0.2387705,0.79163 0.1077985,0.13168 0.2657009,0.20859 0.1386621,0.0683 0.2580905,0.0683 0.2657847,0 0.4660004,-0.22399 0.2195356,-0.24706 0.2195356,-0.67195 0,-0.39751 -0.2003007,-0.68731 -0.2195357,-0.31717 -0.5623463,-0.31717 z m -0.1887588,3.56873 q -0.1348164,0.1008 -0.207995,0.15047 -0.2041473,0.14276 -0.2773266,0.24707 -0.069244,0.0966 -0.069244,0.27013 0,0.34794 0.2657847,0.60272 0.2927139,0.27782 0.7625621,0.27782 0.4082093,0 0.7240908,-0.20088 0.3774339,-0.23938 0.3774339,-0.707 0,-0.29751 -0.1578982,-0.46762 -0.1964531,-0.20861 -0.5738869,-0.20861 -0.1309686,0 -0.3812817,0.0172 -0.2503111,0.0171 -0.4621525,0.0171 z" />
    <path
       inkscape:connector-curvature="0"
       id="path10949"
       style="font-style:normal;font-variant:normal;font-weight:normal;font-stretch:normal;font-size:8px;line-height:1.25;font-family:GaramondNo8;-inkscape-font-specification:GaramondNo8;letter-spacing:0px;word-spacing:0px;fill:#e35959;fill-opacity:1;stroke:none;stroke-width:0.26458335"
       d="m 12.074363,287.54796 q 0.727939,0 1.259416,0.53687 0.504554,0.51379 0.504554,1.23986 0,0.7993 -0.596969,1.3402 -0.554566,0.50181 -1.313324,0.50181 -0.731785,0 -1.217046,-0.49412 -0.516097,-0.52149 -0.516097,-1.2861 0,-0.54457 0.319644,-1.01578 0.277325,-0.41377 0.758714,-0.63689 0.388975,-0.18552 0.801117,-0.18552 z m -0.138663,0.25902 q -0.546873,0 -0.789575,0.4018 -0.258092,0.42489 -0.258092,1.0351 0,0.73779 0.38128,1.2514 0.304256,0.4129 0.816506,0.4129 0.458306,0 0.731786,-0.3317 0.327336,-0.38982 0.327336,-1.07759 0,-0.80358 -0.377433,-1.29386 -0.308102,-0.39753 -0.831893,-0.39753 z" />
    <path
       inkscape:connector-curvature="0"
       id="path10951"
       style="font-style:normal;font-variant:normal;font-weight:normal;font-stretch:normal;font-size:8px;line-height:1.25;font-family:GaramondNo8;-inkscape-font-specification:GaramondNo8;letter-spacing:0px;word-spacing:0px;fill:#e35959;fill-opacity:1;stroke:none;stroke-width:0.26458335"
       d="m 19.754265,290.42928 0.146357,0.0598 q -0.177133,0.67965 -0.650913,0.67965 -0.242617,0 -0.396669,-0.18125 -0.150204,-0.17781 -0.150204,-0.50609 -0.265785,0.24706 -0.388975,0.34795 -0.400515,0.34025 -0.76256,0.34025 -0.269633,0 -0.458306,-0.25905 -0.223384,-0.3086 -0.223384,-0.6292 0,-0.27014 0.281173,-0.44026 0.215688,-0.13168 0.724092,-0.33256 l 0.808811,-0.32058 v -0.40948 q 0,-0.39754 -0.123275,-0.54456 -0.150206,-0.18125 -0.508403,-0.18125 -0.231077,0 -0.427531,0.0855 -0.161745,0.0683 -0.161745,0.21972 0,0.0598 0.03846,0.16242 l -0.489169,0.27783 q -0.05044,-0.13167 -0.05044,-0.21286 0,-0.23936 0.273479,-0.45565 0.09242,-0.077 0.319645,-0.20431 l 0.658605,-0.37446 q 0.712464,0.004 0.916639,0.44454 0.100109,0.25905 0.09626,0.93851 v 1.15102 l -0.0038,0.15475 q 0,0.42487 0.246466,0.42487 0.150203,0 0.285019,-0.23168 z m -1.070698,-1.01578 -0.596969,0.26672 q -0.36974,0.16585 -0.473696,0.27014 -0.10396,0.10859 -0.10396,0.24707 0,0.21287 0.11165,0.40949 0.100109,0.16585 0.250312,0.16585 0.246464,0 0.523791,-0.25902 0.05044,-0.0514 0.223383,-0.2163 0.02308,-0.0257 0.06582,-0.0683 z" />
    <path
       inkscape:connector-curvature="0"
       id="path10953"
       style="font-style:normal;font-variant:normal;font-weight:normal;font-stretch:normal;font-size:8px;line-height:1.25;font-family:GaramondNo8;-inkscape-font-specification:GaramondNo8;letter-spacing:0px;word-spacing:0px;fill:#e35959;fill-opacity:1;stroke:none;stroke-width:0.26458335"
       d="m 20.466271,288.43636 v 1.52554 q 0,0.55653 0.01538,0.64888 0.03077,0.18549 0.412142,0.22825 0.123274,0.008 0.127126,0.077 v 0.0514 q 0,0.0966 -0.09626,0.0966 -0.05386,0 -0.32349,-0.0257 -0.277326,-0.0257 -0.435224,-0.0257 -0.146358,0 -0.658607,0.0428 -0.06924,0.008 -0.11165,0.008 -0.08858,0 -0.08858,-0.0966 v -0.0514 q 0,-0.0683 0.123274,-0.077 0.331184,-0.0257 0.388976,-0.15474 0.03077,-0.0514 0.03846,-0.18124 0.0038,-0.0426 0.0078,-0.54029 v -1.08528 q -0.0038,-0.37873 -0.02735,-0.45223 -0.03505,-0.13935 -0.388974,-0.32059 l -0.0078,-0.10859 0.519943,-0.24707 q 0.258091,-0.12389 0.466002,-0.23167 l 0.03846,0.0171 v 0.64459 q 0.304256,-0.23595 0.489167,-0.35563 0.431379,-0.27784 0.820353,-0.27784 0.450612,0 0.712464,0.28981 0.138664,0.15473 0.184913,0.37445 0.04274,0.18123 0.04274,0.56422 v 1.18573 q 0,0.5172 0.0038,0.57961 0.01538,0.17354 0.150205,0.23168 0.107798,0.0514 0.277325,0.0683 0.123275,0.01 0.123275,0.077 v 0.0514 q 0,0.0966 -0.09626,0.0966 -0.05044,0 -0.319644,-0.0257 -0.277326,-0.0257 -0.439071,-0.0257 -0.146356,0 -0.658607,0.0426 -0.06582,0.008 -0.107799,0.008 -0.08857,0 -0.08857,-0.0966 v -0.0514 q 0,-0.0683 0.123274,-0.077 0.327338,-0.0257 0.385128,-0.15473 0.03077,-0.0514 0.03846,-0.18123 0.0038,-0.008 0.0078,-0.54031 v -1.06981 q 0,-0.36674 -0.03077,-0.47873 -0.04617,-0.15816 -0.150203,-0.25476 -0.18098,-0.15816 -0.466,-0.15816 -0.377434,0 -0.747174,0.224 -0.119436,0.077 -0.254159,0.21286 z" />
    <path
       inkscape:connector-curvature="0"
       id="path10955"
       style="font-style:normal;font-variant:normal;font-weight:normal;font-stretch:normal;font-size:8px;line-height:1.25;font-family:GaramondNo8;-inkscape-font-specification:GaramondNo8;letter-spacing:0px;word-spacing:0px;fill:#e35959;fill-opacity:1;stroke:none;stroke-width:0.26458335"
       d="m 26.358931,287.71407 v -1.42518 q 0,-0.37872 -0.02735,-0.45225 -0.03077,-0.13935 -0.385128,-0.32059 l -0.01202,-0.10859 0.519943,-0.24707 q 0.269633,-0.12744 0.466002,-0.23594 l 0.05386,0.0257 q -0.0078,0.2009 -0.0078,0.62579 l -0.0078,0.62577 v 3.76185 q 0,0.50952 0.03077,0.57535 0.03848,0.0769 0.138663,0.0769 0.06155,0 0.331185,-0.0683 0.01202,0.0426 0.01202,0.1008 0,0.0598 -0.01202,0.10436 l -1.089949,0.40949 -0.03846,-0.12389 0.02736,-0.47533 q -0.281175,0.23168 -0.439073,0.33599 -0.404363,0.26673 -0.793423,0.26673 -0.585428,0 -1.005212,-0.49073 -0.400517,-0.47103 -0.400517,-1.14323 0,-0.76855 0.477541,-1.33244 0.27348,-0.32827 0.662455,-0.4984 0.34281,-0.15473 0.716396,-0.15473 0.315797,0 0.781882,0.16585 z m 0,2.56843 v -1.40973 q 0,-0.34367 -0.06582,-0.50181 -0.115502,-0.27443 -0.362045,-0.42916 -0.219536,-0.13934 -0.50071,-0.13934 -0.481387,0 -0.75102,0.38213 -0.319643,0.45993 -0.319643,1.06211 0,0.55996 0.296561,1.00809 0.308102,0.46335 0.820352,0.46335 0.462154,0 0.881974,-0.43685 z" />
    <path
       inkscape:connector-curvature="0"
       id="path10957"
       style="font-style:normal;font-variant:normal;font-weight:normal;font-stretch:normal;font-size:8px;line-height:1.25;font-family:GaramondNo8;-inkscape-font-specification:GaramondNo8;letter-spacing:0px;word-spacing:0px;fill:#e35959;fill-opacity:1;stroke:none;stroke-width:0.26458335"
       d="m 32.629032,290.0392 0.119436,0.16242 q -0.304256,0.40949 -0.512251,0.59501 -0.427529,0.37101 -0.970555,0.37101 -0.627745,0 -1.051428,-0.48642 -0.419837,-0.47874 -0.419837,-1.18181 0,-0.81899 0.55072,-1.39817 0.531485,-0.55227 1.251711,-0.55227 0.373588,0 0.685536,0.17356 0.338965,0.18893 0.338965,0.47104 0,0.12389 -0.08465,0.21288 -0.09626,0.1008 -0.231076,0.1008 -0.142511,0 -0.265701,-0.13935 -0.03077,-0.0342 -0.173284,-0.2274 -0.150205,-0.20517 -0.258092,-0.26672 -0.111637,-0.0683 -0.258091,-0.0683 -0.392822,0 -0.689384,0.40522 -0.28502,0.38982 -0.28502,0.89216 0,0.55225 0.281174,1.02355 0.154052,0.25134 0.392822,0.39411 0.238771,0.13934 0.519944,0.13934 0.415989,0 0.781796,-0.33596 0.09242,-0.0855 0.277327,-0.28554 z" />
    <path
       inkscape:connector-curvature="0"
       id="path10959"
       style="font-style:normal;font-variant:normal;font-weight:normal;font-stretch:normal;font-size:8px;line-height:1.25;font-family:GaramondNo8;-inkscape-font-specification:GaramondNo8;letter-spacing:0px;word-spacing:0px;fill:#e35959;fill-opacity:1;stroke:none;stroke-width:0.26458335"
       d="m 34.336479,287.54796 q 0.727939,0 1.259406,0.53687 0.504555,0.51379 0.504555,1.23986 0,0.7993 -0.596968,1.3402 -0.554567,0.50181 -1.313332,0.50181 -0.731786,0 -1.217049,-0.49412 -0.516095,-0.52149 -0.516095,-1.2861 0,-0.54457 0.319643,-1.01578 0.277327,-0.41377 0.758714,-0.63689 0.388975,-0.18552 0.801117,-0.18552 z m -0.138664,0.25902 q -0.546872,0 -0.789576,0.4018 -0.258006,0.42489 -0.258006,1.0351 0,0.73779 0.381281,1.2514 0.304256,0.4129 0.816506,0.4129 0.458306,0 0.731786,-0.3317 0.327337,-0.38982 0.327337,-1.07759 0,-0.80358 -0.377433,-1.29386 -0.308103,-0.39753 -0.831895,-0.39753 z" />
    <path
       inkscape:connector-curvature="0"
       id="path10961"
       style="font-style:normal;font-variant:normal;font-weight:normal;font-stretch:normal;font-size:8px;line-height:1.25;font-family:GaramondNo8;-inkscape-font-specification:GaramondNo8;letter-spacing:0px;word-spacing:0px;fill:#e35959;fill-opacity:1;stroke:none;stroke-width:0.26458335"
       d="m 40.009602,288.49038 v 1.47152 q 0.0038,0.55653 0.01538,0.64888 0.03077,0.18123 0.404363,0.22825 0.123274,0.01 0.123274,0.077 v 0.0514 q 0,0.0966 -0.08465,0.0966 -0.04274,0 -0.319645,-0.0257 -0.285019,-0.0257 -0.431376,-0.0257 -0.238772,0 -0.65476,0.0514 -0.05044,0.004 -0.08465,0.004 -0.07694,0 -0.07694,-0.0966 v -0.0514 q 0,-0.0598 0.123274,-0.077 0.308103,-0.0426 0.350505,-0.15473 0.03077,-0.0514 0.03846,-0.18126 0.0038,-0.0426 0.0078,-0.54027 v -0.98878 q 0,-0.38982 -0.02736,-0.47531 -0.05044,-0.18892 -0.2003,-0.31631 -0.215689,-0.18123 -0.519945,-0.18123 -0.446765,0 -0.897377,0.42829 v 1.53334 q 0,0.55653 0.01538,0.64885 0.01538,0.0888 0.07694,0.12744 0.02736,0.0257 0.165592,0.0683 0.07694,0.0257 0.119436,0.0342 0.123274,0.01 0.127112,0.077 v 0.0514 q 0,0.0966 -0.07694,0.0966 -0.02308,0 -0.06582,-0.004 -0.335116,-0.0514 -0.662453,-0.0514 -0.180981,0 -0.647067,0.0426 -0.06156,0.008 -0.10396,0.008 -0.08463,0 -0.08463,-0.0966 v -0.0514 q -0.0038,-0.0598 0.11165,-0.077 0.335118,-0.0426 0.39667,-0.17355 0.03077,-0.0514 0.03505,-0.1932 l 0.0038,-0.50951 v -1.08528 q -0.0038,-0.37873 -0.02735,-0.45224 -0.03077,-0.13509 -0.388975,-0.32059 l -0.0078,-0.10859 0.519945,-0.24705 q 0.285019,-0.13509 0.466,-0.23167 l 0.03505,0.0172 v 0.63347 q 0.739481,-0.62151 1.301774,-0.62151 0.454461,0 0.72794,0.37872 0.08465,0.11965 0.150204,0.31632 0.308102,-0.25905 0.496861,-0.38642 0.28502,-0.20089 0.489083,-0.25903 0.173286,-0.0514 0.354353,-0.0514 0.504554,0 0.76256,0.37444 0.18098,0.25904 0.18098,0.80702 v 1.23206 q 0,0.55653 0.01538,0.64886 0.03505,0.18552 0.40821,0.22827 0.123275,0.008 0.123275,0.077 v 0.0514 q 0,0.0966 -0.08857,0.0966 -0.05044,0 -0.32349,-0.0257 -0.288868,-0.0257 -0.427531,-0.0257 -0.242617,0 -0.654759,0.0514 -0.05044,0.004 -0.08463,0.004 -0.07694,0 -0.07694,-0.0966 v -0.0514 q 0,-0.0598 0.123274,-0.077 0.308103,-0.0426 0.350507,-0.15475 0.03077,-0.0514 0.03846,-0.18123 0.0038,-0.077 0.0078,-0.54029 v -1.18958 q 0,-0.28981 -0.03505,-0.37444 -0.05813,-0.14704 -0.192606,-0.24705 -0.196453,-0.14706 -0.446765,-0.14706 -0.469848,0 -0.974412,0.48645 z" />
    <path
       inkscape:connector-curvature="0"
       id="path10963"
       style="font-style:normal;font-variant:normal;font-weight:normal;font-stretch:normal;font-size:8px;line-height:1.25;font-family:GaramondNo8;-inkscape-font-specification:GaramondNo8;letter-spacing:0px;word-spacing:0px;fill:#e35959;fill-opacity:1;stroke:none;stroke-width:0.26458335"
       d="m 46.025511,288.95776 h -2.22997 q -0.02736,0.19321 -0.02736,0.3052 0,0.4984 0.304255,0.89984 0.165593,0.21629 0.400516,0.35137 0.258006,0.14277 0.523791,0.14277 0.408209,0 0.901233,-0.45994 l 0.138663,0.10436 q -0.581582,0.86515 -1.382656,0.86515 -0.600815,0 -1.024474,-0.45994 -0.442918,-0.48643 -0.442918,-1.20505 0,-0.71811 0.439071,-1.3132 0.477542,-0.64116 1.190092,-0.64116 0.462154,0 0.801117,0.28212 0.408209,0.33254 0.408209,1.00799 z m -2.191449,-0.17783 1.028321,-0.0257 q 0.281173,-0.004 0.338964,-0.0257 0.18098,-0.0683 0.18098,-0.27784 0,-0.2744 -0.196454,-0.46334 -0.184912,-0.18123 -0.462153,-0.18123 -0.439071,0 -0.708703,0.48301 -0.115584,0.2009 -0.180981,0.49412 z" />
    <path
       inkscape:connector-curvature="0"
       id="path10965"
       style="font-style:normal;font-variant:normal;font-weight:normal;font-stretch:normal;font-size:8px;line-height:1.25;font-family:GaramondNo8;-inkscape-font-specification:GaramondNo8;letter-spacing:0px;word-spacing:0px;fill:#e35959;fill-opacity:1;stroke:none;stroke-width:0.26458335"
       d="m 52.384197,290.19367 0.68169,-1.5913 q 0.177132,-0.4129 0.177132,-0.52489 0,-0.12744 -0.150203,-0.17013 -0.08857,-0.0257 -0.308103,-0.0428 -0.04617,-0.004 -0.04617,-0.0683 v -0.0889 q 0,-0.077 0.111637,-0.077 0.10396,0 0.338878,0.0172 0.238772,0.0257 0.346658,0.0257 0.09242,0 0.50071,-0.0426 0.05044,-0.004 0.08858,-0.004 0.06582,0 0.06582,0.077 v 0.0889 q 0,0.0514 -0.01538,0.0683 -0.02308,0.01 -0.196453,0.0257 -0.08858,0.004 -0.21569,0.10436 -0.100108,0.077 -0.223381,0.32827 -0.01538,0.0342 -0.281174,0.59842 l -0.955151,2.20538 q -0.01967,0.0172 -0.04275,0.0172 -0.06156,0 -0.100108,-0.077 -0.03505,-0.0598 -0.09242,-0.26245 -0.01967,-0.0598 -0.115584,-0.2898 l -0.647066,-1.49854 -0.901224,2.10876 q -0.01538,0.0172 -0.04275,0.0172 -0.06582,0 -0.107894,-0.077 -0.02735,-0.0514 -0.08465,-0.23936 -0.04274,-0.13168 -0.127126,-0.31289 l -0.71255,-1.64917 q -0.358198,-0.81129 -0.473693,-0.91925 -0.06924,-0.077 -0.36974,-0.0923 -0.07694,0 -0.0812,-0.0683 v -0.077 q 0,-0.077 0.08465,-0.077 0.07353,0 0.246464,0.01 0.0812,0.004 0.342812,0.008 0.09242,0 0.593122,0.01 0.404363,0.01 0.739479,0.01 0.804965,0 1.47124,-0.0426 0.09626,-0.004 0.142511,-0.004 0.08465,0 0.08465,0.0855 v 0.077 q 0,0.0428 -0.01967,0.0598 -0.01538,0.008 -0.161744,0.01 -0.281173,0.008 -0.338878,0.0426 -0.05044,0.0342 -0.05044,0.0923 0,0.077 0.119422,0.36333 z m -1.209345,-1.44835 -0.227228,-0.49071 q -0.127126,-0.27014 -0.192607,-0.31289 -0.09242,-0.0598 -0.581583,-0.0598 -0.327336,0 -0.431376,0.0428 -0.0812,0.0342 -0.0812,0.10859 0,0.0683 0.138662,0.40949 l 0.712466,1.78048 z" />
    <path
       inkscape:connector-curvature="0"
       id="path10967"
       style="font-style:normal;font-variant:normal;font-weight:normal;font-stretch:normal;font-size:8px;line-height:1.25;font-family:GaramondNo8;-inkscape-font-specification:GaramondNo8;letter-spacing:0px;word-spacing:0px;fill:#e35959;fill-opacity:1;stroke:none;stroke-width:0.26458335"
       d="m 55.213847,287.53642 0.05044,0.0172 q -0.0038,0.19321 -0.0078,0.6027 l -0.0078,0.6027 v 1.20111 q 0.0078,0.55996 0.01967,0.64887 0.02736,0.18551 0.41599,0.22825 0.127112,0.008 0.123274,0.0769 v 0.0514 q 0,0.0966 -0.08465,0.0966 -0.03505,0 -0.281173,-0.0257 -0.250312,-0.0257 -0.519945,-0.0257 -0.246464,0 -0.662452,0.0428 -0.05386,0.008 -0.107798,0.008 -0.09626,0 -0.09626,-0.0966 v -0.0513 q -0.0038,-0.0683 0.123275,-0.077 0.373586,-0.0257 0.439071,-0.17354 0.02734,-0.0514 0.03077,-0.19663 l 0.0078,-0.5061 v -1.06211 q -0.0038,-0.37871 -0.03077,-0.45223 -0.02736,-0.14276 -0.385128,-0.32058 l -0.01202,-0.10859 0.519943,-0.24705 q 0.31195,-0.15047 0.466,-0.23597 z m -0.28502,-2.32899 q 0.184912,0 0.315796,0.13168 0.130964,0.12744 0.130964,0.31289 0,0.1855 -0.130964,0.31289 -0.130965,0.13167 -0.315796,0.13167 -0.184913,0 -0.311949,-0.13167 -0.127126,-0.13509 -0.127126,-0.31632 0,-0.17353 0.127126,-0.30946 0.127113,-0.13168 0.311949,-0.13168 z" />
    <path
       inkscape:connector-curvature="0"
       id="path10969"
       style="font-style:normal;font-variant:normal;font-weight:normal;font-stretch:normal;font-size:8px;line-height:1.25;font-family:GaramondNo8;-inkscape-font-specification:GaramondNo8;letter-spacing:0px;word-spacing:0px;fill:#e35959;fill-opacity:1;stroke:none;stroke-width:0.26458335"
       d="m 55.109682,288.01533 v -0.16244 q 0.100108,-0.077 0.570041,-0.44795 0.06155,-0.0429 0.489081,-0.45566 0.100109,0.0257 0.100109,0.0683 0,0.0257 -0.0078,0.077 -0.0078,0.0598 -0.03077,0.36332 l -0.01538,0.2009 h 0.951304 q 0.100108,0 0.123274,0.0172 0.01967,0.0172 0.01967,0.10859 v 0.10859 q 0,0.077 -0.01538,0.0966 -0.02736,0.0257 -0.127126,0.0257 h -0.951294 v 1.83458 q 0,0.45995 0.05813,0.6104 0.05044,0.12389 0.180981,0.20089 0.107799,0.0598 0.23877,0.0598 0.161745,0 0.308102,-0.0889 0.134817,-0.077 0.204148,-0.2009 0.05386,-0.0966 0.06582,-0.0966 0.01202,0 0.03077,0.0172 l 0.08857,0.077 q -0.127112,0.31288 -0.273479,0.46335 -0.269633,0.27014 -0.677842,0.27014 -0.400515,0 -0.635524,-0.24364 -0.14251,-0.14704 -0.165592,-0.33255 -0.01967,-0.12744 -0.01967,-0.39752 v -1.71098 q 0,-0.28553 -0.01538,-0.34025 -0.02308,-0.077 -0.08855,-0.10081 -0.05813,-0.0257 -0.258008,-0.0257 z" />
    <path
       inkscape:connector-curvature="0"
       id="path10971"
       style="font-style:normal;font-variant:normal;font-weight:normal;font-stretch:normal;font-size:8px;line-height:1.25;font-family:GaramondNo8;-inkscape-font-specification:GaramondNo8;letter-spacing:0px;word-spacing:0px;fill:#e35959;fill-opacity:1;stroke:none;stroke-width:0.26458335"
       d="m 58.405671,288.42472 v 1.53718 q 0,0.55653 0.01538,0.64888 0.03077,0.18892 0.415988,0.22825 0.123275,0.008 0.123275,0.077 v 0.0514 q 0,0.0966 -0.09626,0.0966 -0.05386,0 -0.319643,-0.0257 -0.277325,-0.0257 -0.439071,-0.0257 -0.169438,0 -0.439071,0.0257 -0.265785,0.0257 -0.362045,0.0257 -0.10396,0 -0.10396,-0.0966 v -0.0514 q 0,-0.0341 0.01538,-0.0428 0.02308,-0.0257 0.154051,-0.0257 0.215688,-0.008 0.342811,-0.1008 0.05813,-0.0426 0.07353,-0.12744 0.01538,-0.0923 0.01967,-0.64888 v -3.67302 q -0.0038,-0.37871 -0.02736,-0.45224 -0.02735,-0.13509 -0.388975,-0.3206 l -0.0078,-0.10859 0.519944,-0.24706 q 0.288868,-0.13509 0.466,-0.23168 l 0.05044,0.0172 q -0.0038,0.21287 -0.0078,0.67621 l -0.0038,0.53687 v 2.02003 q 0.335032,-0.26245 0.493016,-0.36675 0.408209,-0.26672 0.828045,-0.26672 0.477542,0 0.720244,0.29749 0.211842,0.26245 0.211842,0.85403 v 1.26294 q 0,0.59072 0.02308,0.67963 0.03077,0.14704 0.412058,0.20861 0.04274,0.0171 0.04274,0.0598 v 0.0514 q 0,0.0966 -0.07353,0.0966 -0.01538,0 -0.05044,-0.004 -0.05044,-0.01 -0.323489,-0.0341 -0.273481,-0.0172 -0.346659,-0.0172 -0.127112,0 -0.639286,0.0428 -0.06924,0.008 -0.111732,0.008 -0.08857,0 -0.08857,-0.0966 v -0.0514 q 0.0038,-0.0598 0.123274,-0.077 0.335032,-0.0426 0.396669,-0.17353 0.02736,-0.0514 0.03505,-0.19664 l 0.0038,-0.5061 v -1.07759 q 0,-0.44026 -0.09242,-0.60611 -0.150205,-0.27441 -0.566193,-0.27441 -0.504556,0 -0.99752,0.4206 z" />
    <path
       inkscape:connector-curvature="0"
       id="path10973"
       style="font-style:normal;font-variant:normal;font-weight:normal;font-stretch:normal;font-size:8px;line-height:1.25;font-family:GaramondNo8;-inkscape-font-specification:GaramondNo8;letter-spacing:0px;word-spacing:0px;fill:#e35959;fill-opacity:1;stroke:none;stroke-width:0.26458335"
       d="m 65.027017,290.42928 0.146357,0.0598 q -0.177132,0.67965 -0.650913,0.67965 -0.242617,0 -0.396668,-0.18125 -0.150204,-0.17781 -0.150204,-0.50609 -0.265786,0.24706 -0.388974,0.34795 -0.400517,0.34025 -0.762562,0.34025 -0.269633,0 -0.458306,-0.25905 -0.223383,-0.3086 -0.223383,-0.6292 0,-0.27014 0.281174,-0.44026 0.215687,-0.13168 0.72409,-0.33256 l 0.808811,-0.32058 v -0.40948 q 0,-0.39754 -0.123274,-0.54456 -0.150205,-0.18125 -0.508404,-0.18125 -0.231076,0 -0.42753,0.0855 -0.161746,0.0683 -0.161746,0.21972 0,0.0598 0.03846,0.16242 l -0.489082,0.27783 q -0.05044,-0.13167 -0.05044,-0.21286 0,-0.23936 0.273479,-0.45565 0.09242,-0.077 0.319643,-0.20431 l 0.658608,-0.37446 q 0.712465,0.004 0.916637,0.44454 0.100109,0.25905 0.09635,0.93851 v 1.15102 l -0.004,0.15475 q 0,0.42487 0.246465,0.42487 0.150204,0 0.28502,-0.23168 z m -1.070698,-1.01578 -0.596969,0.26672 q -0.369739,0.16585 -0.473694,0.27014 -0.10396,0.10859 -0.10396,0.24707 0,0.21287 0.11165,0.40949 0.100108,0.16585 0.250313,0.16585 0.246464,0 0.523789,-0.25902 0.05044,-0.0514 0.223384,-0.2163 0.02308,-0.0257 0.06582,-0.0683 z" />
    <path
       inkscape:connector-curvature="0"
       id="path10975"
       style="font-style:normal;font-variant:normal;font-weight:normal;font-stretch:normal;font-size:8px;line-height:1.25;font-family:GaramondNo8;-inkscape-font-specification:GaramondNo8;letter-spacing:0px;word-spacing:0px;fill:#e35959;fill-opacity:1;stroke:none;stroke-width:0.26458335"
       d="m 69.671821,287.79905 -0.04275,0.72238 h -0.196454 q -0.09242,-0.32829 -0.211842,-0.47874 -0.192607,-0.23938 -0.508402,-0.23938 -0.22723,0 -0.404449,0.11965 -0.215688,0.15046 -0.215688,0.38982 0,0.21973 0.231076,0.4018 0.09635,0.077 0.493016,0.29751 0.500708,0.27442 0.689382,0.47873 0.234924,0.25134 0.234924,0.59074 0,0.47874 -0.412142,0.80701 -0.350505,0.27784 -0.866567,0.27784 -0.504556,0 -0.974412,-0.28553 l -0.04617,-0.77624 0.219535,-0.0172 q 0.08865,0.30861 0.234925,0.49413 0.269633,0.33169 0.631678,0.33169 0.288868,0 0.466,-0.18893 0.165591,-0.17353 0.165591,-0.41718 0,-0.24364 -0.246463,-0.46763 -0.123274,-0.112 -0.489083,-0.30946 -0.450613,-0.23938 -0.623899,-0.42831 -0.231077,-0.25133 -0.231077,-0.59072 0,-0.43259 0.342812,-0.69931 0.342811,-0.26672 0.843434,-0.26672 0.431377,0 0.916638,0.25134 z" />
    <path
       inkscape:connector-curvature="0"
       id="path10977"
       style="font-style:normal;font-variant:normal;font-weight:normal;font-stretch:normal;font-size:8px;line-height:1.25;font-family:GaramondNo8;-inkscape-font-specification:GaramondNo8;letter-spacing:0px;word-spacing:0px;fill:#e35959;fill-opacity:1;stroke:none;stroke-width:0.26458335"
       d="m 70.164801,288.01533 v -0.16244 q 0.100108,-0.077 0.570039,-0.44795 0.06156,-0.0429 0.489084,-0.45566 0.100109,0.0257 0.100109,0.0683 0,0.0257 -0.0079,0.077 -0.0079,0.0598 -0.03077,0.36332 l -0.01538,0.2009 h 0.951348 q 0.100109,0 0.123275,0.0172 0.01881,0.0172 0.01881,0.10859 v 0.10859 q 0,0.077 -0.01538,0.0966 -0.0265,0.0257 -0.127126,0.0257 h -0.951295 v 1.83458 q 0,0.45995 0.05813,0.6104 0.05044,0.12389 0.181067,0.20089 0.107798,0.0598 0.238769,0.0598 0.161746,0 0.308103,-0.0889 0.134816,-0.077 0.204148,-0.2009 0.05386,-0.0966 0.06582,-0.0966 0.01106,0 0.03077,0.0172 l 0.08857,0.077 q -0.127113,0.31288 -0.273479,0.46335 -0.269632,0.27014 -0.677841,0.27014 -0.400516,0 -0.63544,-0.24364 -0.142509,-0.14704 -0.165592,-0.33255 -0.01881,-0.12744 -0.01881,-0.39752 v -1.71098 q 0,-0.28553 -0.01538,-0.34025 -0.02308,-0.077 -0.08857,-0.10081 -0.05813,-0.0257 -0.258092,-0.0257 z" />
    <path
       inkscape:connector-curvature="0"
       id="path10979"
       style="font-style:normal;font-variant:normal;font-weight:normal;font-stretch:normal;font-size:8px;line-height:1.25;font-family:GaramondNo8;-inkscape-font-specification:GaramondNo8;letter-spacing:0px;word-spacing:0px;fill:#e35959;fill-opacity:1;stroke:none;stroke-width:0.26458335"
       d="m 73.26292,288.74146 v 1.22044 q 0.004,0.51722 0.0079,0.57963 0.01106,0.17012 0.146356,0.23595 0.08465,0.0427 0.369739,0.0598 0.127127,0.008 0.123275,0.077 v 0.0514 q 0,0.0683 -0.0265,0.077 -0.02308,0.0172 -0.123275,0.0172 -0.115584,0 -0.358198,-0.0257 -0.300409,-0.0342 -0.439073,-0.0342 -0.130964,0 -0.439071,0.0342 -0.234923,0.0257 -0.335031,0.0257 -0.100109,0 -0.100109,-0.0966 v -0.0514 q -0.004,-0.0683 0.123275,-0.077 0.350504,-0.0341 0.412142,-0.17355 0.03077,-0.0514 0.03505,-0.1932 l 0.004,-0.50951 v -1.06211 q 0,-0.37872 -0.0265,-0.45225 -0.02308,-0.14276 -0.385128,-0.32059 l -0.01202,-0.10859 0.519945,-0.24708 q 0.288867,-0.13934 0.466,-0.23594 l 0.05386,0.0171 q -0.0079,0.18894 -0.0079,0.46763 l -0.0079,0.35137 v 0.0923 l 0.127113,-0.17011 q 0.292714,-0.39754 0.493015,-0.54799 0.258007,-0.2009 0.516097,-0.2009 0.18098,0 0.292714,0.10859 0.119436,0.112 0.119436,0.28554 0,0.13934 -0.0812,0.23168 -0.09242,0.10435 -0.246466,0.10435 -0.09242,0 -0.258005,-0.077 -0.14251,-0.0683 -0.231077,-0.0683 -0.177133,0 -0.385127,0.2009 -0.05813,0.0598 -0.27348,0.32058 z" />
    <path
       inkscape:connector-curvature="0"
       id="path10981"
       style="font-style:normal;font-variant:normal;font-weight:normal;font-stretch:normal;font-size:8px;line-height:1.25;font-family:GaramondNo8;-inkscape-font-specification:GaramondNo8;letter-spacing:0px;word-spacing:0px;fill:#e35959;fill-opacity:1;stroke:none;stroke-width:0.26458335"
       d="m 77.333039,290.42928 0.146357,0.0598 q -0.177133,0.67965 -0.650915,0.67965 -0.242616,0 -0.396668,-0.18125 -0.150204,-0.17781 -0.150204,-0.50609 -0.265785,0.24706 -0.388974,0.34795 -0.400516,0.34025 -0.762561,0.34025 -0.269633,0 -0.458306,-0.25905 -0.223384,-0.3086 -0.223384,-0.6292 0,-0.27014 0.281174,-0.44026 0.215688,-0.13168 0.724092,-0.33256 l 0.80881,-0.32058 v -0.40948 q 0,-0.39754 -0.123274,-0.54456 -0.150205,-0.18125 -0.508402,-0.18125 -0.231077,0 -0.427531,0.0855 -0.161745,0.0683 -0.161745,0.21972 0,0.0598 0.03846,0.16242 l -0.489083,0.27783 q -0.05044,-0.13167 -0.05044,-0.21286 0,-0.23936 0.27348,-0.45565 0.09242,-0.077 0.319643,-0.20431 l 0.658608,-0.37446 q 0.71255,0.004 0.916637,0.44454 0.100109,0.25905 0.09635,0.93851 v 1.15102 l -0.004,0.15475 q 0,0.42487 0.246465,0.42487 0.150204,0 0.28502,-0.23168 z m -1.070691,-1.01578 -0.596968,0.26672 q -0.369741,0.16585 -0.473695,0.27014 -0.10396,0.10859 -0.10396,0.24707 0,0.21287 0.11165,0.40949 0.100095,0.16585 0.250312,0.16585 0.246464,0 0.523791,-0.25902 0.05044,-0.0514 0.223383,-0.2163 0.02308,-0.0257 0.06582,-0.0683 z" />
    <path
       inkscape:connector-curvature="0"
       id="path10983"
       style="font-style:normal;font-variant:normal;font-weight:normal;font-stretch:normal;font-size:8px;line-height:1.25;font-family:GaramondNo8;-inkscape-font-specification:GaramondNo8;letter-spacing:0px;word-spacing:0px;fill:#e35959;fill-opacity:1;stroke:none;stroke-width:0.26458335"
       d="m 78.594858,288.43636 v 1.52554 q 0,0.55653 0.01538,0.64888 0.03077,0.18549 0.412056,0.22825 0.123274,0.008 0.127126,0.077 v 0.0514 q 0,0.0966 -0.09635,0.0966 -0.05386,0 -0.323491,-0.0257 -0.277327,-0.0257 -0.435224,-0.0257 -0.146357,0 -0.658607,0.0428 -0.06924,0.008 -0.111637,0.008 -0.08857,0 -0.08857,-0.0966 v -0.0514 q 0,-0.0683 0.123274,-0.077 0.331185,-0.0257 0.388974,-0.15474 0.03078,-0.0514 0.03847,-0.18124 0.004,-0.0426 0.0079,-0.54029 v -1.08528 q -0.004,-0.37873 -0.0265,-0.45223 -0.03505,-0.13935 -0.388974,-0.32059 l -0.0079,-0.10859 0.519945,-0.24707 q 0.25809,-0.12389 0.466,-0.23167 l 0.03846,0.0171 v 0.64459 q 0.304255,-0.23595 0.489082,-0.35563 0.431376,-0.27784 0.820351,-0.27784 0.450614,0 0.712551,0.28981 0.138663,0.15473 0.184913,0.37445 0.04274,0.18123 0.04274,0.56422 v 1.18573 q 0,0.5172 0.004,0.57961 0.01538,0.17354 0.150203,0.23168 0.107799,0.0514 0.277327,0.0683 0.123275,0.01 0.123275,0.077 v 0.0514 q 0,0.0966 -0.09635,0.0966 -0.05044,0 -0.319642,-0.0257 -0.277327,-0.0257 -0.439072,-0.0257 -0.146357,0 -0.658608,0.0426 -0.06582,0.008 -0.107798,0.008 -0.08865,0 -0.08865,-0.0966 v -0.0514 q 0,-0.0683 0.123274,-0.077 0.327337,-0.0257 0.385128,-0.15473 0.03077,-0.0514 0.03846,-0.18123 0.004,-0.008 0.0079,-0.54031 v -1.06981 q 0,-0.36674 -0.03077,-0.47873 -0.04617,-0.15816 -0.150204,-0.25476 -0.18098,-0.15816 -0.466001,-0.15816 -0.377434,0 -0.747174,0.224 -0.119422,0.077 -0.254157,0.21286 z" />
    <path
       inkscape:connector-curvature="0"
       id="path10985"
       style="font-style:normal;font-variant:normal;font-weight:normal;font-stretch:normal;font-size:8px;line-height:1.25;font-family:GaramondNo8;-inkscape-font-specification:GaramondNo8;letter-spacing:0px;word-spacing:0px;fill:#e35959;fill-opacity:1;stroke:none;stroke-width:0.26458335"
       d="m 82.011055,290.37516 0.743327,-0.55996 q -0.288867,-0.0966 -0.462154,-0.25133 -0.388974,-0.33255 -0.388974,-0.81898 0,-0.4907 0.431376,-0.85404 0.408211,-0.34366 0.893532,-0.34366 0.180979,0 0.431377,0.0683 0.231077,0.0598 0.392822,0.14704 0.196454,0.10081 0.277326,0.10081 l 0.18876,-0.004 h 0.431377 q 0.150203,0 0.173286,0.01 0.03077,0.0171 0.03505,0.0888 v 0.1232 q 0,0.077 -0.03077,0.10859 -0.0265,0.0257 -0.177132,0.0257 h -0.508404 q 0.07353,0.2009 0.07353,0.37872 0,0.48301 -0.32349,0.8224 -0.431378,0.45566 -1.182381,0.45223 -0.469847,0.22057 -0.469847,0.53346 0,0.15045 0.161745,0.24364 0.173287,0.0966 0.462154,0.0966 0.07353,0 0.177133,-0.008 0.531485,-0.0342 0.604664,-0.0342 0.48532,0 0.835738,0.2975 0.30041,0.25475 0.30041,0.71041 0,0.63348 -0.535332,1.03895 -0.504557,0.38213 -1.190084,0.38213 -0.635524,0 -1.082239,-0.28981 -0.269631,-0.17354 -0.34281,-0.46762 -0.03848,-0.16244 -0.04274,-0.4984 l 0.793424,-0.56765 q -0.69323,-0.14276 -0.69323,-0.76855 0,-0.0683 0.02308,-0.16243 z m 1.159274,-2.62246 q -0.188675,0 -0.373587,0.11624 -0.311949,0.19661 -0.311949,0.71468 0,0.49071 0.238769,0.79163 0.107799,0.13168 0.265701,0.20859 0.138662,0.0683 0.258092,0.0683 0.265784,0 0.466,-0.22399 0.219536,-0.24706 0.219536,-0.67195 0,-0.39751 -0.200301,-0.68731 -0.219537,-0.31717 -0.562347,-0.31717 z m -0.188675,3.56873 q -0.134816,0.1008 -0.207994,0.15047 -0.204147,0.14276 -0.277325,0.24707 -0.06924,0.0966 -0.06924,0.27013 0,0.34794 0.265785,0.60272 0.292714,0.27782 0.762562,0.27782 0.408295,0 0.724091,-0.20088 0.377434,-0.23938 0.377434,-0.707 0,-0.29751 -0.157899,-0.46762 -0.196453,-0.20861 -0.573886,-0.20861 -0.130965,0 -0.381281,0.0172 -0.250313,0.0171 -0.462155,0.0171 z" />
    <path
       inkscape:connector-curvature="0"
       id="path10987"
       style="font-style:normal;font-variant:normal;font-weight:normal;font-stretch:normal;font-size:8px;line-height:1.25;font-family:GaramondNo8;-inkscape-font-specification:GaramondNo8;letter-spacing:0px;word-spacing:0px;fill:#e35959;fill-opacity:1;stroke:none;stroke-width:0.26458335"
       d="m 87.567834,288.95776 h -2.22997 q -0.02735,0.19321 -0.02735,0.3052 0,0.4984 0.304255,0.89984 0.165592,0.21629 0.400517,0.35137 0.25809,0.14277 0.523789,0.14277 0.408211,0 0.901226,-0.45994 l 0.138663,0.10436 q -0.581582,0.86515 -1.382647,0.86515 -0.600816,0 -1.024475,-0.45994 -0.442917,-0.48643 -0.442917,-1.20505 0,-0.71811 0.439071,-1.3132 0.47754,-0.64116 1.190084,-0.64116 0.462152,0 0.801116,0.28212 0.408294,0.33254 0.408294,1.00799 z m -2.191456,-0.17783 1.028329,-0.0257 q 0.281173,-0.004 0.338878,-0.0257 0.18098,-0.0683 0.18098,-0.27784 0,-0.2744 -0.196453,-0.46334 -0.184827,-0.18123 -0.462154,-0.18123 -0.439071,0 -0.708618,0.48301 -0.115502,0.2009 -0.18098,0.49412 z" />
    <path
       inkscape:connector-curvature="0"
       id="path10989"
       style="font-style:normal;font-variant:normal;font-weight:normal;font-stretch:normal;font-size:8px;line-height:1.25;font-family:GaramondNo8;-inkscape-font-specification:GaramondNo8;letter-spacing:0px;word-spacing:0px;fill:#e35959;fill-opacity:1;stroke:none;stroke-width:0.26458335"
       d="m 90.967177,284.92549 0.05044,0.0257 q -0.004,0.20859 -0.0079,0.67621 l -0.004,0.5326 v 3.80435 q 0.004,0.55653 0.01538,0.64885 0.03077,0.18894 0.415988,0.22826 0.127127,0.008 0.127127,0.077 v 0.0514 q 0,0.0966 -0.09635,0.0966 -0.05386,0 -0.323491,-0.0257 -0.277326,-0.0257 -0.439071,-0.0257 -0.16944,0 -0.439073,0.0257 -0.265698,0.0257 -0.362045,0.0257 -0.10396,0 -0.10396,-0.0966 v -0.0514 q 0,-0.0342 0.01538,-0.0426 0.02308,-0.0257 0.154053,-0.0257 0.215687,-0.008 0.34281,-0.10081 0.05813,-0.0428 0.07353,-0.12744 0.01538,-0.0923 0.01881,-0.64885 v -3.67304 q -0.004,-0.37871 -0.0265,-0.45222 -0.02734,-0.13509 -0.388974,-0.32059 l -0.0079,-0.1086 0.519944,-0.24706 q 0.288866,-0.13935 0.466,-0.23595 z" />
    <path
       inkscape:connector-curvature="0"
       id="path10991"
       style="font-style:normal;font-variant:normal;font-weight:normal;font-stretch:normal;font-size:8px;line-height:1.25;font-family:GaramondNo8;-inkscape-font-specification:GaramondNo8;letter-spacing:0px;word-spacing:0px;fill:#e35959;fill-opacity:1;stroke:none;stroke-width:0.26458335"
       d="m 92.357035,287.53642 0.05044,0.0172 q -0.004,0.19321 -0.0079,0.6027 l -0.0079,0.6027 v 1.20111 q 0.0079,0.55996 0.01881,0.64887 0.02736,0.18551 0.41599,0.22825 0.127113,0.008 0.123274,0.0769 v 0.0514 q 0,0.0966 -0.08465,0.0966 -0.0342,0 -0.281173,-0.0257 -0.250312,-0.0257 -0.519943,-0.0257 -0.246465,0 -0.662454,0.0428 -0.05386,0.008 -0.107798,0.008 -0.09626,0 -0.09626,-0.0966 v -0.0513 q -0.004,-0.0683 0.123274,-0.077 0.373586,-0.0257 0.439071,-0.17354 0.0265,-0.0514 0.03077,-0.19663 l 0.0079,-0.5061 v -1.06211 q -0.004,-0.37871 -0.03077,-0.45223 -0.0265,-0.14276 -0.385128,-0.32058 l -0.01106,-0.10859 0.519943,-0.24705 q 0.311949,-0.15047 0.466,-0.23597 z m -0.285021,-2.32899 q 0.184913,0 0.315797,0.13168 0.130964,0.12744 0.130964,0.31289 0,0.1855 -0.130964,0.31289 -0.130965,0.13167 -0.315797,0.13167 -0.184912,0 -0.311948,-0.13167 -0.127126,-0.13509 -0.127126,-0.31632 0,-0.17353 0.127126,-0.30946 0.127113,-0.13168 0.311948,-0.13168 z" />
    <path
       inkscape:connector-curvature="0"
       id="path10993"
       style="font-style:normal;font-variant:normal;font-weight:normal;font-stretch:normal;font-size:8px;line-height:1.25;font-family:GaramondNo8;-inkscape-font-specification:GaramondNo8;letter-spacing:0px;word-spacing:0px;fill:#e35959;fill-opacity:1;stroke:none;stroke-width:0.26458335"
       d="m 93.604391,288.0308 q 0.281172,-0.20517 0.454459,-0.29751 0.362045,-0.1855 0.708704,-0.1855 0.59697,0 1.024473,0.44026 0.215689,0.22398 0.342812,0.54457 0.134816,0.33597 0.134816,0.69503 0,0.58303 -0.331184,1.10074 -0.273479,0.43257 -0.731785,0.65656 -0.373586,0.18124 -0.739479,0.18124 -0.331185,0 -0.650913,-0.15045 -0.258006,-0.12389 -0.365893,-0.12389 -0.130965,0 -0.207994,0.10435 -0.06582,0.0923 -0.09242,0.12744 H 92.99209 q 0.01538,-0.32828 0.01538,-0.6104 v -4.22538 q 0,-0.37871 -0.0265,-0.45223 -0.03077,-0.13509 -0.385127,-0.32059 l -0.01106,-0.10859 0.519945,-0.24707 q 0.269632,-0.13168 0.462153,-0.23595 l 0.05386,0.0257 q -0.0079,0.13167 -0.01538,0.76855 z m 0,0.2163 v 1.3749 q 0,0.48644 0.05386,0.63348 0.115584,0.32485 0.396669,0.49413 0.223384,0.13509 0.504557,0.13509 0.516095,0 0.793422,-0.42916 0.277327,-0.42487 0.277327,-1.04279 0,-0.65655 -0.346658,-1.05826 -0.358199,-0.41718 -0.893523,-0.41718 -0.450611,0 -0.785727,0.30861 z" />
    <path
       inkscape:connector-curvature="0"
       id="path10995"
       style="font-style:normal;font-variant:normal;font-weight:normal;font-stretch:normal;font-size:8px;line-height:1.25;font-family:GaramondNo8;-inkscape-font-specification:GaramondNo8;letter-spacing:0px;word-spacing:0px;fill:#e35959;fill-opacity:1;stroke:none;stroke-width:0.26458335"
       d="m 99.651101,288.95776 h -2.229962 q -0.0265,0.19321 -0.0265,0.3052 0,0.4984 0.304256,0.89984 0.165591,0.21629 0.400515,0.35137 0.258092,0.14277 0.523791,0.14277 0.408296,0 0.901242,-0.45994 l 0.138663,0.10436 q -0.581582,0.86515 -1.382656,0.86515 -0.600816,0 -1.024473,-0.45994 -0.44292,-0.48643 -0.44292,-1.20505 0,-0.71811 0.439072,-1.3132 0.477541,-0.64116 1.190083,-0.64116 0.462154,0 0.801118,0.28212 0.408209,0.33254 0.408209,1.00799 z m -2.19144,-0.17783 1.028321,-0.0257 q 0.281172,-0.004 0.338964,-0.0257 0.180979,-0.0683 0.180979,-0.27784 0,-0.2744 -0.196454,-0.46334 -0.184911,-0.18123 -0.462153,-0.18123 -0.439071,0 -0.708618,0.48301 -0.115502,0.2009 -0.18098,0.49412 z" />
    <path
       inkscape:connector-curvature="0"
       id="path10997"
       style="font-style:normal;font-variant:normal;font-weight:normal;font-stretch:normal;font-size:8px;line-height:1.25;font-family:GaramondNo8;-inkscape-font-specification:GaramondNo8;letter-spacing:0px;word-spacing:0px;fill:#e35959;fill-opacity:1;stroke:none;stroke-width:0.26458335"
       d="m 101.38039,288.74146 v 1.22044 q 0.004,0.51722 0.008,0.57963 0.0111,0.17012 0.14636,0.23595 0.0846,0.0427 0.36974,0.0598 0.12713,0.008 0.12327,0.077 v 0.0514 q 0,0.0683 -0.0265,0.077 -0.0231,0.0172 -0.12327,0.0172 -0.11558,0 -0.3582,-0.0257 -0.30041,-0.0342 -0.43907,-0.0342 -0.13096,0 -0.43907,0.0342 -0.23492,0.0257 -0.33512,0.0257 -0.10011,0 -0.10011,-0.0966 v -0.0514 q -0.004,-0.0683 0.12328,-0.077 0.3505,-0.0341 0.41205,-0.17355 0.0308,-0.0514 0.035,-0.1932 l 0.004,-0.50951 v -1.06211 q 0,-0.37872 -0.0265,-0.45225 -0.0231,-0.14276 -0.38513,-0.32059 l -0.0111,-0.10859 0.51994,-0.24708 q 0.28887,-0.13934 0.466,-0.23594 l 0.0539,0.0171 q -0.008,0.18894 -0.008,0.46763 l -0.008,0.35137 v 0.0923 l 0.12711,-0.17011 q 0.29272,-0.39754 0.49302,-0.54799 0.25801,-0.2009 0.5161,-0.2009 0.18098,0 0.29271,0.10859 0.11942,0.112 0.11942,0.28554 0,0.13934 -0.0812,0.23168 -0.0924,0.10435 -0.24647,0.10435 -0.0924,0 -0.258,-0.077 -0.14251,-0.0683 -0.23108,-0.0683 -0.17713,0 -0.38512,0.2009 -0.0581,0.0598 -0.27348,0.32058 z" />
    <path
       inkscape:connector-curvature="0"
       id="path10999"
       style="font-style:normal;font-variant:normal;font-weight:normal;font-stretch:normal;font-size:8px;line-height:1.25;font-family:GaramondNo8;-inkscape-font-specification:GaramondNo8;letter-spacing:0px;word-spacing:0px;fill:#e35959;fill-opacity:1;stroke:none;stroke-width:0.26458335"
       d="m 102.36024,288.01533 v -0.16244 q 0.10011,-0.077 0.57004,-0.44795 0.0616,-0.0429 0.48908,-0.45566 0.10011,0.0257 0.10011,0.0683 0,0.0257 -0.008,0.077 -0.008,0.0598 -0.0308,0.36332 l -0.0154,0.2009 h 0.9513 q 0.10011,0 0.12327,0.0172 0.0188,0.0172 0.0188,0.10859 v 0.10859 q 0,0.077 -0.0154,0.0966 -0.0265,0.0257 -0.12713,0.0257 h -0.95129 v 1.83458 q 0,0.45995 0.0581,0.6104 0.0504,0.12389 0.18098,0.20089 0.1078,0.0598 0.23877,0.0598 0.16175,0 0.30811,-0.0889 0.13481,-0.077 0.20414,-0.2009 0.0539,-0.0966 0.0658,-0.0966 0.012,0 0.0308,0.0172 l 0.0887,0.077 q -0.12713,0.31288 -0.27348,0.46335 -0.26963,0.27014 -0.67784,0.27014 -0.40052,0 -0.63553,-0.24364 -0.14251,-0.14704 -0.16559,-0.33255 -0.0188,-0.12744 -0.0188,-0.39752 v -1.71098 q 0,-0.28553 -0.0154,-0.34025 -0.0231,-0.077 -0.0887,-0.10081 -0.0581,-0.0257 -0.25809,-0.0257 z" />
    <path
       inkscape:connector-curvature="0"
       id="path11001"
       style="font-style:normal;font-variant:normal;font-weight:normal;font-stretch:normal;font-size:8px;line-height:1.25;font-family:GaramondNo8;-inkscape-font-specification:GaramondNo8;letter-spacing:0px;word-spacing:0px;fill:#e35959;fill-opacity:1;stroke:none;stroke-width:0.26458335"
       d="m 106.93218,290.3095 0.70092,-1.60668 q 0.21569,-0.4907 0.21569,-0.59499 0,-0.23168 -0.37359,-0.22399 -0.12327,0 -0.14251,-0.0257 -0.0111,-0.01 -0.0111,-0.0514 v -0.0683 q 0,-0.0514 0.0111,-0.077 0.0154,-0.0257 0.0963,-0.0257 0.11558,0 0.32349,0.0172 0.21184,0.0257 0.31579,0.0257 0.0274,0 0.62006,-0.0427 0.0735,-0.004 0.0886,-0.004 0.0847,0 0.0847,0.1 v 0.0683 q -0.004,0.0426 -0.0188,0.0598 -0.0231,0.0172 -0.17329,0.0257 -0.26578,0.01 -0.41983,0.21629 -0.11943,0.15045 -0.3659,0.68391 l -1.19393,2.62639 q -0.42369,0.92695 -0.7164,1.37107 -0.22339,0.34025 -0.54303,0.34025 -0.1579,0 -0.25031,-0.10081 -0.0924,-0.10435 -0.0924,-0.25134 0,-0.12744 0.0769,-0.24364 0.0735,-0.112 0.18875,-0.112 0.0428,0 0.12713,0.0427 0.0735,0.0342 0.11165,0.0342 0.1579,0 0.3081,-0.16244 0.24262,-0.26672 0.53918,-0.9733 l 0.14636,-0.35135 -1.05529,-2.62246 q -0.12328,-0.30519 -0.17329,-0.36334 -0.13096,-0.15045 -0.37743,-0.13933 l -0.0769,0.004 q -0.0886,0.004 -0.11551,-0.0171 -0.0188,-0.0172 -0.0188,-0.0683 v -0.077 q 0,-0.0888 0.0886,-0.0888 0.0886,0 0.40052,0.0172 0.3158,0.0257 0.45061,0.0257 0.15021,0 0.466,-0.0257 0.3081,-0.0172 0.37744,-0.0172 0.0964,0 0.0964,0.0888 v 0.077 q 0,0.0426 -0.0188,0.0598 -0.0231,0.0257 -0.17713,0.0257 -0.3659,-0.008 -0.3659,0.15047 0,0.0428 0.0769,0.24364 l 0.0539,0.14276 z" />
  </g>
</svg>
