<?xml version="1.0" encoding="UTF-8"?>
<!-- Created with Inkscape (http://www.inkscape.org/) -->
<svg width="840" height="260" version="1.1" viewBox="0 0 222.25 68.792" xmlns="http://www.w3.org/2000/svg" xmlns:cc="http://creativecommons.org/ns#" xmlns:dc="http://purl.org/dc/elements/1.1/" xmlns:osb="http://www.openswatchbook.org/uri/2009/osb" xmlns:rdf="http://www.w3.org/1999/02/22-rdf-syntax-ns#" xmlns:xlink="http://www.w3.org/1999/xlink">
 <defs>
  <filter id="filter1432-0-9" x="-.3" y="-.3" width="1.6" height="1.6" color-interpolation-filters="sRGB">
   <feGaussianBlur stdDeviation="1.9607514"/>
  </filter>
  <filter id="filter1261-1-2" x="-.36466" y="-.24214" width="1.7293" height="1.4843" color-interpolation-filters="sRGB">
   <feGaussianBlur stdDeviation="1.6853045"/>
  </filter>
  <filter id="filter1261-6-8-0" x="-.36466" y="-.24214" width="1.7293" height="1.4843" color-interpolation-filters="sRGB">
   <feGaussianBlur stdDeviation="1.6853045"/>
  </filter>
  <filter id="filter1261-5-68-8" x="-.36466" y="-.24214" width="1.7293" height="1.4843" color-interpolation-filters="sRGB">
   <feGaussianBlur stdDeviation="1.6853045"/>
  </filter>
  <filter id="filter1432-0-9-1" x="-.3" y="-.3" width="1.6" height="1.6" color-interpolation-filters="sRGB">
   <feGaussianBlur stdDeviation="1.9607514"/>
  </filter>
  <filter id="filter1261-1-2-9" x="-.36466" y="-.24214" width="1.7293" height="1.4843" color-interpolation-filters="sRGB">
   <feGaussianBlur stdDeviation="1.6853045"/>
  </filter>
  <filter id="filter1261-6-8-0-0" x="-.36466" y="-.24214" width="1.7293" height="1.4843" color-interpolation-filters="sRGB">
   <feGaussianBlur stdDeviation="1.6853045"/>
  </filter>
  <filter id="filter1261-5-68-8-4" x="-.36466" y="-.24214" width="1.7293" height="1.4843" color-interpolation-filters="sRGB">
   <feGaussianBlur stdDeviation="1.6853045"/>
  </filter>
  <filter id="filter1432-0-9-8" x="-.3" y="-.3" width="1.6" height="1.6" color-interpolation-filters="sRGB">
   <feGaussianBlur stdDeviation="1.9607514"/>
  </filter>
  <filter id="filter1261-1-2-4" x="-.36466" y="-.24214" width="1.7293" height="1.4843" color-interpolation-filters="sRGB">
   <feGaussianBlur stdDeviation="1.6853045"/>
  </filter>
  <filter id="filter1261-6-8-0-6" x="-.36466" y="-.24214" width="1.7293" height="1.4843" color-interpolation-filters="sRGB">
   <feGaussianBlur stdDeviation="1.6853045"/>
  </filter>
  <filter id="filter1261-5-68-8-6" x="-.36466" y="-.24214" width="1.7293" height="1.4843" color-interpolation-filters="sRGB">
   <feGaussianBlur stdDeviation="1.6853045"/>
  </filter>
  <filter id="filter1432-0-9-4" x="-.3" y="-.3" width="1.6" height="1.6" color-interpolation-filters="sRGB">
   <feGaussianBlur stdDeviation="1.9607514"/>
  </filter>
  <filter id="filter1261-1-2-1" x="-.36466" y="-.24214" width="1.7293" height="1.4843" color-interpolation-filters="sRGB">
   <feGaussianBlur stdDeviation="1.6853045"/>
  </filter>
  <filter id="filter1261-6-8-0-5" x="-.36466" y="-.24214" width="1.7293" height="1.4843" color-interpolation-filters="sRGB">
   <feGaussianBlur stdDeviation="1.6853045"/>
  </filter>
  <filter id="filter1261-5-68-8-41" x="-.36466" y="-.24214" width="1.7293" height="1.4843" color-interpolation-filters="sRGB">
   <feGaussianBlur stdDeviation="1.6853045"/>
  </filter>
  <filter id="filter1432-1-7-7-5-1-8-2" x="-.3" y="-.3" width="1.6" height="1.6" color-interpolation-filters="sRGB">
   <feGaussianBlur stdDeviation="1.9607514"/>
  </filter>
  <filter id="filter1261-5-7-7-50-3" x="-.36466" y="-.24214" width="1.7293" height="1.4843" color-interpolation-filters="sRGB">
   <feGaussianBlur stdDeviation="1.6853045"/>
  </filter>
  <filter id="filter1261-5-7-7-6-1-2" x="-.36466" y="-.24214" width="1.7293" height="1.4843" color-interpolation-filters="sRGB">
   <feGaussianBlur stdDeviation="1.6853045"/>
  </filter>
  <filter id="filter1432-1-7-7-5-1-8-2-1" x="-.3" y="-.3" width="1.6" height="1.6" color-interpolation-filters="sRGB">
   <feGaussianBlur stdDeviation="1.9607514"/>
  </filter>
  <filter id="filter1261-5-7-7-50-3-3" x="-.36466" y="-.24214" width="1.7293" height="1.4843" color-interpolation-filters="sRGB">
   <feGaussianBlur stdDeviation="1.6853045"/>
  </filter>
  <filter id="filter1261-5-7-7-6-1-2-9" x="-.36466" y="-.24214" width="1.7293" height="1.4843" color-interpolation-filters="sRGB">
   <feGaussianBlur stdDeviation="1.6853045"/>
  </filter>
  <filter id="filter1432-1-7-7-5-1-8-2-1-2" x="-.3" y="-.3" width="1.6" height="1.6" color-interpolation-filters="sRGB">
   <feGaussianBlur stdDeviation="1.9607514"/>
  </filter>
  <filter id="filter1261-5-7-7-50-3-3-0" x="-.36466" y="-.24214" width="1.7293" height="1.4843" color-interpolation-filters="sRGB">
   <feGaussianBlur stdDeviation="1.6853045"/>
  </filter>
  <filter id="filter1261-5-7-7-6-1-2-9-0" x="-.36466" y="-.24214" width="1.7293" height="1.4843" color-interpolation-filters="sRGB">
   <feGaussianBlur stdDeviation="1.6853045"/>
  </filter>
  <filter id="filter1432-1-7-7-5-1-8-2-1-2-9" x="-.3" y="-.3" width="1.6" height="1.6" color-interpolation-filters="sRGB">
   <feGaussianBlur stdDeviation="1.9607514"/>
  </filter>
  <filter id="filter1261-5-7-7-50-3-3-0-1" x="-.36466" y="-.24214" width="1.7293" height="1.4843" color-interpolation-filters="sRGB">
   <feGaussianBlur stdDeviation="1.6853045"/>
  </filter>
  <filter id="filter1261-5-7-7-6-1-2-9-0-4" x="-.36466" y="-.24214" width="1.7293" height="1.4843" color-interpolation-filters="sRGB">
   <feGaussianBlur stdDeviation="1.6853045"/>
  </filter>
  <filter id="filter3536" x="-.55851" y="-.12659" width="2.117" height="1.2532" color-interpolation-filters="sRGB">
   <feGaussianBlur stdDeviation="0.73275327"/>
  </filter>
  <filter id="filter3772" x="-.60348" y="-.16962" width="2.207" height="1.3392" color-interpolation-filters="sRGB">
   <feGaussianBlur stdDeviation="1.055919"/>
  </filter>
  <filter id="filter3776" x="-.65858" y="-.17551" width="2.3172" height="1.351" color-interpolation-filters="sRGB">
   <feGaussianBlur stdDeviation="1.055919"/>
  </filter>
 </defs>
 <metadata>
  <rdf:RDF>
   <cc:Work rdf:about="">
    <dc:format>image/svg+xml</dc:format>
    <dc:type rdf:resource="http://purl.org/dc/dcmitype/StillImage"/>
    <dc:title/>
   </cc:Work>
  </rdf:RDF>
 </metadata>
 <g transform="translate(2.0082 -190.79)">
  <g transform="matrix(.87082 0 0 .86263 68.473 145.29)" fill="#666" aria-label="nn">
   <path d="m70.162 75.606-2.9102-0.68359v-10.957q0.72266-0.80078 1.7383-1.2305 1.0156-0.44922 2.1094-0.44922 1.543 0 2.4609 0.89844 0.9375 0.87891 0.9375 2.6953v9.043l-2.6953 0.80078-0.19531 1.4258h8.7695l0.19531-1.543-2.8125-0.68359v-9.8047q0-2.6367-1.2109-4.082-1.2109-1.4453-3.4961-1.4453-1.7188 0-3.2422 0.87891-1.5234 0.87891-2.6367 2.207h-0.19531l0.33203-2.5-0.33203-0.37109-5.8203 0.76172-0.19531 1.4844 3.0078 1.0156v11.855l-2.9492 0.80078-0.19531 1.4258h9.0625z"/>
   <path d="m90.865 75.606-2.9102-0.68359v-10.957q0.72266-0.80078 1.7383-1.2305 1.0156-0.44922 2.1094-0.44922 1.543 0 2.4609 0.89844 0.9375 0.87891 0.9375 2.6953v9.043l-2.6953 0.80078-0.19531 1.4258h8.7695l0.19531-1.543-2.8125-0.68359v-9.8047q0-2.6367-1.2109-4.082-1.2109-1.4453-3.4961-1.4453-1.7188 0-3.2422 0.87891-1.5234 0.87891-2.6367 2.207h-0.19531l0.33203-2.5-0.33203-0.37109-5.8203 0.76172-0.19531 1.4844 3.0078 1.0156v11.855l-2.9492 0.80078-0.19531 1.4258h9.0625z"/>
  </g>
  <g transform="matrix(2.3267 0 0 2.34 -125.69 -9.0808)" stroke-width=".67861">
   <g stroke-width=".67861">
    <circle transform="matrix(.41301 0 0 .39915 103.44 81.895)" cx="25.23" cy="24.007" r="7.843" fill="#919191" filter="url(#filter1432-0-9)"/>
    <ellipse transform="matrix(.13851 0 0 .21002 108.22 85.023)" cx="27.596" cy="30.733" rx="5.5458" ry="8.3522" fill="#353535" filter="url(#filter1261-1-2)" stroke-width="1.0527"/>
    <ellipse transform="matrix(.13851 0 0 .21002 111.95 85.023)" cx="27.596" cy="30.733" rx="5.5458" ry="8.3522" fill="#353535" filter="url(#filter1261-6-8-0)" stroke-width="1.0527"/>
    <ellipse transform="matrix(.18516 0 0 .33373 108.8 81.221)" cx="27.596" cy="30.733" rx="5.5458" ry="8.3522" fill="#fff" filter="url(#filter1261-5-68-8)"/>
   </g>
  </g>
  <g transform="matrix(.26458 0 0 .26458 1.0075 180.02)" aria-label="Filter">
   <path d="m41.492 139.65v10.267h1.188v-4.6053h4.8107v-1.0853h-4.8107v-3.5053h5.104v-1.0707z"/>
   <path d="m48.916 140.52c0 0.54266 0.396 0.93866 0.93867 0.93866s0.95333-0.396 0.95333-0.93866c0-0.528-0.41067-0.924-0.95333-0.924s-0.93867 0.396-0.93867 0.924zm1.5107 2.244h-1.1293v7.1573h1.1293z"/>
   <path d="m53.692 139.65h-1.1293v10.267h1.1293z"/>
   <path d="m54.919 143.7h2.2147v5.016c0 0.748 0.45467 1.2027 1.1733 1.2027h1.98v-0.93867h-1.628c-0.264 0-0.41067-0.14666-0.41067-0.44v-4.84h2.3613v-0.93866h-2.3613v-2.5667h-1.1147v2.5667h-2.2147z"/>
   <path d="m61.547 146.28c0 2.2 1.4667 3.8427 3.696 3.8427 1.9507 0 2.772-1.1 3.2267-1.9507l-0.968-0.49867c-0.38133 0.792-1.012 1.452-2.2587 1.452-1.4373 0-2.4347-0.968-2.5373-2.4347h5.8813v-0.60133c0-2.1853-1.4227-3.5347-3.4467-3.5347-2.0827 0-3.5933 1.5693-3.5933 3.7253zm1.1733-0.528c0.16133-1.3493 1.0707-2.2 2.42-2.2 1.32 0 2.2147 0.77733 2.288 2.2z"/>
   <path d="m71.309 142.76h-1.1v7.1573h1.1293v-4.4c0-1.232 0.67467-1.804 1.7307-1.804h1.1587v-0.98267h-0.98267c-0.95333 0-1.5107 0.27867-1.7893 0.968h-0.14667z"/>
  </g>
  <g transform="matrix(2.3267 0 0 2.34 -248.29 -9.0808)" stroke-width=".67861">
   <g stroke-width=".67861">
    <circle transform="matrix(.41301 0 0 .39915 103.44 81.895)" cx="25.23" cy="24.007" r="7.843" fill="#919191" filter="url(#filter1432-0-9-1)"/>
    <ellipse transform="matrix(.13851 0 0 .21002 108.22 85.023)" cx="27.596" cy="30.733" rx="5.5458" ry="8.3522" fill="#353535" filter="url(#filter1261-1-2-9)" stroke-width="1.0527"/>
    <ellipse transform="matrix(.13851 0 0 .21002 111.95 85.023)" cx="27.596" cy="30.733" rx="5.5458" ry="8.3522" fill="#353535" filter="url(#filter1261-6-8-0-0)" stroke-width="1.0527"/>
    <ellipse transform="matrix(.18516 0 0 .33373 108.8 81.221)" cx="27.596" cy="30.733" rx="5.5458" ry="8.3522" fill="#fff" filter="url(#filter1261-5-68-8-4)"/>
   </g>
  </g>
  <g transform="matrix(.26458 0 0 .26458 115.18 180.02)" aria-label="Response: 0.95">
   <path d="m48.913 142.66c0-1.8773-1.3933-3.0067-3.2267-3.0067h-4.1947v10.267h1.188v-4.2533h2.4053l2.2147 4.2533h1.3787l-2.3467-4.2973c1.496-0.24934 2.5813-1.32 2.5813-2.9627zm-6.2333-1.936h2.8747c1.3493 0 2.156 0.71867 2.156 1.936s-0.80667 1.936-2.156 1.936h-2.8747z"/>
   <path d="m50.031 146.28c0 2.2 1.4667 3.8427 3.696 3.8427 1.9507 0 2.772-1.1 3.2267-1.9507l-0.968-0.49867c-0.38133 0.792-1.012 1.452-2.2587 1.452-1.4373 0-2.4347-0.968-2.5373-2.4347h5.8813v-0.60133c0-2.1853-1.4227-3.5347-3.4467-3.5347-2.0827 0-3.5933 1.5693-3.5933 3.7253zm1.1733-0.528c0.16133-1.3493 1.0707-2.2 2.42-2.2 1.32 0 2.2147 0.77733 2.288 2.2z"/>
   <path d="m58.446 144.61c0 1.276 1.056 1.848 2.4053 2.068l0.73333 0.10266c1.0413 0.176 1.6573 0.46934 1.6573 1.188 0 0.748-0.68933 1.2467-1.7893 1.2467s-2.0387-0.45467-2.2733-1.9213l-1.0707 0.24933c0.264 1.7747 1.5693 2.5813 3.344 2.5813 1.7453 0 2.8893-0.82133 2.8893-2.2147 0-1.408-1.1147-1.848-2.5813-2.0973l-0.73333-0.10266c-0.85067-0.14667-1.4667-0.44-1.4667-1.1293 0-0.71866 0.616-1.1147 1.5987-1.1147 0.968 0 1.6867 0.41066 1.892 1.4667l1.0413-0.27866c-0.29333-1.32-1.32-2.0973-2.9333-2.0973-1.6573 0-2.7133 0.77734-2.7133 2.0533z"/>
   <path d="m65.998 152.85h1.1293v-4.136h0.14667c0.41067 0.704 1.188 1.408 2.6693 1.408 1.8773 0 3.388-1.4813 3.388-3.784 0-2.3173-1.5107-3.784-3.388-3.784-1.4813 0-2.2587 0.704-2.6987 1.4373h-0.14667v-1.232h-1.1zm3.6667-3.7253c-1.4813 0-2.552-1.0707-2.552-2.7867s1.0707-2.8013 2.552-2.8013c1.496 0 2.5227 1.0707 2.5227 2.8013 0 1.7307-1.0267 2.7867-2.5227 2.7867z"/>
   <path d="m74.538 146.34c0 2.244 1.4813 3.784 3.652 3.784 2.1707 0 3.6667-1.54 3.6667-3.784 0-2.2587-1.496-3.784-3.6667-3.784-2.1707 0-3.652 1.5253-3.652 3.784zm1.1147 0c0-1.628 1.012-2.7867 2.5373-2.7867s2.5373 1.1147 2.5373 2.7867c0 1.6573-1.012 2.7867-2.5373 2.7867s-2.5373-1.0853-2.5373-2.7867z"/>
   <path d="m83.529 142.76v7.1573h1.1293v-3.6227c0-1.7893 0.98267-2.7133 2.3613-2.7133 1.232 0 2.0093 0.63067 2.0093 2.068v4.268h1.1147v-4.3413c0-1.9213-1.2613-2.9627-2.8307-2.9627-1.4813 0-2.2 0.67467-2.5373 1.3493h-0.14667v-1.2027z"/>
   <path d="m92.047 144.61c0 1.276 1.056 1.848 2.4053 2.068l0.73333 0.10266c1.0413 0.176 1.6573 0.46934 1.6573 1.188 0 0.748-0.68933 1.2467-1.7893 1.2467s-2.0387-0.45467-2.2733-1.9213l-1.0707 0.24933c0.264 1.7747 1.5693 2.5813 3.344 2.5813 1.7453 0 2.8893-0.82133 2.8893-2.2147 0-1.408-1.1147-1.848-2.5813-2.0973l-0.73333-0.10266c-0.85067-0.14667-1.4667-0.44-1.4667-1.1293 0-0.71866 0.616-1.1147 1.5987-1.1147 0.968 0 1.6867 0.41066 1.892 1.4667l1.0413-0.27866c-0.29333-1.32-1.32-2.0973-2.9333-2.0973-1.6573 0-2.7133 0.77734-2.7133 2.0533z"/>
   <path d="m99.13 146.28c0 2.2 1.4667 3.8427 3.696 3.8427 1.9507 0 2.772-1.1 3.2267-1.9507l-0.968-0.49867c-0.38133 0.792-1.012 1.452-2.2587 1.452-1.4373 0-2.4347-0.968-2.5373-2.4347h5.8813v-0.60133c0-2.1853-1.4227-3.5347-3.4467-3.5347-2.0827 0-3.5933 1.5693-3.5933 3.7253zm1.1733-0.528c0.16133-1.3493 1.0707-2.2 2.42-2.2 1.32 0 2.2147 0.77733 2.288 2.2z"/>
   <path d="m107.5 143.45c0 0.58667 0.42534 1.012 1.012 1.012 0.572 0 1.012-0.42533 1.012-1.012s-0.44-1.012-1.012-1.012c-0.58666 0-1.012 0.42533-1.012 1.012zm0 5.6613c0 0.58667 0.42534 1.012 1.012 1.012 0.572 0 1.012-0.42533 1.012-1.012 0-0.58666-0.44-1.012-1.012-1.012-0.58666 0-1.012 0.42534-1.012 1.012z"/>
   <path d="m115.56 143.63v2.3173c0 2.7427 1.408 4.18 3.74 4.18s3.74-1.4373 3.74-4.18v-2.3173c0-2.7133-1.408-4.18-3.74-4.18s-3.74 1.4667-3.74 4.18zm1.188-0.0733c0-1.8773 0.88-3.0507 2.552-3.0507s2.552 1.1587 2.552 3.0507v2.464c0 1.8773-0.82133 3.036-2.552 3.036-1.7013 0-2.552-1.1293-2.552-3.036z"/>
   <path d="m124.57 149.11c0 0.58667 0.42533 1.012 1.012 1.012 0.572 0 1.012-0.42533 1.012-1.012 0-0.58666-0.44-1.012-1.012-1.012-0.58667 0-1.012 0.42534-1.012 1.012z"/>
   <path d="m127.93 143c0 2.068 1.4667 3.476 3.3293 3.476 1.496 0 2.244-0.71866 2.5667-1.2907h0.176v1.4373c0 1.54-0.924 2.4347-2.508 2.4347-1.5253 0-2.2733-0.85067-2.2733-2.112h-1.2027c0 1.804 1.2613 3.1827 3.476 3.1827 2.244 0 3.696-1.3933 3.696-3.608v-3.5787c0-2.112-1.5693-3.5053-3.608-3.4907-2.0827 0.0147-3.652 1.4227-3.652 3.5493zm3.6373 2.5373c-1.452 0-2.4347-1.012-2.4347-2.5373 0-1.5107 0.98267-2.4933 2.4347-2.4933 1.4373 0 2.4347 0.968 2.4347 2.4933 0 1.5253-0.98267 2.5373-2.4347 2.5373z"/>
   <path d="m136.89 139.65v5.5147h1.6867c0.24933-0.484 0.748-1.144 1.8773-1.144 1.3347 0 2.2 0.924 2.2 2.42 0 1.628-0.89467 2.6107-2.4493 2.6107-1.4813 0-2.4787-0.85067-2.4787-2.4787v-0.27867h-1.1733v0.36667c0 2.0827 1.4813 3.4613 3.6813 3.4613 2.2147 0 3.6373-1.54 3.6373-3.7107 0-2.112-1.3933-3.4027-3.124-3.4027-1.5253 0-2.1853 0.792-2.4933 1.3787h-0.176v-3.6667h5.5293v-1.0707z"/>
  </g>
  <g transform="matrix(.87082 0 0 .86263 -12.414 145.29)" fill="#666" aria-label="nn">
   <path d="m70.162 75.606-2.9102-0.68359v-10.957q0.72266-0.80078 1.7383-1.2305 1.0156-0.44922 2.1094-0.44922 1.543 0 2.4609 0.89844 0.9375 0.87891 0.9375 2.6953v9.043l-2.6953 0.80078-0.19531 1.4258h8.7695l0.19531-1.543-2.8125-0.68359v-9.8047q0-2.6367-1.2109-4.082-1.2109-1.4453-3.4961-1.4453-1.7188 0-3.2422 0.87891-1.5234 0.87891-2.6367 2.207h-0.19531l0.33203-2.5-0.33203-0.37109-5.8203 0.76172-0.19531 1.4844 3.0078 1.0156v11.855l-2.9492 0.80078-0.19531 1.4258h9.0625z" fill="#666"/>
  </g>
  <g transform="matrix(2.3267 0 0 2.34 -206.58 -9.0808)" stroke-width=".67861">
   <g stroke-width=".67861">
    <circle transform="matrix(.41301 0 0 .39915 103.44 81.895)" cx="25.23" cy="24.007" r="7.843" fill="#919191" filter="url(#filter1432-0-9-8)"/>
    <ellipse transform="matrix(.13851 0 0 .21002 108.22 85.023)" cx="27.596" cy="30.733" rx="5.5458" ry="8.3522" fill="#353535" filter="url(#filter1261-1-2-4)" stroke-width="1.0527"/>
    <ellipse transform="matrix(.13851 0 0 .21002 111.95 85.023)" cx="27.596" cy="30.733" rx="5.5458" ry="8.3522" fill="#353535" filter="url(#filter1261-6-8-0-6)" stroke-width="1.0527"/>
    <ellipse transform="matrix(.18516 0 0 .33373 108.8 81.221)" cx="27.596" cy="30.733" rx="5.5458" ry="8.3522" fill="#fff" filter="url(#filter1261-5-68-8-6)"/>
   </g>
  </g>
  <g transform="matrix(.26458 0 0 .26458 29.149 180.02)" aria-label="Response: 0.18">
   <path d="m48.913 142.66c0-1.8773-1.3933-3.0067-3.2267-3.0067h-4.1947v10.267h1.188v-4.2533h2.4053l2.2147 4.2533h1.3787l-2.3467-4.2973c1.496-0.24934 2.5813-1.32 2.5813-2.9627zm-6.2333-1.936h2.8747c1.3493 0 2.156 0.71867 2.156 1.936s-0.80667 1.936-2.156 1.936h-2.8747z"/>
   <path d="m50.031 146.28c0 2.2 1.4667 3.8427 3.696 3.8427 1.9507 0 2.772-1.1 3.2267-1.9507l-0.968-0.49867c-0.38133 0.792-1.012 1.452-2.2587 1.452-1.4373 0-2.4347-0.968-2.5373-2.4347h5.8813v-0.60133c0-2.1853-1.4227-3.5347-3.4467-3.5347-2.0827 0-3.5933 1.5693-3.5933 3.7253zm1.1733-0.528c0.16133-1.3493 1.0707-2.2 2.42-2.2 1.32 0 2.2147 0.77733 2.288 2.2z"/>
   <path d="m58.446 144.61c0 1.276 1.056 1.848 2.4053 2.068l0.73333 0.10266c1.0413 0.176 1.6573 0.46934 1.6573 1.188 0 0.748-0.68933 1.2467-1.7893 1.2467s-2.0387-0.45467-2.2733-1.9213l-1.0707 0.24933c0.264 1.7747 1.5693 2.5813 3.344 2.5813 1.7453 0 2.8893-0.82133 2.8893-2.2147 0-1.408-1.1147-1.848-2.5813-2.0973l-0.73333-0.10266c-0.85067-0.14667-1.4667-0.44-1.4667-1.1293 0-0.71866 0.616-1.1147 1.5987-1.1147 0.968 0 1.6867 0.41066 1.892 1.4667l1.0413-0.27866c-0.29333-1.32-1.32-2.0973-2.9333-2.0973-1.6573 0-2.7133 0.77734-2.7133 2.0533z"/>
   <path d="m65.998 152.85h1.1293v-4.136h0.14667c0.41067 0.704 1.188 1.408 2.6693 1.408 1.8773 0 3.388-1.4813 3.388-3.784 0-2.3173-1.5107-3.784-3.388-3.784-1.4813 0-2.2587 0.704-2.6987 1.4373h-0.14667v-1.232h-1.1zm3.6667-3.7253c-1.4813 0-2.552-1.0707-2.552-2.7867s1.0707-2.8013 2.552-2.8013c1.496 0 2.5227 1.0707 2.5227 2.8013 0 1.7307-1.0267 2.7867-2.5227 2.7867z"/>
   <path d="m74.538 146.34c0 2.244 1.4813 3.784 3.652 3.784 2.1707 0 3.6667-1.54 3.6667-3.784 0-2.2587-1.496-3.784-3.6667-3.784-2.1707 0-3.652 1.5253-3.652 3.784zm1.1147 0c0-1.628 1.012-2.7867 2.5373-2.7867s2.5373 1.1147 2.5373 2.7867c0 1.6573-1.012 2.7867-2.5373 2.7867s-2.5373-1.0853-2.5373-2.7867z"/>
   <path d="m83.529 142.76v7.1573h1.1293v-3.6227c0-1.7893 0.98267-2.7133 2.3613-2.7133 1.232 0 2.0093 0.63067 2.0093 2.068v4.268h1.1147v-4.3413c0-1.9213-1.2613-2.9627-2.8307-2.9627-1.4813 0-2.2 0.67467-2.5373 1.3493h-0.14667v-1.2027z"/>
   <path d="m92.047 144.61c0 1.276 1.056 1.848 2.4053 2.068l0.73333 0.10266c1.0413 0.176 1.6573 0.46934 1.6573 1.188 0 0.748-0.68933 1.2467-1.7893 1.2467s-2.0387-0.45467-2.2733-1.9213l-1.0707 0.24933c0.264 1.7747 1.5693 2.5813 3.344 2.5813 1.7453 0 2.8893-0.82133 2.8893-2.2147 0-1.408-1.1147-1.848-2.5813-2.0973l-0.73333-0.10266c-0.85067-0.14667-1.4667-0.44-1.4667-1.1293 0-0.71866 0.616-1.1147 1.5987-1.1147 0.968 0 1.6867 0.41066 1.892 1.4667l1.0413-0.27866c-0.29333-1.32-1.32-2.0973-2.9333-2.0973-1.6573 0-2.7133 0.77734-2.7133 2.0533z"/>
   <path d="m99.13 146.28c0 2.2 1.4667 3.8427 3.696 3.8427 1.9507 0 2.772-1.1 3.2267-1.9507l-0.968-0.49867c-0.38133 0.792-1.012 1.452-2.2587 1.452-1.4373 0-2.4347-0.968-2.5373-2.4347h5.8813v-0.60133c0-2.1853-1.4227-3.5347-3.4467-3.5347-2.0827 0-3.5933 1.5693-3.5933 3.7253zm1.1733-0.528c0.16133-1.3493 1.0707-2.2 2.42-2.2 1.32 0 2.2147 0.77733 2.288 2.2z"/>
   <path d="m107.5 143.45c0 0.58667 0.42534 1.012 1.012 1.012 0.572 0 1.012-0.42533 1.012-1.012s-0.44-1.012-1.012-1.012c-0.58666 0-1.012 0.42533-1.012 1.012zm0 5.6613c0 0.58667 0.42534 1.012 1.012 1.012 0.572 0 1.012-0.42533 1.012-1.012 0-0.58666-0.44-1.012-1.012-1.012-0.58666 0-1.012 0.42534-1.012 1.012z"/>
   <path d="m115.56 143.63v2.3173c0 2.7427 1.408 4.18 3.74 4.18s3.74-1.4373 3.74-4.18v-2.3173c0-2.7133-1.408-4.18-3.74-4.18s-3.74 1.4667-3.74 4.18zm1.188-0.0733c0-1.8773 0.88-3.0507 2.552-3.0507s2.552 1.1587 2.552 3.0507v2.464c0 1.8773-0.82133 3.036-2.552 3.036-1.7013 0-2.552-1.1293-2.552-3.036z"/>
   <path d="m124.57 149.11c0 0.58667 0.42533 1.012 1.012 1.012 0.572 0 1.012-0.42533 1.012-1.012 0-0.58666-0.44-1.012-1.012-1.012-0.58667 0-1.012 0.42534-1.012 1.012z"/>
   <path d="m130.32 139.65-2.8747 4.444h1.3347l2.0387-3.1533h0.176v8.976h1.188l0.0147-10.267z"/>
   <path d="m133.99 142.21c0 1.3493 0.98266 2.0387 1.7893 2.3173v0.176c-0.80667 0.16133-1.98 0.924-1.98 2.4933 0 1.76 1.5253 2.9333 3.7107 2.9333 2.2 0 3.7107-1.1733 3.7107-2.9333 0-1.5693-1.1587-2.332-1.98-2.4933v-0.176c0.82134-0.27867 1.804-0.968 1.804-2.3173 0-1.5987-1.3933-2.7573-3.5347-2.7573-2.1413 0-3.52 1.1587-3.52 2.7573zm1.188 0.10267c0-1.144 0.99733-1.804 2.332-1.804 1.3347 0 2.332 0.66 2.332 1.804s-0.99734 1.7893-2.332 1.7893c-1.3347 0-2.332-0.64533-2.332-1.7893zm-0.176 4.796c0-1.2613 1.012-1.9507 2.508-1.9507s2.5227 0.68934 2.5227 1.9507c0 1.276-1.0267 1.9507-2.5227 1.9507s-2.508-0.67467-2.508-1.9507z"/>
  </g>
  <g transform="matrix(.87082 0 0 .86263 17.636 145.29)" fill="#666" aria-label="nn">
   <path d="m90.865 75.606-2.9102-0.68359v-10.957q0.72266-0.80078 1.7383-1.2305 1.0156-0.44922 2.1094-0.44922 1.543 0 2.4609 0.89844 0.9375 0.87891 0.9375 2.6953v9.043l-2.6953 0.80078-0.19531 1.4258h8.7695l0.19531-1.543-2.8125-0.68359v-9.8047q0-2.6367-1.2109-4.082-1.2109-1.4453-3.4961-1.4453-1.7188 0-3.2422 0.87891-1.5234 0.87891-2.6367 2.207h-0.19531l0.33203-2.5-0.33203-0.37109-5.8203 0.76172-0.19531 1.4844 3.0078 1.0156v11.855l-2.9492 0.80078-0.19531 1.4258h9.0625z" fill="#666"/>
  </g>
  <g transform="matrix(2.3267 0 0 2.34 -176.53 -9.0808)" stroke-width=".67861">
   <g stroke-width=".67861">
    <circle transform="matrix(.41301 0 0 .39915 103.44 81.895)" cx="25.23" cy="24.007" r="7.843" fill="#919191" filter="url(#filter1432-0-9-4)"/>
    <ellipse transform="matrix(.13851 0 0 .21002 108.22 85.023)" cx="27.596" cy="30.733" rx="5.5458" ry="8.3522" fill="#353535" filter="url(#filter1261-1-2-1)" stroke-width="1.0527"/>
    <ellipse transform="matrix(.13851 0 0 .21002 111.95 85.023)" cx="27.596" cy="30.733" rx="5.5458" ry="8.3522" fill="#353535" filter="url(#filter1261-6-8-0-5)" stroke-width="1.0527"/>
    <ellipse transform="matrix(.18516 0 0 .33373 108.8 81.221)" cx="27.596" cy="30.733" rx="5.5458" ry="8.3522" fill="#fff" filter="url(#filter1261-5-68-8-41)"/>
   </g>
  </g>
  <g>
   <g transform="matrix(.26458 0 0 .26458 71.376 180.02)" aria-label="Response: 0.17">
    <path d="m48.913 142.66c0-1.8773-1.3933-3.0067-3.2267-3.0067h-4.1947v10.267h1.188v-4.2533h2.4053l2.2147 4.2533h1.3787l-2.3467-4.2973c1.496-0.24934 2.5813-1.32 2.5813-2.9627zm-6.2333-1.936h2.8747c1.3493 0 2.156 0.71867 2.156 1.936s-0.80667 1.936-2.156 1.936h-2.8747z"/>
    <path d="m50.031 146.28c0 2.2 1.4667 3.8427 3.696 3.8427 1.9507 0 2.772-1.1 3.2267-1.9507l-0.968-0.49867c-0.38133 0.792-1.012 1.452-2.2587 1.452-1.4373 0-2.4347-0.968-2.5373-2.4347h5.8813v-0.60133c0-2.1853-1.4227-3.5347-3.4467-3.5347-2.0827 0-3.5933 1.5693-3.5933 3.7253zm1.1733-0.528c0.16133-1.3493 1.0707-2.2 2.42-2.2 1.32 0 2.2147 0.77733 2.288 2.2z"/>
    <path d="m58.446 144.61c0 1.276 1.056 1.848 2.4053 2.068l0.73333 0.10266c1.0413 0.176 1.6573 0.46934 1.6573 1.188 0 0.748-0.68933 1.2467-1.7893 1.2467s-2.0387-0.45467-2.2733-1.9213l-1.0707 0.24933c0.264 1.7747 1.5693 2.5813 3.344 2.5813 1.7453 0 2.8893-0.82133 2.8893-2.2147 0-1.408-1.1147-1.848-2.5813-2.0973l-0.73333-0.10266c-0.85067-0.14667-1.4667-0.44-1.4667-1.1293 0-0.71866 0.616-1.1147 1.5987-1.1147 0.968 0 1.6867 0.41066 1.892 1.4667l1.0413-0.27866c-0.29333-1.32-1.32-2.0973-2.9333-2.0973-1.6573 0-2.7133 0.77734-2.7133 2.0533z"/>
    <path d="m65.998 152.85h1.1293v-4.136h0.14667c0.41067 0.704 1.188 1.408 2.6693 1.408 1.8773 0 3.388-1.4813 3.388-3.784 0-2.3173-1.5107-3.784-3.388-3.784-1.4813 0-2.2587 0.704-2.6987 1.4373h-0.14667v-1.232h-1.1zm3.6667-3.7253c-1.4813 0-2.552-1.0707-2.552-2.7867s1.0707-2.8013 2.552-2.8013c1.496 0 2.5227 1.0707 2.5227 2.8013 0 1.7307-1.0267 2.7867-2.5227 2.7867z"/>
    <path d="m74.538 146.34c0 2.244 1.4813 3.784 3.652 3.784 2.1707 0 3.6667-1.54 3.6667-3.784 0-2.2587-1.496-3.784-3.6667-3.784-2.1707 0-3.652 1.5253-3.652 3.784zm1.1147 0c0-1.628 1.012-2.7867 2.5373-2.7867s2.5373 1.1147 2.5373 2.7867c0 1.6573-1.012 2.7867-2.5373 2.7867s-2.5373-1.0853-2.5373-2.7867z"/>
    <path d="m83.529 142.76v7.1573h1.1293v-3.6227c0-1.7893 0.98267-2.7133 2.3613-2.7133 1.232 0 2.0093 0.63067 2.0093 2.068v4.268h1.1147v-4.3413c0-1.9213-1.2613-2.9627-2.8307-2.9627-1.4813 0-2.2 0.67467-2.5373 1.3493h-0.14667v-1.2027z"/>
    <path d="m92.047 144.61c0 1.276 1.056 1.848 2.4053 2.068l0.73333 0.10266c1.0413 0.176 1.6573 0.46934 1.6573 1.188 0 0.748-0.68933 1.2467-1.7893 1.2467s-2.0387-0.45467-2.2733-1.9213l-1.0707 0.24933c0.264 1.7747 1.5693 2.5813 3.344 2.5813 1.7453 0 2.8893-0.82133 2.8893-2.2147 0-1.408-1.1147-1.848-2.5813-2.0973l-0.73333-0.10266c-0.85067-0.14667-1.4667-0.44-1.4667-1.1293 0-0.71866 0.616-1.1147 1.5987-1.1147 0.968 0 1.6867 0.41066 1.892 1.4667l1.0413-0.27866c-0.29333-1.32-1.32-2.0973-2.9333-2.0973-1.6573 0-2.7133 0.77734-2.7133 2.0533z"/>
    <path d="m99.13 146.28c0 2.2 1.4667 3.8427 3.696 3.8427 1.9507 0 2.772-1.1 3.2267-1.9507l-0.968-0.49867c-0.38133 0.792-1.012 1.452-2.2587 1.452-1.4373 0-2.4347-0.968-2.5373-2.4347h5.8813v-0.60133c0-2.1853-1.4227-3.5347-3.4467-3.5347-2.0827 0-3.5933 1.5693-3.5933 3.7253zm1.1733-0.528c0.16133-1.3493 1.0707-2.2 2.42-2.2 1.32 0 2.2147 0.77733 2.288 2.2z"/>
    <path d="m107.5 143.45c0 0.58667 0.42534 1.012 1.012 1.012 0.572 0 1.012-0.42533 1.012-1.012s-0.44-1.012-1.012-1.012c-0.58666 0-1.012 0.42533-1.012 1.012zm0 5.6613c0 0.58667 0.42534 1.012 1.012 1.012 0.572 0 1.012-0.42533 1.012-1.012 0-0.58666-0.44-1.012-1.012-1.012-0.58666 0-1.012 0.42534-1.012 1.012z"/>
    <path d="m115.56 143.63v2.3173c0 2.7427 1.408 4.18 3.74 4.18s3.74-1.4373 3.74-4.18v-2.3173c0-2.7133-1.408-4.18-3.74-4.18s-3.74 1.4667-3.74 4.18zm1.188-0.0733c0-1.8773 0.88-3.0507 2.552-3.0507s2.552 1.1587 2.552 3.0507v2.464c0 1.8773-0.82133 3.036-2.552 3.036-1.7013 0-2.552-1.1293-2.552-3.036z"/>
    <path d="m124.57 149.11c0 0.58667 0.42533 1.012 1.012 1.012 0.572 0 1.012-0.42533 1.012-1.012 0-0.58666-0.44-1.012-1.012-1.012-0.58667 0-1.012 0.42534-1.012 1.012z"/>
    <path d="m130.32 139.65-2.8747 4.444h1.3347l2.0387-3.1533h0.176v8.976h1.188l0.0147-10.267z"/>
    <path d="m133.47 139.65v1.0853h6.1747l-4.3853 9.1813h1.3347l4.4147-9.24v-1.0267z"/>
   </g>
   <g transform="matrix(.87082 0 0 .86263 68.473 179.88)" fill="#666" aria-label="nn">
    <path d="m70.162 75.606-2.9102-0.68359v-10.957q0.72266-0.80078 1.7383-1.2305 1.0156-0.44922 2.1094-0.44922 1.543 0 2.4609 0.89844 0.9375 0.87891 0.9375 2.6953v9.043l-2.6953 0.80078-0.19531 1.4258h8.7695l0.19531-1.543-2.8125-0.68359v-9.8047q0-2.6367-1.2109-4.082-1.2109-1.4453-3.4961-1.4453-1.7188 0-3.2422 0.87891-1.5234 0.87891-2.6367 2.207h-0.19531l0.33203-2.5-0.33203-0.37109-5.8203 0.76172-0.19531 1.4844 3.0078 1.0156v11.855l-2.9492 0.80078-0.19531 1.4258h9.0625z"/>
    <path d="m90.865 75.606-2.9102-0.68359v-10.957q0.72266-0.80078 1.7383-1.2305 1.0156-0.44922 2.1094-0.44922 1.543 0 2.4609 0.89844 0.9375 0.87891 0.9375 2.6953v9.043l-2.6953 0.80078-0.19531 1.4258h8.7695l0.19531-1.543-2.8125-0.68359v-9.8047q0-2.6367-1.2109-4.082-1.2109-1.4453-3.4961-1.4453-1.7188 0-3.2422 0.87891-1.5234 0.87891-2.6367 2.207h-0.19531l0.33203-2.5-0.33203-0.37109-5.8203 0.76172-0.19531 1.4844 3.0078 1.0156v11.855l-2.9492 0.80078-0.19531 1.4258h9.0625z"/>
   </g>
   <g transform="matrix(.26458 0 0 .26458 1.0075 214.6)" aria-label="Filter">
    <path d="m41.492 139.65v10.267h1.188v-4.6053h4.8107v-1.0853h-4.8107v-3.5053h5.104v-1.0707z"/>
    <path d="m48.916 140.52c0 0.54266 0.396 0.93866 0.93867 0.93866s0.95333-0.396 0.95333-0.93866c0-0.528-0.41067-0.924-0.95333-0.924s-0.93867 0.396-0.93867 0.924zm1.5107 2.244h-1.1293v7.1573h1.1293z"/>
    <path d="m53.692 139.65h-1.1293v10.267h1.1293z"/>
    <path d="m54.919 143.7h2.2147v5.016c0 0.748 0.45467 1.2027 1.1733 1.2027h1.98v-0.93867h-1.628c-0.264 0-0.41067-0.14666-0.41067-0.44v-4.84h2.3613v-0.93866h-2.3613v-2.5667h-1.1147v2.5667h-2.2147z"/>
    <path d="m61.547 146.28c0 2.2 1.4667 3.8427 3.696 3.8427 1.9507 0 2.772-1.1 3.2267-1.9507l-0.968-0.49867c-0.38133 0.792-1.012 1.452-2.2587 1.452-1.4373 0-2.4347-0.968-2.5373-2.4347h5.8813v-0.60133c0-2.1853-1.4227-3.5347-3.4467-3.5347-2.0827 0-3.5933 1.5693-3.5933 3.7253zm1.1733-0.528c0.16133-1.3493 1.0707-2.2 2.42-2.2 1.32 0 2.2147 0.77733 2.288 2.2z"/>
    <path d="m71.309 142.76h-1.1v7.1573h1.1293v-4.4c0-1.232 0.67467-1.804 1.7307-1.804h1.1587v-0.98267h-0.98267c-0.95333 0-1.5107 0.27867-1.7893 0.968h-0.14667z"/>
   </g>
   <g transform="matrix(.26458 0 0 .26458 115.18 214.6)" aria-label="Response: 0.12">
    <path d="m48.913 142.66c0-1.8773-1.3933-3.0067-3.2267-3.0067h-4.1947v10.267h1.188v-4.2533h2.4053l2.2147 4.2533h1.3787l-2.3467-4.2973c1.496-0.24934 2.5813-1.32 2.5813-2.9627zm-6.2333-1.936h2.8747c1.3493 0 2.156 0.71867 2.156 1.936s-0.80667 1.936-2.156 1.936h-2.8747z"/>
    <path d="m50.031 146.28c0 2.2 1.4667 3.8427 3.696 3.8427 1.9507 0 2.772-1.1 3.2267-1.9507l-0.968-0.49867c-0.38133 0.792-1.012 1.452-2.2587 1.452-1.4373 0-2.4347-0.968-2.5373-2.4347h5.8813v-0.60133c0-2.1853-1.4227-3.5347-3.4467-3.5347-2.0827 0-3.5933 1.5693-3.5933 3.7253zm1.1733-0.528c0.16133-1.3493 1.0707-2.2 2.42-2.2 1.32 0 2.2147 0.77733 2.288 2.2z"/>
    <path d="m58.446 144.61c0 1.276 1.056 1.848 2.4053 2.068l0.73333 0.10266c1.0413 0.176 1.6573 0.46934 1.6573 1.188 0 0.748-0.68933 1.2467-1.7893 1.2467s-2.0387-0.45467-2.2733-1.9213l-1.0707 0.24933c0.264 1.7747 1.5693 2.5813 3.344 2.5813 1.7453 0 2.8893-0.82133 2.8893-2.2147 0-1.408-1.1147-1.848-2.5813-2.0973l-0.73333-0.10266c-0.85067-0.14667-1.4667-0.44-1.4667-1.1293 0-0.71866 0.616-1.1147 1.5987-1.1147 0.968 0 1.6867 0.41066 1.892 1.4667l1.0413-0.27866c-0.29333-1.32-1.32-2.0973-2.9333-2.0973-1.6573 0-2.7133 0.77734-2.7133 2.0533z"/>
    <path d="m65.998 152.85h1.1293v-4.136h0.14667c0.41067 0.704 1.188 1.408 2.6693 1.408 1.8773 0 3.388-1.4813 3.388-3.784 0-2.3173-1.5107-3.784-3.388-3.784-1.4813 0-2.2587 0.704-2.6987 1.4373h-0.14667v-1.232h-1.1zm3.6667-3.7253c-1.4813 0-2.552-1.0707-2.552-2.7867s1.0707-2.8013 2.552-2.8013c1.496 0 2.5227 1.0707 2.5227 2.8013 0 1.7307-1.0267 2.7867-2.5227 2.7867z"/>
    <path d="m74.538 146.34c0 2.244 1.4813 3.784 3.652 3.784 2.1707 0 3.6667-1.54 3.6667-3.784 0-2.2587-1.496-3.784-3.6667-3.784-2.1707 0-3.652 1.5253-3.652 3.784zm1.1147 0c0-1.628 1.012-2.7867 2.5373-2.7867s2.5373 1.1147 2.5373 2.7867c0 1.6573-1.012 2.7867-2.5373 2.7867s-2.5373-1.0853-2.5373-2.7867z"/>
    <path d="m83.529 142.76v7.1573h1.1293v-3.6227c0-1.7893 0.98267-2.7133 2.3613-2.7133 1.232 0 2.0093 0.63067 2.0093 2.068v4.268h1.1147v-4.3413c0-1.9213-1.2613-2.9627-2.8307-2.9627-1.4813 0-2.2 0.67467-2.5373 1.3493h-0.14667v-1.2027z"/>
    <path d="m92.047 144.61c0 1.276 1.056 1.848 2.4053 2.068l0.73333 0.10266c1.0413 0.176 1.6573 0.46934 1.6573 1.188 0 0.748-0.68933 1.2467-1.7893 1.2467s-2.0387-0.45467-2.2733-1.9213l-1.0707 0.24933c0.264 1.7747 1.5693 2.5813 3.344 2.5813 1.7453 0 2.8893-0.82133 2.8893-2.2147 0-1.408-1.1147-1.848-2.5813-2.0973l-0.73333-0.10266c-0.85067-0.14667-1.4667-0.44-1.4667-1.1293 0-0.71866 0.616-1.1147 1.5987-1.1147 0.968 0 1.6867 0.41066 1.892 1.4667l1.0413-0.27866c-0.29333-1.32-1.32-2.0973-2.9333-2.0973-1.6573 0-2.7133 0.77734-2.7133 2.0533z"/>
    <path d="m99.13 146.28c0 2.2 1.4667 3.8427 3.696 3.8427 1.9507 0 2.772-1.1 3.2267-1.9507l-0.968-0.49867c-0.38133 0.792-1.012 1.452-2.2587 1.452-1.4373 0-2.4347-0.968-2.5373-2.4347h5.8813v-0.60133c0-2.1853-1.4227-3.5347-3.4467-3.5347-2.0827 0-3.5933 1.5693-3.5933 3.7253zm1.1733-0.528c0.16133-1.3493 1.0707-2.2 2.42-2.2 1.32 0 2.2147 0.77733 2.288 2.2z"/>
    <path d="m107.5 143.45c0 0.58667 0.42534 1.012 1.012 1.012 0.572 0 1.012-0.42533 1.012-1.012s-0.44-1.012-1.012-1.012c-0.58666 0-1.012 0.42533-1.012 1.012zm0 5.6613c0 0.58667 0.42534 1.012 1.012 1.012 0.572 0 1.012-0.42533 1.012-1.012 0-0.58666-0.44-1.012-1.012-1.012-0.58666 0-1.012 0.42534-1.012 1.012z"/>
    <path d="m115.56 143.63v2.3173c0 2.7427 1.408 4.18 3.74 4.18s3.74-1.4373 3.74-4.18v-2.3173c0-2.7133-1.408-4.18-3.74-4.18s-3.74 1.4667-3.74 4.18zm1.188-0.0733c0-1.8773 0.88-3.0507 2.552-3.0507s2.552 1.1587 2.552 3.0507v2.464c0 1.8773-0.82133 3.036-2.552 3.036-1.7013 0-2.552-1.1293-2.552-3.036z"/>
    <path d="m124.57 149.11c0 0.58667 0.42533 1.012 1.012 1.012 0.572 0 1.012-0.42533 1.012-1.012 0-0.58666-0.44-1.012-1.012-1.012-0.58667 0-1.012 0.42534-1.012 1.012z"/>
    <path d="m130.32 139.65-2.8747 4.444h1.3347l2.0387-3.1533h0.176v8.976h1.188l0.0147-10.267z"/>
    <path d="m133.94 142.98v0.352h1.188v-0.29334c0-1.6573 1.056-2.5373 2.5227-2.5373 1.408 0 2.3613 0.836 2.3613 2.244 0 1.3933-1.012 2.0973-2.6987 2.5227-2.024 0.49866-3.4173 1.2907-3.4173 3.388v1.2613h7.3187v-1.0707h-6.1013v-0.308c0-1.496 0.99734-1.8627 2.772-2.332 2.0973-0.54266 3.3293-1.54 3.3293-3.4467 0-2.0093-1.5253-3.3147-3.564-3.3147-2.068 0-3.7107 1.276-3.7107 3.5347z"/>
   </g>
   <g transform="matrix(.87082 0 0 .86263 -12.414 179.88)" fill="#666" aria-label="nn">
    <path d="m70.162 75.606-2.9102-0.68359v-10.957q0.72266-0.80078 1.7383-1.2305 1.0156-0.44922 2.1094-0.44922 1.543 0 2.4609 0.89844 0.9375 0.87891 0.9375 2.6953v9.043l-2.6953 0.80078-0.19531 1.4258h8.7695l0.19531-1.543-2.8125-0.68359v-9.8047q0-2.6367-1.2109-4.082-1.2109-1.4453-3.4961-1.4453-1.7188 0-3.2422 0.87891-1.5234 0.87891-2.6367 2.207h-0.19531l0.33203-2.5-0.33203-0.37109-5.8203 0.76172-0.19531 1.4844 3.0078 1.0156v11.855l-2.9492 0.80078-0.19531 1.4258h9.0625z" fill="#666"/>
   </g>
   <g transform="matrix(.26458 0 0 .26458 29.149 214.6)" aria-label="Response: 0.83">
    <path d="m48.913 142.66c0-1.8773-1.3933-3.0067-3.2267-3.0067h-4.1947v10.267h1.188v-4.2533h2.4053l2.2147 4.2533h1.3787l-2.3467-4.2973c1.496-0.24934 2.5813-1.32 2.5813-2.9627zm-6.2333-1.936h2.8747c1.3493 0 2.156 0.71867 2.156 1.936s-0.80667 1.936-2.156 1.936h-2.8747z"/>
    <path d="m50.031 146.28c0 2.2 1.4667 3.8427 3.696 3.8427 1.9507 0 2.772-1.1 3.2267-1.9507l-0.968-0.49867c-0.38133 0.792-1.012 1.452-2.2587 1.452-1.4373 0-2.4347-0.968-2.5373-2.4347h5.8813v-0.60133c0-2.1853-1.4227-3.5347-3.4467-3.5347-2.0827 0-3.5933 1.5693-3.5933 3.7253zm1.1733-0.528c0.16133-1.3493 1.0707-2.2 2.42-2.2 1.32 0 2.2147 0.77733 2.288 2.2z"/>
    <path d="m58.446 144.61c0 1.276 1.056 1.848 2.4053 2.068l0.73333 0.10266c1.0413 0.176 1.6573 0.46934 1.6573 1.188 0 0.748-0.68933 1.2467-1.7893 1.2467s-2.0387-0.45467-2.2733-1.9213l-1.0707 0.24933c0.264 1.7747 1.5693 2.5813 3.344 2.5813 1.7453 0 2.8893-0.82133 2.8893-2.2147 0-1.408-1.1147-1.848-2.5813-2.0973l-0.73333-0.10266c-0.85067-0.14667-1.4667-0.44-1.4667-1.1293 0-0.71866 0.616-1.1147 1.5987-1.1147 0.968 0 1.6867 0.41066 1.892 1.4667l1.0413-0.27866c-0.29333-1.32-1.32-2.0973-2.9333-2.0973-1.6573 0-2.7133 0.77734-2.7133 2.0533z"/>
    <path d="m65.998 152.85h1.1293v-4.136h0.14667c0.41067 0.704 1.188 1.408 2.6693 1.408 1.8773 0 3.388-1.4813 3.388-3.784 0-2.3173-1.5107-3.784-3.388-3.784-1.4813 0-2.2587 0.704-2.6987 1.4373h-0.14667v-1.232h-1.1zm3.6667-3.7253c-1.4813 0-2.552-1.0707-2.552-2.7867s1.0707-2.8013 2.552-2.8013c1.496 0 2.5227 1.0707 2.5227 2.8013 0 1.7307-1.0267 2.7867-2.5227 2.7867z"/>
    <path d="m74.538 146.34c0 2.244 1.4813 3.784 3.652 3.784 2.1707 0 3.6667-1.54 3.6667-3.784 0-2.2587-1.496-3.784-3.6667-3.784-2.1707 0-3.652 1.5253-3.652 3.784zm1.1147 0c0-1.628 1.012-2.7867 2.5373-2.7867s2.5373 1.1147 2.5373 2.7867c0 1.6573-1.012 2.7867-2.5373 2.7867s-2.5373-1.0853-2.5373-2.7867z"/>
    <path d="m83.529 142.76v7.1573h1.1293v-3.6227c0-1.7893 0.98267-2.7133 2.3613-2.7133 1.232 0 2.0093 0.63067 2.0093 2.068v4.268h1.1147v-4.3413c0-1.9213-1.2613-2.9627-2.8307-2.9627-1.4813 0-2.2 0.67467-2.5373 1.3493h-0.14667v-1.2027z"/>
    <path d="m92.047 144.61c0 1.276 1.056 1.848 2.4053 2.068l0.73333 0.10266c1.0413 0.176 1.6573 0.46934 1.6573 1.188 0 0.748-0.68933 1.2467-1.7893 1.2467s-2.0387-0.45467-2.2733-1.9213l-1.0707 0.24933c0.264 1.7747 1.5693 2.5813 3.344 2.5813 1.7453 0 2.8893-0.82133 2.8893-2.2147 0-1.408-1.1147-1.848-2.5813-2.0973l-0.73333-0.10266c-0.85067-0.14667-1.4667-0.44-1.4667-1.1293 0-0.71866 0.616-1.1147 1.5987-1.1147 0.968 0 1.6867 0.41066 1.892 1.4667l1.0413-0.27866c-0.29333-1.32-1.32-2.0973-2.9333-2.0973-1.6573 0-2.7133 0.77734-2.7133 2.0533z"/>
    <path d="m99.13 146.28c0 2.2 1.4667 3.8427 3.696 3.8427 1.9507 0 2.772-1.1 3.2267-1.9507l-0.968-0.49867c-0.38133 0.792-1.012 1.452-2.2587 1.452-1.4373 0-2.4347-0.968-2.5373-2.4347h5.8813v-0.60133c0-2.1853-1.4227-3.5347-3.4467-3.5347-2.0827 0-3.5933 1.5693-3.5933 3.7253zm1.1733-0.528c0.16133-1.3493 1.0707-2.2 2.42-2.2 1.32 0 2.2147 0.77733 2.288 2.2z"/>
    <path d="m107.5 143.45c0 0.58667 0.42534 1.012 1.012 1.012 0.572 0 1.012-0.42533 1.012-1.012s-0.44-1.012-1.012-1.012c-0.58666 0-1.012 0.42533-1.012 1.012zm0 5.6613c0 0.58667 0.42534 1.012 1.012 1.012 0.572 0 1.012-0.42533 1.012-1.012 0-0.58666-0.44-1.012-1.012-1.012-0.58666 0-1.012 0.42534-1.012 1.012z"/>
    <path d="m115.56 143.63v2.3173c0 2.7427 1.408 4.18 3.74 4.18s3.74-1.4373 3.74-4.18v-2.3173c0-2.7133-1.408-4.18-3.74-4.18s-3.74 1.4667-3.74 4.18zm1.188-0.0733c0-1.8773 0.88-3.0507 2.552-3.0507s2.552 1.1587 2.552 3.0507v2.464c0 1.8773-0.82133 3.036-2.552 3.036-1.7013 0-2.552-1.1293-2.552-3.036z"/>
    <path d="m124.57 149.11c0 0.58667 0.42533 1.012 1.012 1.012 0.572 0 1.012-0.42533 1.012-1.012 0-0.58666-0.44-1.012-1.012-1.012-0.58667 0-1.012 0.42534-1.012 1.012z"/>
    <path d="m128.07 142.21c0 1.3493 0.98266 2.0387 1.7893 2.3173v0.176c-0.80667 0.16133-1.98 0.924-1.98 2.4933 0 1.76 1.5253 2.9333 3.7107 2.9333 2.2 0 3.7107-1.1733 3.7107-2.9333 0-1.5693-1.1587-2.332-1.98-2.4933v-0.176c0.82134-0.27867 1.804-0.968 1.804-2.3173 0-1.5987-1.3933-2.7573-3.5347-2.7573-2.1413 0-3.52 1.1587-3.52 2.7573zm1.188 0.10267c0-1.144 0.99733-1.804 2.332-1.804 1.3347 0 2.332 0.66 2.332 1.804s-0.99734 1.7893-2.332 1.7893c-1.3347 0-2.332-0.64533-2.332-1.7893zm-0.176 4.796c0-1.2613 1.012-1.9507 2.508-1.9507s2.5227 0.68934 2.5227 1.9507c0 1.276-1.0267 1.9507-2.5227 1.9507s-2.508-0.67467-2.508-1.9507z"/>
    <path d="m136.59 139.65v1.0853h5.4413l-3.3147 2.8453v1.1293h1.452c1.3053 0 2.3467 0.68934 2.3467 2.0973 0 1.2613-0.924 2.244-2.3907 2.244-1.584 0-2.5667-0.85067-2.5667-2.4347v-0.484h-1.2027v0.484c0 2.2 1.4667 3.5053 3.7693 3.5053 2.068 0 3.5787-1.3347 3.5787-3.3 0-1.936-1.364-3.0507-3.124-3.0507h-0.352v-0.16134l3.4173-2.904v-1.056z"/>
   </g>
   <g transform="matrix(.87082 0 0 .86263 17.636 179.88)" fill="#666" aria-label="nn">
    <path d="m90.865 75.606-2.9102-0.68359v-10.957q0.72266-0.80078 1.7383-1.2305 1.0156-0.44922 2.1094-0.44922 1.543 0 2.4609 0.89844 0.9375 0.87891 0.9375 2.6953v9.043l-2.6953 0.80078-0.19531 1.4258h8.7695l0.19531-1.543-2.8125-0.68359v-9.8047q0-2.6367-1.2109-4.082-1.2109-1.4453-3.4961-1.4453-1.7188 0-3.2422 0.87891-1.5234 0.87891-2.6367 2.207h-0.19531l0.33203-2.5-0.33203-0.37109-5.8203 0.76172-0.19531 1.4844 3.0078 1.0156v11.855l-2.9492 0.80078-0.19531 1.4258h9.0625z" fill="#666"/>
   </g>
   <g transform="matrix(.26458 0 0 .26458 71.376 214.6)" aria-label="Response: 0.00">
    <path d="m48.913 142.66c0-1.8773-1.3933-3.0067-3.2267-3.0067h-4.1947v10.267h1.188v-4.2533h2.4053l2.2147 4.2533h1.3787l-2.3467-4.2973c1.496-0.24934 2.5813-1.32 2.5813-2.9627zm-6.2333-1.936h2.8747c1.3493 0 2.156 0.71867 2.156 1.936s-0.80667 1.936-2.156 1.936h-2.8747z"/>
    <path d="m50.031 146.28c0 2.2 1.4667 3.8427 3.696 3.8427 1.9507 0 2.772-1.1 3.2267-1.9507l-0.968-0.49867c-0.38133 0.792-1.012 1.452-2.2587 1.452-1.4373 0-2.4347-0.968-2.5373-2.4347h5.8813v-0.60133c0-2.1853-1.4227-3.5347-3.4467-3.5347-2.0827 0-3.5933 1.5693-3.5933 3.7253zm1.1733-0.528c0.16133-1.3493 1.0707-2.2 2.42-2.2 1.32 0 2.2147 0.77733 2.288 2.2z"/>
    <path d="m58.446 144.61c0 1.276 1.056 1.848 2.4053 2.068l0.73333 0.10266c1.0413 0.176 1.6573 0.46934 1.6573 1.188 0 0.748-0.68933 1.2467-1.7893 1.2467s-2.0387-0.45467-2.2733-1.9213l-1.0707 0.24933c0.264 1.7747 1.5693 2.5813 3.344 2.5813 1.7453 0 2.8893-0.82133 2.8893-2.2147 0-1.408-1.1147-1.848-2.5813-2.0973l-0.73333-0.10266c-0.85067-0.14667-1.4667-0.44-1.4667-1.1293 0-0.71866 0.616-1.1147 1.5987-1.1147 0.968 0 1.6867 0.41066 1.892 1.4667l1.0413-0.27866c-0.29333-1.32-1.32-2.0973-2.9333-2.0973-1.6573 0-2.7133 0.77734-2.7133 2.0533z"/>
    <path d="m65.998 152.85h1.1293v-4.136h0.14667c0.41067 0.704 1.188 1.408 2.6693 1.408 1.8773 0 3.388-1.4813 3.388-3.784 0-2.3173-1.5107-3.784-3.388-3.784-1.4813 0-2.2587 0.704-2.6987 1.4373h-0.14667v-1.232h-1.1zm3.6667-3.7253c-1.4813 0-2.552-1.0707-2.552-2.7867s1.0707-2.8013 2.552-2.8013c1.496 0 2.5227 1.0707 2.5227 2.8013 0 1.7307-1.0267 2.7867-2.5227 2.7867z"/>
    <path d="m74.538 146.34c0 2.244 1.4813 3.784 3.652 3.784 2.1707 0 3.6667-1.54 3.6667-3.784 0-2.2587-1.496-3.784-3.6667-3.784-2.1707 0-3.652 1.5253-3.652 3.784zm1.1147 0c0-1.628 1.012-2.7867 2.5373-2.7867s2.5373 1.1147 2.5373 2.7867c0 1.6573-1.012 2.7867-2.5373 2.7867s-2.5373-1.0853-2.5373-2.7867z"/>
    <path d="m83.529 142.76v7.1573h1.1293v-3.6227c0-1.7893 0.98267-2.7133 2.3613-2.7133 1.232 0 2.0093 0.63067 2.0093 2.068v4.268h1.1147v-4.3413c0-1.9213-1.2613-2.9627-2.8307-2.9627-1.4813 0-2.2 0.67467-2.5373 1.3493h-0.14667v-1.2027z"/>
    <path d="m92.047 144.61c0 1.276 1.056 1.848 2.4053 2.068l0.73333 0.10266c1.0413 0.176 1.6573 0.46934 1.6573 1.188 0 0.748-0.68933 1.2467-1.7893 1.2467s-2.0387-0.45467-2.2733-1.9213l-1.0707 0.24933c0.264 1.7747 1.5693 2.5813 3.344 2.5813 1.7453 0 2.8893-0.82133 2.8893-2.2147 0-1.408-1.1147-1.848-2.5813-2.0973l-0.73333-0.10266c-0.85067-0.14667-1.4667-0.44-1.4667-1.1293 0-0.71866 0.616-1.1147 1.5987-1.1147 0.968 0 1.6867 0.41066 1.892 1.4667l1.0413-0.27866c-0.29333-1.32-1.32-2.0973-2.9333-2.0973-1.6573 0-2.7133 0.77734-2.7133 2.0533z"/>
    <path d="m99.13 146.28c0 2.2 1.4667 3.8427 3.696 3.8427 1.9507 0 2.772-1.1 3.2267-1.9507l-0.968-0.49867c-0.38133 0.792-1.012 1.452-2.2587 1.452-1.4373 0-2.4347-0.968-2.5373-2.4347h5.8813v-0.60133c0-2.1853-1.4227-3.5347-3.4467-3.5347-2.0827 0-3.5933 1.5693-3.5933 3.7253zm1.1733-0.528c0.16133-1.3493 1.0707-2.2 2.42-2.2 1.32 0 2.2147 0.77733 2.288 2.2z"/>
    <path d="m107.5 143.45c0 0.58667 0.42534 1.012 1.012 1.012 0.572 0 1.012-0.42533 1.012-1.012s-0.44-1.012-1.012-1.012c-0.58666 0-1.012 0.42533-1.012 1.012zm0 5.6613c0 0.58667 0.42534 1.012 1.012 1.012 0.572 0 1.012-0.42533 1.012-1.012 0-0.58666-0.44-1.012-1.012-1.012-0.58666 0-1.012 0.42534-1.012 1.012z"/>
    <path d="m115.56 143.63v2.3173c0 2.7427 1.408 4.18 3.74 4.18s3.74-1.4373 3.74-4.18v-2.3173c0-2.7133-1.408-4.18-3.74-4.18s-3.74 1.4667-3.74 4.18zm1.188-0.0733c0-1.8773 0.88-3.0507 2.552-3.0507s2.552 1.1587 2.552 3.0507v2.464c0 1.8773-0.82133 3.036-2.552 3.036-1.7013 0-2.552-1.1293-2.552-3.036z"/>
    <path d="m124.57 149.11c0 0.58667 0.42533 1.012 1.012 1.012 0.572 0 1.012-0.42533 1.012-1.012 0-0.58666-0.44-1.012-1.012-1.012-0.58667 0-1.012 0.42534-1.012 1.012z"/>
    <path d="m128.11 143.63v2.3173c0 2.7427 1.408 4.18 3.74 4.18s3.74-1.4373 3.74-4.18v-2.3173c0-2.7133-1.408-4.18-3.74-4.18s-3.74 1.4667-3.74 4.18zm1.188-0.0733c0-1.8773 0.88-3.0507 2.552-3.0507s2.552 1.1587 2.552 3.0507v2.464c0 1.8773-0.82134 3.036-2.552 3.036-1.7013 0-2.552-1.1293-2.552-3.036z"/>
    <path d="m137.1 143.63v2.3173c0 2.7427 1.408 4.18 3.74 4.18s3.74-1.4373 3.74-4.18v-2.3173c0-2.7133-1.408-4.18-3.74-4.18s-3.74 1.4667-3.74 4.18zm1.188-0.0733c0-1.8773 0.88-3.0507 2.552-3.0507s2.552 1.1587 2.552 3.0507v2.464c0 1.8773-0.82134 3.036-2.552 3.036-1.7013 0-2.552-1.1293-2.552-3.036z"/>
   </g>
  </g>
  <g stroke-width="1.3034">
   <g transform="matrix(1.1819 0 0 1.2336 104.2 55.036)">
    <circle transform="rotate(135 20.213 83.856)" cx="61.327" cy="32.322" r="7.843" fill="#919191" filter="url(#filter1432-1-7-7-5-1-8-2)"/>
    <ellipse transform="matrix(.56335 0 0 .71267 10.198 127.46)" cx="27.596" cy="30.733" rx="5.5458" ry="8.3522" fill="#353535" filter="url(#filter1261-5-7-7-50-3)"/>
    <ellipse transform="matrix(.56335 0 0 .71267 17.748 127.46)" cx="27.596" cy="30.733" rx="5.5458" ry="8.3522" fill="#f9f9f9" filter="url(#filter1261-5-7-7-6-1-2)"/>
   </g>
   <g transform="matrix(1.1819 0 0 1.2336 53.193 55.036)">
    <circle transform="rotate(135 20.213 83.856)" cx="61.327" cy="32.322" r="7.843" fill="#919191" filter="url(#filter1432-1-7-7-5-1-8-2-1)"/>
    <ellipse transform="matrix(.56335 0 0 .71267 10.198 127.46)" cx="27.596" cy="30.733" rx="5.5458" ry="8.3522" fill="#353535" filter="url(#filter1261-5-7-7-50-3-3)"/>
    <ellipse transform="matrix(.56335 0 0 .71267 17.748 127.46)" cx="27.596" cy="30.733" rx="5.5458" ry="8.3522" fill="#f9f9f9" filter="url(#filter1261-5-7-7-6-1-2-9)"/>
   </g>
   <g transform="matrix(1.1819 0 0 1.2336 22.108 55.036)">
    <circle transform="rotate(135 20.213 83.856)" cx="61.327" cy="32.322" r="7.843" fill="#919191" filter="url(#filter1432-1-7-7-5-1-8-2-1-2)"/>
    <ellipse transform="matrix(.56335 0 0 .71267 10.198 127.46)" cx="27.596" cy="30.733" rx="5.5458" ry="8.3522" fill="#353535" filter="url(#filter1261-5-7-7-50-3-3-0)"/>
    <ellipse transform="matrix(.56335 0 0 .71267 17.748 127.46)" cx="27.596" cy="30.733" rx="5.5458" ry="8.3522" fill="#f9f9f9" filter="url(#filter1261-5-7-7-6-1-2-9-0)"/>
   </g>
   <g transform="matrix(1.1819 0 0 1.2336 -18.175 53.433)">
    <circle transform="rotate(135 20.213 83.856)" cx="61.327" cy="32.322" r="7.843" fill="#919191" filter="url(#filter1432-1-7-7-5-1-8-2-1-2-9)"/>
    <ellipse transform="matrix(.56335 0 0 .71267 10.198 127.46)" cx="27.596" cy="30.733" rx="5.5458" ry="8.3522" fill="#353535" filter="url(#filter1261-5-7-7-50-3-3-0-1)"/>
    <ellipse transform="matrix(.56335 0 0 .71267 17.748 127.46)" cx="27.596" cy="30.733" rx="5.5458" ry="8.3522" fill="#f9f9f9" filter="url(#filter1261-5-7-7-6-1-2-9-0-4)"/>
   </g>
  </g>
  <g>
   <g transform="matrix(.87082 0 0 .86263 124.73 145.29)" fill="#666" aria-label="nn">
    <path d="m70.162 75.606-2.9102-0.68359v-10.957q0.72266-0.80078 1.7383-1.2305 1.0156-0.44922 2.1094-0.44922 1.543 0 2.4609 0.89844 0.9375 0.87891 0.9375 2.6953v9.043l-2.6953 0.80078-0.19531 1.4258h8.7695l0.19531-1.543-2.8125-0.68359v-9.8047q0-2.6367-1.2109-4.082-1.2109-1.4453-3.4961-1.4453-1.7188 0-3.2422 0.87891-1.5234 0.87891-2.6367 2.207h-0.19531l0.33203-2.5-0.33203-0.37109-5.8203 0.76172-0.19531 1.4844 3.0078 1.0156v11.855l-2.9492 0.80078-0.19531 1.4258h9.0625z"/>
    <path d="m90.865 75.606-2.9102-0.68359v-10.957q0.72266-0.80078 1.7383-1.2305 1.0156-0.44922 2.1094-0.44922 1.543 0 2.4609 0.89844 0.9375 0.87891 0.9375 2.6953v9.043l-2.6953 0.80078-0.19531 1.4258h8.7695l0.19531-1.543-2.8125-0.68359v-9.8047q0-2.6367-1.2109-4.082-1.2109-1.4453-3.4961-1.4453-1.7188 0-3.2422 0.87891-1.5234 0.87891-2.6367 2.207h-0.19531l0.33203-2.5-0.33203-0.37109-5.8203 0.76172-0.19531 1.4844 3.0078 1.0156v11.855l-2.9492 0.80078-0.19531 1.4258h9.0625z"/>
   </g>
   <g transform="matrix(.26458 0 0 .26458 175.97 180.02)" aria-label="pair gains">
    <path d="m41.477 152.85h1.1293v-4.136h0.14667c0.41067 0.704 1.188 1.408 2.6693 1.408 1.8773 0 3.388-1.4813 3.388-3.784 0-2.3173-1.5107-3.784-3.388-3.784-1.4813 0-2.2587 0.704-2.6987 1.4373h-0.14667v-1.232h-1.1zm3.6667-3.7253c-1.4813 0-2.552-1.0707-2.552-2.7867s1.0707-2.8013 2.552-2.8013c1.496 0 2.5227 1.0707 2.5227 2.8013 0 1.7307-1.0267 2.7867-2.5227 2.7867z"/>
    <path d="m50.194 144.74 1.056 0.32266c0.22-0.90933 0.88-1.5547 2.0533-1.5547 1.188 0 1.7893 0.64533 1.7893 1.672v0.528h-2.4493c-1.5253 0-2.6693 0.71866-2.6693 2.1707 0 1.4373 1.144 2.244 2.64 2.244 1.408 0 2.024-0.66 2.3467-1.232h0.16133v1.0267h1.0853v-4.6787c0-1.6867-1.0853-2.684-2.904-2.684-1.804 0-2.772 0.98267-3.1093 2.1853zm0.89467 3.124c0-0.80667 0.67467-1.232 1.5987-1.232h2.4053v0.176c0 1.4813-0.93867 2.376-2.3173 2.376-1.012 0-1.6867-0.51334-1.6867-1.32z"/>
    <path d="m57.882 140.52c0 0.54266 0.396 0.93866 0.93867 0.93866s0.95333-0.396 0.95333-0.93866c0-0.528-0.41067-0.924-0.95333-0.924s-0.93867 0.396-0.93867 0.924zm1.5107 2.244h-1.1293v7.1573h1.1293z"/>
    <path d="m62.629 142.76h-1.1v7.1573h1.1293v-4.4c0-1.232 0.67467-1.804 1.7307-1.804h1.1587v-0.98267h-0.98267c-0.95333 0-1.5107 0.27867-1.7893 0.968h-0.14667z"/>
    <path d="m77.19 142.76v1.232h-0.14667c-0.44-0.73334-1.232-1.4373-2.7133-1.4373-1.8773 0-3.3733 1.452-3.3733 3.696 0 2.2587 1.496 3.7107 3.3733 3.7107 1.4813 0 2.2733-0.71867 2.684-1.3933h0.14667v0.924c0 1.7013-0.99733 2.5813-2.508 2.5813-1.5107 0-2.244-0.88-2.508-1.7453l-1.0267 0.396c0.33733 1.0413 1.408 2.332 3.5493 2.332 2.1707 0 3.6227-1.2907 3.6227-3.5053v-6.7907zm-2.5813 6.204c-1.4813 0-2.508-1.0267-2.508-2.7133 0-1.672 1.0267-2.7133 2.508-2.7133 1.496 0 2.5667 1.0707 2.5667 2.7133 0 1.6573-1.0707 2.7133-2.5667 2.7133z"/>
    <path d="m80.187 144.74 1.056 0.32266c0.22-0.90933 0.88-1.5547 2.0533-1.5547 1.188 0 1.7893 0.64533 1.7893 1.672v0.528h-2.4493c-1.5253 0-2.6693 0.71866-2.6693 2.1707 0 1.4373 1.144 2.244 2.64 2.244 1.408 0 2.024-0.66 2.3467-1.232h0.16133v1.0267h1.0853v-4.6787c0-1.6867-1.0853-2.684-2.904-2.684-1.804 0-2.772 0.98267-3.1093 2.1853zm0.89467 3.124c0-0.80667 0.67467-1.232 1.5987-1.232h2.4053v0.176c0 1.4813-0.93867 2.376-2.3173 2.376-1.012 0-1.6867-0.51334-1.6867-1.32z"/>
    <path d="m87.874 140.52c0 0.54266 0.396 0.93866 0.93867 0.93866 0.54267 0 0.95333-0.396 0.95333-0.93866 0-0.528-0.41067-0.924-0.95333-0.924-0.54267 0-0.93867 0.396-0.93867 0.924zm1.5107 2.244h-1.1293v7.1573h1.1293z"/>
    <path d="m91.521 142.76v7.1573h1.1293v-3.6227c0-1.7893 0.98267-2.7133 2.3613-2.7133 1.232 0 2.0093 0.63067 2.0093 2.068v4.268h1.1147v-4.3413c0-1.9213-1.2613-2.9627-2.8307-2.9627-1.4813 0-2.2 0.67467-2.5373 1.3493h-0.14667v-1.2027z"/>
    <path d="m100.04 144.61c0 1.276 1.056 1.848 2.4053 2.068l0.73334 0.10266c1.0413 0.176 1.6573 0.46934 1.6573 1.188 0 0.748-0.68933 1.2467-1.7893 1.2467s-2.0387-0.45467-2.2733-1.9213l-1.0707 0.24933c0.264 1.7747 1.5693 2.5813 3.344 2.5813 1.7453 0 2.8893-0.82133 2.8893-2.2147 0-1.408-1.1147-1.848-2.5813-2.0973l-0.73334-0.10266c-0.85066-0.14667-1.4667-0.44-1.4667-1.1293 0-0.71866 0.616-1.1147 1.5987-1.1147 0.968 0 1.6867 0.41066 1.892 1.4667l1.0413-0.27866c-0.29334-1.32-1.32-2.0973-2.9333-2.0973-1.6573 0-2.7133 0.77734-2.7133 2.0533z"/>
   </g>
   <path d="m194.35 198.61c-0.3751-0.41277-0.3775-0.72991-0.67195-1.0645-0.11906 0.41711-0.47247 0.37798-0.18899 1.1339s0.66146 1.6064 0.75595 2.5986c0.0945 0.99219-0.0945 6.8508-0.14174 7.3705-0.0472 0.51972 0.59016 0.64075 0.77391 1.0751 0.13363 0.26727 0.28015 1.2063 0.27597 1.3567-4e-3 0.15034 0.0919 0.30903 0.16287 0.1921 0.071-0.11693 0.0919-0.46772 0.0961-0.59301 4e-3 -0.12528 0.0209-0.38837 0.1044-0.55959s0.36332-0.55124 0.4552-0.70576c0.0919-0.15451 0.4176-0.81016 0.4176-1.2445 0-0.43432 0.0668-7.2497 0.0835-7.6506 0.0167-0.40091-1.5284-1.2862-1.7456-1.4199-0.21716-0.13363-0.37721-0.4891-0.37721-0.4891z" fill="#75afd1" filter="url(#filter3536)"/>
   <g transform="matrix(.87082 0 0 .86263 124.73 179.88)" fill="#666" aria-label="nn">
    <path d="m70.162 75.606-2.9102-0.68359v-10.957q0.72266-0.80078 1.7383-1.2305 1.0156-0.44922 2.1094-0.44922 1.543 0 2.4609 0.89844 0.9375 0.87891 0.9375 2.6953v9.043l-2.6953 0.80078-0.19531 1.4258h8.7695l0.19531-1.543-2.8125-0.68359v-9.8047q0-2.6367-1.2109-4.082-1.2109-1.4453-3.4961-1.4453-1.7188 0-3.2422 0.87891-1.5234 0.87891-2.6367 2.207h-0.19531l0.33203-2.5-0.33203-0.37109-5.8203 0.76172-0.19531 1.4844 3.0078 1.0156v11.855l-2.9492 0.80078-0.19531 1.4258h9.0625z"/>
    <path d="m90.865 75.606-2.9102-0.68359v-10.957q0.72266-0.80078 1.7383-1.2305 1.0156-0.44922 2.1094-0.44922 1.543 0 2.4609 0.89844 0.9375 0.87891 0.9375 2.6953v9.043l-2.6953 0.80078-0.19531 1.4258h8.7695l0.19531-1.543-2.8125-0.68359v-9.8047q0-2.6367-1.2109-4.082-1.2109-1.4453-3.4961-1.4453-1.7188 0-3.2422 0.87891-1.5234 0.87891-2.6367 2.207h-0.19531l0.33203-2.5-0.33203-0.37109-5.8203 0.76172-0.19531 1.4844 3.0078 1.0156v11.855l-2.9492 0.80078-0.19531 1.4258h9.0625z"/>
   </g>
   <g transform="matrix(.26458 0 0 .26458 175.61 214.61)" aria-label="pair losses">
    <path d="m41.477 152.85h1.1293v-4.136h0.14667c0.41067 0.704 1.188 1.408 2.6693 1.408 1.8773 0 3.388-1.4813 3.388-3.784 0-2.3173-1.5107-3.784-3.388-3.784-1.4813 0-2.2587 0.704-2.6987 1.4373h-0.14667v-1.232h-1.1zm3.6667-3.7253c-1.4813 0-2.552-1.0707-2.552-2.7867s1.0707-2.8013 2.552-2.8013c1.496 0 2.5227 1.0707 2.5227 2.8013 0 1.7307-1.0267 2.7867-2.5227 2.7867z"/>
    <path d="m50.194 144.74 1.056 0.32266c0.22-0.90933 0.88-1.5547 2.0533-1.5547 1.188 0 1.7893 0.64533 1.7893 1.672v0.528h-2.4493c-1.5253 0-2.6693 0.71866-2.6693 2.1707 0 1.4373 1.144 2.244 2.64 2.244 1.408 0 2.024-0.66 2.3467-1.232h0.16133v1.0267h1.0853v-4.6787c0-1.6867-1.0853-2.684-2.904-2.684-1.804 0-2.772 0.98267-3.1093 2.1853zm0.89467 3.124c0-0.80667 0.67467-1.232 1.5987-1.232h2.4053v0.176c0 1.4813-0.93867 2.376-2.3173 2.376-1.012 0-1.6867-0.51334-1.6867-1.32z"/>
    <path d="m57.882 140.52c0 0.54266 0.396 0.93866 0.93867 0.93866s0.95333-0.396 0.95333-0.93866c0-0.528-0.41067-0.924-0.95333-0.924s-0.93867 0.396-0.93867 0.924zm1.5107 2.244h-1.1293v7.1573h1.1293z"/>
    <path d="m62.629 142.76h-1.1v7.1573h1.1293v-4.4c0-1.232 0.67467-1.804 1.7307-1.804h1.1587v-0.98267h-0.98267c-0.95333 0-1.5107 0.27867-1.7893 0.968h-0.14667z"/>
    <path d="m72.541 139.65h-1.1293v10.267h1.1293z"/>
    <path d="m74.223 146.34c0 2.244 1.4813 3.784 3.652 3.784 2.1707 0 3.6667-1.54 3.6667-3.784 0-2.2587-1.496-3.784-3.6667-3.784-2.1707 0-3.652 1.5253-3.652 3.784zm1.1147 0c0-1.628 1.012-2.7867 2.5373-2.7867 1.5253 0 2.5373 1.1147 2.5373 2.7867 0 1.6573-1.012 2.7867-2.5373 2.7867-1.5253 0-2.5373-1.0853-2.5373-2.7867z"/>
    <path d="m82.967 144.61c0 1.276 1.056 1.848 2.4053 2.068l0.73333 0.10266c1.0413 0.176 1.6573 0.46934 1.6573 1.188 0 0.748-0.68933 1.2467-1.7893 1.2467s-2.0387-0.45467-2.2733-1.9213l-1.0707 0.24933c0.264 1.7747 1.5693 2.5813 3.344 2.5813 1.7453 0 2.8893-0.82133 2.8893-2.2147 0-1.408-1.1147-1.848-2.5813-2.0973l-0.73333-0.10266c-0.85067-0.14667-1.4667-0.44-1.4667-1.1293 0-0.71866 0.616-1.1147 1.5987-1.1147 0.968 0 1.6867 0.41066 1.892 1.4667l1.0413-0.27866c-0.29333-1.32-1.32-2.0973-2.9333-2.0973-1.6573 0-2.7133 0.77734-2.7133 2.0533z"/>
    <path d="m90.185 144.61c0 1.276 1.056 1.848 2.4053 2.068l0.73333 0.10266c1.0413 0.176 1.6573 0.46934 1.6573 1.188 0 0.748-0.68933 1.2467-1.7893 1.2467s-2.0387-0.45467-2.2733-1.9213l-1.0707 0.24933c0.264 1.7747 1.5693 2.5813 3.344 2.5813 1.7453 0 2.8893-0.82133 2.8893-2.2147 0-1.408-1.1147-1.848-2.5813-2.0973l-0.73333-0.10266c-0.85067-0.14667-1.4667-0.44-1.4667-1.1293 0-0.71866 0.616-1.1147 1.5987-1.1147 0.968 0 1.6867 0.41066 1.892 1.4667l1.0413-0.27866c-0.29333-1.32-1.32-2.0973-2.9333-2.0973-1.6573 0-2.7133 0.77734-2.7133 2.0533z"/>
    <path d="m97.268 146.28c0 2.2 1.4667 3.8427 3.696 3.8427 1.9507 0 2.772-1.1 3.2267-1.9507l-0.968-0.49867c-0.38133 0.792-1.012 1.452-2.2587 1.452-1.4373 0-2.4347-0.968-2.5373-2.4347h5.8813v-0.60133c0-2.1853-1.4227-3.5347-3.4467-3.5347-2.0827 0-3.5933 1.5693-3.5933 3.7253zm1.1733-0.528c0.16133-1.3493 1.0707-2.2 2.42-2.2 1.32 0 2.2147 0.77733 2.288 2.2z"/>
    <path d="m105.68 144.61c0 1.276 1.056 1.848 2.4053 2.068l0.73334 0.10266c1.0413 0.176 1.6573 0.46934 1.6573 1.188 0 0.748-0.68933 1.2467-1.7893 1.2467s-2.0387-0.45467-2.2733-1.9213l-1.0707 0.24933c0.264 1.7747 1.5693 2.5813 3.344 2.5813 1.7453 0 2.8893-0.82133 2.8893-2.2147 0-1.408-1.1147-1.848-2.5813-2.0973l-0.73334-0.10266c-0.85066-0.14667-1.4667-0.44-1.4667-1.1293 0-0.71866 0.616-1.1147 1.5987-1.1147 0.968 0 1.6867 0.41066 1.892 1.4667l1.0413-0.27866c-0.29334-1.32-1.32-2.0973-2.9333-2.0973-1.6573 0-2.7133 0.77734-2.7133 2.0533z"/>
   </g>
   <path d="m191.34 234.59c-0.16705-0.93544-1.1466-2.9317-1.1466-2.9317s2.0331 1.7078 2.5993 2.4473c0.43431 0.80181 0.3842 10.497 0.3842 10.497l1.2158 0.50405-0.17008 1.331-0.77407 0.16113-0.75314-0.94681-1.4557-1.0494s0.13363-8.8432 0.10023-10.013z" fill="#e35f59" filter="url(#filter3772)" style="paint-order:normal"/>
   <path transform="matrix(-1 0 0 1 391.04 1.6036)" d="m191.61 232.98c-0.16705-0.93544 3.7478-2.4306 3.7478-2.4306s-0.68973 1.0563-2.295 2.3137c0.43431 0.80181 0.3842 10.129 0.3842 10.129l1.6925 0.60514 0.17008 1.2299-1.5909 0.16113-0.75314-0.94681-1.4557-1.0494s0.13363-8.8432 0.10023-10.013z" fill="#e35f59" filter="url(#filter3776)" style="paint-order:normal"/>
  </g>
  <path d="m167.44 194.77v60.136" fill="none" stroke="#999" stroke-width=".52917"/>
 </g>
</svg>
